<svg width="20" height="20" viewBox="0 0 20 20" fill="none" xmlns="http://www.w3.org/2000/svg">
<g clip-path="url(#clip0_4122_84138)">
<path d="M12.8577 10.8591C12.8926 10.7202 13.0176 10.6229 13.1607 10.6229H13.8137H13.9804V10.4562V9.8621V9.69543H13.8137H13.1607C13.0176 9.69543 12.8926 9.59808 12.8577 9.45923C12.7954 9.21204 12.6961 8.97049 12.5624 8.74115C12.4908 8.61847 12.511 8.46313 12.6114 8.36273L13.0717 7.90243L13.1895 7.78458L12.8577 10.8591ZM12.8577 10.8591C12.7954 11.1063 12.6961 11.3478 12.5624 11.5771L12.8577 10.8591ZM6.58126 7.68378L6.58129 7.6838L6.58361 7.68148L7.68148 6.58361C7.70885 6.55624 7.74597 6.54087 7.78458 6.54087C7.82318 6.54087 7.86029 6.55624 7.88766 6.5836C7.88766 6.5836 7.88767 6.58361 7.88767 6.58361L8.52258 7.21867L8.60713 7.30324L8.71433 7.25022C8.84788 7.18417 8.98444 7.12802 9.12329 7.08159L9.2371 7.04353V6.92352V6.02539C9.2371 5.94486 9.30241 5.87956 9.38293 5.87956H10.9354C11.0159 5.87956 11.0812 5.94486 11.0812 6.02539V6.92352V7.04353L11.195 7.08159C11.3339 7.12802 11.4704 7.18417 11.604 7.25022L11.7112 7.30324L11.7957 7.21867L12.4306 6.58361C12.4827 6.53151 12.5847 6.53151 12.6368 6.58361L13.7345 7.68147L13.7345 7.68148C13.7915 7.73846 13.7915 7.83069 13.7345 7.88767L13.0996 8.52259L13.0151 8.60714L13.0681 8.71433C13.1341 8.84788 13.1903 8.98444 13.2367 9.12329L13.2748 9.2371H13.3948H14.2929C14.3734 9.2371 14.4387 9.30241 14.4387 9.38293V10.9354C14.4387 11.0159 14.3734 11.0812 14.2929 11.0812H13.3948H13.2748L13.2367 11.195C13.1903 11.3339 13.1341 11.4704 13.0681 11.604L13.0151 11.7112L13.0996 11.7957L13.7345 12.4306C13.7915 12.4876 13.7915 12.5798 13.7345 12.6368L12.6368 13.7345C12.5798 13.7915 12.4876 13.7915 12.4306 13.7345L11.7957 13.0996L11.7112 13.0151L11.604 13.0681C11.4704 13.1341 11.3339 13.1903 11.195 13.2367L11.0812 13.2748V13.3948V14.2929C11.0812 14.3734 11.0159 14.4387 10.9354 14.4387H9.38293C9.30241 14.4387 9.2371 14.3734 9.2371 14.2929V13.3948V13.2748L9.12329 13.2367C8.98444 13.1903 8.84788 13.1341 8.71433 13.0681L8.60714 13.0151L8.52259 13.0996L7.88767 13.7345C7.83069 13.7915 7.73846 13.7915 7.68148 13.7345L7.68147 13.7345L6.58361 12.6368L6.58363 12.6368L6.58125 12.6345C6.52844 12.5837 6.5284 12.4838 6.58129 12.4329L6.58131 12.4329L6.5836 12.4306L7.21867 11.7957L7.30324 11.7112L7.25022 11.604C7.18417 11.4704 7.12802 11.3339 7.08159 11.195L7.04353 11.0812H6.92352H6.02539C5.94486 11.0812 5.87956 11.0159 5.87956 10.9354V9.38293C5.87956 9.30241 5.94486 9.2371 6.02539 9.2371H6.92352H7.04353L7.08159 9.12329C7.12802 8.98444 7.18417 8.84788 7.25022 8.71433L7.30324 8.60713L7.21867 8.52258L6.5836 7.88766L6.58362 7.88764L6.58126 7.88536C6.52842 7.83458 6.52841 7.73459 6.58126 7.68378ZM8.48076 7.58924L8.4806 7.58907L7.90244 7.01077L7.78459 6.89288L7.66673 7.01075L7.01075 7.66673L6.89288 7.78459L7.01077 7.90244L7.58907 8.4806L7.58915 8.48067C7.63588 8.52734 7.64536 8.59986 7.61193 8.65717L7.6119 8.65722C7.47069 8.8995 7.36524 9.15554 7.29901 9.41852L7.299 9.41856C7.28271 9.4833 7.22437 9.52877 7.15759 9.52877H6.33789H6.17122V9.69543V10.6229V10.7895H6.33789H7.15759C7.22437 10.7895 7.28271 10.835 7.299 10.8997L7.29901 10.8998C7.36524 11.1628 7.47069 11.4188 7.6119 11.6611L7.61193 11.6611C7.64536 11.7184 7.63588 11.791 7.58915 11.8376L7.58906 11.8377L7.0109 12.4159L6.89305 12.5337L7.0109 12.6516L7.66673 13.3074L7.78458 13.4252L7.90243 13.3074L8.48058 12.7292L8.48076 12.7291C8.52741 12.6823 8.5998 12.6728 8.65704 12.7063L8.65722 12.7064C8.8995 12.8476 9.15554 12.9531 9.41852 13.0193L9.41856 13.0193C9.4833 13.0356 9.52877 13.0939 9.52877 13.1607V13.9804V14.1471H9.69543H10.6229H10.7895V13.9804V13.1607C10.7895 13.0939 10.835 13.0356 10.8997 13.0193L10.8998 13.0193C11.1628 12.9531 11.4188 12.8476 11.6611 12.7064L11.6617 12.7061C11.7184 12.6727 11.7906 12.6819 11.8374 12.729L11.8377 12.7292L12.4159 13.3074L12.5337 13.4252L12.6516 13.3074L13.3074 12.6516L13.4252 12.5337L13.3074 12.4159L12.7292 11.8377C12.6823 11.7908 12.673 11.7184 12.7064 11.6611L12.7064 11.6611C12.8476 11.4188 12.9531 11.1628 13.0193 10.8998L13.0193 10.8997C13.0356 10.835 13.0939 10.7895 13.1607 10.7895H13.9804H14.1471V10.6229V9.69543V9.52877H13.9804H13.1607C13.0939 9.52877 13.0356 9.4833 13.0193 9.41856L13.0193 9.41852C12.9531 9.15554 12.8476 8.8995 12.7064 8.65722L12.7064 8.65717C12.673 8.59992 12.6823 8.52747 12.7292 8.48058L13.3074 7.90243L13.4252 7.78458L13.3074 7.66673L12.6516 7.0109L12.5337 6.89306L12.4159 7.01089C12.3017 7.12508 12.2095 7.21962 12.1327 7.2985C12.0414 7.39218 11.9716 7.46378 11.9119 7.52C11.7993 7.62602 11.7697 7.6283 11.7612 7.6287C11.7542 7.62902 11.7383 7.62801 11.7009 7.61459C11.6627 7.60091 11.6167 7.57996 11.548 7.54869L11.5445 7.5471C11.4063 7.48421 11.2096 7.39553 10.9088 7.30155L10.9089 7.3013L10.8997 7.299C10.835 7.28271 10.7895 7.22437 10.7895 7.15759V6.33789V6.17122H10.6229H9.69543H9.52877V6.33789V7.15759C9.52877 7.22437 9.4833 7.28271 9.41856 7.299L9.41852 7.29901C9.15554 7.36524 8.8995 7.47069 8.65722 7.6119L8.65719 7.61191C8.59964 7.64548 8.52716 7.63577 8.48076 7.58924Z" fill="#FCFCFC" stroke="#FCFCFC" stroke-width="0.333333"/>
<path d="M10.159 12.3795C11.3834 12.3795 12.3795 11.3834 12.3795 10.159C12.2752 7.2202 8.04238 7.22095 7.93855 10.159C7.93855 11.3834 8.93464 12.3795 10.159 12.3795ZM10.159 8.56354C12.2675 8.63066 12.267 11.6876 10.159 11.7545C8.05054 11.6873 8.05104 8.63034 10.159 8.56354ZM7.60972 4.11728C7.60972 2.19162 6.04295 0.625 4.11729 0.625C-0.515764 0.816819 -0.514263 7.41854 4.11732 7.60972C6.04295 7.60971 7.60972 6.04294 7.60972 4.11728ZM1.25001 4.11728C1.25001 2.53632 2.53633 1.25 4.11729 1.25C7.9203 1.40471 7.91905 6.83062 4.11727 6.98472C2.53633 6.98471 1.25001 5.69839 1.25001 4.11728Z" fill="#FCFCFC"/>
<path d="M4.43014 4.1171V2.2093C4.42837 1.80085 3.80691 1.8005 3.80515 2.20931L3.80514 3.98771L2.94287 4.85013C2.65527 5.14024 3.09454 5.57985 3.38478 5.29201L4.33859 4.33805C4.39719 4.27945 4.43014 4.19996 4.43014 4.1171ZM16.8522 13.0973C19.299 7.63302 14.2377 1.59877 8.43122 3.05699C8.26376 3.09812 8.16122 3.26734 8.20242 3.43503C8.24362 3.60258 8.41284 3.70435 8.58054 3.66392C9.0885 3.5391 9.61981 3.47577 10.1594 3.47577C14.9806 3.39768 18.3346 8.71334 16.1943 13.0264C14.4494 13.0302 13.0307 14.4489 13.027 16.1937C8.71228 18.3336 3.39898 14.9803 3.47638 10.1587C3.47632 9.61927 3.53964 9.08796 3.66446 8.57999C3.70566 8.4123 3.60312 8.24308 3.43558 8.20188C3.26758 8.1616 3.09882 8.26322 3.05746 8.43076C2.92075 8.98756 2.85132 9.56907 2.85132 10.1588C2.77154 15.342 8.39096 19.0032 13.0974 16.8518C13.3992 18.297 14.6833 19.3748 16.2011 19.3748C20.0182 19.2697 20.5443 13.967 16.8522 13.0973ZM16.2011 18.7498C14.7994 18.7546 13.6438 17.5956 13.6516 16.2005C13.7798 12.8238 18.6222 12.8226 18.7504 16.2006C18.7504 17.6062 17.6067 18.7498 16.2011 18.7498Z" fill="#FCFCFC"/>
<path d="M17.9178 15.8883H16.2008C15.9309 15.8795 15.7823 16.2371 15.9798 16.4218L17.1245 17.5665C17.1856 17.6275 17.2655 17.6581 17.3455 17.6581C17.6125 17.6673 17.7659 17.3104 17.5664 17.1246L16.9552 16.5133H17.9178C18.3265 16.5116 18.3265 15.8901 17.9178 15.8883Z" fill="#FCFCFC"/>
</g>
<defs>
<clipPath id="clip0_4122_84138">
<rect width="20" height="20" fill="white"/>
</clipPath>
</defs>
</svg>
