<svg width="20" height="20" viewBox="0 0 20 20" fill="none" xmlns="http://www.w3.org/2000/svg">
<path d="M4.02104 17.8218H4.13303V17.7098V17.1129V17.0009H4.02104H3.4258H3.31382V17.1129V17.7098V17.8218H3.4258H4.02104ZM3.28971 16.76C3.41808 16.674 3.56897 16.6281 3.7233 16.6281C3.93026 16.6283 4.12875 16.7108 4.27518 16.8577C4.42163 17.0045 4.50407 17.2037 4.5043 17.4115L4.61628 17.4114H4.5043C4.5043 17.5663 4.45846 17.7178 4.37262 17.8467C4.28678 17.9755 4.1648 18.0758 4.02215 18.1351C3.8795 18.1943 3.72255 18.2098 3.57114 18.1796C3.41972 18.1494 3.2806 18.0749 3.17137 17.9653C3.06214 17.8558 2.98772 17.7162 2.95757 17.5642C2.92741 17.4122 2.94289 17.2547 3.00203 17.1115C3.06117 16.9683 3.1613 16.846 3.28971 16.76ZM10.383 10.0627H11.6472V12.5245H10.383V10.0627Z" fill="#FBFBFB" stroke="#FCFCFC" stroke-width="0.223966"/>
<path d="M18.0097 9.95068H12.3549V13.2334H9.67634V9.95068H7.89062C7.81172 9.95078 7.73608 9.98226 7.68029 10.0382C7.62449 10.0941 7.5931 10.17 7.59301 10.2491V16.5161H6.40253V9.95068H5.80729V11.1444H4.56574C4.52664 11.1443 4.4879 11.152 4.45178 11.167C4.41565 11.182 4.38286 11.204 4.35528 11.2318L2.0615 13.5318H5.80729V14.1287H1.64062V16.8145C1.64072 16.8936 1.67211 16.9695 1.7279 17.0254C1.7837 17.0814 1.85934 17.1128 1.93824 17.1129H2.26581C2.33444 16.7759 2.51706 16.4731 2.78276 16.2556C3.04847 16.038 3.38095 15.9192 3.72396 15.9192C4.06697 15.9192 4.39945 16.038 4.66515 16.2556C4.93086 16.4731 5.11347 16.7759 5.18211 17.1129H14.4682C14.5368 16.7759 14.7194 16.4731 14.9851 16.2556C15.2508 16.038 15.5833 15.9192 15.9263 15.9192C16.2693 15.9192 16.6018 16.038 16.8675 16.2556C17.1332 16.4731 17.3159 16.7759 17.3845 17.1129H18.0097C18.0886 17.1128 18.1642 17.0814 18.22 17.0254C18.2758 16.9695 18.3072 16.8936 18.3073 16.8145V10.2491C18.3072 10.17 18.2758 10.0941 18.22 10.0382C18.1642 9.98226 18.0886 9.95078 18.0097 9.95068ZM5.21205 15.3224H4.3192V14.7255H5.21205V15.3224Z" fill="#FBFBFB"/>
<path d="M15.9263 16.5167C15.7497 16.5167 15.5771 16.5692 15.4303 16.6676C15.2835 16.766 15.169 16.9058 15.1014 17.0694C15.0339 17.233 15.0162 17.413 15.0506 17.5867C15.0851 17.7603 15.1701 17.9199 15.295 18.0451C15.4199 18.1703 15.579 18.2555 15.7522 18.2901C15.9253 18.3246 16.1049 18.3069 16.268 18.2391C16.4312 18.1714 16.5706 18.0566 16.6687 17.9094C16.7668 17.7622 16.8192 17.5891 16.8192 17.412C16.8189 17.1746 16.7248 16.9471 16.5574 16.7792C16.39 16.6114 16.1631 16.517 15.9263 16.5167ZM16.224 17.7104H15.6287V17.1136H16.224V17.7104ZM3.12872 5.77335C3.12899 6.01072 3.22314 6.23828 3.39053 6.40612C3.55791 6.57396 3.78486 6.66837 4.02158 6.66864H7.89062C7.96953 6.66873 8.04517 6.70021 8.10096 6.75615C8.15676 6.8121 8.18815 6.88795 8.18824 6.96706V8.75763H8.78348V6.96706C8.78322 6.7297 8.68906 6.50214 8.52168 6.3343C8.35429 6.16646 8.12734 6.07205 7.89062 6.07178H4.02158C3.94267 6.07168 3.86703 6.04021 3.81124 5.98427C3.75544 5.92832 3.72406 5.85247 3.72396 5.77335V4.87807H5.21205V2.66386L3.42634 1.64062L1.64062 2.66386V4.87807H3.12872V5.77335ZM2.8311 3.08751V2.49066H4.02158V3.08751H2.8311ZM9.67634 8.75763H10.2716V4.87807H11.7597V2.66386L9.97396 1.64062L8.18824 2.66386V4.87807H9.67634V8.75763ZM9.37872 3.08751V2.49066H10.5692V3.08751H9.37872ZM16.5216 1.64066L14.7359 2.66386V4.87807H16.224V5.77335C16.2239 5.85247 16.1925 5.92832 16.1367 5.98427C16.0809 6.04021 16.0052 6.07168 15.9263 6.07178H12.0573C11.8206 6.07205 11.5936 6.16646 11.4262 6.3343C11.2589 6.50214 11.1647 6.7297 11.1644 6.96706V8.75763H11.7597V6.96706C11.7598 6.88795 11.7912 6.8121 11.847 6.75615C11.9027 6.70021 11.9784 6.66873 12.0573 6.66864H15.9263C16.1631 6.66837 16.39 6.57396 16.5574 6.40612C16.7248 6.23828 16.8189 6.01072 16.8192 5.77335V4.87807H18.3073V2.66386L16.5216 1.64066ZM17.1168 3.08751H15.9263V2.49066H17.1168V3.08751Z" fill="#FBFBFB"/>
</svg>
