<svg width="20" height="20" viewBox="0 0 20 20" fill="none" xmlns="http://www.w3.org/2000/svg">
<path d="M7.71153 6.62113C8.09224 6.59838 8.44798 6.43566 8.70135 6.16835C8.95472 5.90105 9.08523 5.55078 9.06449 5.19374C9.08523 4.83668 8.95473 4.48638 8.70137 4.21904C8.448 3.95169 8.09227 3.78891 7.71153 3.76611C7.33082 3.78892 6.97512 3.95171 6.7218 4.21906C6.46848 4.48642 6.33803 4.83671 6.35883 5.19374C6.33804 5.55075 6.46849 5.90101 6.72182 6.16833C6.97515 6.43564 7.33085 6.59837 7.71153 6.62113ZM7.71153 4.27735C7.94729 4.30071 8.16388 4.40974 8.31485 4.58106C8.46582 4.75238 8.53912 4.97234 8.51905 5.19374C8.53913 5.41512 8.46581 5.63505 8.31484 5.80634C8.16386 5.97762 7.94727 6.0866 7.71153 6.10989C7.47584 6.08654 7.25931 5.97754 7.10839 5.80626C6.95747 5.63498 6.88419 5.41508 6.90427 5.19374C6.88418 4.97238 6.95746 4.75245 7.10837 4.58113C7.25928 4.40981 7.47582 4.30076 7.71153 4.27735ZM14.0023 10.6763C14.2946 10.6602 14.5682 10.5364 14.7636 10.332C14.959 10.1276 15.0603 9.85908 15.0455 9.58497C15.0603 9.31084 14.959 9.0423 14.7636 8.83784C14.5683 8.63338 14.2946 8.50956 14.0023 8.49334C13.7099 8.50956 13.4362 8.63338 13.2409 8.83784C13.0455 9.0423 12.9442 9.31084 12.959 9.58497C12.9442 9.85908 13.0455 10.1276 13.2409 10.332C13.4363 10.5364 13.7099 10.6602 14.0023 10.6763ZM14.0023 9.00459C14.1496 9.0214 14.2841 9.09149 14.3771 9.19991C14.47 9.30833 14.5142 9.44651 14.5 9.58498C14.5141 9.72342 14.47 9.86155 14.377 9.96992C14.284 10.0783 14.1495 10.1483 14.0023 10.1651C13.855 10.1483 13.7205 10.0783 13.6275 9.96992C13.5345 9.86155 13.4904 9.72342 13.5045 9.58498C13.4903 9.44651 13.5344 9.30832 13.6274 9.1999C13.7204 9.09148 13.8549 9.0214 14.0023 9.00459ZM16.3294 13.608L15.7172 11.421C15.659 11.253 15.5464 11.1062 15.395 11.0011C15.2436 10.8959 15.061 10.8377 14.8726 10.8344H14.8718C14.826 10.8321 13.7434 10.778 13.2315 10.778C12.835 10.778 11.8265 10.7531 11.4009 10.7421L10.4297 7.56898C10.3487 7.33911 10.1925 7.13905 9.98309 6.99731C9.77372 6.85558 9.52197 6.7794 9.26371 6.77962H6.15963C5.89959 6.77979 5.6463 6.85727 5.43621 7.0009C5.22612 7.14453 5.07004 7.34692 4.99044 7.57895L3.88809 11.1806C3.85671 11.2827 3.84718 11.3895 3.86005 11.4951C3.87292 11.6006 3.90793 11.7027 3.96308 11.7955C4.01822 11.8883 4.09241 11.97 4.18136 12.0358C4.27031 12.1016 4.37228 12.1503 4.48138 12.179C4.59049 12.2077 4.70458 12.2159 4.81708 12.2032C4.92958 12.1904 5.03828 12.1569 5.13691 12.1046C5.23554 12.0522 5.32216 11.9822 5.39177 11.8983C5.46139 11.8145 5.51263 11.7186 5.54254 11.6162L5.72258 11.0021V15.3249C5.72254 15.5588 5.81539 15.7842 5.98304 15.9574C6.15069 16.1306 6.38112 16.2391 6.62944 16.2617C6.87776 16.2843 7.12617 16.2195 7.32627 16.0798C7.52636 15.9401 7.6638 15.7356 7.71181 15.5062C7.75981 15.7356 7.89723 15.9401 8.0973 16.0797C8.29737 16.2194 8.54575 16.2842 8.79404 16.2616C9.04233 16.239 9.27273 16.1305 9.44036 15.9574C9.60798 15.7842 9.70082 15.5587 9.70077 15.3249V11.0021L9.8808 11.6162C9.92015 11.751 9.99625 11.8738 10.1016 11.9726C10.207 12.0714 10.338 12.1428 10.4817 12.1798C10.6255 12.2168 10.777 12.2181 10.9214 12.1835C11.0659 12.1489 11.1982 12.0797 11.3054 11.9826L12.4245 12.0129V15.5579C12.4247 15.7449 12.5041 15.9243 12.6452 16.0566C12.7863 16.1889 12.9776 16.2633 13.1772 16.2636C13.3091 16.2636 13.4387 16.2316 13.5535 16.1708C13.6684 16.11 13.7645 16.0225 13.8326 15.9166C13.9019 16.0233 13.9996 16.1114 14.116 16.1722C14.2325 16.233 14.3638 16.2645 14.4971 16.2636C14.6953 16.262 14.8847 16.1868 15.0238 16.0545C15.1629 15.9222 15.2403 15.7436 15.2391 15.5579V14.2278C15.3335 14.3101 15.4515 14.3649 15.5785 14.3854C15.7056 14.4059 15.8363 14.3912 15.9546 14.3432C16.0729 14.2952 16.1738 14.2159 16.2448 14.115C16.3158 14.0142 16.3539 13.8961 16.3545 13.7752C16.3546 13.7187 16.3461 13.6624 16.3294 13.608ZM10.5685 11.6659C10.529 11.6475 10.4942 11.6215 10.4663 11.5897C10.4384 11.5578 10.418 11.5207 10.4065 11.4809L9.69091 9.03801C9.67346 8.97832 9.6335 8.9266 9.57844 8.89245C9.52338 8.85829 9.45698 8.84402 9.39154 8.85228C9.32611 8.86055 9.2661 8.89079 9.22266 8.93739C9.17921 8.98398 9.15529 9.04378 9.15532 9.10566V15.3249C9.15536 15.4365 9.10911 15.5437 9.02634 15.6239C8.94357 15.704 8.83077 15.7509 8.7118 15.7545C8.59283 15.7582 8.47702 15.7183 8.38886 15.6433C8.3007 15.5684 8.24711 15.4642 8.23941 15.3529L7.98373 11.6716C7.97913 11.6068 7.94843 11.5462 7.89787 11.5018C7.84731 11.4575 7.78066 11.4329 7.71143 11.4329C7.6422 11.4329 7.57558 11.4576 7.52506 11.502C7.47454 11.5464 7.44391 11.6071 7.43938 11.6718L7.18394 15.3529C7.17624 15.4643 7.12264 15.5684 7.03448 15.6434C6.94632 15.7183 6.83051 15.7582 6.71155 15.7546C6.59258 15.751 6.47978 15.7041 6.39701 15.6239C6.31424 15.5437 6.26799 15.4365 6.26803 15.325V9.10573C6.26806 9.04384 6.24413 8.98406 6.20068 8.93746C6.15724 8.89087 6.09723 8.86063 6.0318 8.85237C5.96637 8.8441 5.89996 8.85837 5.84491 8.89252C5.78985 8.92668 5.74989 8.97839 5.73244 9.03807L5.01681 11.4807C5.00536 11.5206 4.98497 11.5577 4.957 11.5897C4.92903 11.6216 4.89413 11.6476 4.85462 11.6659C4.81541 11.6848 4.77232 11.6955 4.7283 11.6973C4.68427 11.6992 4.64034 11.6921 4.59948 11.6767C4.52651 11.6502 4.46678 11.5991 4.43211 11.5333C4.39744 11.4676 4.39035 11.3921 4.41224 11.3217L5.51139 7.72977C5.55633 7.60193 5.64321 7.49067 5.75962 7.41186C5.87604 7.33305 6.01604 7.29072 6.15964 7.29092H9.26372C9.40553 7.29039 9.54397 7.33146 9.65964 7.40837C9.77531 7.48527 9.86242 7.59416 9.90877 7.71978L11.0111 11.3219C11.0279 11.3769 11.0273 11.4352 11.0092 11.4899C10.9912 11.5445 10.9566 11.593 10.9097 11.6295C10.8627 11.666 10.8055 11.6888 10.7449 11.6953C10.6843 11.7018 10.623 11.6915 10.5685 11.6659ZM15.7353 13.8751C15.72 13.8812 15.7034 13.8842 15.6868 13.8837C15.6701 13.8833 15.6538 13.8795 15.6388 13.8726C15.6259 13.8668 15.6143 13.8586 15.6049 13.8486C15.5954 13.8385 15.5882 13.8267 15.5837 13.8139L15.2319 12.4065C15.2166 12.3454 15.178 12.2918 15.1232 12.2557C15.0685 12.2196 15.0015 12.2037 14.935 12.2109C14.8685 12.2181 14.8072 12.248 14.7627 12.2948C14.7182 12.3417 14.6936 12.4022 14.6937 12.4649V15.5578C14.694 15.5835 14.6889 15.6089 14.6787 15.6327C14.6684 15.6564 14.6531 15.678 14.6338 15.6962C14.6144 15.7143 14.5914 15.7286 14.566 15.7382C14.5407 15.7479 14.5135 15.7527 14.4862 15.7523C14.4317 15.7527 14.3792 15.7335 14.3395 15.6987C14.2997 15.6638 14.2757 15.616 14.2726 15.5651L14.1075 13.8888C14.1012 13.8254 14.0699 13.7665 14.0198 13.7236C13.9696 13.6807 13.9042 13.6568 13.8363 13.6566H13.8358C13.768 13.6566 13.7027 13.6803 13.6525 13.723C13.6024 13.7657 13.5709 13.8243 13.5644 13.8876L13.3905 15.5718C13.3859 15.6216 13.3613 15.6679 13.3217 15.7014C13.2822 15.7349 13.2305 15.7531 13.1772 15.7523C13.1498 15.7525 13.1228 15.7477 13.0975 15.738C13.0722 15.7283 13.0492 15.714 13.0299 15.6959C13.0106 15.6778 12.9954 15.6562 12.9851 15.6325C12.9748 15.6088 12.9696 15.5834 12.97 15.5578V11.7645C12.9683 11.7466 12.9645 11.7289 12.9586 11.7118C12.9569 11.6974 12.9538 11.6831 12.9494 11.6691C12.9406 11.6519 12.9296 11.6357 12.9168 11.6208C12.9021 11.5918 12.8768 11.5686 12.8455 11.5555C12.8334 11.5463 12.8205 11.5382 12.8069 11.5312C12.7899 11.5257 12.7723 11.5219 12.7544 11.5197C12.7384 11.5146 12.7218 11.511 12.705 11.5089L11.5656 11.478C11.5714 11.4042 11.5664 11.33 11.5507 11.2575C12.0357 11.2696 12.877 11.2892 13.2315 11.2892C13.7287 11.2892 14.8313 11.3444 14.8572 11.3454C14.9303 11.345 15.0018 11.3658 15.0619 11.4048C15.122 11.4439 15.1679 11.4993 15.1933 11.5636L15.809 13.7752C15.8095 13.797 15.8026 13.8184 15.7893 13.8363C15.7761 13.8542 15.7572 13.8678 15.7353 13.8751Z" fill="#FCFCFC"/>
<path d="M10.5685 11.6659C10.529 11.6475 10.4942 11.6215 10.4663 11.5897C10.4384 11.5578 10.418 11.5207 10.4065 11.4809L9.69091 9.03801C9.67346 8.97832 9.6335 8.9266 9.57844 8.89245C9.52338 8.85829 9.45698 8.84402 9.39154 8.85228C9.32611 8.86055 9.2661 8.89079 9.22266 8.93739C9.17921 8.98398 9.15529 9.04378 9.15532 9.10566V15.3249C9.15536 15.4365 9.10911 15.5437 9.02634 15.6239C8.94357 15.704 8.83077 15.7509 8.7118 15.7545C8.59283 15.7582 8.47702 15.7183 8.38886 15.6433C8.3007 15.5684 8.24711 15.4642 8.23941 15.3529L7.98373 11.6716C7.97913 11.6068 7.94843 11.5462 7.89787 11.5018C7.84731 11.4575 7.78066 11.4329 7.71143 11.4329C7.6422 11.4329 7.57558 11.4576 7.52506 11.502C7.47454 11.5464 7.44391 11.6071 7.43938 11.6718L7.18394 15.3529C7.17624 15.4643 7.12264 15.5684 7.03448 15.6434C6.94632 15.7183 6.83051 15.7582 6.71155 15.7546C6.59258 15.751 6.47978 15.7041 6.39701 15.6239C6.31424 15.5437 6.26799 15.4365 6.26803 15.325V9.10573C6.26806 9.04384 6.24413 8.98406 6.20068 8.93746C6.15724 8.89087 6.09723 8.86063 6.0318 8.85237C5.96637 8.8441 5.89996 8.85837 5.84491 8.89252C5.78985 8.92668 5.74989 8.97839 5.73244 9.03807L5.01681 11.4807C5.00536 11.5206 4.98497 11.5577 4.957 11.5897C4.92903 11.6216 4.89413 11.6476 4.85462 11.6659C4.81541 11.6848 4.77232 11.6955 4.7283 11.6973C4.68427 11.6992 4.64034 11.6921 4.59948 11.6767C4.52651 11.6502 4.46678 11.5991 4.43211 11.5333C4.39744 11.4676 4.39035 11.3921 4.41224 11.3217L5.51139 7.72977C5.55633 7.60193 5.64321 7.49067 5.75962 7.41186C5.87604 7.33305 6.01604 7.29072 6.15964 7.29092H9.26372C9.40553 7.29039 9.54397 7.33146 9.65964 7.40837C9.77531 7.48527 9.86242 7.59416 9.90877 7.71978L11.0111 11.3219C11.0279 11.3769 11.0273 11.4352 11.0092 11.4899C10.9912 11.5445 10.9566 11.593 10.9097 11.6295C10.8627 11.666 10.8055 11.6888 10.7449 11.6953C10.6843 11.7018 10.623 11.6915 10.5685 11.6659Z" fill="#FCFCFC"/>
<path d="M15.7353 13.8751C15.72 13.8812 15.7034 13.8842 15.6868 13.8837C15.6701 13.8833 15.6538 13.8795 15.6388 13.8726C15.6259 13.8668 15.6143 13.8586 15.6049 13.8486C15.5954 13.8385 15.5882 13.8267 15.5837 13.8139L15.2319 12.4065C15.2166 12.3454 15.178 12.2918 15.1232 12.2557C15.0685 12.2196 15.0015 12.2037 14.935 12.2109C14.8685 12.2181 14.8072 12.248 14.7627 12.2948C14.7182 12.3417 14.6936 12.4022 14.6937 12.4649V15.5578C14.694 15.5835 14.6889 15.6089 14.6787 15.6327C14.6684 15.6564 14.6531 15.678 14.6338 15.6962C14.6144 15.7143 14.5914 15.7286 14.566 15.7382C14.5407 15.7479 14.5135 15.7527 14.4862 15.7523C14.4317 15.7527 14.3792 15.7335 14.3395 15.6987C14.2997 15.6638 14.2757 15.616 14.2726 15.5651L14.1075 13.8888C14.1012 13.8254 14.0699 13.7665 14.0198 13.7236C13.9696 13.6807 13.9042 13.6568 13.8363 13.6566H13.8358C13.768 13.6566 13.7027 13.6803 13.6525 13.723C13.6024 13.7657 13.5709 13.8243 13.5644 13.8876L13.3905 15.5718C13.3859 15.6216 13.3613 15.6679 13.3217 15.7014C13.2822 15.7349 13.2305 15.7531 13.1772 15.7523C13.1498 15.7525 13.1228 15.7477 13.0975 15.738C13.0722 15.7283 13.0492 15.714 13.0299 15.6959C13.0106 15.6778 12.9954 15.6562 12.9851 15.6325C12.9748 15.6088 12.9696 15.5834 12.97 15.5578V11.7645C12.9683 11.7466 12.9645 11.7289 12.9586 11.7118C12.9569 11.6974 12.9538 11.6831 12.9494 11.6691C12.9406 11.6519 12.9296 11.6357 12.9168 11.6208C12.9021 11.5918 12.8768 11.5686 12.8455 11.5555C12.8334 11.5463 12.8205 11.5382 12.8069 11.5312C12.7899 11.5257 12.7723 11.5219 12.7544 11.5197C12.7384 11.5146 12.7218 11.511 12.705 11.5089L11.5656 11.478C11.5714 11.4042 11.5664 11.33 11.5507 11.2575C12.0357 11.2696 12.877 11.2892 13.2315 11.2892C13.7287 11.2892 14.8313 11.3444 14.8572 11.3454C14.9303 11.345 15.0018 11.3658 15.0619 11.4048C15.122 11.4439 15.1679 11.4993 15.1933 11.5636L15.809 13.7752C15.8095 13.797 15.8026 13.8184 15.7893 13.8363C15.7761 13.8542 15.7572 13.8678 15.7353 13.8751Z" fill="#FCFCFC"/>
<path d="M14.0023 9.00459C14.1496 9.0214 14.2841 9.09149 14.3771 9.19991C14.47 9.30833 14.5142 9.44651 14.5 9.58498C14.5141 9.72342 14.47 9.86155 14.377 9.96992C14.284 10.0783 14.1495 10.1483 14.0023 10.1651C13.855 10.1483 13.7205 10.0783 13.6275 9.96992C13.5345 9.86155 13.4904 9.72342 13.5045 9.58498C13.4903 9.44651 13.5344 9.30832 13.6274 9.1999C13.7204 9.09148 13.8549 9.0214 14.0023 9.00459Z" fill="#FCFCFC"/>
<path d="M7.71153 4.27735C7.94729 4.30071 8.16388 4.40974 8.31485 4.58106C8.46582 4.75238 8.53912 4.97234 8.51905 5.19374C8.53913 5.41512 8.46581 5.63505 8.31484 5.80634C8.16386 5.97762 7.94727 6.0866 7.71153 6.10989C7.47584 6.08654 7.25931 5.97754 7.10839 5.80626C6.95747 5.63498 6.88419 5.41508 6.90427 5.19374C6.88418 4.97238 6.95746 4.75245 7.10837 4.58113C7.25928 4.40981 7.47582 4.30076 7.71153 4.27735Z" fill="#FCFCFC"/>
</svg>
