<svg width="76" height="76" viewBox="0 0 76 76" fill="none" xmlns="http://www.w3.org/2000/svg">
<path d="M18.3859 16.8486H39.4699C39.7807 16.8486 40.0788 16.7252 40.2986 16.5054C40.5183 16.2856 40.6418 15.9876 40.6418 15.6768C40.6418 15.366 40.5183 15.0679 40.2986 14.8481C40.0788 14.6283 39.7807 14.5049 39.4699 14.5049H18.3859C18.0792 14.511 17.7871 14.6372 17.5723 14.8563C17.3575 15.0754 17.2372 15.37 17.2372 15.6768C17.2372 15.9836 17.3575 16.2781 17.5723 16.4972C17.7871 16.7163 18.0792 16.8425 18.3859 16.8486ZM18.3859 27.1878H36.126C36.4327 27.1816 36.7248 27.0555 36.9396 26.8364C37.1543 26.6173 37.2746 26.3227 37.2746 26.0159C37.2746 25.7091 37.1543 25.4145 36.9395 25.1954C36.7248 24.9763 36.4326 24.8502 36.1259 24.844H18.3859C18.0792 24.8502 17.7871 24.9763 17.5723 25.1954C17.3575 25.4145 17.2372 25.7091 17.2372 26.0159C17.2372 26.3227 17.3575 26.6173 17.5723 26.8364C17.7871 27.0555 18.0792 27.1817 18.3859 27.1878ZM18.3859 37.527H33.8538C34.1606 37.521 34.4528 37.3949 34.6677 37.1757C34.8826 36.9566 35.003 36.6619 35.003 36.355C35.003 36.0481 34.8826 35.7535 34.6677 35.5344C34.4528 35.3153 34.1605 35.1892 33.8537 35.1832H18.3859C18.0792 35.1893 17.7871 35.3155 17.5723 35.5346C17.3575 35.7537 17.2372 36.0483 17.2372 36.3551C17.2372 36.6619 17.3575 36.9565 17.5723 37.1756C17.7871 37.3947 18.0792 37.5208 18.3859 37.527ZM18.3836 47.869H26.109C26.4158 47.863 26.7081 47.7369 26.9229 47.5178C27.1378 47.2986 27.2582 47.004 27.2582 46.6971C27.2582 46.3902 27.1378 46.0955 26.9229 45.8764C26.708 45.6573 26.4157 45.5312 26.1089 45.5252H18.3836C18.0768 45.5312 17.7845 45.6573 17.5696 45.8764C17.3547 46.0955 17.2344 46.3902 17.2344 46.6971C17.2344 47.004 17.3547 47.2987 17.5696 47.5178C17.7845 47.7369 18.0768 47.863 18.3836 47.869ZM18.3859 58.2053H29.9359C30.2428 58.1993 30.535 58.0732 30.7499 57.8541C30.9648 57.6349 31.0851 57.3403 31.0851 57.0334C31.0851 56.7265 30.9647 56.4318 30.7498 56.2127C30.5349 55.9936 30.2427 55.8675 29.9358 55.8615H18.3859C18.0791 55.8675 17.7868 55.9936 17.5719 56.2127C17.357 56.4318 17.2367 56.7265 17.2367 57.0334C17.2367 57.3403 17.357 57.635 17.5719 57.8541C17.7868 58.0732 18.0791 58.1993 18.3859 58.2053Z" fill="black" stroke="black" stroke-width="1.875"/>
<path d="M64.2876 58.5811L50.3779 44.6509L52.5266 42.4992C56.0361 45.1059 60.2519 40.2249 57.1812 37.1062L55.827 35.7499V17.9151C55.8271 17.6068 55.7056 17.3109 55.4888 17.0917L44.0716 5.53599C43.962 5.42566 43.8316 5.33808 43.6881 5.27827C43.5445 5.21847 43.3905 5.18762 43.235 5.1875L16.4261 5.25559C14.9147 5.25962 13.4667 5.86301 12.3996 6.93339C11.3326 8.00376 10.7337 9.4537 10.7344 10.9651V60.4968C10.7361 62.0089 11.3375 63.4585 12.4066 64.5277C13.4758 65.5969 14.9255 66.1983 16.4375 66.2H25.4303V68.9901C25.4402 69.4823 25.6449 69.9506 25.9995 70.2922C26.3541 70.6338 26.8297 70.8209 27.322 70.8125H46.0337C46.5261 70.821 47.0017 70.6339 47.3564 70.2923C47.7111 69.9507 47.9159 69.4824 47.926 68.99V66.1891C47.9134 65.6269 47.7117 65.0854 47.3535 64.6519C46.9954 64.2185 46.5016 63.9183 45.9518 63.8V61.437C45.9322 60.7632 45.6464 60.1246 45.1569 59.6612C44.6674 59.1978 44.0141 58.9472 43.3403 58.9645H30.016C29.3421 58.9472 28.6889 59.1978 28.1994 59.6612C27.7099 60.1246 27.424 60.7632 27.4044 61.437V63.7998C27.339 63.8155 27.276 63.836 27.2127 63.8562H16.4375C15.5469 63.8552 14.693 63.5009 14.0632 62.8711C13.4335 62.2413 13.0792 61.3875 13.0781 60.4968V10.9651C13.077 10.0747 13.4292 9.22019 14.0574 8.58918C14.6856 7.95818 15.5385 7.60219 16.4289 7.59937L42.0686 7.53277C42.1365 10.0468 41.6993 13.9859 43.0886 16.1132C43.5316 17.0033 44.2143 17.7521 45.0599 18.2751C45.9054 18.7982 46.8802 19.0748 47.8745 19.0738L53.4832 19.0848V33.4029L48.2573 28.1695C47.5765 27.5179 46.6705 27.1542 45.7281 27.1542C44.7857 27.1542 43.8797 27.5179 43.199 28.1695C42.6001 28.7724 42.2354 29.5687 42.1702 30.4159C42.1049 31.2631 42.3433 32.1059 42.8427 32.7933L33.8958 41.7528C33.1675 41.2366 32.2724 41.0116 31.3866 41.1222C30.5008 41.2328 29.6885 41.6709 29.1095 42.3504C28.5305 43.0298 28.2268 43.9014 28.2582 44.7935C28.2896 45.6856 28.6538 46.5337 29.279 47.1708L38.2031 56.1069C38.8438 56.7327 39.6963 57.095 40.5915 57.1221C41.4868 57.1492 42.3595 56.8391 43.037 56.2532C43.7145 55.6674 44.1472 54.8484 44.2495 53.9586C44.3518 53.0688 44.1162 52.1731 43.5893 51.4487L45.728 49.3073L59.6361 63.2348C59.9404 63.546 60.3034 63.7937 60.7041 63.9636C61.1048 64.1335 61.5352 64.2222 61.9705 64.2246C62.4057 64.227 62.8371 64.143 63.2396 63.9775C63.6421 63.812 64.0078 63.5683 64.3155 63.2604C64.6232 62.9526 64.8667 62.5868 65.032 62.1842C65.1973 61.7816 65.2811 61.3502 65.2785 60.9149C65.2759 60.4797 65.187 60.0493 65.0169 59.6487C64.8468 59.2481 64.5989 58.8852 64.2876 58.5811ZM45.5822 68.4688H27.7741V66.1891C27.8019 66.1445 27.8419 66.1087 27.8893 66.0859C27.9367 66.0631 27.9896 66.0543 28.0418 66.0604H45.3138C45.3662 66.0542 45.4192 66.063 45.4667 66.0858C45.5142 66.1086 45.5543 66.1444 45.5822 66.1891L45.5822 68.4688ZM30.016 61.3082H43.3403C43.3926 61.3021 43.4455 61.3109 43.4929 61.3337C43.5403 61.3565 43.5803 61.3923 43.6081 61.437V63.7166H29.7482V61.437C29.776 61.3923 29.816 61.3565 29.8634 61.3337C29.9108 61.3109 29.9637 61.3021 30.016 61.3082ZM45.1273 14.9574C44.2 13.5708 44.4481 10.8882 44.4161 9.21944L51.8445 16.7378L47.8767 16.73C47.2972 16.7273 46.7305 16.5589 46.2434 16.2449C45.7562 15.9308 45.369 15.4841 45.1273 14.9574ZM47.8939 43.8216L44.8252 46.8949L38.4493 40.5094L41.6394 37.3149L48.0153 43.7003L47.8939 43.8216ZM35.5943 43.3685L36.7931 42.168L43.1692 48.5532L41.9705 49.7536L35.5943 43.3685ZM50.8348 40.8767L49.6712 42.042L43.2953 35.6566L44.4587 34.4916L50.8348 40.8767ZM44.8572 29.8255C45.0887 29.5954 45.4018 29.4662 45.7281 29.4662C46.0545 29.4662 46.3676 29.5954 46.599 29.8255L55.5231 38.7622C55.7543 38.9945 55.884 39.3089 55.884 39.6366C55.884 39.9643 55.7543 40.2786 55.5231 40.5109C55.2889 40.7356 54.9768 40.8611 54.6522 40.8611C54.3276 40.8611 54.0156 40.7356 53.7813 40.5109L44.8572 31.5742C44.6261 31.3419 44.4963 31.0275 44.4963 30.6998C44.4963 30.3722 44.6261 30.0578 44.8572 29.8255ZM41.6031 54.4509C41.3689 54.6756 41.0568 54.8011 40.7322 54.8011C40.4076 54.8011 40.0956 54.6756 39.8613 54.4509L30.9372 45.5148C30.7129 45.2822 30.5888 44.971 30.5914 44.6479C30.5939 44.3249 30.7231 44.0157 30.9511 43.7867C31.179 43.5578 31.4877 43.4274 31.8107 43.4234C32.1338 43.4195 32.4455 43.5423 32.679 43.7656L41.1423 52.2408C41.8464 52.8177 42.341 53.6666 41.6031 54.4509ZM48.7214 46.3098L50.7569 48.3481L49.4194 49.6873L47.384 47.649L48.7214 46.3098ZM62.6642 61.6143C62.4753 61.7861 62.2274 61.8782 61.9722 61.8716C61.717 61.865 61.4741 61.7601 61.2944 61.5789L51.0754 51.3456L52.4129 50.0063L62.6293 60.237C62.816 60.4154 62.9245 60.6604 62.931 60.9185C62.9376 61.1766 62.8417 61.4268 62.6642 61.6143Z" fill="#AEAF00"/>
</svg>
