<svg width="20" height="20" viewBox="0 0 20 20" fill="none" xmlns="http://www.w3.org/2000/svg">
<path d="M5.70595 7.36979L4.27917 8.55926L0.470409 11.2789C0.310397 11.0505 0.249213 10.8003 0.277906 10.5589C0.309971 10.2891 0.455444 10.0212 0.718446 9.80125L0.718469 9.80123L4.61312 6.54151C4.97752 6.81781 5.34154 7.09381 5.70595 7.36979Z" fill="black" stroke="black" stroke-width="0.2101"/>
<path d="M0.594974 11.5615C0.516705 11.5615 0.437839 11.538 0.379287 11.4917C0.26517 11.4016 0.269352 11.258 0.388847 11.1715L3.30451 9.05536C3.4234 8.96928 3.6128 8.972 3.72692 9.06261C3.84104 9.15276 3.83685 9.29637 3.71736 9.3829L0.801699 11.499C0.743745 11.5407 0.669658 11.5615 0.594974 11.5615Z" fill="black"/>
<path d="M10.7549 4.15967C11.5798 4.15967 12.2486 3.6526 12.2486 3.0271C12.2486 2.4016 11.5798 1.89453 10.7549 1.89453C9.92997 1.89453 9.26123 2.4016 9.26123 3.0271C9.26123 3.6526 9.92997 4.15967 10.7549 4.15967Z" fill="black"/>
<path d="M10.7538 4.38662C9.76562 4.38662 8.96143 3.77685 8.96143 3.02754C8.96143 2.27823 9.76562 1.66846 10.7538 1.66846C11.7421 1.66846 12.5463 2.27823 12.5463 3.02754C12.5463 3.77685 11.7421 4.38662 10.7538 4.38662ZM10.7538 2.12148C10.0948 2.12148 9.5589 2.52785 9.5589 3.02754C9.5589 3.52723 10.0948 3.9336 10.7538 3.9336C11.4129 3.9336 11.9488 3.52723 11.9488 3.02754C11.9488 2.52785 11.4129 2.12148 10.7538 2.12148Z" fill="black"/>
<path d="M13.5385 4.72525C13.2912 4.5608 12.913 4.57937 12.6955 4.76783L11.0399 6.20257L7.30929 3.17136C7.29196 3.15732 7.27344 3.14418 7.25492 3.1324L5.4625 1.99983C5.23546 1.85713 4.90626 1.85939 4.68639 2.00708L2.62272 3.36616C2.37417 3.53107 2.34908 3.81693 2.56596 4.00539C2.78344 4.19339 3.16164 4.21242 3.40899 4.04797L5.08908 2.94349L6.16214 4.03665L6.31748 4.16032L3.66113 6.87351C3.14551 7.40083 3.32595 8.14833 4.05486 8.50259L6.29239 9.5885L3.89952 11.4237L4.66368 12.0525L8.38175 10.0637C8.60759 9.92737 8.73246 9.71761 8.71813 9.49925C8.70379 9.2809 8.55263 9.08156 8.31065 8.96242L6.41069 7.90007L8.66017 6.04447L8.65599 6.02634L10.6163 7.18745C10.7292 7.27942 10.8875 7.33152 11.053 7.33152C11.056 7.33152 11.0596 7.33152 11.0626 7.33152C11.2317 7.32925 11.3918 7.27308 11.5029 7.17703L13.5941 5.36492C13.8122 5.17601 13.7871 4.8897 13.5385 4.72525Z" fill="black"/>
<path d="M3.89841 11.6501C3.82253 11.6501 3.74665 11.6284 3.6881 11.5844C3.57099 11.4965 3.5698 11.3529 3.68571 11.2641L5.81868 9.62823L3.89184 8.69318C3.4748 8.49068 3.18443 8.16314 3.09541 7.79392C3.00638 7.42471 3.12409 7.04008 3.41924 6.73837L5.92742 4.1765L5.04077 3.27406L3.60386 4.21908C3.23342 4.46462 2.66642 4.43653 2.3402 4.15475C2.01518 3.87206 2.05282 3.44214 2.42504 3.19569L4.48931 1.8357C4.81971 1.61417 5.30964 1.60964 5.65199 1.82528L7.445 2.95785C7.47308 2.97597 7.49877 2.99455 7.52446 3.01448L8.74808 4.00888C8.86041 4.10039 8.85384 4.244 8.73375 4.32917C8.61246 4.41434 8.42366 4.40981 8.31133 4.31829L7.0895 3.32571L5.26961 2.17366C5.15549 2.10163 4.99298 2.10299 4.88304 2.17638L2.81758 3.53682C2.69391 3.61882 2.68136 3.76243 2.7895 3.85621C2.89824 3.95043 3.08764 3.95995 3.21072 3.8775L4.89141 2.77211C4.95474 2.73088 5.03779 2.71231 5.12024 2.7182C5.20269 2.72499 5.27797 2.75761 5.32756 2.80835L6.53266 4.00435C6.63244 4.08408 6.64259 4.20685 6.55596 4.29564L3.9002 7.00883C3.70065 7.21269 3.62417 7.46276 3.68451 7.71238C3.74486 7.962 3.93366 8.17492 4.21507 8.31219L6.4526 9.39809C6.52848 9.43479 6.57867 9.49595 6.58882 9.5639C6.59898 9.63186 6.56791 9.69936 6.50398 9.74829L4.11111 11.5835C4.05256 11.6274 3.97548 11.6501 3.89841 11.6501Z" fill="black"/>
<path d="M11.3333 12.9365L5.96533 17.7678L6.95958 18.24L11.0977 15.062L12.4517 13.8481C12.0787 13.5444 11.7063 13.2407 11.3333 12.9365Z" fill="black"/>
<path d="M7.14082 18.3336C7.07108 18.3336 7.00082 18.3111 6.94905 18.2663C6.84867 18.1802 6.8529 18.0436 6.95908 17.9618L10.9149 14.9062C11.0211 14.8243 11.1881 14.8278 11.2884 14.9144C11.3888 15.0005 11.3846 15.1371 11.2784 15.2189L7.32255 18.2745C7.2713 18.3137 7.20632 18.3336 7.14082 18.3336ZM6.13495 17.8756C6.07208 17.8756 6.00869 17.8575 5.9585 17.8205C5.8502 17.7408 5.84122 17.6051 5.93895 17.5163L9.11134 14.64C9.20908 14.5516 9.37602 14.5447 9.48432 14.624C9.59262 14.7037 9.6016 14.8394 9.50386 14.9281L6.33147 17.8045C6.27917 17.8519 6.20732 17.8756 6.13495 17.8756Z" fill="black"/>
<path d="M16.7656 10.7995C17.495 10.7995 18.0863 10.3173 18.0863 9.72248C18.0863 9.12769 17.495 8.64551 16.7656 8.64551C16.0361 8.64551 15.4448 9.12769 15.4448 9.72248C15.4448 10.3173 16.0361 10.7995 16.7656 10.7995Z" fill="black"/>
<path d="M16.766 11.0154C15.8922 11.0154 15.1812 10.4356 15.1812 9.72304C15.1812 9.01051 15.8922 8.43066 16.766 8.43066C17.6398 8.43066 18.3509 9.01051 18.3509 9.72304C18.3509 10.4356 17.6398 11.0154 16.766 11.0154ZM16.766 8.86145C16.1833 8.86145 15.7094 9.24787 15.7094 9.72304C15.7094 10.1982 16.1833 10.5846 16.766 10.5846C17.3487 10.5846 17.8226 10.1982 17.8226 9.72304C17.8226 9.24787 17.3487 8.86145 16.766 8.86145Z" fill="black"/>
<path d="M11.7252 18.1064L14.6667 16.4138C14.8664 16.2842 14.9769 16.0847 14.9642 15.8771C14.9515 15.6694 14.8178 15.4799 14.6039 15.3666L12.9239 14.3564L14.9129 12.5919L14.9092 12.5746L16.6426 13.6787C16.7424 13.7662 16.8824 13.8157 17.0287 13.8157C17.0314 13.8157 17.0345 13.8157 17.0372 13.8157C17.1867 13.8136 17.3283 13.7602 17.4265 13.6688L19.1091 12.0568C19.3009 11.8776 19.2787 11.6058 19.059 11.449C18.8402 11.2926 18.5058 11.3103 18.3135 11.4895L17.0161 12.7431L13.7174 9.86064C13.7021 9.84729 13.6857 9.83479 13.6693 9.82359L12.0845 8.74662C11.8837 8.61092 11.5926 8.61307 11.3982 8.75351L9.48579 10.0834C9.26602 10.2402 9.24383 10.512 9.4356 10.6912C9.6279 10.87 9.96231 10.8881 10.181 10.7317L11.7543 9.64439L12.7031 10.6839L12.8404 10.8015L10.4922 13.3815C10.0363 13.8829 10.1958 14.5937 10.8403 14.9306L12.8188 15.9632L10.703 17.7084L11.7252 18.1064Z" fill="black"/>
<path d="M11.7276 18.3214C11.6446 18.3214 11.5628 18.2896 11.5115 18.2301C11.4275 18.1328 11.456 17.9983 11.5754 17.9299L14.517 16.2373C14.6369 16.1589 14.7114 16.0249 14.7029 15.887C14.6945 15.7492 14.6047 15.6221 14.4625 15.5467L12.7699 14.5292C12.7097 14.493 12.6711 14.4374 12.6637 14.3767C12.6563 14.3159 12.6811 14.2552 12.7319 14.2104L14.6876 12.4752C14.7093 12.4437 14.7394 12.4166 14.7774 12.3981C14.8709 12.352 14.9871 12.3494 15.0738 12.4045L16.8071 13.5086C16.889 13.575 16.9593 13.6 17.0322 13.6C17.1109 13.5991 17.1822 13.572 17.2313 13.5263L18.9134 11.9638C19.009 11.8747 18.9979 11.7385 18.888 11.6601C18.8352 11.6222 18.7676 11.6063 18.6968 11.6071C18.6265 11.611 18.5621 11.6369 18.5151 11.6804L17.2171 12.8844C17.1679 12.9301 17.0971 12.9568 17.0226 12.9577C16.9476 12.9512 16.8763 12.9335 16.8256 12.8892L13.5269 10.0067L11.9183 8.91125C11.8174 8.84275 11.6737 8.84404 11.5765 8.91383L9.66038 10.2463C9.55314 10.3225 9.54204 10.4591 9.63819 10.5487C9.73434 10.6383 9.90181 10.6469 10.0106 10.5689L11.5871 9.47903C11.6425 9.44026 11.7181 9.4213 11.7878 9.42949C11.8602 9.43638 11.9262 9.46697 11.9695 9.51478L13.0351 10.6521C13.1233 10.7279 13.1323 10.8446 13.0557 10.9291L10.7075 13.5091C10.531 13.7029 10.4634 13.9407 10.5167 14.1781C10.5701 14.4155 10.737 14.6179 10.9859 14.7485L12.9643 15.7811C13.0314 15.816 13.0758 15.8741 13.0848 15.9387C13.0937 16.0034 13.0663 16.0675 13.0097 16.1141L10.8939 17.8592C10.792 17.9441 10.6245 17.9449 10.5204 17.8609C10.4169 17.7774 10.4158 17.6408 10.5183 17.5564L12.4043 16.0008L10.7006 15.1116C10.3318 14.9191 10.0751 14.6076 9.99637 14.2565C9.91766 13.9054 10.0217 13.5397 10.2827 13.2528L12.5005 10.8166L11.7138 9.95678L10.3551 10.8959C10.0302 11.1285 9.52884 11.1014 9.24039 10.833C8.953 10.5642 8.98628 10.1554 9.31541 9.92102L11.2305 8.58945C11.52 8.38051 11.9537 8.37534 12.2564 8.58083L13.8418 9.65781C13.8666 9.67504 13.8894 9.6927 13.9121 9.71166L17.0137 12.4218L18.1189 11.3965C18.2583 11.2668 18.4511 11.1893 18.663 11.1776C18.8733 11.1634 19.0782 11.2224 19.2367 11.3362C19.5653 11.5705 19.5991 11.9793 19.3117 12.2477L17.6291 13.8106C17.4817 13.9472 17.2688 14.0277 17.0459 14.0308C16.814 14.0308 16.6027 13.9558 16.4531 13.8253L14.956 12.875L13.3214 14.3254L14.7642 15.1935C15.0352 15.3369 15.2148 15.5911 15.2312 15.8668C15.2476 16.1429 15.0991 16.4105 14.8345 16.5828L11.8803 18.2827C11.8338 18.3089 11.7804 18.3214 11.7276 18.3214Z" fill="black"/>
<path d="M1.49368 6.19874H0.298736C0.133834 6.19874 0 6.09726 0 5.97222C0 5.84719 0.133834 5.74571 0.298736 5.74571H1.49368C1.65858 5.74571 1.79241 5.84719 1.79241 5.97222C1.79241 6.09726 1.65858 6.19874 1.49368 6.19874ZM2.68862 2.12148H0.298736C0.133834 2.12148 0 2.02001 0 1.89497C0 1.76994 0.133834 1.66846 0.298736 1.66846H2.68862C2.85352 1.66846 2.98736 1.76994 2.98736 1.89497C2.98736 2.02001 2.85352 2.12148 2.68862 2.12148ZM3.28609 5.29268H1.49368C1.32878 5.29268 1.19494 5.1912 1.19494 5.06617C1.19494 4.94113 1.32878 4.83965 1.49368 4.83965H3.28609C3.451 4.83965 3.58483 4.94113 3.58483 5.06617C3.58483 5.1912 3.451 5.29268 3.28609 5.29268Z" fill="black"/>
</svg>
