<svg width="20" height="20" viewBox="0 0 20 20" fill="none" xmlns="http://www.w3.org/2000/svg">
<g clip-path="url(#clip0_4122_84178)">
<path d="M11.0226 4.21174H10.8976C10.8976 4.24075 10.886 4.26857 10.8655 4.28908C10.845 4.30959 10.8172 4.32111 10.7882 4.32111C10.7592 4.32111 10.7314 4.30959 10.7109 4.28908C10.6903 4.26857 10.6788 4.24075 10.6788 4.21174V4.2116C10.6787 4.10132 10.6349 3.99558 10.5569 3.91758C10.4789 3.83957 10.3732 3.79567 10.2629 3.79549H10.2627H9.86851C9.72328 3.79549 9.584 3.85318 9.48131 3.95587C9.37862 4.05856 9.32093 4.19784 9.32093 4.34307C9.32093 4.48829 9.37862 4.62757 9.48131 4.73026C9.584 4.83295 9.72328 4.89064 9.86851 4.89064H10.1313V4.89065L10.1324 4.89064C10.3289 4.88897 10.5185 4.96292 10.662 5.09718C10.8055 5.23145 10.8919 5.41574 10.9032 5.61192C10.9146 5.8081 10.8501 6.00115 10.7231 6.15109C10.5961 6.30104 10.4163 6.39641 10.2209 6.41746L10.1093 6.42948V6.54174V6.83939C10.1093 6.8684 10.0978 6.89622 10.0773 6.91673C10.0567 6.93725 10.0289 6.94877 9.99991 6.94877C9.9709 6.94877 9.94308 6.93725 9.92257 6.91673C9.90206 6.89622 9.89054 6.8684 9.89054 6.83939V6.5483V6.4233H9.76554H9.73725C9.56888 6.42309 9.40747 6.35611 9.28843 6.23704C9.16941 6.118 9.10246 5.95662 9.10226 5.7883C9.10226 5.75929 9.11378 5.73147 9.13429 5.71096C9.1548 5.69045 9.18262 5.67893 9.21163 5.67893C9.24064 5.67893 9.26846 5.69045 9.28897 5.71096C9.30948 5.73147 9.32101 5.75929 9.32101 5.7883L9.32101 5.78843C9.32112 5.89872 9.36497 6.00446 9.44293 6.08246C9.5209 6.16047 9.62661 6.20437 9.7369 6.20455H9.7371H10.1313C10.2765 6.20455 10.4158 6.14686 10.5185 6.04417C10.6212 5.94148 10.6789 5.8022 10.6789 5.65697C10.6789 5.51175 10.6212 5.37247 10.5185 5.26978C10.4158 5.16709 10.2765 5.10939 10.1313 5.10939H9.86851V5.10937L9.86622 5.10942C9.66844 5.11304 9.47693 5.03997 9.33183 4.90553C9.18673 4.77108 9.09929 4.58569 9.08785 4.38821C9.0764 4.19073 9.14184 3.99648 9.27044 3.84618C9.39904 3.69587 9.58082 3.60117 9.7777 3.58193L9.89054 3.5709V3.45752V3.16064C9.89054 3.13164 9.90206 3.10382 9.92257 3.0833C9.94308 3.06279 9.9709 3.05127 9.99991 3.05127C10.0289 3.05127 10.0567 3.06279 10.0773 3.0833C10.0978 3.10382 10.1093 3.13164 10.1093 3.16064V3.45174V3.57674H10.2343H10.2627C10.431 3.57697 10.5924 3.64395 10.7114 3.763C10.8304 3.88207 10.8974 4.0435 10.8976 4.21187L11.0226 4.21174ZM11.0226 4.21174C11.0224 4.01026 10.9422 3.8171 10.7998 3.67462C10.6573 3.53214 10.4642 3.45199 10.2627 3.45174L9.86851 4.76564C9.75643 4.76564 9.64895 4.72112 9.5697 4.64187C9.49045 4.56263 9.44593 4.45514 9.44593 4.34307C9.44593 4.23099 9.49045 4.12351 9.5697 4.04426C9.64895 3.96501 9.75643 3.92049 9.86851 3.92049H10.2627C10.3399 3.92061 10.4139 3.95134 10.4685 4.00594C10.523 4.06054 10.5537 4.13455 10.5538 4.21174C10.5538 4.2739 10.5785 4.33351 10.6225 4.37747C10.6664 4.42142 10.726 4.44611 10.7882 4.44611C10.8504 4.44611 10.91 4.42142 10.9539 4.37747C10.9979 4.33351 11.0226 4.2739 11.0226 4.21174ZM9.7371 6.07955C9.65991 6.07943 9.58592 6.0487 9.53135 5.9941C9.47678 5.9395 9.44609 5.86549 9.44601 5.7883C9.44601 5.72614 9.42131 5.66653 9.37736 5.62257C9.33341 5.57862 9.27379 5.55393 9.21163 5.55393C9.14947 5.55393 9.08986 5.57862 9.0459 5.62257C9.00195 5.66653 8.97726 5.72614 8.97726 5.7883L9.7371 6.07955ZM9.73373 16.1344L9.67083 16.0264L9.73373 16.1344C9.81455 16.0873 9.90639 16.0625 9.99991 16.0625C10.0934 16.0625 10.1853 16.0873 10.2661 16.1344L10.329 16.0264L10.2661 16.1344C10.3469 16.1814 10.4138 16.2491 10.4599 16.3304C10.4599 16.3304 10.4599 16.3304 10.4599 16.3305L12.016 19.088L12.0161 19.0881C12.0614 19.1683 12.0849 19.2589 12.0843 19.351C12.0837 19.4432 12.0589 19.5335 12.0126 19.6131C11.9662 19.6927 11.8998 19.7587 11.82 19.8047C11.7401 19.8506 11.6497 19.8749 11.5575 19.875H8.44228C8.35016 19.8749 8.25969 19.8506 8.17986 19.8047C8.10003 19.7587 8.03362 19.6927 7.98725 19.6131C7.94088 19.5335 7.91615 19.4432 7.91554 19.351C7.91492 19.2589 7.93844 19.1683 7.98375 19.0881L7.98378 19.088L9.53988 16.3305C9.5399 16.3304 9.53992 16.3304 9.53993 16.3304C9.58608 16.2491 9.65295 16.1814 9.73373 16.1344Z" fill="black" stroke="black" stroke-width="0.25"/>
<path d="M17.9688 20C19.0906 20 20 19.0906 20 17.9688C20 16.8469 19.0906 15.9375 17.9688 15.9375C16.8469 15.9375 15.9375 16.8469 15.9375 17.9688C15.9375 19.0906 16.8469 20 17.9688 20Z" fill="black"/>
<path d="M3.36875 15.9375H0.69375C0.310602 15.9375 0 16.2481 0 16.6313V19.3062C0 19.6894 0.310602 20 0.69375 20H3.36875C3.7519 20 4.0625 19.6894 4.0625 19.3062V16.6313C4.0625 16.2481 3.7519 15.9375 3.36875 15.9375Z" fill="black"/>
<path d="M1.25 12.7344V14.6094C1.25037 14.7336 1.29988 14.8526 1.3877 14.9404C1.47553 15.0283 1.59454 15.0778 1.71875 15.0781H2.34375C2.46796 15.0778 2.58697 15.0283 2.6748 14.9404C2.76262 14.8526 2.81213 14.7336 2.8125 14.6094V13.5938H9.21875V14.6094C9.21912 14.7336 9.26863 14.8526 9.35645 14.9404C9.44428 15.0283 9.56329 15.0778 9.6875 15.0781H10.3125C10.4367 15.0778 10.5557 15.0283 10.6435 14.9404C10.7314 14.8526 10.7809 14.7336 10.7812 14.6094V13.5938H17.1875V14.6094C17.1879 14.7336 17.2374 14.8526 17.3252 14.9404C17.413 15.0283 17.532 15.0778 17.6562 15.0781H18.2812C18.4055 15.0778 18.5245 15.0283 18.6123 14.9404C18.7001 14.8526 18.7496 14.7336 18.75 14.6094V12.7344C18.7497 12.548 18.6755 12.3693 18.5437 12.2375C18.4119 12.1057 18.2333 12.0315 18.0469 12.0313H10.7812V11.0156C10.7809 10.8914 10.7314 10.7724 10.6435 10.6846C10.5557 10.5968 10.4367 10.5472 10.3125 10.5469H9.6875C9.56329 10.5472 9.44428 10.5968 9.35645 10.6846C9.26863 10.7724 9.21912 10.8914 9.21875 11.0156V12.0313H1.95312C1.76673 12.0315 1.58806 12.1057 1.45626 12.2375C1.32446 12.3693 1.25029 12.548 1.25 12.7344ZM15 5C15 4.0111 14.7068 3.0444 14.1573 2.22215C13.6079 1.39991 12.827 0.759043 11.9134 0.380605C10.9998 0.00216641 9.99445 -0.0968503 9.02455 0.0960758C8.05464 0.289002 7.16373 0.765206 6.46447 1.46447C5.7652 2.16373 5.289 3.05465 5.09607 4.02455C4.90315 4.99446 5.00216 5.99979 5.3806 6.91342C5.75904 7.82705 6.3999 8.60794 7.22215 9.15735C8.04439 9.70676 9.01109 10 10 10C11.3257 9.99876 12.5968 9.47158 13.5342 8.53417C14.4716 7.59675 14.9988 6.3257 15 5ZM6.5625 5C6.5625 4.32013 6.76411 3.65552 7.14182 3.09023C7.51954 2.52494 8.0564 2.08434 8.68453 1.82417C9.31265 1.56399 10.0038 1.49592 10.6706 1.62855C11.3374 1.76119 11.9499 2.08858 12.4307 2.56932C12.9114 3.05007 13.2388 3.66257 13.3714 4.32938C13.5041 4.99619 13.436 5.68736 13.1758 6.31548C12.9157 6.9436 12.4751 7.48046 11.9098 7.85818C11.3445 8.2359 10.6799 8.4375 10 8.4375C9.08864 8.43647 8.21489 8.07397 7.57046 7.42954C6.92603 6.78511 6.56353 5.91137 6.5625 5Z" fill="black"/>
</g>
<defs>
<clipPath id="clip0_4122_84178">
<rect width="20" height="20" fill="white"/>
</clipPath>
</defs>
</svg>
