<svg width="20" height="20" viewBox="0 0 20 20" fill="none" xmlns="http://www.w3.org/2000/svg">
<path d="M17.4692 3.74351C16.632 3.54421 15.7984 3.54411 14.9917 3.74324C14.6204 3.83477 14.1777 4.03147 14.1777 4.44857V6.31569H14.2472M17.4692 3.74351L17.4531 3.81112C16.6263 3.61429 15.8039 3.61433 15.0083 3.81071L15.0083 3.81071C14.8263 3.85559 14.6326 3.92501 14.486 4.03027C14.341 4.13438 14.2472 4.26902 14.2472 4.44857V6.31569M17.4692 3.74351C17.7726 3.81573 18.2817 4.00334 18.2817 4.44854V6.31569H18.2122M17.4692 3.74351L17.4531 3.81112C17.6016 3.84646 17.7953 3.90903 17.9504 4.01375C18.1044 4.11777 18.2122 4.25719 18.2122 4.44854V6.31569M14.2472 6.31569H14.8436M14.2472 6.31569V6.38519H14.8436V6.31569M14.8436 6.31569H14.9131V5.03701C14.9131 4.90487 15.0245 4.79792 15.1623 4.79792C15.3 4.79792 15.4114 4.9049 15.4114 5.03701V6.31569H15.4809M14.8436 6.31569V5.03701C14.8436 4.8638 14.9889 4.72842 15.1623 4.72842C15.3356 4.72842 15.4809 4.86384 15.4809 5.03701V6.31569M15.4809 6.31569V6.38519H16.9786V6.31569M15.4809 6.31569H16.9786M16.9786 6.31569H17.0481V5.03701C17.0481 4.90487 17.1595 4.79792 17.2973 4.79792C17.435 4.79792 17.5464 4.9049 17.5464 5.03701V6.31569H17.6159M16.9786 6.31569V5.03701C16.9786 4.8638 17.1239 4.72842 17.2973 4.72842C17.4706 4.72842 17.6159 4.86385 17.6159 5.03701V6.31569M17.6159 6.31569V6.38519H18.2122V6.31569M17.6159 6.31569H18.2122M15.0083 16.1755L15.0083 16.1755C15.8039 15.9791 16.6263 15.9791 17.4531 16.1759C17.6016 16.2112 17.7953 16.2738 17.9504 16.3785C18.1044 16.4826 18.2122 16.622 18.2122 16.8133V18.6805H17.6159V17.4019C17.6159 17.2287 17.4706 17.0932 17.2973 17.0932C17.1239 17.0932 16.9786 17.2287 16.9786 17.4019V18.6805H15.4809V17.4019C15.4809 17.2287 15.3356 17.0932 15.1623 17.0932C14.9889 17.0932 14.8436 17.2287 14.8436 17.4019V18.6805H14.2472V16.8133C14.2472 16.6338 14.341 16.4992 14.486 16.395C14.6326 16.2898 14.8263 16.2204 15.0083 16.1755ZM15.0083 10.0071L15.0083 10.0071C15.8039 9.81076 16.6263 9.81072 17.4531 10.0076C17.6016 10.0429 17.7953 10.1055 17.9504 10.2102C18.1044 10.3142 18.2122 10.4537 18.2122 10.645V12.5122H17.6159V11.2335C17.6159 11.0603 17.4706 10.9249 17.2973 10.9249C17.1239 10.9249 16.9786 11.0603 16.9786 11.2335V12.5122H15.4809V11.2335C15.4809 11.0603 15.3356 10.9249 15.1623 10.9249C14.9889 10.9249 14.8436 11.0603 14.8436 11.2335V12.5122H14.2472V10.645C14.2472 10.4655 14.341 10.3308 14.486 10.2267C14.6326 10.1214 14.8263 10.052 15.0083 10.0071ZM11.8269 3.56119H11.7574V3.63068V9.74017V9.80966H11.8269H12.6819C12.8037 9.80966 12.8979 9.90385 12.8979 10.0141C12.8979 10.1243 12.8037 10.2185 12.6819 10.2185H11.8269H11.7574V10.288V16.3975V16.467H11.8269H12.6819C12.8037 16.467 12.8979 16.5612 12.8979 16.6713C12.8979 16.7815 12.804 16.8757 12.6819 16.8757H11.5414C11.4833 16.8757 11.4281 16.8536 11.3879 16.8149L11.3879 16.8149C11.3476 16.7762 11.3254 16.7244 11.3254 16.6713V10.288V10.2185H11.2559H10.2856C10.1639 10.2185 10.0697 10.1243 10.0697 10.0141C10.0697 9.90385 10.1639 9.80966 10.2856 9.80966H11.2559H11.3254V9.74017V3.35694C11.3254 3.30382 11.3475 3.25229 11.3879 3.21361L11.3879 3.21358C11.4283 3.1748 11.4835 3.15248 11.5414 3.15248H12.6819C12.8039 3.15248 12.8979 3.2469 12.8979 3.35694C12.8979 3.46698 12.8037 3.56119 12.6819 3.56119H11.8269ZM5.07962 9.6707V6.31551C6.93443 6.47766 8.41237 7.89825 8.58202 9.67241L5.07962 9.6707ZM15.4692 14.4503C15.4692 14.1057 15.591 13.9199 15.7383 13.8169C15.8901 13.7108 16.0807 13.6843 16.2297 13.6843C16.3787 13.6843 16.5694 13.7108 16.7212 13.8169C16.8684 13.9199 16.9903 14.1057 16.9903 14.4503C16.9903 14.7392 16.9013 14.9987 16.7609 15.1844C16.6206 15.3701 16.432 15.4788 16.2297 15.4788C16.0275 15.4788 15.8389 15.3701 15.6985 15.1844C15.5581 14.9987 15.4692 14.7392 15.4692 14.4503ZM15.4692 8.28196C15.4692 7.93736 15.591 7.75153 15.7383 7.64857C15.8901 7.54244 16.0807 7.51597 16.2297 7.51597C16.3787 7.51597 16.5694 7.54244 16.7212 7.64857C16.8684 7.75153 16.9903 7.93737 16.9903 8.28196C16.9903 8.57091 16.9013 8.83037 16.7609 9.01608C16.6206 9.20177 16.432 9.31045 16.2297 9.31045C16.0275 9.31046 15.8389 9.20179 15.6985 9.01609C15.5581 8.83038 15.4692 8.57091 15.4692 8.28196ZM15.4692 2.08549C15.4692 1.7409 15.5911 1.55506 15.7383 1.4521C15.8901 1.34597 16.0808 1.3195 16.2298 1.3195C16.3788 1.3195 16.5694 1.34597 16.7212 1.4521C16.8685 1.55506 16.9903 1.7409 16.9903 2.08549C16.9903 2.37444 16.9014 2.6339 16.761 2.81961C16.6206 3.0053 16.432 3.11398 16.2298 3.11398C16.0275 3.11398 15.8389 3.0053 15.6985 2.81961C15.5581 2.6339 15.4692 2.37444 15.4692 2.08549ZM11.3398 3.16345C11.3933 3.11208 11.4658 3.08299 11.5414 3.08299H12.6819C12.8396 3.08299 12.9674 3.2059 12.9674 3.35694C12.9674 3.50812 12.8393 3.63068 12.6819 3.63068H11.8964H11.8269L11.3398 3.16345ZM8.58164 10.3591C8.47581 11.4559 7.87037 12.4168 6.98436 13.029L5.34785 10.3579L8.58164 10.3591ZM4.72467 13.7281C2.58622 13.7281 0.851234 12.0593 0.851234 10.0141C0.851234 8.08328 2.39743 6.48796 4.36972 6.31551V10.0141C4.36972 10.0761 4.38741 10.1367 4.4197 10.189C4.41974 10.1891 4.41978 10.1891 4.41982 10.1892L6.37147 13.3755C5.87167 13.6017 5.31331 13.7281 4.72467 13.7281Z" fill="#FCFCFC" stroke="#FCFCFC" stroke-width="0.138992"/>
</svg>
