<svg width="263" height="58" viewBox="0 0 263 58" fill="none" xmlns="http://www.w3.org/2000/svg">
<g clip-path="url(#clip0_6083_36881)">
<path d="M21.9563 14.2862C22.4674 14.3677 22.5979 14.4583 22.8299 14.6323C23.8594 15.3972 23.6691 17.2297 22.3931 17.7843C22.3478 17.8042 22.3025 17.8242 22.2572 17.8441C15.7684 20.7477 11.703 28.1355 12.8974 35.3365C14.0067 42.0283 19.629 47.7304 26.5165 48.7853C32.3999 49.6843 38.673 47.0888 42.2001 42.253C45.8849 37.2034 46.3435 30.0241 43.1317 24.4688C43.1317 24.4688 42.6079 23.2744 43.1734 22.4605C43.8767 21.4474 45.5931 21.4691 46.309 22.7161C49.702 28.6122 49.789 36.4458 46.3689 42.4723C43.7135 47.1558 39.1044 50.6884 33.8662 52.0025C25.5396 54.0923 16.024 50.2099 11.6359 42.4723C8.03086 36.1195 8.29367 27.7476 12.3229 21.6685C14.4217 18.5002 17.4957 15.9645 20.9485 14.4565C20.9485 14.4565 21.2295 14.3297 21.4832 14.2916C21.7841 14.2481 21.8584 14.2789 21.9563 14.2862ZM30.8158 12.7818C33.9478 13.0772 37.0019 14.1122 39.668 15.7887L42.2309 13.224C42.3669 13.0935 42.414 13.0609 42.5064 12.9993C42.704 12.867 42.9269 12.7745 43.1607 12.7274C43.2713 12.7057 43.2713 12.6894 43.5649 12.6948C44.9442 12.7528 45.9248 14.6305 44.7974 15.7905L41.1688 19.4174C41.118 19.4681 41.0637 19.5134 41.0057 19.5551C40.7809 19.749 40.4891 19.885 40.1302 19.9321C39.3599 20.0372 38.769 19.517 37.8157 18.908C35.1984 17.2369 32.1099 16.3289 28.9979 16.3216C28.9979 16.3216 28.8547 16.298 28.6517 16.2328C28.1514 16.1784 27.6838 15.9047 27.392 15.341C27.3612 15.283 27.3358 15.225 27.3122 15.1634C27.3086 15.158 27.3068 15.1525 27.305 15.1453C27.3014 15.1362 27.2977 15.1254 27.2941 15.1163C27.2488 14.9894 27.218 14.8571 27.2017 14.723C27.1926 14.6523 27.1908 14.5798 27.189 14.5073V9.06616H30.8158V12.7818Z" fill="black"/>
<path d="M29.121 30.8361C30.7178 30.9793 31.5389 33.6599 29.576 34.3686L18.6919 37.9954C17.3434 38.4087 15.8499 36.8789 16.468 35.5232C16.6746 35.0701 17.0788 34.7221 17.5446 34.5535L28.4287 30.9267C28.6516 30.8578 28.8836 30.827 29.121 30.8361ZM32.63 9.06612H25.3746C23.9917 9.03712 22.9984 7.17206 24.0297 6.03381C24.3687 5.66044 24.8743 5.44656 25.3746 5.4375H32.63C32.6536 5.4375 32.679 5.43931 32.7025 5.43931C34.0764 5.52087 34.9573 7.38412 33.9749 8.468C33.636 8.84319 33.1321 9.05525 32.63 9.06612Z" fill="#AEAF00"/>
</g>
<path d="M70.984 45.168C70.36 45.168 69.728 45.096 69.088 44.952C68.448 44.808 67.856 44.584 67.312 44.28C66.784 43.96 66.352 43.552 66.016 43.056C65.696 42.544 65.536 41.936 65.536 41.232C65.536 41.152 65.536 41.08 65.536 41.016C65.536 40.936 65.544 40.84 65.56 40.728C65.608 40.296 65.712 39.76 65.872 39.12C66.048 38.48 66.248 37.8 66.472 37.08C66.696 36.36 66.912 35.648 67.12 34.944C67.344 34.24 67.528 33.6 67.672 33.024C67.816 32.432 67.888 31.96 67.888 31.608C67.888 31.224 67.784 31.032 67.576 31.032C67.368 31.032 67.056 31.232 66.64 31.632C66.224 32.032 65.744 32.696 65.2 33.624L65.056 33.576C65.056 32.28 65.344 31.176 65.92 30.264C66.512 29.336 67.344 28.632 68.416 28.152C69.504 27.656 70.784 27.408 72.256 27.408C73.632 27.408 74.816 27.616 75.808 28.032C76.8 28.432 77.608 28.984 78.232 29.688C78.872 30.392 79.344 31.2 79.648 32.112C79.952 33.008 80.104 33.952 80.104 34.944C80.104 36.144 79.888 37.352 79.456 38.568C79.04 39.768 78.432 40.872 77.632 41.88C76.848 42.872 75.888 43.672 74.752 44.28C73.632 44.872 72.376 45.168 70.984 45.168ZM71.392 42C72.032 42 72.608 41.816 73.12 41.448C73.648 41.064 74.104 40.56 74.488 39.936C74.872 39.312 75.168 38.624 75.376 37.872C75.584 37.104 75.688 36.336 75.688 35.568C75.688 34.656 75.528 33.8 75.208 33C74.904 32.2 74.408 31.552 73.72 31.056C73.032 30.56 72.136 30.312 71.032 30.312C71.112 30.616 71.168 30.928 71.2 31.248C71.248 31.568 71.272 31.896 71.272 32.232C71.272 32.968 71.2 33.72 71.056 34.488C70.928 35.256 70.776 36 70.6 36.72C70.44 37.44 70.288 38.112 70.144 38.736C70.016 39.36 69.952 39.912 69.952 40.392C69.952 40.888 70.056 41.28 70.264 41.568C70.472 41.856 70.848 42 71.392 42ZM84.0514 45.096C83.4754 45.096 82.9634 44.864 82.5154 44.4C82.0674 43.92 81.8434 43.248 81.8434 42.384C81.8434 41.968 81.8914 41.496 81.9874 40.968C82.0834 40.44 82.1954 39.904 82.3234 39.36C82.4514 38.8 82.5634 38.28 82.6594 37.8C82.7554 37.304 82.8034 36.896 82.8034 36.576C82.8034 36.24 82.7394 35.976 82.6114 35.784C82.4994 35.576 82.3474 35.472 82.1554 35.472C81.8514 35.472 81.5394 35.68 81.2194 36.096L81.0754 36C81.0594 35.744 81.1154 35.44 81.2434 35.088C81.3714 34.736 81.5714 34.4 81.8434 34.08C82.1154 33.744 82.4594 33.464 82.8754 33.24C83.3074 33.016 83.8114 32.904 84.3874 32.904C85.2354 32.904 85.8514 33.152 86.2354 33.648C86.6194 34.128 86.8114 34.712 86.8114 35.4C86.8114 35.512 86.8034 35.632 86.7874 35.76C86.7874 35.872 86.7794 35.984 86.7634 36.096C87.3394 35.056 87.9394 34.264 88.5634 33.72C89.2034 33.16 89.7954 32.88 90.3394 32.88C90.8514 32.88 91.2274 33.08 91.4674 33.48C91.7074 33.88 91.8274 34.36 91.8274 34.92C91.8274 35.432 91.7234 35.952 91.5154 36.48C91.3234 37.008 91.0274 37.448 90.6274 37.8C90.2434 38.136 89.7714 38.296 89.2114 38.28L89.1154 38.232C89.0994 37.816 88.9634 37.488 88.7074 37.248C88.4514 37.008 88.1634 36.888 87.8434 36.888C87.4114 36.888 87.0034 37.104 86.6194 37.536C86.2514 37.968 86.0674 38.592 86.0674 39.408C86.0674 39.904 86.1234 40.44 86.2354 41.016C86.3474 41.592 86.4034 42.08 86.4034 42.48C86.4034 42.96 86.2914 43.4 86.0674 43.8C85.8434 44.2 85.5554 44.52 85.2034 44.76C84.8514 44.984 84.4674 45.096 84.0514 45.096ZM96.8414 32.16C96.2014 32.16 95.6734 31.968 95.2574 31.584C94.8574 31.184 94.6574 30.688 94.6574 30.096C94.6574 29.456 94.8974 28.904 95.3774 28.44C95.8574 27.976 96.4414 27.744 97.1294 27.744C97.7694 27.744 98.2894 27.944 98.6894 28.344C99.1054 28.744 99.3134 29.24 99.3134 29.832C99.3134 30.472 99.0734 31.024 98.5934 31.488C98.1134 31.936 97.5294 32.16 96.8414 32.16ZM95.1614 45.096C94.5374 45.096 93.9774 44.88 93.4814 44.448C92.9854 44 92.7374 43.288 92.7374 42.312C92.7374 41.752 92.8094 41.232 92.9534 40.752C93.1134 40.256 93.2894 39.776 93.4814 39.312C93.6894 38.848 93.8654 38.4 94.0094 37.968C94.1694 37.52 94.2494 37.08 94.2494 36.648C94.2494 36.264 94.1854 35.992 94.0574 35.832C93.9294 35.656 93.7774 35.568 93.6014 35.568C93.3294 35.568 93.0654 35.744 92.8094 36.096L92.6414 36C92.7054 35.36 92.9054 34.816 93.2414 34.368C93.5934 33.904 94.0174 33.544 94.5134 33.288C95.0254 33.032 95.5294 32.904 96.0254 32.904C96.6334 32.904 97.1614 33.104 97.6094 33.504C98.0574 33.888 98.2814 34.52 98.2814 35.4C98.2814 35.928 98.2014 36.488 98.0414 37.08C97.8974 37.656 97.7214 38.232 97.5134 38.808C97.3214 39.384 97.1454 39.92 96.9854 40.416C96.8414 40.912 96.7694 41.336 96.7694 41.688C96.7694 41.992 96.8254 42.208 96.9374 42.336C97.0654 42.464 97.2014 42.528 97.3454 42.528C97.4894 42.528 97.6254 42.488 97.7534 42.408C97.8974 42.312 98.0014 42.208 98.0654 42.096L98.2334 42.144C98.2334 42.736 98.0734 43.256 97.7534 43.704C97.4494 44.136 97.0654 44.48 96.6014 44.736C96.1374 44.976 95.6574 45.096 95.1614 45.096ZM102.659 45.096C102.227 45.096 101.803 44.992 101.387 44.784C100.987 44.56 100.659 44.208 100.403 43.728C100.147 43.248 100.019 42.632 100.019 41.88C100.019 41.208 100.107 40.424 100.283 39.528C100.475 38.616 100.683 37.672 100.907 36.696C101.147 35.72 101.355 34.768 101.531 33.84C101.707 32.912 101.787 32.088 101.771 31.368C101.771 30.68 101.691 30.192 101.531 29.904L101.507 29.832C101.683 29.32 101.995 28.92 102.443 28.632C102.891 28.344 103.363 28.2 103.859 28.2C104.419 28.2 104.915 28.416 105.347 28.848C105.795 29.264 106.019 29.968 106.019 30.96C106.019 31.488 105.955 32.12 105.827 32.856C105.699 33.576 105.547 34.352 105.371 35.184C105.195 36 105.011 36.808 104.819 37.608C104.643 38.408 104.491 39.144 104.363 39.816C104.235 40.488 104.171 41.04 104.171 41.472C104.171 41.92 104.235 42.232 104.363 42.408C104.491 42.568 104.635 42.648 104.795 42.648C104.971 42.648 105.139 42.584 105.299 42.456C105.459 42.312 105.563 42.184 105.611 42.072L105.803 42.12C105.787 42.696 105.619 43.208 105.299 43.656C104.995 44.104 104.603 44.456 104.123 44.712C103.659 44.968 103.171 45.096 102.659 45.096ZM109.995 45.096C109.563 45.096 109.139 44.992 108.723 44.784C108.323 44.56 107.995 44.208 107.739 43.728C107.483 43.248 107.355 42.632 107.355 41.88C107.355 41.208 107.443 40.424 107.619 39.528C107.811 38.616 108.019 37.672 108.243 36.696C108.483 35.72 108.691 34.768 108.867 33.84C109.043 32.912 109.123 32.088 109.107 31.368C109.107 30.68 109.027 30.192 108.867 29.904L108.843 29.832C109.019 29.32 109.331 28.92 109.779 28.632C110.227 28.344 110.699 28.2 111.195 28.2C111.755 28.2 112.251 28.416 112.683 28.848C113.131 29.264 113.355 29.968 113.355 30.96C113.355 31.488 113.291 32.12 113.163 32.856C113.035 33.576 112.883 34.352 112.707 35.184C112.531 36 112.347 36.808 112.155 37.608C111.979 38.408 111.827 39.144 111.699 39.816C111.571 40.488 111.507 41.04 111.507 41.472C111.507 41.92 111.571 42.232 111.699 42.408C111.827 42.568 111.971 42.648 112.131 42.648C112.307 42.648 112.475 42.584 112.635 42.456C112.795 42.312 112.899 42.184 112.947 42.072L113.139 42.12C113.123 42.696 112.955 43.208 112.635 43.656C112.331 44.104 111.939 44.456 111.459 44.712C110.995 44.968 110.507 45.096 109.995 45.096Z" fill="#D21116"/>
<path d="M126.852 38.808H119.628V36.84H126.852V38.808ZM137.073 35.88C138.401 36.136 139.385 36.408 140.025 36.696C140.681 36.984 141.153 37.416 141.441 37.992C141.745 38.552 141.897 39.368 141.897 40.44C141.897 41.64 141.681 42.584 141.249 43.272C140.817 43.96 140.137 44.456 139.209 44.76C138.281 45.048 137.017 45.192 135.417 45.192C133.257 45.192 131.257 44.952 129.417 44.472V40.2H131.073L131.481 42.96C132.761 43.264 134.097 43.416 135.489 43.416C136.673 43.416 137.569 43.328 138.177 43.152C138.801 42.976 139.225 42.704 139.449 42.336C139.673 41.952 139.785 41.432 139.785 40.776C139.785 39.976 139.689 39.416 139.497 39.096C139.305 38.776 138.921 38.528 138.345 38.352C137.769 38.176 136.657 37.936 135.009 37.632L134.409 37.512C133.097 37.272 132.081 36.984 131.361 36.648C130.657 36.296 130.153 35.84 129.849 35.28C129.561 34.72 129.417 33.976 129.417 33.048C129.417 31.912 129.625 31.016 130.041 30.36C130.473 29.688 131.145 29.208 132.057 28.92C132.969 28.632 134.185 28.488 135.705 28.488C137.577 28.488 139.513 28.696 141.513 29.112V33.312H139.929L139.545 30.648C138.329 30.392 137.017 30.264 135.609 30.264C134.505 30.264 133.657 30.352 133.065 30.528C132.473 30.688 132.065 30.944 131.841 31.296C131.633 31.632 131.529 32.096 131.529 32.688C131.529 33.424 131.633 33.952 131.841 34.272C132.065 34.592 132.465 34.84 133.041 35.016C133.633 35.192 134.729 35.432 136.329 35.736L137.073 35.88ZM158.508 32.928H157.092L156.468 30.408H148.308V35.928H153.084L153.444 34.08H154.764V39.504H153.444L153.084 37.656H148.308V43.272H156.468L157.092 40.512H158.508V45H144.468V43.68L146.244 42.96V30.744L144.468 30.048V28.68H158.508V32.928ZM176.35 43.68V45H173.59L169.078 38.232H164.926V42.936L166.702 43.68V45H161.086V43.68L162.862 42.936V30.744L161.086 30.048V28.68H170.662C172.214 28.68 173.39 29.088 174.19 29.904C174.99 30.704 175.39 31.888 175.39 33.456C175.39 34.848 175.054 35.944 174.382 36.744C173.726 37.528 172.758 38 171.478 38.16L174.718 42.96L176.35 43.68ZM164.926 36.504H170.23C171.302 36.504 172.07 36.272 172.534 35.808C172.998 35.328 173.23 34.544 173.23 33.456C173.23 32.384 173.006 31.608 172.558 31.128C172.126 30.648 171.43 30.408 170.47 30.408H164.926V36.504ZM193.691 36.84V38.208L192.155 38.904V44.424C191.323 44.696 190.403 44.904 189.395 45.048C188.403 45.208 187.459 45.288 186.563 45.288C183.779 45.288 181.691 44.616 180.299 43.272C178.923 41.928 178.235 39.784 178.235 36.84C178.235 33.912 178.931 31.776 180.323 30.432C181.731 29.072 183.811 28.392 186.563 28.392C188.323 28.392 190.187 28.608 192.155 29.04V33.288H190.475L190.067 30.576C188.931 30.304 187.755 30.168 186.539 30.168C185.019 30.168 183.811 30.376 182.915 30.792C182.035 31.208 181.395 31.904 180.995 32.88C180.595 33.84 180.395 35.16 180.395 36.84C180.395 38.552 180.595 39.888 180.995 40.848C181.395 41.808 182.027 42.496 182.891 42.912C183.771 43.312 184.963 43.512 186.467 43.512C187.827 43.512 189.043 43.352 190.115 43.032V38.904L188.579 38.208V36.84H193.691ZM209.532 32.928H208.116L207.492 30.408H199.332V35.928H204.108L204.468 34.08H205.788V39.504H204.468L204.108 37.656H199.332V43.272H207.492L208.116 40.512H209.532V45H195.492V43.68L197.268 42.96V30.744L195.492 30.048V28.68H209.532V32.928ZM227.925 43.68V45H222.405V43.68L224.085 43.032L222.789 39.504H215.709L214.389 43.056L216.093 43.68V45H210.981V43.68L212.637 42.936L218.109 28.488H220.797L226.269 42.912L227.925 43.68ZM222.165 37.8L219.261 29.928L216.333 37.8H222.165ZM246.421 28.68V30.048L244.645 30.744V45H242.197L232.957 31.248V42.96L234.853 43.68V45H229.429V43.68L231.205 42.96V30.744L229.429 30.048V28.68H233.653L242.869 42.408V30.744L240.973 30.048V28.68H246.421ZM262.996 33.288H261.676L260.98 30.408H256.636V42.96L258.652 43.68V45H252.556V43.68L254.572 42.96V30.408H250.228L249.532 33.288H248.212V28.68H262.996V33.288Z" fill="black"/>
<path d="M74.8254 22.23V23H73.2154L70.5834 19.052H68.1614V21.796L69.1974 22.23V23H65.9214V22.23L66.9574 21.796V14.684L65.9214 14.278V13.48H71.5074C72.4127 13.48 73.0987 13.718 73.5654 14.194C74.032 14.6607 74.2654 15.3513 74.2654 16.266C74.2654 17.078 74.0694 17.7173 73.6774 18.184C73.2947 18.6413 72.73 18.9167 71.9834 19.01L73.8734 21.81L74.8254 22.23ZM68.1614 18.044H71.2554C71.8807 18.044 72.3287 17.9087 72.5994 17.638C72.87 17.358 73.0054 16.9007 73.0054 16.266C73.0054 15.6407 72.8747 15.188 72.6134 14.908C72.3614 14.628 71.9554 14.488 71.3954 14.488H68.1614V18.044ZM79.3829 14.278L78.3469 14.684V21.81L79.3829 22.23V23H76.1069V22.23L77.1429 21.81V14.684L76.1069 14.278V13.48H79.3829V14.278ZM85.2734 17.68C86.0481 17.8293 86.6221 17.988 86.9954 18.156C87.3781 18.324 87.6534 18.576 87.8214 18.912C87.9987 19.2387 88.0874 19.7147 88.0874 20.34C88.0874 21.04 87.9614 21.5907 87.7094 21.992C87.4574 22.3933 87.0607 22.6827 86.5194 22.86C85.9781 23.028 85.2407 23.112 84.3074 23.112C83.0474 23.112 81.8807 22.972 80.8074 22.692V20.2H81.7734L82.0114 21.81C82.7581 21.9873 83.5374 22.076 84.3494 22.076C85.0401 22.076 85.5627 22.0247 85.9174 21.922C86.2814 21.8193 86.5287 21.6607 86.6594 21.446C86.7901 21.222 86.8554 20.9187 86.8554 20.536C86.8554 20.0693 86.7994 19.7427 86.6874 19.556C86.5754 19.3693 86.3514 19.2247 86.0154 19.122C85.6794 19.0193 85.0307 18.8793 84.0694 18.702L83.7194 18.632C82.9541 18.492 82.3614 18.324 81.9414 18.128C81.5307 17.9227 81.2367 17.6567 81.0594 17.33C80.8914 17.0033 80.8074 16.5693 80.8074 16.028C80.8074 15.3653 80.9287 14.8427 81.1714 14.46C81.4234 14.068 81.8154 13.788 82.3474 13.62C82.8794 13.452 83.5887 13.368 84.4754 13.368C85.5674 13.368 86.6967 13.4893 87.8634 13.732V16.182H86.9394L86.7154 14.628C86.0061 14.4787 85.2407 14.404 84.4194 14.404C83.7754 14.404 83.2807 14.4553 82.9354 14.558C82.5901 14.6513 82.3521 14.8007 82.2214 15.006C82.1001 15.202 82.0394 15.4727 82.0394 15.818C82.0394 16.2473 82.1001 16.5553 82.2214 16.742C82.3521 16.9287 82.5854 17.0733 82.9214 17.176C83.2667 17.2787 83.9061 17.4187 84.8394 17.596L85.2734 17.68ZM99.3454 22.216V22.986H96.0274V22.216L96.9094 21.81L93.8294 18.142L91.8274 19.71V21.796L92.9334 22.23V23H89.5874V22.23L90.6234 21.796V14.684L89.5874 14.278V13.48H92.8634V14.278L91.8274 14.684V18.478L96.7274 14.628L95.9014 14.278V13.48H99.2054V14.278L98.1834 14.74L94.7534 17.428L98.4494 21.796L99.3454 22.216ZM108.993 13.312C110.412 13.312 111.518 13.7227 112.311 14.544C113.105 15.356 113.501 16.588 113.501 18.24C113.501 19.892 113.105 21.1287 112.311 21.95C111.518 22.762 110.412 23.168 108.993 23.168C107.575 23.168 106.469 22.762 105.675 21.95C104.882 21.1287 104.485 19.892 104.485 18.24C104.485 16.588 104.882 15.356 105.675 14.544C106.469 13.7227 107.575 13.312 108.993 13.312ZM108.993 14.348C108.237 14.348 107.621 14.474 107.145 14.726C106.679 14.978 106.329 15.3887 106.095 15.958C105.862 16.5273 105.745 17.288 105.745 18.24C105.745 19.192 105.862 19.9527 106.095 20.522C106.329 21.0913 106.679 21.502 107.145 21.754C107.621 22.006 108.237 22.132 108.993 22.132C109.749 22.132 110.361 22.006 110.827 21.754C111.303 21.502 111.658 21.0913 111.891 20.522C112.125 19.9527 112.241 19.192 112.241 18.24C112.241 17.288 112.125 16.5273 111.891 15.958C111.658 15.3887 111.303 14.978 110.827 14.726C110.361 14.474 109.749 14.348 108.993 14.348ZM122.959 16.042H122.147L121.769 14.488H117.093V17.834H119.781L119.991 16.742H120.761V19.976H119.991L119.781 18.842H117.093V21.81L118.367 22.23V23H114.853V22.23L115.889 21.81V14.684L114.853 14.278V13.48H122.959V16.042ZM132.461 16.042H131.649L131.271 14.488H126.595V17.834H129.283L129.493 16.742H130.263V19.976H129.493L129.283 18.842H126.595V21.81L127.869 22.23V23H124.355V22.23L125.391 21.81V14.684L124.355 14.278V13.48H132.461V16.042ZM137.133 14.278L136.097 14.684V21.81L137.133 22.23V23H133.857V22.23L134.893 21.81V14.684L133.857 14.278V13.48H137.133V14.278ZM143.233 14.348C142.393 14.348 141.721 14.474 141.217 14.726C140.713 14.9687 140.34 15.37 140.097 15.93C139.864 16.49 139.747 17.246 139.747 18.198C139.747 19.1687 139.864 19.9433 140.097 20.522C140.34 21.0913 140.709 21.502 141.203 21.754C141.698 22.006 142.347 22.132 143.149 22.132C143.663 22.132 144.19 22.09 144.731 22.006C145.282 21.9127 145.786 21.768 146.243 21.572V22.608C145.851 22.7853 145.38 22.9207 144.829 23.014C144.279 23.1167 143.719 23.168 143.149 23.168C140.041 23.168 138.487 21.5253 138.487 18.24C138.487 16.532 138.898 15.286 139.719 14.502C140.541 13.7087 141.749 13.312 143.345 13.312C144.279 13.312 145.245 13.424 146.243 13.648V16.126H145.263L145.025 14.53C144.447 14.4087 143.849 14.348 143.233 14.348ZM156.115 15.958H155.289L154.925 14.488H150.165V17.708H152.951L153.161 16.63H153.931V19.794H153.161L152.951 18.716H150.165V21.992H154.925L155.289 20.382H156.115V23H147.925V22.23L148.961 21.81V14.684L147.925 14.278V13.48H156.115V15.958Z" fill="black"/>
<defs>
<clipPath id="clip0_6083_36881">
<rect width="58" height="58" fill="white"/>
</clipPath>
</defs>
</svg>
