<svg width="76" height="76" viewBox="0 0 76 76" fill="none" xmlns="http://www.w3.org/2000/svg">
<g clip-path="url(#clip0_5765_11167)">
<path d="M28.8909 18.9736C29.5518 19.0791 29.7206 19.1963 30.0206 19.4213C31.3518 20.4104 31.1057 22.7799 29.4557 23.4971C29.3971 23.5229 29.3385 23.5486 29.2799 23.5744C20.8893 27.3291 15.6323 36.8822 17.1768 46.1939C18.6112 54.8471 25.8815 62.2205 34.7878 63.5846C42.3956 64.7471 50.5073 61.3908 55.0682 55.1377C59.8331 48.608 60.426 39.3244 56.2729 32.1408C56.2729 32.1408 55.5956 30.5963 56.3268 29.5439C57.2362 28.2338 59.4557 28.2619 60.3815 29.8744C64.769 37.4986 64.8815 47.6283 60.4589 55.4213C57.0253 61.4775 51.0651 66.0455 44.2917 67.7447C33.5245 70.4471 21.2198 65.4268 15.5456 55.4213C10.8839 47.2064 11.2237 36.3807 16.4339 28.5197C19.1479 24.4229 23.1229 21.1439 27.5878 19.1939C27.5878 19.1939 27.951 19.0299 28.2792 18.9807C28.6682 18.9244 28.7643 18.9643 28.8909 18.9736ZM40.3471 17.0283C44.3971 17.4104 48.3464 18.7486 51.794 20.9166L55.1081 17.6002C55.2839 17.4314 55.3448 17.3893 55.4643 17.3096C55.7198 17.1385 56.0081 17.0189 56.3104 16.958C56.4534 16.9299 56.4534 16.9088 56.8331 16.9158C58.6167 16.9908 59.8846 19.4189 58.4268 20.9189L53.7346 25.6088C53.669 25.6744 53.5987 25.733 53.5237 25.7869C53.2331 26.0377 52.8557 26.2135 52.3917 26.2744C51.3956 26.4104 50.6315 25.7377 49.3987 24.9502C46.0143 22.7893 42.0206 21.615 37.9963 21.6057C37.9963 21.6057 37.8112 21.5752 37.5487 21.4908C36.9018 21.4205 36.2971 21.0666 35.9198 20.3377C35.8799 20.2627 35.8471 20.1877 35.8167 20.108C35.812 20.101 35.8096 20.0939 35.8073 20.0846C35.8026 20.0729 35.7979 20.0588 35.7932 20.0471C35.7346 19.883 35.6948 19.7119 35.6737 19.5385C35.662 19.4471 35.6596 19.3533 35.6573 19.2596V12.2236H40.3471V17.0283Z" fill="black"/>
<path d="M38.157 40.3742C40.2218 40.5594 41.2835 44.0258 38.7453 44.9422L24.671 49.632C22.9273 50.1664 20.996 48.1883 21.7953 46.4352C22.0624 45.8492 22.5851 45.3992 23.1874 45.1812L37.2617 40.4914C37.5499 40.4023 37.8499 40.3625 38.157 40.3742ZM42.6945 12.2234H33.3124C31.5242 12.1859 30.2398 9.77422 31.5734 8.30234C32.0117 7.81953 32.6656 7.54297 33.3124 7.53125H42.6945C42.7249 7.53125 42.7578 7.53359 42.7882 7.53359C44.5648 7.63906 45.7038 10.0484 44.4335 11.45C43.9953 11.9352 43.3437 12.2094 42.6945 12.2234Z" fill="#AEAF00"/>
</g>
<defs>
<clipPath id="clip0_5765_11167">
<rect width="75" height="75" fill="white" transform="translate(0.5 0.5)"/>
</clipPath>
</defs>
</svg>
