<svg width="22" height="22" viewBox="0 0 22 22" fill="none" xmlns="http://www.w3.org/2000/svg">
<path d="M4.57797 7.67441C5.23724 7.67441 5.88171 7.47869 6.42987 7.11199C6.97803 6.74529 7.40528 6.22409 7.65757 5.6143C7.90986 5.0045 7.97587 4.3335 7.84726 3.68615C7.71864 3.0388 7.40117 2.44416 6.93499 1.97745C6.46882 1.51073 5.87487 1.19289 5.22827 1.06412C4.58166 0.935358 3.91144 1.00145 3.30235 1.25403C2.69327 1.50662 2.17267 1.93435 1.8064 2.48315C1.44013 3.03195 1.24463 3.67717 1.24463 4.33721C1.24463 5.22229 1.59582 6.07112 2.22094 6.69696C2.53047 7.00685 2.89793 7.25267 3.30235 7.42038C3.70677 7.58809 4.14023 7.67441 4.57797 7.67441ZM4.82797 4.67093H4.32797C4.05199 4.68088 3.78327 4.58124 3.58035 4.39371C3.37744 4.20618 3.25677 3.94597 3.24463 3.66976C3.25376 3.40715 3.36204 3.15777 3.54764 2.97196C3.73323 2.78615 3.98232 2.67774 4.24463 2.6686V2.33488H4.9113V2.6686C5.17361 2.67774 5.4227 2.78615 5.6083 2.97196C5.79389 3.15777 5.90218 3.40715 5.9113 3.66976H5.24463C5.2313 3.5712 5.18059 3.48155 5.10301 3.41942C5.02543 3.35728 4.92694 3.32743 4.82797 3.33604H4.32797C4.22899 3.32743 4.1305 3.35728 4.05292 3.41942C3.97534 3.48155 3.92463 3.5712 3.9113 3.66976C3.92463 3.76833 3.97534 3.85798 4.05292 3.92011C4.1305 3.98225 4.22899 4.0121 4.32797 4.00348H4.82797C5.10394 3.99353 5.37266 4.09317 5.57558 4.2807C5.7785 4.46823 5.89917 4.72844 5.9113 5.00465C5.90218 5.26726 5.79389 5.51664 5.6083 5.70245C5.4227 5.88826 5.17361 5.99667 4.9113 6.00581V6.33953H4.24463V6.00581C3.98232 5.99667 3.73323 5.88826 3.54764 5.70245C3.36204 5.51664 3.25376 5.26726 3.24463 5.00465H3.9113C3.92463 5.10321 3.97534 5.19286 4.05292 5.25499C4.1305 5.31713 4.22899 5.34698 4.32797 5.33837H4.82797C4.92694 5.34698 5.02543 5.31713 5.10301 5.25499C5.18059 5.19286 5.2313 5.10321 5.24463 5.00465C5.2313 4.90608 5.18059 4.81643 5.10301 4.7543C5.02543 4.69216 4.92694 4.66231 4.82797 4.67093ZM13.9113 15.8105C15.1035 15.3858 16.2267 14.7876 17.2447 14.0351C17.2447 13.9183 17.2447 13.8015 17.2447 13.6814H13.9113V15.8105ZM16.2447 6.15264C14.078 8.49202 10.1113 10.2574 6.9113 9.5933C6.32625 10.6067 5.98394 11.7422 5.9113 12.9105C11.2446 13.3643 15.458 11.4655 17.9947 7.23724C18.0147 7.20386 18.0347 7.17049 18.0513 7.13712C18.4887 6.40049 18.8601 5.62658 19.1613 4.82444L20.9113 5.67209L20.0547 1.66744L16.1713 3.35273L17.6147 4.05688C17.3023 4.83114 16.8427 5.53726 16.2613 6.13596L16.2447 6.15264ZM16.1413 10.5578C15.4629 11.1684 14.7143 11.6961 13.9113 12.1296V13.0139H17.2447C17.2273 12.1589 17.1291 11.3075 16.9513 10.471C16.6847 10.5044 16.4147 10.5311 16.1413 10.5578ZM13.2446 12.4633C12.7799 12.6766 12.3023 12.8605 11.8146 13.0139H13.2446V12.4633Z" fill="black" stroke="black" stroke-width="0.587607"/>
<path d="M7.04937 8.97904C7.94492 9.10476 8.85562 9.07087 9.73937 8.87893C9.91118 8.39381 10.1253 7.92479 10.3794 7.4773C9.81937 7.39387 9.29937 7.29376 8.82271 7.17362V7.14358C8.133 7.65155 7.53352 8.27202 7.04937 8.97904ZM10.5294 8.67536C11.3686 8.43272 12.178 8.09691 12.9427 7.6742C12.3127 7.6742 11.696 7.63081 11.106 7.57074C10.881 7.92082 10.688 8.29052 10.5294 8.67536ZM9.58271 6.67304C9.96271 6.75313 10.3627 6.81987 10.786 6.87327C11.8525 6.99579 12.9264 7.0404 13.9994 7.00676C14.4543 6.68489 14.8823 6.32664 15.2794 5.93551C14.6449 5.76242 13.9904 5.67377 13.3327 5.67188C12.0174 5.67627 10.7256 6.02115 9.58271 6.67304ZM18.3494 7.54405C18.3494 7.54405 18.3494 7.56407 18.3494 7.57074C17.9836 8.18577 17.5677 8.76954 17.106 9.3161C17.1494 9.45293 17.1927 9.58642 17.2327 9.72658C18.0872 9.60006 18.9292 9.40021 19.7494 9.12922C19.3589 8.53802 18.8876 8.00445 18.3494 7.54405ZM15.9227 19.8283C15.6694 19.9484 15.4094 20.0619 15.1427 20.162C14.8827 20.2688 14.6127 20.3689 14.3394 20.4624H14.3194C14.0527 20.5525 13.7794 20.6359 13.5027 20.7127L13.3894 20.746C13.1127 20.8194 12.8294 20.8895 12.5427 20.9529C12.8094 20.9796 13.0827 20.9997 13.3594 20.9997C14.6951 21.0065 16.0092 20.6612 17.1694 19.9985C16.7827 19.9284 16.3694 19.8683 15.9394 19.8216L15.9227 19.8283ZM16.9427 19.2943C17.2927 19.3511 17.6294 19.4145 17.9427 19.4879C18.6475 18.9555 19.2562 18.3066 19.7427 17.569C19.6427 17.5323 19.5327 17.5023 19.4261 17.4689C18.6692 18.1686 17.8362 18.781 16.9427 19.2943ZM6.4627 16.7314C6.73937 16.7514 6.99937 16.7647 7.2327 16.7714C7.91531 16.5736 8.61013 16.4209 9.31271 16.3142C9.13441 15.4474 9.03622 14.566 9.01937 13.6812H5.68604C5.73012 14.7409 5.99465 15.7798 6.4627 16.7314ZM9.97604 16.2208C10.9791 16.0948 11.9885 16.0268 12.9994 16.0172V13.6812H9.66604C9.68863 14.5356 9.79243 15.386 9.97604 16.2208ZM18.146 13.0137C19.052 12.1328 19.6742 11.0009 19.9327 9.76329C19.0962 10.0416 18.2376 10.2482 17.366 10.3807C17.5491 11.2469 17.6496 12.1285 17.6661 13.0137H18.146Z" stroke="black" stroke-width="0.538639"/>
<path d="M20.7062 13.3469V13.3476C20.7063 13.7482 20.6721 14.148 20.6038 14.5427C19.1603 16.8721 16.0441 19.5971 11.1123 20.2478C11.1121 20.2479 11.1118 20.2479 11.1116 20.2479L10.7508 20.2939C8.59345 20.4994 6.41807 20.3877 4.2938 19.9626V17.4561C5.12947 17.5904 5.97206 17.6781 6.81765 17.7187C7.05005 17.7428 7.27321 17.7428 7.4644 17.7428H7.46609C10.8232 17.8318 13.8407 17.0302 16.1669 15.7171C18.1771 14.5824 19.6882 13.0549 20.4383 11.3742C20.6172 12.0151 20.7077 12.6788 20.7062 13.3469Z" stroke="black" stroke-width="0.587607"/>
</svg>
