<svg width="20" height="21" viewBox="0 0 20 21" fill="none" xmlns="http://www.w3.org/2000/svg">
<path d="M7.35974 15.1554C6.8186 14.8855 6.2199 14.7514 5.61534 14.7646C5.13887 14.7643 4.66458 14.8288 4.20553 14.9565C4.12694 14.9807 4.06107 15.035 4.02221 15.1075C3.98335 15.1799 3.97464 15.2648 3.99796 15.3437C4.01886 15.4142 4.52565 17.0783 5.92035 17.8093C6.46151 18.0793 7.06028 18.2135 7.66491 18.2002C8.14137 18.2005 8.61565 18.1359 9.0747 18.0083C9.15326 17.9841 9.21909 17.9298 9.25792 17.8573C9.29675 17.7848 9.30545 17.7 9.28213 17.6211C9.26123 17.5507 8.75429 15.8862 7.35974 15.1554ZM6.21042 17.256C5.38138 16.8215 4.9144 15.9449 4.71461 15.477C5.01144 15.4196 5.31301 15.3902 5.61534 15.3893C6.11887 15.3764 6.618 15.486 7.06981 15.7086C7.61903 16.0258 8.06532 16.4944 8.35532 17.0584L7.339 16.4872C7.30325 16.4671 7.26387 16.4542 7.22312 16.4492C7.18237 16.4443 7.14106 16.4475 7.10153 16.4585C7.062 16.4696 7.02504 16.4883 6.99276 16.5137C6.96049 16.539 6.93352 16.5705 6.91342 16.6063C6.89331 16.642 6.88045 16.6814 6.87559 16.7222C6.87072 16.7629 6.87393 16.8043 6.88505 16.8438C6.89616 16.8833 6.91495 16.9202 6.94035 16.9525C6.96575 16.9847 6.99725 17.0116 7.03306 17.0317L7.98045 17.5639C7.87994 17.5709 7.77471 17.5755 7.66491 17.5755C7.16136 17.5884 6.66223 17.4787 6.21042 17.256ZM16.2596 14.9566C15.8005 14.829 15.3263 14.7645 14.8498 14.7648C14.2452 14.7515 13.6464 14.8856 13.1052 15.1555C11.7108 15.8863 11.2039 17.5508 11.183 17.6213C11.1597 17.7001 11.1684 17.785 11.2072 17.8575C11.246 17.93 11.3119 17.9842 11.3904 18.0085C11.8495 18.1361 12.3238 18.2007 12.8002 18.2004C13.4048 18.2136 14.0036 18.0795 14.5448 17.8095C15.9395 17.0785 16.4463 15.4143 16.4672 15.3439C16.4905 15.265 16.4818 15.1801 16.4429 15.1076C16.4041 15.0351 16.3382 14.9809 16.2596 14.9566ZM14.2547 17.2562C13.8029 17.4789 13.3038 17.5885 12.8002 17.5757C12.6907 17.5757 12.5855 17.5711 12.4848 17.5641L13.4321 17.0318C13.4679 17.0118 13.4994 16.9849 13.5248 16.9526C13.5502 16.9204 13.569 16.8834 13.5801 16.8439C13.5912 16.8044 13.5944 16.7631 13.5895 16.7223C13.5847 16.6816 13.5718 16.6422 13.5517 16.6064C13.5316 16.5706 13.5046 16.5392 13.4724 16.5138C13.4401 16.4885 13.4031 16.4697 13.3636 16.4587C13.3241 16.4476 13.2827 16.4445 13.242 16.4494C13.2013 16.4543 13.1619 16.4672 13.1261 16.4874L12.1075 17.0596C12.3978 16.4948 12.8449 16.0257 13.3952 15.7088C13.847 15.4862 14.3462 15.3766 14.8498 15.3895C15.1523 15.3906 15.4541 15.4201 15.7511 15.4776C15.5526 15.945 15.0876 16.8197 14.2547 17.2562ZM14.6184 3.59313C14.3484 2.62402 13.7669 1.77071 12.9638 1.16486C12.1607 0.559014 11.1805 0.234298 10.1745 0.240819C9.16149 0.242932 8.17713 0.576901 7.37201 1.19161C6.56689 1.80632 5.98537 2.66792 5.71644 3.64453C4.88439 3.99166 4.17292 4.57605 3.67076 5.32482C3.1686 6.07359 2.89796 6.95361 2.89258 7.85516C2.89222 8.8072 3.19303 9.73494 3.75196 10.5056C3.85187 10.4532 4.05531 10.3531 4.33349 10.2419C3.80416 9.55893 3.51701 8.71928 3.51726 7.85516C3.52208 7.12431 3.72905 6.40905 4.11525 5.78855C4.50146 5.16806 5.05184 4.66654 5.70546 4.33951C5.71301 4.53492 5.74462 4.72864 5.79957 4.91631C5.8238 4.99555 5.87851 5.06191 5.95167 5.10081C6.02483 5.13971 6.11045 5.14795 6.18968 5.12372C6.26892 5.09949 6.33529 5.04478 6.37418 4.97162C6.41308 4.89846 6.42132 4.81284 6.39709 4.73361C6.33822 4.5249 6.31406 4.30794 6.32557 4.09139C6.33302 3.80788 6.3949 3.52844 6.50782 3.26828C6.82048 2.55559 7.33346 1.94909 7.9844 1.52252C8.63534 1.09595 9.3962 0.867694 10.1745 0.865499C11.0259 0.859957 11.8564 1.12903 12.5428 1.63279C13.2293 2.13655 13.735 2.84816 13.9851 3.66206C14.0622 4.021 14.056 4.39284 13.9669 4.74901C13.9428 4.82822 13.951 4.91379 13.9899 4.98691C14.0289 5.06002 14.0952 5.11469 14.1744 5.13891C14.2536 5.16312 14.3392 5.1549 14.4123 5.11605C14.4855 5.0772 14.5402 5.01089 14.5644 4.93171C14.6254 4.724 14.6585 4.50912 14.6628 4.29269C15.3433 4.60743 15.9198 5.10985 16.3245 5.74091C16.7293 6.37196 16.9456 7.10545 16.9479 7.85516C16.9481 8.71924 16.661 9.55886 16.1316 10.2418C16.4098 10.353 16.6131 10.4532 16.7132 10.5056C17.2721 9.73494 17.5729 8.8072 17.5725 7.85516C17.5702 6.92905 17.2864 6.02551 16.7589 5.26436C16.2313 4.5032 15.4848 3.92037 14.6184 3.59313Z" fill="#FCFCFC" stroke="#FCFCFC" stroke-width="0.361446"/>
<path d="M5.38516 6.55661C5.32056 6.50476 5.23801 6.4807 5.15567 6.48971C5.07333 6.49872 4.99793 6.54006 4.94607 6.60465C4.72826 6.88353 4.60995 7.22723 4.60995 7.58109C4.60995 7.93495 4.72826 8.27865 4.94607 8.55753C4.99852 8.62131 5.07384 8.66203 5.15593 8.67098C5.23801 8.67993 5.32034 8.6564 5.3853 8.60543C5.44985 8.5535 5.49114 8.47808 5.50012 8.39573C5.50911 8.31337 5.48503 8.23082 5.4332 8.1662C5.30442 7.99828 5.23463 7.79257 5.23463 7.58095C5.23463 7.36933 5.30442 7.16362 5.4332 6.99569C5.48505 6.9311 5.50912 6.84855 5.50011 6.7662C5.4911 6.68386 5.44975 6.60847 5.38516 6.55661ZM15.2001 8.60543C15.265 8.65652 15.3473 8.68012 15.4295 8.67117C15.5116 8.66221 15.5869 8.62142 15.6393 8.55753C15.8571 8.27866 15.9754 7.93495 15.9754 7.58109C15.9754 7.22723 15.8571 6.88352 15.6393 6.60465C15.6136 6.57261 15.5819 6.54595 15.5459 6.52619C15.51 6.50643 15.4705 6.49395 15.4297 6.48946C15.3889 6.48498 15.3476 6.48858 15.3082 6.50006C15.2688 6.51154 15.232 6.53067 15.2 6.55637C15.168 6.58206 15.1414 6.61381 15.1216 6.6498C15.1019 6.68579 15.0895 6.72532 15.085 6.76612C15.0806 6.80692 15.0842 6.8482 15.0958 6.88759C15.1073 6.92698 15.1265 6.96372 15.1522 6.99569C15.281 7.16362 15.3507 7.36933 15.3507 7.58095C15.3507 7.79257 15.281 7.99828 15.1522 8.1662C15.1003 8.23082 15.0763 8.31337 15.0852 8.39572C15.0942 8.47808 15.1355 8.5535 15.2001 8.60543ZM9.64627 2.62491C9.81443 2.49644 10.0203 2.42703 10.2319 2.42741C10.4435 2.4278 10.6491 2.49797 10.8168 2.62705C10.8816 2.67819 10.9639 2.70191 11.046 2.69313C11.1281 2.68435 11.2035 2.64376 11.256 2.58007C11.308 2.51559 11.3323 2.4331 11.3235 2.35073C11.3147 2.26837 11.2735 2.19287 11.209 2.14084C10.9306 1.92242 10.5871 1.8034 10.2332 1.80274C9.87935 1.80207 9.53541 1.9198 9.25616 2.13719C9.22413 2.1628 9.19747 2.19447 9.17769 2.2304C9.1579 2.26632 9.14539 2.30578 9.14085 2.34654C9.13632 2.3873 9.13986 2.42855 9.15127 2.46793C9.16268 2.50732 9.18174 2.54408 9.20736 2.5761C9.23297 2.60813 9.26464 2.63479 9.30056 2.65458C9.33648 2.67436 9.37595 2.68688 9.41671 2.69141C9.45746 2.69594 9.49871 2.6924 9.5381 2.68099C9.57749 2.66958 9.61425 2.65052 9.64627 2.62491ZM16.4761 11.0877C15.6477 10.6487 14.7289 10.4074 13.7916 10.3826C13.4007 10.3802 13.0116 10.4372 12.6377 10.5518C12.454 10.6102 12.2753 10.6832 12.1032 10.7701C12.1377 10.5819 12.1553 10.391 12.1558 10.1996C12.1558 8.37377 10.5365 6.93758 10.4675 6.87733C10.4106 6.82763 10.3375 6.80024 10.262 6.80024C10.1864 6.80024 10.1133 6.82763 10.0564 6.87733C9.98744 6.93758 8.36824 8.37377 8.36824 10.1996C8.36883 10.4026 8.38854 10.6051 8.42711 10.8045C8.23483 10.7024 8.03378 10.6178 7.82638 10.5518C7.45255 10.4372 7.06347 10.3802 6.67248 10.3826C5.7353 10.4074 4.81656 10.6487 3.98817 11.0877C3.91891 11.1266 3.86711 11.1906 3.84336 11.2664C3.81961 11.3422 3.82569 11.4243 3.86036 11.4958C3.90078 11.5795 4.87348 13.5524 6.70726 14.1272C7.08098 14.2418 7.46996 14.2988 7.86084 14.2963C8.56689 14.2838 9.26482 14.142 9.91972 13.8778V19.9184C9.91972 20.0013 9.95263 20.0807 10.0112 20.1393C10.0698 20.1979 10.1492 20.2308 10.2321 20.2308C10.3149 20.2308 10.3943 20.1979 10.4529 20.1393C10.5115 20.0807 10.5444 20.0013 10.5444 19.9184V13.878C11.1993 14.142 11.8971 14.2838 12.6031 14.2963C12.994 14.2988 13.383 14.2418 13.7567 14.1272C15.5906 13.5524 16.5633 11.5795 16.6038 11.4958C16.6384 11.4243 16.6445 11.3423 16.6208 11.2664C16.5971 11.1906 16.5453 11.1267 16.4761 11.0877ZM10.262 7.5496C10.6676 7.97372 11.5311 9.01599 11.5311 10.1996C11.5311 11.1289 10.9993 11.9693 10.5743 12.4937V11.2284C10.5743 11.1456 10.5414 11.0662 10.4828 11.0076C10.4242 10.949 10.3448 10.9161 10.262 10.9161C10.1791 10.9161 10.0997 10.949 10.0411 11.0076C9.98252 11.0662 9.94961 11.1456 9.94961 11.2284C9.94961 11.2284 9.95709 12.4702 9.95633 12.515C9.53662 11.9887 8.99292 11.1075 8.99292 10.1996C8.99292 9.01583 9.85643 7.97358 10.262 7.5496ZM7.86084 13.6716C7.53339 13.6741 7.20746 13.6267 6.89425 13.5312C5.69398 13.1549 4.89133 12.0197 4.57456 11.4949C5.23366 11.192 5.94739 11.0262 6.67248 11.0073C7.00004 11.0049 7.32607 11.0522 7.63939 11.1478C8.04208 11.2802 8.41617 11.4874 8.74205 11.7586C8.88969 12.0685 9.06654 12.3637 9.27018 12.6401L8.40195 12.3678C8.36282 12.3556 8.32165 12.3511 8.2808 12.3548C8.23994 12.3584 8.20021 12.37 8.16385 12.389C8.1275 12.408 8.09524 12.434 8.06892 12.4654C8.0426 12.4969 8.02274 12.5332 8.01046 12.5724C7.99818 12.6115 7.99373 12.6527 7.99737 12.6935C8.001 12.7344 8.01265 12.7741 8.03164 12.8105C8.05063 12.8468 8.07659 12.8791 8.10805 12.9054C8.13951 12.9317 8.17584 12.9516 8.21497 12.9639L9.50063 13.3668C8.97485 13.5591 8.42061 13.6621 7.86084 13.6716ZM13.5697 13.5312C13.2565 13.6267 12.9306 13.6741 12.6031 13.6716C12.0438 13.6617 11.4901 13.5586 10.9647 13.3665L12.2492 12.9639C12.2883 12.9516 12.3247 12.9318 12.3562 12.9055C12.3877 12.8791 12.4137 12.8469 12.4327 12.8105C12.4518 12.7741 12.4634 12.7344 12.4671 12.6935C12.4707 12.6526 12.4663 12.6114 12.454 12.5723C12.4417 12.5331 12.4218 12.4967 12.3955 12.4653C12.3691 12.4338 12.3369 12.4078 12.3005 12.3888C12.2641 12.3699 12.2243 12.3582 12.1834 12.3546C12.1425 12.351 12.1013 12.3555 12.0622 12.3678L11.2713 12.6157C11.4845 12.3236 11.6674 12.0105 11.8169 11.6812C12.1195 11.4465 12.4605 11.266 12.8247 11.1478C13.1381 11.0522 13.4641 11.0049 13.7916 11.0073C14.5168 11.0269 15.2305 11.193 15.8899 11.4955C15.5742 12.0203 14.7741 13.1536 13.5697 13.5312Z" fill="white" stroke="white" stroke-width="0.361446"/>
</svg>
