<svg width="76" height="76" viewBox="0 0 76 76" fill="none" xmlns="http://www.w3.org/2000/svg">
<path d="M22.9766 50.8906H43.6602C46.3555 50.8906 48.5586 48.6992 48.5586 45.9922C48.5586 45.1602 48.3477 44.3398 47.9375 43.6133L37.7539 25.2734C36.8867 23.7148 35.2578 22.7539 33.4766 22.7539H33.1719C31.3906 22.7539 29.75 23.7148 28.8945 25.2734L18.7109 43.6133C18.3125 44.3398 18.0898 45.1602 18.0898 45.9922C18.0898 48.6875 20.2813 50.8906 22.9883 50.8906H22.9766Z" fill="black"/>
<path d="M63.7812 38.0003C63.7812 22.9535 53.0117 10.2972 38.1875 7.91832C36.9688 7.7191 35.7266 7.60191 34.4844 7.55503V4.01597C34.4844 3.57066 34.2383 3.17222 33.8398 2.973C33.4414 2.77378 32.9727 2.82066 32.6094 3.07847L23.2344 10.1097C22.9414 10.3324 22.7656 10.6839 22.7656 11.0472C22.7656 11.4105 22.9414 11.7621 23.2344 11.9847L32.6094 19.016C32.9609 19.2855 33.4414 19.3207 33.8398 19.1214C34.2383 18.9222 34.4844 18.5121 34.4844 18.0785V14.5863C35.6094 14.6449 36.7109 14.7738 37.7773 14.9964C48.7695 17.1058 56.75 26.7855 56.75 38.0003C56.75 50.9261 46.2383 61.4379 33.3125 61.4379H4.01562C3.37109 61.4379 2.84375 61.9652 2.84375 62.6097V67.2972C2.84375 67.9418 3.37109 68.4691 4.01562 68.4691H33.3125C50.1172 68.4691 63.7812 54.805 63.7812 38.0003Z" fill="black"/>
<path d="M33.3125 30.9688C32.668 30.9688 32.1406 31.4961 32.1406 32.1406V40.3438C32.1406 40.9883 32.668 41.5156 33.3125 41.5156C33.957 41.5156 34.4844 40.9883 34.4844 40.3438V32.1406C34.4844 31.4961 33.957 30.9688 33.3125 30.9688Z" fill="white"/>
<path d="M33.3125 46.2031C33.9597 46.2031 34.4844 45.6785 34.4844 45.0312C34.4844 44.384 33.9597 43.8594 33.3125 43.8594C32.6653 43.8594 32.1406 44.384 32.1406 45.0312C32.1406 45.6785 32.6653 46.2031 33.3125 46.2031Z" fill="white"/>
<path d="M72.6875 64.0152L63.3125 56.9839C62.9609 56.7144 62.4805 56.6792 62.082 56.8784C61.6836 57.0777 61.4375 57.4878 61.4375 57.9214V61.437H56.7148C56.4102 61.437 56.1172 61.5542 55.9062 61.7652C54.1133 63.4878 52.1094 65.0112 49.9297 66.2886C49.4727 66.5581 49.25 67.0972 49.3906 67.6011C49.5312 68.1167 49.9883 68.4683 50.5156 68.4683H61.4375V71.9839C61.4375 72.4292 61.6836 72.8276 62.082 73.0269C62.2461 73.1089 62.4219 73.1558 62.6094 73.1558C62.8555 73.1558 63.1016 73.0737 63.3125 72.9214L72.6875 65.8902C72.9805 65.6675 73.1562 65.3159 73.1562 64.9527C73.1562 64.5894 72.9805 64.2378 72.6875 64.0152ZM23.2461 14.9253L19.1211 11.8316C18.7461 11.5503 18.2305 11.5152 17.8203 11.7613C8.58594 17.2222 2.84375 27.2769 2.84375 37.9995C2.84375 45.7105 5.72656 53.0698 10.9766 58.7183C11.1992 58.9527 11.5039 59.0933 11.832 59.0933H18.8633C19.3672 59.0933 19.8242 58.7652 19.9766 58.2847C20.1289 57.8042 19.9648 57.2769 19.5547 56.9722C13.4961 52.5777 9.875 45.4878 9.875 37.9995C9.875 28.9644 14.9258 20.8784 23.0586 16.9175C23.4219 16.7417 23.668 16.3784 23.7148 15.98C23.75 15.5698 23.5742 15.1714 23.2461 14.937V14.9253Z" fill="#AEAF00"/>
</svg>
