<svg width="21" height="20" viewBox="0 0 21 20" fill="none" xmlns="http://www.w3.org/2000/svg">
<mask id="path-1-inside-1_4535_2147" fill="white">
<path d="M8.0025 4.99994C8.0025 4.33756 8.26563 3.70231 8.734 3.23394C9.20237 2.76557 9.83762 2.50244 10.5 2.50244C11.1624 2.50244 11.7976 2.76557 12.266 3.23394C12.7344 3.70231 12.9975 4.33756 12.9975 4.99994C12.9975 5.66232 12.7344 6.29757 12.266 6.76594C11.7976 7.23431 11.1624 7.49744 10.5 7.49744C9.83762 7.49744 9.20237 7.23431 8.734 6.76594C8.26563 6.29757 8.0025 5.66232 8.0025 4.99994ZM10.5 3.75244C10.3362 3.75244 10.174 3.78471 10.0226 3.8474C9.87125 3.91009 9.73373 4.00198 9.61788 4.11783C9.50204 4.23367 9.41015 4.37119 9.34746 4.52254C9.28477 4.6739 9.2525 4.83612 9.2525 4.99994C9.2525 5.16377 9.28477 5.32598 9.34746 5.47734C9.41015 5.62869 9.50204 5.76622 9.61788 5.88206C9.73373 5.9979 9.87125 6.08979 10.0226 6.15248C10.174 6.21517 10.3362 6.24744 10.5 6.24744C10.8309 6.24744 11.1482 6.11601 11.3821 5.88206C11.6161 5.64811 11.7475 5.3308 11.7475 4.99994C11.7475 4.66908 11.6161 4.35178 11.3821 4.11783C11.1482 3.88387 10.8309 3.75244 10.5 3.75244ZM14.25 5.62494C14.25 5.37871 14.2985 5.1349 14.3927 4.90741C14.487 4.67992 14.6251 4.47323 14.7992 4.29912C14.9733 4.12501 15.18 3.98689 15.4075 3.89267C15.635 3.79844 15.8788 3.74994 16.125 3.74994C16.3712 3.74994 16.615 3.79844 16.8425 3.89267C17.07 3.98689 17.2767 4.12501 17.4508 4.29912C17.6249 4.47323 17.763 4.67992 17.8573 4.90741C17.9515 5.1349 18 5.37871 18 5.62494C18 6.12222 17.8025 6.59914 17.4508 6.95077C17.0992 7.3024 16.6223 7.49994 16.125 7.49994C15.6277 7.49994 15.1508 7.3024 14.7992 6.95077C14.4475 6.59914 14.25 6.12222 14.25 5.62494ZM16.125 4.99994C15.9592 4.99994 15.8003 5.06579 15.6831 5.183C15.5658 5.30021 15.5 5.45918 15.5 5.62494C15.5 5.7907 15.5658 5.94967 15.6831 6.06688C15.8003 6.18409 15.9592 6.24994 16.125 6.24994C16.2908 6.24994 16.4497 6.18409 16.5669 6.06688C16.6842 5.94967 16.75 5.7907 16.75 5.62494C16.75 5.45918 16.6842 5.30021 16.5669 5.183C16.4497 5.06579 16.2908 4.99994 16.125 4.99994ZM4.875 3.74994C4.37772 3.74994 3.90081 3.94749 3.54918 4.29912C3.19754 4.65075 3 5.12766 3 5.62494C3 6.12222 3.19754 6.59914 3.54918 6.95077C3.90081 7.3024 4.37772 7.49994 4.875 7.49994C5.37228 7.49994 5.8492 7.3024 6.20083 6.95077C6.55246 6.59914 6.75 6.12222 6.75 5.62494C6.75 5.12766 6.55246 4.65075 6.20083 4.29912C5.8492 3.94749 5.37228 3.74994 4.875 3.74994ZM4.25 5.62494C4.25 5.45918 4.31585 5.30021 4.43306 5.183C4.55027 5.06579 4.70924 4.99994 4.875 4.99994C5.04076 4.99994 5.19973 5.06579 5.31694 5.183C5.43415 5.30021 5.5 5.45918 5.5 5.62494C5.5 5.7907 5.43415 5.94967 5.31694 6.06688C5.19973 6.18409 5.04076 6.24994 4.875 6.24994C4.70924 6.24994 4.55027 6.18409 4.43306 6.06688C4.31585 5.94967 4.25 5.7907 4.25 5.62494ZM5.835 8.74994C5.61556 9.12998 5.50002 9.56109 5.5 9.99994H3V13.1249C2.9999 13.4359 3.07712 13.7419 3.22471 14.0156C3.3723 14.2892 3.58563 14.5219 3.84549 14.6926C4.10535 14.8633 4.40358 14.9668 4.71334 14.9936C5.02311 15.0204 5.33468 14.9697 5.62 14.8462C5.7125 15.2599 5.8575 15.6549 6.045 16.0237C5.57058 16.2152 5.05639 16.2874 4.54757 16.2338C4.03876 16.1802 3.55088 16.0025 3.1268 15.7162C2.70272 15.43 2.3554 15.0441 2.11534 14.5922C1.87528 14.1404 1.74983 13.6366 1.75 13.1249V9.99994C1.75 9.66842 1.8817 9.35048 2.11612 9.11606C2.35054 8.88164 2.66848 8.74994 3 8.74994H5.835ZM14.955 16.0237C15.4294 16.2152 15.9436 16.2874 16.4524 16.2338C16.9612 16.1802 17.4491 16.0025 17.8732 15.7162C18.2973 15.43 18.6446 15.0441 18.8847 14.5922C19.1247 14.1404 19.2502 13.6366 19.25 13.1249V9.99994C19.25 9.66842 19.1183 9.35048 18.8839 9.11606C18.6495 8.88164 18.3315 8.74994 18 8.74994H15.165C15.3775 9.11744 15.5 9.54369 15.5 9.99994H18V13.1249C18.0001 13.4359 17.9229 13.7419 17.7753 14.0156C17.6277 14.2892 17.4144 14.5219 17.1545 14.6926C16.8947 14.8633 16.5964 14.9668 16.2867 14.9936C15.9769 15.0204 15.6653 14.9697 15.38 14.8462C15.285 15.2612 15.1433 15.6537 14.955 16.0237ZM8 8.74869C7.66848 8.74869 7.35054 8.88039 7.11612 9.11481C6.8817 9.34923 6.75 9.66717 6.75 9.99869V13.7499C6.75 14.7445 7.14509 15.6983 7.84835 16.4016C8.55161 17.1049 9.50544 17.4999 10.5 17.4999C11.4946 17.4999 12.4484 17.1049 13.1517 16.4016C13.8549 15.6983 14.25 14.7445 14.25 13.7499V9.99994C14.25 9.66842 14.1183 9.35048 13.8839 9.11606C13.6495 8.88164 13.3315 8.74994 13 8.74994L8 8.74869ZM8 9.99869H13V13.7499C13 14.413 12.7366 15.0489 12.2678 15.5177C11.7989 15.9865 11.163 16.2499 10.5 16.2499C9.83696 16.2499 9.20107 15.9865 8.73223 15.5177C8.26339 15.0489 8 14.413 8 13.7499V9.99869Z"/>
</mask>
<path d="M8.0025 4.99994C8.0025 4.33756 8.26563 3.70231 8.734 3.23394C9.20237 2.76557 9.83762 2.50244 10.5 2.50244C11.1624 2.50244 11.7976 2.76557 12.266 3.23394C12.7344 3.70231 12.9975 4.33756 12.9975 4.99994C12.9975 5.66232 12.7344 6.29757 12.266 6.76594C11.7976 7.23431 11.1624 7.49744 10.5 7.49744C9.83762 7.49744 9.20237 7.23431 8.734 6.76594C8.26563 6.29757 8.0025 5.66232 8.0025 4.99994ZM10.5 3.75244C10.3362 3.75244 10.174 3.78471 10.0226 3.8474C9.87125 3.91009 9.73373 4.00198 9.61788 4.11783C9.50204 4.23367 9.41015 4.37119 9.34746 4.52254C9.28477 4.6739 9.2525 4.83612 9.2525 4.99994C9.2525 5.16377 9.28477 5.32598 9.34746 5.47734C9.41015 5.62869 9.50204 5.76622 9.61788 5.88206C9.73373 5.9979 9.87125 6.08979 10.0226 6.15248C10.174 6.21517 10.3362 6.24744 10.5 6.24744C10.8309 6.24744 11.1482 6.11601 11.3821 5.88206C11.6161 5.64811 11.7475 5.3308 11.7475 4.99994C11.7475 4.66908 11.6161 4.35178 11.3821 4.11783C11.1482 3.88387 10.8309 3.75244 10.5 3.75244ZM14.25 5.62494C14.25 5.37871 14.2985 5.1349 14.3927 4.90741C14.487 4.67992 14.6251 4.47323 14.7992 4.29912C14.9733 4.12501 15.18 3.98689 15.4075 3.89267C15.635 3.79844 15.8788 3.74994 16.125 3.74994C16.3712 3.74994 16.615 3.79844 16.8425 3.89267C17.07 3.98689 17.2767 4.12501 17.4508 4.29912C17.6249 4.47323 17.763 4.67992 17.8573 4.90741C17.9515 5.1349 18 5.37871 18 5.62494C18 6.12222 17.8025 6.59914 17.4508 6.95077C17.0992 7.3024 16.6223 7.49994 16.125 7.49994C15.6277 7.49994 15.1508 7.3024 14.7992 6.95077C14.4475 6.59914 14.25 6.12222 14.25 5.62494ZM16.125 4.99994C15.9592 4.99994 15.8003 5.06579 15.6831 5.183C15.5658 5.30021 15.5 5.45918 15.5 5.62494C15.5 5.7907 15.5658 5.94967 15.6831 6.06688C15.8003 6.18409 15.9592 6.24994 16.125 6.24994C16.2908 6.24994 16.4497 6.18409 16.5669 6.06688C16.6842 5.94967 16.75 5.7907 16.75 5.62494C16.75 5.45918 16.6842 5.30021 16.5669 5.183C16.4497 5.06579 16.2908 4.99994 16.125 4.99994ZM4.875 3.74994C4.37772 3.74994 3.90081 3.94749 3.54918 4.29912C3.19754 4.65075 3 5.12766 3 5.62494C3 6.12222 3.19754 6.59914 3.54918 6.95077C3.90081 7.3024 4.37772 7.49994 4.875 7.49994C5.37228 7.49994 5.8492 7.3024 6.20083 6.95077C6.55246 6.59914 6.75 6.12222 6.75 5.62494C6.75 5.12766 6.55246 4.65075 6.20083 4.29912C5.8492 3.94749 5.37228 3.74994 4.875 3.74994ZM4.25 5.62494C4.25 5.45918 4.31585 5.30021 4.43306 5.183C4.55027 5.06579 4.70924 4.99994 4.875 4.99994C5.04076 4.99994 5.19973 5.06579 5.31694 5.183C5.43415 5.30021 5.5 5.45918 5.5 5.62494C5.5 5.7907 5.43415 5.94967 5.31694 6.06688C5.19973 6.18409 5.04076 6.24994 4.875 6.24994C4.70924 6.24994 4.55027 6.18409 4.43306 6.06688C4.31585 5.94967 4.25 5.7907 4.25 5.62494ZM5.835 8.74994C5.61556 9.12998 5.50002 9.56109 5.5 9.99994H3V13.1249C2.9999 13.4359 3.07712 13.7419 3.22471 14.0156C3.3723 14.2892 3.58563 14.5219 3.84549 14.6926C4.10535 14.8633 4.40358 14.9668 4.71334 14.9936C5.02311 15.0204 5.33468 14.9697 5.62 14.8462C5.7125 15.2599 5.8575 15.6549 6.045 16.0237C5.57058 16.2152 5.05639 16.2874 4.54757 16.2338C4.03876 16.1802 3.55088 16.0025 3.1268 15.7162C2.70272 15.43 2.3554 15.0441 2.11534 14.5922C1.87528 14.1404 1.74983 13.6366 1.75 13.1249V9.99994C1.75 9.66842 1.8817 9.35048 2.11612 9.11606C2.35054 8.88164 2.66848 8.74994 3 8.74994H5.835ZM14.955 16.0237C15.4294 16.2152 15.9436 16.2874 16.4524 16.2338C16.9612 16.1802 17.4491 16.0025 17.8732 15.7162C18.2973 15.43 18.6446 15.0441 18.8847 14.5922C19.1247 14.1404 19.2502 13.6366 19.25 13.1249V9.99994C19.25 9.66842 19.1183 9.35048 18.8839 9.11606C18.6495 8.88164 18.3315 8.74994 18 8.74994H15.165C15.3775 9.11744 15.5 9.54369 15.5 9.99994H18V13.1249C18.0001 13.4359 17.9229 13.7419 17.7753 14.0156C17.6277 14.2892 17.4144 14.5219 17.1545 14.6926C16.8947 14.8633 16.5964 14.9668 16.2867 14.9936C15.9769 15.0204 15.6653 14.9697 15.38 14.8462C15.285 15.2612 15.1433 15.6537 14.955 16.0237ZM8 8.74869C7.66848 8.74869 7.35054 8.88039 7.11612 9.11481C6.8817 9.34923 6.75 9.66717 6.75 9.99869V13.7499C6.75 14.7445 7.14509 15.6983 7.84835 16.4016C8.55161 17.1049 9.50544 17.4999 10.5 17.4999C11.4946 17.4999 12.4484 17.1049 13.1517 16.4016C13.8549 15.6983 14.25 14.7445 14.25 13.7499V9.99994C14.25 9.66842 14.1183 9.35048 13.8839 9.11606C13.6495 8.88164 13.3315 8.74994 13 8.74994L8 8.74869ZM8 9.99869H13V13.7499C13 14.413 12.7366 15.0489 12.2678 15.5177C11.7989 15.9865 11.163 16.2499 10.5 16.2499C9.83696 16.2499 9.20107 15.9865 8.73223 15.5177C8.26339 15.0489 8 14.413 8 13.7499V9.99869Z" fill="#FCFCFC" stroke="#FCFCFC" stroke-width="2.5" mask="url(#path-1-inside-1_4535_2147)"/>
</svg>
