<svg width="192" height="58" viewBox="0 0 192 58" fill="none" xmlns="http://www.w3.org/2000/svg">
<path d="M18.125 27.1875H20.8438V30.8125H18.125V27.1875ZM37.1562 27.1875H39.875V30.8125H37.1562V27.1875Z" fill="#6D6D6D"/>
<path d="M30.8125 27.1875H34.4375V30.8125H30.8125V33.5312H35.3438C36.3406 33.5312 37.1562 32.7156 37.1562 31.7188V26.2812C37.1562 25.2844 36.3406 24.4688 35.3438 24.4688H30.8125V27.1875Z" fill="black"/>
<path d="M14.5 22.6562H5.4375C3.43547 22.6562 1.8125 24.2792 1.8125 26.2812V31.7188C1.8125 33.7208 3.43547 35.3438 5.4375 35.3438H14.5C16.502 35.3438 18.125 33.7208 18.125 31.7188V26.2812C18.125 24.2792 16.502 22.6562 14.5 22.6562Z" fill="black"/>
<path d="M43.5 35.3438H52.5625C54.5645 35.3438 56.1875 33.7208 56.1875 31.7188V26.2812C56.1875 24.2792 54.5645 22.6562 52.5625 22.6562H43.5C41.498 22.6562 39.875 24.2792 39.875 26.2812V31.7188C39.875 33.7208 41.498 35.3438 43.5 35.3438Z" fill="black"/>
<path d="M12.6875 26.2812H7.25C6.24898 26.2812 5.4375 27.0927 5.4375 28.0938V29.9062C5.4375 30.9073 6.24898 31.7188 7.25 31.7188H12.6875C13.6885 31.7188 14.5 30.9073 14.5 29.9062V28.0938C14.5 27.0927 13.6885 26.2812 12.6875 26.2812Z" fill="#AEAF00"/>
<path d="M45.3125 31.7188H50.75C51.751 31.7188 52.5625 30.9073 52.5625 29.9062V28.0938C52.5625 27.0927 51.751 26.2812 50.75 26.2812H45.3125C44.3115 26.2812 43.5 27.0927 43.5 28.0938V29.9062C43.5 30.9073 44.3115 31.7188 45.3125 31.7188Z" fill="#AEAF00"/>
<path d="M27.1875 27.1875H23.5625V30.8125H27.1875V33.5312H22.6562C21.6594 33.5312 20.8438 32.7156 20.8438 31.7188V26.2812C20.8438 25.2844 21.6594 24.4688 22.6562 24.4688H27.1875V27.1875Z" fill="black"/>
<path d="M28.0952 10.875H29.9077V18.125H28.0952V10.875ZM17.4657 16.0288L18.7481 14.7474L23.8747 19.8741L22.5924 21.1555L17.4657 16.0288ZM17.4648 41.9684L22.5915 36.8418L23.8738 38.1232L18.7472 43.2499L17.4648 41.9684ZM28.0952 39.875H29.9077V47.125H28.0952V39.875ZM34.1281 38.135L35.4104 36.8536L40.5371 41.9802L39.2547 43.2617L34.1281 38.135ZM34.129 19.8768L39.2556 14.7501L40.5371 16.0325L35.4104 21.1582L34.129 19.8768Z" fill="#AEAF00"/>
<path d="M79.216 33.072H77.824L77.176 30.408H69.16V36.144H73.768L74.128 34.272H75.448V39.816H74.128L73.768 37.872H69.16V42.96L71.344 43.68V45H65.32V43.68L67.096 42.96V30.744L65.32 30.048V28.68H79.216V33.072ZM96.8731 43.68V45H94.1131L89.6011 38.232H85.4491V42.936L87.2251 43.68V45H81.6091V43.68L83.3851 42.936V30.744L81.6091 30.048V28.68H91.1851C92.7371 28.68 93.9131 29.088 94.7131 29.904C95.5131 30.704 95.9131 31.888 95.9131 33.456C95.9131 34.848 95.5771 35.944 94.9051 36.744C94.2491 37.528 93.2811 38 92.0011 38.16L95.2411 42.96L96.8731 43.68ZM85.4491 36.504H90.7531C91.8251 36.504 92.5931 36.272 93.0571 35.808C93.5211 35.328 93.7531 34.544 93.7531 33.456C93.7531 32.384 93.5291 31.608 93.0811 31.128C92.6491 30.648 91.9531 30.408 90.9931 30.408H85.4491V36.504ZM114.534 43.68V45H109.014V43.68L110.694 43.032L109.398 39.504H102.318L100.998 43.056L102.702 43.68V45H97.5904V43.68L99.2464 42.936L104.718 28.488H107.406L112.878 42.912L114.534 43.68ZM108.774 37.8L105.87 29.928L102.942 37.8H108.774ZM130.222 36.84V38.208L128.686 38.904V44.424C127.854 44.696 126.934 44.904 125.926 45.048C124.934 45.208 123.99 45.288 123.094 45.288C120.31 45.288 118.222 44.616 116.83 43.272C115.454 41.928 114.766 39.784 114.766 36.84C114.766 33.912 115.462 31.776 116.854 30.432C118.262 29.072 120.342 28.392 123.094 28.392C124.854 28.392 126.718 28.608 128.686 29.04V33.288H127.006L126.598 30.576C125.462 30.304 124.286 30.168 123.07 30.168C121.55 30.168 120.342 30.376 119.446 30.792C118.566 31.208 117.926 31.904 117.526 32.88C117.126 33.84 116.926 35.16 116.926 36.84C116.926 38.552 117.126 39.888 117.526 40.848C117.926 41.808 118.558 42.496 119.422 42.912C120.302 43.312 121.494 43.512 122.998 43.512C124.358 43.512 125.574 43.352 126.646 43.032V38.904L125.11 38.208V36.84H130.222ZM137.639 30.048L135.863 30.744V42.96L137.639 43.68V45H132.023V43.68L133.799 42.96V30.744L132.023 30.048V28.68H137.639V30.048ZM145.889 30.048L144.113 30.744V43.272H151.865L152.489 40.512H153.905V45H140.273V43.68L142.049 42.96V30.744L140.273 30.048V28.68H145.889V30.048ZM169.735 32.928H168.319L167.695 30.408H159.535V35.928H164.311L164.671 34.08H165.991V39.504H164.671L164.311 37.656H159.535V43.272H167.695L168.319 40.512H169.735V45H155.695V43.68L157.471 42.96V30.744L155.695 30.048V28.68H169.735V32.928ZM178.93 38.808H171.706V36.84H178.93V38.808Z" fill="black"/>
<path d="M185.599 32.16C184.959 32.16 184.431 31.968 184.015 31.584C183.615 31.184 183.415 30.688 183.415 30.096C183.415 29.456 183.655 28.904 184.135 28.44C184.615 27.976 185.199 27.744 185.887 27.744C186.527 27.744 187.047 27.944 187.447 28.344C187.863 28.744 188.071 29.24 188.071 29.832C188.071 30.472 187.831 31.024 187.351 31.488C186.871 31.936 186.287 32.16 185.599 32.16ZM183.919 45.096C183.295 45.096 182.735 44.88 182.239 44.448C181.743 44 181.495 43.288 181.495 42.312C181.495 41.752 181.567 41.232 181.711 40.752C181.871 40.256 182.047 39.776 182.239 39.312C182.447 38.848 182.623 38.4 182.767 37.968C182.927 37.52 183.007 37.08 183.007 36.648C183.007 36.264 182.943 35.992 182.815 35.832C182.687 35.656 182.535 35.568 182.359 35.568C182.087 35.568 181.823 35.744 181.567 36.096L181.399 36C181.463 35.36 181.663 34.816 181.999 34.368C182.351 33.904 182.775 33.544 183.271 33.288C183.783 33.032 184.287 32.904 184.783 32.904C185.391 32.904 185.919 33.104 186.367 33.504C186.815 33.888 187.039 34.52 187.039 35.4C187.039 35.928 186.959 36.488 186.799 37.08C186.655 37.656 186.479 38.232 186.271 38.808C186.079 39.384 185.903 39.92 185.743 40.416C185.599 40.912 185.527 41.336 185.527 41.688C185.527 41.992 185.583 42.208 185.695 42.336C185.823 42.464 185.959 42.528 186.103 42.528C186.247 42.528 186.383 42.488 186.511 42.408C186.655 42.312 186.759 42.208 186.823 42.096L186.991 42.144C186.991 42.736 186.831 43.256 186.511 43.704C186.207 44.136 185.823 44.48 185.359 44.736C184.895 44.976 184.415 45.096 183.919 45.096Z" fill="#D21116"/>
<path d="M74.8254 22.23V23H73.2154L70.5834 19.052H68.1614V21.796L69.1974 22.23V23H65.9214V22.23L66.9574 21.796V14.684L65.9214 14.278V13.48H71.5074C72.4127 13.48 73.0987 13.718 73.5654 14.194C74.032 14.6607 74.2654 15.3513 74.2654 16.266C74.2654 17.078 74.0694 17.7173 73.6774 18.184C73.2947 18.6413 72.73 18.9167 71.9834 19.01L73.8734 21.81L74.8254 22.23ZM68.1614 18.044H71.2554C71.8807 18.044 72.3287 17.9087 72.5994 17.638C72.87 17.358 73.0054 16.9007 73.0054 16.266C73.0054 15.6407 72.8747 15.188 72.6134 14.908C72.3614 14.628 71.9554 14.488 71.3954 14.488H68.1614V18.044ZM79.3829 14.278L78.3469 14.684V21.81L79.3829 22.23V23H76.1069V22.23L77.1429 21.81V14.684L76.1069 14.278V13.48H79.3829V14.278ZM85.2734 17.68C86.0481 17.8293 86.6221 17.988 86.9954 18.156C87.3781 18.324 87.6534 18.576 87.8214 18.912C87.9987 19.2387 88.0874 19.7147 88.0874 20.34C88.0874 21.04 87.9614 21.5907 87.7094 21.992C87.4574 22.3933 87.0607 22.6827 86.5194 22.86C85.9781 23.028 85.2407 23.112 84.3074 23.112C83.0474 23.112 81.8807 22.972 80.8074 22.692V20.2H81.7734L82.0114 21.81C82.7581 21.9873 83.5374 22.076 84.3494 22.076C85.0401 22.076 85.5627 22.0247 85.9174 21.922C86.2814 21.8193 86.5287 21.6607 86.6594 21.446C86.7901 21.222 86.8554 20.9187 86.8554 20.536C86.8554 20.0693 86.7994 19.7427 86.6874 19.556C86.5754 19.3693 86.3514 19.2247 86.0154 19.122C85.6794 19.0193 85.0307 18.8793 84.0694 18.702L83.7194 18.632C82.9541 18.492 82.3614 18.324 81.9414 18.128C81.5307 17.9227 81.2367 17.6567 81.0594 17.33C80.8914 17.0033 80.8074 16.5693 80.8074 16.028C80.8074 15.3653 80.9287 14.8427 81.1714 14.46C81.4234 14.068 81.8154 13.788 82.3474 13.62C82.8794 13.452 83.5887 13.368 84.4754 13.368C85.5674 13.368 86.6967 13.4893 87.8634 13.732V16.182H86.9394L86.7154 14.628C86.0061 14.4787 85.2407 14.404 84.4194 14.404C83.7754 14.404 83.2807 14.4553 82.9354 14.558C82.5901 14.6513 82.3521 14.8007 82.2214 15.006C82.1001 15.202 82.0394 15.4727 82.0394 15.818C82.0394 16.2473 82.1001 16.5553 82.2214 16.742C82.3521 16.9287 82.5854 17.0733 82.9214 17.176C83.2667 17.2787 83.9061 17.4187 84.8394 17.596L85.2734 17.68ZM99.3454 22.216V22.986H96.0274V22.216L96.9094 21.81L93.8294 18.142L91.8274 19.71V21.796L92.9334 22.23V23H89.5874V22.23L90.6234 21.796V14.684L89.5874 14.278V13.48H92.8634V14.278L91.8274 14.684V18.478L96.7274 14.628L95.9014 14.278V13.48H99.2054V14.278L98.1834 14.74L94.7534 17.428L98.4494 21.796L99.3454 22.216ZM108.993 13.312C110.412 13.312 111.518 13.7227 112.311 14.544C113.105 15.356 113.501 16.588 113.501 18.24C113.501 19.892 113.105 21.1287 112.311 21.95C111.518 22.762 110.412 23.168 108.993 23.168C107.575 23.168 106.469 22.762 105.675 21.95C104.882 21.1287 104.485 19.892 104.485 18.24C104.485 16.588 104.882 15.356 105.675 14.544C106.469 13.7227 107.575 13.312 108.993 13.312ZM108.993 14.348C108.237 14.348 107.621 14.474 107.145 14.726C106.679 14.978 106.329 15.3887 106.095 15.958C105.862 16.5273 105.745 17.288 105.745 18.24C105.745 19.192 105.862 19.9527 106.095 20.522C106.329 21.0913 106.679 21.502 107.145 21.754C107.621 22.006 108.237 22.132 108.993 22.132C109.749 22.132 110.361 22.006 110.827 21.754C111.303 21.502 111.658 21.0913 111.891 20.522C112.125 19.9527 112.241 19.192 112.241 18.24C112.241 17.288 112.125 16.5273 111.891 15.958C111.658 15.3887 111.303 14.978 110.827 14.726C110.361 14.474 109.749 14.348 108.993 14.348ZM122.959 16.042H122.147L121.769 14.488H117.093V17.834H119.781L119.991 16.742H120.761V19.976H119.991L119.781 18.842H117.093V21.81L118.367 22.23V23H114.853V22.23L115.889 21.81V14.684L114.853 14.278V13.48H122.959V16.042ZM132.461 16.042H131.649L131.271 14.488H126.595V17.834H129.283L129.493 16.742H130.263V19.976H129.493L129.283 18.842H126.595V21.81L127.869 22.23V23H124.355V22.23L125.391 21.81V14.684L124.355 14.278V13.48H132.461V16.042ZM137.133 14.278L136.097 14.684V21.81L137.133 22.23V23H133.857V22.23L134.893 21.81V14.684L133.857 14.278V13.48H137.133V14.278ZM143.233 14.348C142.393 14.348 141.721 14.474 141.217 14.726C140.713 14.9687 140.34 15.37 140.097 15.93C139.864 16.49 139.747 17.246 139.747 18.198C139.747 19.1687 139.864 19.9433 140.097 20.522C140.34 21.0913 140.709 21.502 141.203 21.754C141.698 22.006 142.347 22.132 143.149 22.132C143.663 22.132 144.19 22.09 144.731 22.006C145.282 21.9127 145.786 21.768 146.243 21.572V22.608C145.851 22.7853 145.38 22.9207 144.829 23.014C144.279 23.1167 143.719 23.168 143.149 23.168C140.041 23.168 138.487 21.5253 138.487 18.24C138.487 16.532 138.898 15.286 139.719 14.502C140.541 13.7087 141.749 13.312 143.345 13.312C144.279 13.312 145.245 13.424 146.243 13.648V16.126H145.263L145.025 14.53C144.447 14.4087 143.849 14.348 143.233 14.348ZM156.115 15.958H155.289L154.925 14.488H150.165V17.708H152.951L153.161 16.63H153.931V19.794H153.161L152.951 18.716H150.165V21.992H154.925L155.289 20.382H156.115V23H147.925V22.23L148.961 21.81V14.684L147.925 14.278V13.48H156.115V15.958Z" fill="black"/>
</svg>
