<svg width="76" height="76" viewBox="0 0 76 76" fill="none" xmlns="http://www.w3.org/2000/svg">
<path d="M23.9375 35.6562H27.4531V40.3438H23.9375V35.6562ZM48.5469 35.6562H52.0625V40.3438H48.5469V35.6562Z" fill="#6D6D6D"/>
<path d="M40.3438 35.6562H45.0312V40.3438H40.3438V43.8594H46.2031C47.4922 43.8594 48.5469 42.8047 48.5469 41.5156V34.4844C48.5469 33.1953 47.4922 32.1406 46.2031 32.1406H40.3438V35.6562Z" fill="black"/>
<path d="M19.25 29.7969H7.53125C4.94241 29.7969 2.84375 31.8955 2.84375 34.4844V41.5156C2.84375 44.1045 4.94241 46.2031 7.53125 46.2031H19.25C21.8388 46.2031 23.9375 44.1045 23.9375 41.5156V34.4844C23.9375 31.8955 21.8388 29.7969 19.25 29.7969Z" fill="black"/>
<path d="M56.75 46.2031H68.4688C71.0576 46.2031 73.1562 44.1045 73.1562 41.5156V34.4844C73.1562 31.8955 71.0576 29.7969 68.4688 29.7969L56.75 29.7969C54.1612 29.7969 52.0625 31.8955 52.0625 34.4844V41.5156C52.0625 44.1045 54.1612 46.2031 56.75 46.2031Z" fill="black"/>
<path d="M16.9062 34.4844H9.875C8.58058 34.4844 7.53125 35.5337 7.53125 36.8281V39.1719C7.53125 40.4663 8.58058 41.5156 9.875 41.5156H16.9062C18.2007 41.5156 19.25 40.4663 19.25 39.1719V36.8281C19.25 35.5337 18.2007 34.4844 16.9062 34.4844Z" fill="#AEAF00"/>
<path d="M59.0938 41.5156H66.125C67.4194 41.5156 68.4688 40.4663 68.4688 39.1719V36.8281C68.4688 35.5337 67.4194 34.4844 66.125 34.4844H59.0938C57.7993 34.4844 56.75 35.5337 56.75 36.8281V39.1719C56.75 40.4663 57.7993 41.5156 59.0938 41.5156Z" fill="#AEAF00"/>
<path d="M35.6562 35.6562H30.9688V40.3438H35.6562V43.8594H29.7969C28.5078 43.8594 27.4531 42.8047 27.4531 41.5156V34.4844C27.4531 33.1953 28.5078 32.1406 29.7969 32.1406H35.6562V35.6562Z" fill="black"/>
<path d="M36.8281 14.5625H39.1719V23.9375H36.8281V14.5625ZM23.0832 21.227L24.7414 19.5699L31.3707 26.1992L29.7125 27.8562L23.0832 21.227ZM23.082 54.7695L29.7113 48.1402L31.3695 49.7973L24.7402 56.4266L23.082 54.7695ZM36.8281 52.0625H39.1719V61.4375H36.8281V52.0625ZM44.6293 49.8125L46.2875 48.1555L52.9168 54.7848L51.2586 56.4418L44.6293 49.8125ZM44.6305 26.2027L51.2598 19.5734L52.9168 21.2316L46.2875 27.8598L44.6305 26.2027Z" fill="#AEAF00"/>
</svg>
