<svg width="67" height="68" viewBox="0 0 67 68" fill="none" xmlns="http://www.w3.org/2000/svg">
<g filter="url(#filter0_d_5862_33058)">
<rect x="9.5" y="8.01294" width="48" height="48" rx="7" fill="white" shape-rendering="crispEdges"/>
<rect x="10" y="8.51294" width="47" height="47" rx="6.5" stroke="#EDEDED" shape-rendering="crispEdges"/>
<g clip-path="url(#clip0_5862_33058)">
<path d="M28.6468 17.0654C25.4495 18.1746 22.6921 20.2799 20.7797 23.0719C18.8673 25.864 17.9007 29.1958 18.0219 32.5778C18.143 35.9599 19.3455 39.214 21.4527 41.8621C23.5599 44.5102 26.4608 46.4128 29.7293 47.2904C32.3791 47.9742 35.1553 48.0042 37.8193 47.3779C40.2326 46.8359 42.4637 45.6763 44.2943 44.0129C46.1995 42.2288 47.5823 39.9591 48.2943 37.4479C49.0681 34.7171 49.2057 31.8453 48.6968 29.0529H33.8168V35.2254H42.4343C42.262 36.2099 41.893 37.1495 41.3491 37.988C40.8053 38.8265 40.0979 39.5467 39.2693 40.1054C38.217 40.8015 37.0307 41.2699 35.7868 41.4804C34.5391 41.7124 33.2594 41.7124 32.0118 41.4804C30.7472 41.219 29.551 40.6971 28.4993 39.9479C26.8096 38.7519 25.5409 37.0527 24.8743 35.0929C24.1963 33.0964 24.1963 30.9319 24.8743 28.9354C25.3488 27.536 26.1333 26.2618 27.1693 25.2079C28.3547 23.9798 29.8556 23.1019 31.5071 22.6706C33.1587 22.2393 34.8972 22.2713 36.5318 22.7629C37.8087 23.1549 38.9764 23.8398 39.9418 24.7629C40.9134 23.7963 41.8834 22.8271 42.8518 21.8554C43.3518 21.3329 43.8968 20.8354 44.3893 20.3004C42.9157 18.9291 41.186 17.8621 39.2993 17.1604C35.8635 15.9129 32.1042 15.8794 28.6468 17.0654Z" fill="white"/>
<path d="M28.6489 17.0654C32.1061 15.8786 35.8654 15.9112 39.3014 17.1579C41.1884 17.8643 42.9174 18.9365 44.3889 20.3129C43.8889 20.8479 43.3614 21.3479 42.8514 21.8679C41.8814 22.8363 40.9122 23.8013 39.9439 24.7629C38.9785 23.8398 37.8108 23.1549 36.5339 22.7629C34.8998 22.2695 33.1615 22.2357 31.5095 22.6653C29.8575 23.0948 28.3557 23.9711 27.1689 25.1979C26.133 26.2518 25.3485 27.526 24.8739 28.9254L19.6914 24.9129C21.5464 21.2343 24.7583 18.4205 28.6489 17.0654Z" fill="#E33629"/>
<path d="M18.3139 28.8878C18.5925 27.5073 19.0549 26.1704 19.6889 24.9128L24.8714 28.9353C24.1934 30.9319 24.1934 33.0963 24.8714 35.0928C23.1447 36.4262 21.4172 37.7662 19.6889 39.1128C18.1018 35.9536 17.6177 32.3541 18.3139 28.8878Z" fill="#F8BD00"/>
<path d="M33.8175 29.0505H48.6975C49.2065 31.8429 49.0688 34.7147 48.295 37.4455C47.5831 39.9567 46.2002 42.2264 44.295 44.0105C42.6225 42.7055 40.9425 41.4105 39.27 40.1055C40.0992 39.5462 40.8069 38.8253 41.3508 37.9859C41.8946 37.1465 42.2634 36.2059 42.435 35.2205H33.8175C33.815 33.1655 33.8175 31.108 33.8175 29.0505Z" fill="#587DBD"/>
<path d="M19.6875 39.113C21.4158 37.7797 23.1433 36.4397 24.87 35.093C25.538 37.0535 26.8085 38.7528 28.5 39.948C29.555 40.6937 30.7538 41.2113 32.02 41.468C33.2676 41.7 34.5474 41.7 35.795 41.468C37.039 41.2574 38.2252 40.7891 39.2775 40.093C40.95 41.398 42.63 42.693 44.3025 43.998C42.4722 45.6623 40.241 46.8227 37.8275 47.3655C35.1635 47.9918 32.3873 47.9618 29.7375 47.278C27.6418 46.7184 25.6842 45.732 23.9875 44.3805C22.1917 42.9547 20.7249 41.1579 19.6875 39.113Z" fill="#319F43"/>
</g>
</g>
<defs>
<filter id="filter0_d_5862_33058" x="0.2" y="0.712939" width="66.6" height="66.6" filterUnits="userSpaceOnUse" color-interpolation-filters="sRGB">
<feFlood flood-opacity="0" result="BackgroundImageFix"/>
<feColorMatrix in="SourceAlpha" type="matrix" values="0 0 0 0 0 0 0 0 0 0 0 0 0 0 0 0 0 0 127 0" result="hardAlpha"/>
<feOffset dy="2"/>
<feGaussianBlur stdDeviation="4.65"/>
<feComposite in2="hardAlpha" operator="out"/>
<feColorMatrix type="matrix" values="0 0 0 0 0 0 0 0 0 0 0 0 0 0 0 0 0 0 0.1 0"/>
<feBlend mode="normal" in2="BackgroundImageFix" result="effect1_dropShadow_5862_33058"/>
<feBlend mode="normal" in="SourceGraphic" in2="effect1_dropShadow_5862_33058" result="shape"/>
</filter>
<clipPath id="clip0_5862_33058">
<rect width="32" height="32" fill="white" transform="translate(17.5 16.0129)"/>
</clipPath>
</defs>
</svg>
