<svg width="192" height="58" viewBox="0 0 192 58" fill="none" xmlns="http://www.w3.org/2000/svg">
<path d="M38.6654 31.9967C38.0244 31.9967 37.4097 32.2513 36.9565 32.7045C36.5033 33.1577 36.2487 33.7724 36.2487 34.4133V48.3333H9.66536V12.0833H19.332C19.973 12.0833 20.5877 11.8287 21.0409 11.3755C21.4941 10.9223 21.7487 10.3076 21.7487 9.66667C21.7487 9.02573 21.4941 8.41104 21.0409 7.95783C20.5877 7.50461 19.973 7.25 19.332 7.25H9.66536C8.38348 7.25 7.15411 7.75922 6.24768 8.66565C5.34126 9.57208 4.83203 10.8015 4.83203 12.0833V48.3333C4.83203 49.6152 5.34126 50.8446 6.24768 51.751C7.15411 52.6574 8.38348 53.1667 9.66536 53.1667H36.2487C37.5306 53.1667 38.76 52.6574 39.6664 51.751C40.5728 50.8446 41.082 49.6152 41.082 48.3333V34.4133C41.082 33.7724 40.8274 33.1577 40.3742 32.7045C39.921 32.2513 39.3063 31.9967 38.6654 31.9967Z" fill="black"/>
<path d="M52.78 37.845L44.7325 25.4958C46.7197 23.5249 47.961 20.9253 48.2445 18.1409C48.5281 15.3565 47.8363 12.56 46.2872 10.2289C44.7381 7.89788 42.4279 6.17687 39.751 5.35978C37.0741 4.54269 34.1966 4.68018 31.6098 5.7488C29.0231 6.81741 26.8875 8.75085 25.5677 11.219C24.248 13.6871 23.8259 16.5368 24.3737 19.2815C24.9214 22.0262 26.405 24.4956 28.571 26.2681C30.737 28.0406 33.4512 29.0062 36.25 29C37.7744 28.9989 39.2843 28.7035 40.6967 28.13L48.72 40.5033C48.9412 40.8392 49.2427 41.1146 49.5971 41.3044C49.9516 41.4943 50.3479 41.5928 50.75 41.5908C51.2131 41.5896 51.666 41.4554 52.055 41.2042C52.3245 41.0324 52.5573 40.8089 52.7399 40.5466C52.9225 40.2843 53.0512 39.9883 53.1187 39.6759C53.1861 39.3635 53.1909 39.0408 53.1327 38.7265C53.0746 38.4123 52.9547 38.1126 52.78 37.845ZM29 16.9167C29 15.4828 29.4252 14.0811 30.2218 12.8888C31.0185 11.6965 32.1508 10.7673 33.4755 10.2186C34.8003 9.66982 36.258 9.52624 37.6644 9.80599C39.0708 10.0857 40.3626 10.7762 41.3765 11.7902C42.3905 12.8041 43.081 14.0959 43.3607 15.5023C43.6404 16.9086 43.4969 18.3664 42.9481 19.6911C42.3994 21.0159 41.4701 22.1482 40.2779 22.9448C39.0856 23.7415 37.6839 24.1667 36.25 24.1667C34.3272 24.1667 32.4831 23.4028 31.1235 22.0432C29.7638 20.6836 29 18.8395 29 16.9167ZM29 38.6667H16.9167C16.2757 38.6667 15.661 38.9213 15.2078 39.3745C14.7546 39.8277 14.5 40.4424 14.5 41.0833C14.5 41.7243 14.7546 42.339 15.2078 42.7922C15.661 43.2454 16.2757 43.5 16.9167 43.5H29C29.6409 43.5 30.2556 43.2454 30.7088 42.7922C31.1621 42.339 31.4167 41.7243 31.4167 41.0833C31.4167 40.4424 31.1621 39.8277 30.7088 39.3745C30.2556 38.9213 29.6409 38.6667 29 38.6667ZM29 29H16.9167C16.2757 29 15.661 29.2546 15.2078 29.7078C14.7546 30.1611 14.5 30.7757 14.5 31.4167C14.5 32.0576 14.7546 32.6723 15.2078 33.1255C15.661 33.5787 16.2757 33.8333 16.9167 33.8333H29C29.6409 33.8333 30.2556 33.5787 30.7088 33.1255C31.1621 32.6723 31.4167 32.0576 31.4167 31.4167C31.4167 30.7757 31.1621 30.1611 30.7088 29.7078C30.2556 29.2546 29.6409 29 29 29Z" fill="#AEAF00"/>
<path d="M69.232 32.16C68.592 32.16 68.064 31.968 67.648 31.584C67.248 31.184 67.048 30.688 67.048 30.096C67.048 29.456 67.288 28.904 67.768 28.44C68.248 27.976 68.832 27.744 69.52 27.744C70.16 27.744 70.68 27.944 71.08 28.344C71.496 28.744 71.704 29.24 71.704 29.832C71.704 30.472 71.464 31.024 70.984 31.488C70.504 31.936 69.92 32.16 69.232 32.16ZM67.552 45.096C66.928 45.096 66.368 44.88 65.872 44.448C65.376 44 65.128 43.288 65.128 42.312C65.128 41.752 65.2 41.232 65.344 40.752C65.504 40.256 65.68 39.776 65.872 39.312C66.08 38.848 66.256 38.4 66.4 37.968C66.56 37.52 66.64 37.08 66.64 36.648C66.64 36.264 66.576 35.992 66.448 35.832C66.32 35.656 66.168 35.568 65.992 35.568C65.72 35.568 65.456 35.744 65.2 36.096L65.032 36C65.096 35.36 65.296 34.816 65.632 34.368C65.984 33.904 66.408 33.544 66.904 33.288C67.416 33.032 67.92 32.904 68.416 32.904C69.024 32.904 69.552 33.104 70 33.504C70.448 33.888 70.672 34.52 70.672 35.4C70.672 35.928 70.592 36.488 70.432 37.08C70.288 37.656 70.112 38.232 69.904 38.808C69.712 39.384 69.536 39.92 69.376 40.416C69.232 40.912 69.16 41.336 69.16 41.688C69.16 41.992 69.216 42.208 69.328 42.336C69.456 42.464 69.592 42.528 69.736 42.528C69.88 42.528 70.016 42.488 70.144 42.408C70.288 42.312 70.392 42.208 70.456 42.096L70.624 42.144C70.624 42.736 70.464 43.256 70.144 43.704C69.84 44.136 69.456 44.48 68.992 44.736C68.528 44.976 68.048 45.096 67.552 45.096Z" fill="#D21116"/>
<path d="M84.7812 38.808H77.5572V36.84H84.7812V38.808ZM102.745 43.68V45H97.2254V43.68L98.9054 43.032L97.6094 39.504H90.5294L89.2094 43.056L90.9134 43.68V45H85.8014V43.68L87.4574 42.936L92.9294 28.488H95.6174L101.089 42.912L102.745 43.68ZM96.9854 37.8L94.0814 29.928L91.1534 37.8H96.9854ZM119.689 30.048L117.673 30.744V38.592C117.673 41.04 117.145 42.784 116.089 43.824C115.049 44.848 113.441 45.36 111.265 45.36C109.041 45.36 107.353 44.848 106.201 43.824C105.049 42.784 104.473 41.096 104.473 38.76V30.744L102.697 30.048V28.68H108.313V30.048L106.537 30.744V38.592C106.537 39.856 106.705 40.856 107.041 41.592C107.393 42.312 107.913 42.824 108.601 43.128C109.305 43.432 110.225 43.584 111.361 43.584C112.433 43.584 113.297 43.448 113.953 43.176C114.609 42.888 115.105 42.4 115.441 41.712C115.777 41.008 115.945 40.024 115.945 38.76V30.744L114.001 30.048V28.68H119.689V30.048ZM130.584 28.68C132.712 28.68 134.464 29.296 135.84 30.528C137.216 31.76 137.904 33.848 137.904 36.792C137.904 39.784 137.216 41.904 135.84 43.152C134.464 44.384 132.712 45 130.584 45H121.968V43.68L124.128 42.936V30.744L121.968 30.048V28.68H130.584ZM126.192 30.408V43.272H130.08C131.28 43.272 132.288 43.096 133.104 42.744C133.92 42.376 134.56 41.72 135.024 40.776C135.504 39.816 135.744 38.488 135.744 36.792C135.744 35.128 135.504 33.832 135.024 32.904C134.56 31.96 133.92 31.312 133.104 30.96C132.288 30.592 131.28 30.408 130.08 30.408H126.192ZM145.842 30.048L144.066 30.744V42.96L145.842 43.68V45H140.226V43.68L142.002 42.96V30.744L140.226 30.048V28.68H145.842V30.048ZM162.66 33.288H161.34L160.644 30.408H156.3V42.96L158.316 43.68V45H152.22V43.68L154.236 42.96V30.408H149.892L149.196 33.288H147.876V28.68H162.66V33.288Z" fill="black"/>
<path d="M74.8254 22.23V23H73.2154L70.5834 19.052H68.1614V21.796L69.1974 22.23V23H65.9214V22.23L66.9574 21.796V14.684L65.9214 14.278V13.48H71.5074C72.4127 13.48 73.0987 13.718 73.5654 14.194C74.032 14.6607 74.2654 15.3513 74.2654 16.266C74.2654 17.078 74.0694 17.7173 73.6774 18.184C73.2947 18.6413 72.73 18.9167 71.9834 19.01L73.8734 21.81L74.8254 22.23ZM68.1614 18.044H71.2554C71.8807 18.044 72.3287 17.9087 72.5994 17.638C72.87 17.358 73.0054 16.9007 73.0054 16.266C73.0054 15.6407 72.8747 15.188 72.6134 14.908C72.3614 14.628 71.9554 14.488 71.3954 14.488H68.1614V18.044ZM79.3829 14.278L78.3469 14.684V21.81L79.3829 22.23V23H76.1069V22.23L77.1429 21.81V14.684L76.1069 14.278V13.48H79.3829V14.278ZM85.2734 17.68C86.0481 17.8293 86.6221 17.988 86.9954 18.156C87.3781 18.324 87.6534 18.576 87.8214 18.912C87.9987 19.2387 88.0874 19.7147 88.0874 20.34C88.0874 21.04 87.9614 21.5907 87.7094 21.992C87.4574 22.3933 87.0607 22.6827 86.5194 22.86C85.9781 23.028 85.2407 23.112 84.3074 23.112C83.0474 23.112 81.8807 22.972 80.8074 22.692V20.2H81.7734L82.0114 21.81C82.7581 21.9873 83.5374 22.076 84.3494 22.076C85.0401 22.076 85.5627 22.0247 85.9174 21.922C86.2814 21.8193 86.5287 21.6607 86.6594 21.446C86.7901 21.222 86.8554 20.9187 86.8554 20.536C86.8554 20.0693 86.7994 19.7427 86.6874 19.556C86.5754 19.3693 86.3514 19.2247 86.0154 19.122C85.6794 19.0193 85.0307 18.8793 84.0694 18.702L83.7194 18.632C82.9541 18.492 82.3614 18.324 81.9414 18.128C81.5307 17.9227 81.2367 17.6567 81.0594 17.33C80.8914 17.0033 80.8074 16.5693 80.8074 16.028C80.8074 15.3653 80.9287 14.8427 81.1714 14.46C81.4234 14.068 81.8154 13.788 82.3474 13.62C82.8794 13.452 83.5887 13.368 84.4754 13.368C85.5674 13.368 86.6967 13.4893 87.8634 13.732V16.182H86.9394L86.7154 14.628C86.0061 14.4787 85.2407 14.404 84.4194 14.404C83.7754 14.404 83.2807 14.4553 82.9354 14.558C82.5901 14.6513 82.3521 14.8007 82.2214 15.006C82.1001 15.202 82.0394 15.4727 82.0394 15.818C82.0394 16.2473 82.1001 16.5553 82.2214 16.742C82.3521 16.9287 82.5854 17.0733 82.9214 17.176C83.2667 17.2787 83.9061 17.4187 84.8394 17.596L85.2734 17.68ZM99.3454 22.216V22.986H96.0274V22.216L96.9094 21.81L93.8294 18.142L91.8274 19.71V21.796L92.9334 22.23V23H89.5874V22.23L90.6234 21.796V14.684L89.5874 14.278V13.48H92.8634V14.278L91.8274 14.684V18.478L96.7274 14.628L95.9014 14.278V13.48H99.2054V14.278L98.1834 14.74L94.7534 17.428L98.4494 21.796L99.3454 22.216ZM108.993 13.312C110.412 13.312 111.518 13.7227 112.311 14.544C113.105 15.356 113.501 16.588 113.501 18.24C113.501 19.892 113.105 21.1287 112.311 21.95C111.518 22.762 110.412 23.168 108.993 23.168C107.575 23.168 106.469 22.762 105.675 21.95C104.882 21.1287 104.485 19.892 104.485 18.24C104.485 16.588 104.882 15.356 105.675 14.544C106.469 13.7227 107.575 13.312 108.993 13.312ZM108.993 14.348C108.237 14.348 107.621 14.474 107.145 14.726C106.679 14.978 106.329 15.3887 106.095 15.958C105.862 16.5273 105.745 17.288 105.745 18.24C105.745 19.192 105.862 19.9527 106.095 20.522C106.329 21.0913 106.679 21.502 107.145 21.754C107.621 22.006 108.237 22.132 108.993 22.132C109.749 22.132 110.361 22.006 110.827 21.754C111.303 21.502 111.658 21.0913 111.891 20.522C112.125 19.9527 112.241 19.192 112.241 18.24C112.241 17.288 112.125 16.5273 111.891 15.958C111.658 15.3887 111.303 14.978 110.827 14.726C110.361 14.474 109.749 14.348 108.993 14.348ZM122.959 16.042H122.147L121.769 14.488H117.093V17.834H119.781L119.991 16.742H120.761V19.976H119.991L119.781 18.842H117.093V21.81L118.367 22.23V23H114.853V22.23L115.889 21.81V14.684L114.853 14.278V13.48H122.959V16.042ZM132.461 16.042H131.649L131.271 14.488H126.595V17.834H129.283L129.493 16.742H130.263V19.976H129.493L129.283 18.842H126.595V21.81L127.869 22.23V23H124.355V22.23L125.391 21.81V14.684L124.355 14.278V13.48H132.461V16.042ZM137.133 14.278L136.097 14.684V21.81L137.133 22.23V23H133.857V22.23L134.893 21.81V14.684L133.857 14.278V13.48H137.133V14.278ZM143.233 14.348C142.393 14.348 141.721 14.474 141.217 14.726C140.713 14.9687 140.34 15.37 140.097 15.93C139.864 16.49 139.747 17.246 139.747 18.198C139.747 19.1687 139.864 19.9433 140.097 20.522C140.34 21.0913 140.709 21.502 141.203 21.754C141.698 22.006 142.347 22.132 143.149 22.132C143.663 22.132 144.19 22.09 144.731 22.006C145.282 21.9127 145.786 21.768 146.243 21.572V22.608C145.851 22.7853 145.38 22.9207 144.829 23.014C144.279 23.1167 143.719 23.168 143.149 23.168C140.041 23.168 138.487 21.5253 138.487 18.24C138.487 16.532 138.898 15.286 139.719 14.502C140.541 13.7087 141.749 13.312 143.345 13.312C144.279 13.312 145.245 13.424 146.243 13.648V16.126H145.263L145.025 14.53C144.447 14.4087 143.849 14.348 143.233 14.348ZM156.115 15.958H155.289L154.925 14.488H150.165V17.708H152.951L153.161 16.63H153.931V19.794H153.161L152.951 18.716H150.165V21.992H154.925L155.289 20.382H156.115V23H147.925V22.23L148.961 21.81V14.684L147.925 14.278V13.48H156.115V15.958Z" fill="black"/>
</svg>
