<svg width="76" height="76" viewBox="0 0 76 76" fill="none" xmlns="http://www.w3.org/2000/svg">
<path d="M50.5 41.875C49.6712 41.875 48.8763 42.2042 48.2903 42.7903C47.7042 43.3763 47.375 44.1712 47.375 45V63H13V16.125H25.5C26.3288 16.125 27.1237 15.7958 27.7097 15.2097C28.2958 14.6237 28.625 13.8288 28.625 13C28.625 12.1712 28.2958 11.3763 27.7097 10.7903C27.1237 10.2042 26.3288 9.875 25.5 9.875H13C11.3424 9.875 9.75268 10.5335 8.58058 11.7056C7.40848 12.8777 6.75 14.4674 6.75 16.125V63C6.75 64.6576 7.40848 66.2473 8.58058 67.4194C9.75268 68.5915 11.3424 69.25 13 69.25H47.375C49.0326 69.25 50.6223 68.5915 51.7944 67.4194C52.9665 66.2473 53.625 64.6576 53.625 63V45C53.625 44.1712 53.2958 43.3763 52.7097 42.7903C52.1237 42.2042 51.3288 41.875 50.5 41.875Z" fill="black"/>
<path d="M68.75 49.4375L58.3437 33.4687C60.9133 30.9201 62.5185 27.5585 62.8852 23.958C63.2518 20.3574 62.3572 16.7413 60.3541 13.727C58.351 10.7127 55.3637 8.48728 51.9022 7.4307C48.4407 6.37411 44.7198 6.55191 41.3748 7.93373C38.0298 9.31556 35.2683 11.8157 33.5617 15.0072C31.8551 18.1988 31.3094 21.8838 32.0177 25.4329C32.726 28.9821 34.6444 32.1753 37.4453 34.4673C40.2462 36.7593 43.7559 38.0079 47.375 38C49.3462 37.9986 51.2986 37.6166 53.125 36.875L63.5 52.875C63.786 53.3093 64.1758 53.6653 64.6342 53.9109C65.0926 54.1564 65.605 54.2837 66.125 54.2812C66.7238 54.2797 67.3095 54.1061 67.8125 53.7812C68.161 53.5591 68.4621 53.2701 68.6982 52.9309C68.9343 52.5917 69.1007 52.209 69.1879 51.805C69.2751 51.401 69.2813 50.9838 69.2061 50.5774C69.131 50.171 68.9759 49.7835 68.75 49.4375ZM38 22.375C38 20.5208 38.5498 18.7082 39.58 17.1665C40.6101 15.6248 42.0743 14.4232 43.7873 13.7136C45.5004 13.004 47.3854 12.8184 49.204 13.1801C51.0225 13.5418 52.693 14.4347 54.0041 15.7458C55.3152 17.057 56.2081 18.7274 56.5699 20.546C56.9316 22.3646 56.7459 24.2496 56.0364 25.9626C55.3268 27.6757 54.1252 29.1399 52.5835 30.17C51.0418 31.2001 49.2292 31.75 47.375 31.75C44.8886 31.75 42.504 30.7622 40.7459 29.0041C38.9877 27.2459 38 24.8614 38 22.375ZM38 50.5H22.375C21.5462 50.5 20.7513 50.8292 20.1653 51.4152C19.5792 52.0013 19.25 52.7962 19.25 53.625C19.25 54.4538 19.5792 55.2486 20.1653 55.8347C20.7513 56.4207 21.5462 56.75 22.375 56.75H38C38.8288 56.75 39.6237 56.4207 40.2097 55.8347C40.7958 55.2486 41.125 54.4538 41.125 53.625C41.125 52.7962 40.7958 52.0013 40.2097 51.4152C39.6237 50.8292 38.8288 50.5 38 50.5ZM38 38H22.375C21.5462 38 20.7513 38.3292 20.1653 38.9153C19.5792 39.5013 19.25 40.2962 19.25 41.125C19.25 41.9538 19.5792 42.7486 20.1653 43.3347C20.7513 43.9207 21.5462 44.25 22.375 44.25H38C38.8288 44.25 39.6237 43.9207 40.2097 43.3347C40.7958 42.7486 41.125 41.9538 41.125 41.125C41.125 40.2962 40.7958 39.5013 40.2097 38.9153C39.6237 38.3292 38.8288 38 38 38Z" fill="#AEAF00"/>
</svg>
