<svg width="192" height="58" viewBox="0 0 192 58" fill="none" xmlns="http://www.w3.org/2000/svg">
<path d="M13.8319 12.6428H30.1369C30.3773 12.6428 30.6078 12.5473 30.7777 12.3774C30.9477 12.2074 31.0432 11.9769 31.0432 11.7366C31.0432 11.4962 30.9477 11.2657 30.7777 11.0958C30.6078 10.9258 30.3773 10.8303 30.1369 10.8303H13.8319C13.5947 10.8351 13.3688 10.9326 13.2027 11.1021C13.0367 11.2715 12.9436 11.4993 12.9436 11.7366C12.9436 11.9738 13.0367 12.2016 13.2027 12.3711C13.3688 12.5405 13.5947 12.6381 13.8319 12.6428ZM13.8319 20.6384H27.5509C27.7881 20.6337 28.014 20.5361 28.1801 20.3667C28.3462 20.1972 28.4392 19.9694 28.4392 19.7322C28.4392 19.4949 28.3461 19.2671 28.1801 19.0977C28.014 18.9282 27.7881 18.8307 27.5509 18.8259H13.8319C13.5947 18.8307 13.3688 18.9282 13.2027 19.0977C13.0367 19.2671 12.9436 19.4949 12.9436 19.7322C12.9436 19.9695 13.0367 20.1973 13.2027 20.3667C13.3688 20.5361 13.5947 20.6337 13.8319 20.6384ZM13.8319 28.6341H25.7937C26.031 28.6294 26.257 28.5319 26.4232 28.3624C26.5894 28.193 26.6825 27.9651 26.6824 27.7278C26.6824 27.4904 26.5893 27.2626 26.4232 27.0931C26.257 26.9237 26.031 26.8262 25.7937 26.8216H13.8319C13.5947 26.8263 13.3688 26.9239 13.2027 27.0933C13.0367 27.2627 12.9436 27.4905 12.9436 27.7278C12.9436 27.9651 13.0367 28.1929 13.2027 28.3623C13.3688 28.5317 13.5947 28.6293 13.8319 28.6341ZM13.8302 36.6319H19.8044C20.0417 36.6273 20.2677 36.5297 20.4339 36.3603C20.6001 36.1908 20.6932 35.963 20.6931 35.7256C20.6931 35.4883 20.6 35.2604 20.4339 35.091C20.2677 34.9215 20.0417 34.824 19.8044 34.8194H13.8302C13.5929 34.824 13.3669 34.9215 13.2007 35.091C13.0345 35.2604 12.9414 35.4883 12.9414 35.7256C12.9414 35.963 13.0345 36.1909 13.2007 36.3603C13.3669 36.5298 13.5929 36.6273 13.8302 36.6319ZM13.8319 44.6253H22.7639C23.0012 44.6207 23.2272 44.5231 23.3934 44.3537C23.5596 44.1842 23.6527 43.9564 23.6527 43.719C23.6526 43.4817 23.5595 43.2538 23.3934 43.0844C23.2272 42.9149 23.0012 42.8174 22.7639 42.8128H13.8319C13.5946 42.8174 13.3686 42.9149 13.2024 43.0844C13.0363 43.2538 12.9432 43.4817 12.9432 43.719C12.9432 43.9564 13.0363 44.1843 13.2024 44.3537C13.3686 44.5232 13.5946 44.6207 13.8319 44.6253Z" fill="black" stroke="black" stroke-width="1.875"/>
<path d="M49.3285 44.916L38.5717 34.1434L40.2333 32.4794C42.9474 34.4953 46.2076 30.7206 43.833 28.3088L42.7857 27.2599V13.4677C42.7858 13.2292 42.6918 13.0004 42.5241 12.8309L33.6948 3.8945C33.6101 3.80918 33.5093 3.74145 33.3983 3.6952C33.2872 3.64895 33.1682 3.62509 33.0479 3.625L12.3157 3.67765C11.1469 3.68077 10.027 4.1474 9.20184 4.97515C8.37667 5.80291 7.91354 6.92419 7.91406 8.09299V46.3975C7.91536 47.5669 8.38044 48.6879 9.20728 49.5148C10.0341 50.3416 11.1552 50.8067 12.3245 50.808H19.2789V52.9656C19.2866 53.3463 19.4449 53.7085 19.7191 53.9727C19.9933 54.2368 20.3611 54.3815 20.7418 54.375H35.2122C35.593 54.3815 35.9608 54.2369 36.2351 53.9727C36.5094 53.7085 36.6678 53.3464 36.6756 52.9656V50.7996C36.6658 50.3648 36.5099 49.9461 36.2329 49.6108C35.9559 49.2756 35.574 49.0435 35.1489 48.952V47.1246C35.1337 46.6035 34.9127 46.1097 34.5341 45.7513C34.1556 45.3929 33.6504 45.1992 33.1293 45.2125H22.8251C22.304 45.1992 21.7989 45.3929 21.4203 45.7513C21.0418 46.1097 20.8207 46.6035 20.8056 47.1246V48.9518C20.755 48.964 20.7063 48.9798 20.6573 48.9955H12.3245C11.6357 48.9947 10.9754 48.7207 10.4884 48.2337C10.0014 47.7466 9.72739 47.0863 9.72656 46.3975V8.09299C9.7257 7.40441 9.99806 6.74362 10.4839 6.25564C10.9697 5.76766 11.6293 5.49236 12.3179 5.49018L32.1458 5.43868C32.1984 7.38283 31.8603 10.4291 32.9347 12.0742C33.2773 12.7626 33.8052 13.3416 34.4591 13.7461C35.113 14.1506 35.8668 14.3645 36.6357 14.3637L40.9732 14.3722V25.4449L36.9318 21.3978C36.4053 20.8939 35.7047 20.6126 34.9759 20.6126C34.2471 20.6126 33.5465 20.8939 33.02 21.3978C32.5569 21.864 32.2749 22.4798 32.2244 23.135C32.1739 23.7901 32.3583 24.4419 32.7445 24.9735L25.8256 31.9022C25.2624 31.5029 24.5702 31.329 23.8851 31.4145C23.2001 31.5 22.5719 31.8388 22.1242 32.3643C21.6764 32.8897 21.4416 33.5637 21.4658 34.2537C21.4901 34.9436 21.7717 35.5994 22.2553 36.0921L29.1565 43.0026C29.652 43.4866 30.3113 43.7668 31.0036 43.7878C31.6959 43.8087 32.3709 43.5689 32.8948 43.1158C33.4187 42.6628 33.7533 42.0294 33.8324 41.3413C33.9115 40.6532 33.7293 39.9605 33.3219 39.4004L34.9758 37.7443L45.7314 48.5149C45.9667 48.7556 46.2475 48.9471 46.5573 49.0785C46.8672 49.2099 47.2001 49.2785 47.5366 49.2804C47.8732 49.2822 48.2068 49.2173 48.5181 49.0893C48.8294 48.9613 49.1122 48.7728 49.3501 48.5348C49.5881 48.2967 49.7764 48.0138 49.9043 47.7024C50.0321 47.3911 50.0969 47.0575 50.0949 46.7209C50.0929 46.3843 50.0241 46.0515 49.8925 45.7417C49.761 45.4319 49.5693 45.1512 49.3285 44.916ZM34.8631 52.5625H21.0914V50.7996C21.113 50.7651 21.1439 50.7374 21.1805 50.7198C21.2172 50.7021 21.2581 50.6953 21.2985 50.7H34.6555C34.696 50.6952 34.737 50.7021 34.7737 50.7197C34.8105 50.7373 34.8414 50.765 34.863 50.7996L34.8631 52.5625ZM22.8251 47.025H33.1293C33.1697 47.0203 33.2106 47.0271 33.2473 47.0448C33.284 47.0624 33.3149 47.0901 33.3364 47.1246V48.8875H22.6181V47.1246C22.6396 47.0901 22.6705 47.0624 22.7072 47.0448C22.7438 47.0271 22.7847 47.0203 22.8251 47.025ZM34.5112 11.1804C33.7941 10.1081 33.986 8.03355 33.9613 6.74303L39.7059 12.5573L36.6375 12.5512C36.1893 12.5491 35.751 12.4189 35.3743 12.176C34.9976 11.9332 34.6982 11.5877 34.5112 11.1804ZM36.6508 33.5021L34.2776 35.8787L29.3469 30.9406L31.814 28.4702L36.7446 33.4082L36.6508 33.5021ZM27.1391 33.1516L28.0662 32.2232L32.997 37.1611L32.07 38.0895L27.1391 33.1516ZM38.9251 31.2247L38.0252 32.1258L33.0945 27.1877L33.9942 26.2869L38.9251 31.2247ZM34.3024 22.6784C34.4814 22.5004 34.7235 22.4006 34.9759 22.4006C35.2283 22.4006 35.4704 22.5004 35.6494 22.6784L42.5507 29.5895C42.7294 29.7691 42.8298 30.0122 42.8298 30.2656C42.8298 30.519 42.7294 30.7621 42.5507 30.9418C42.3695 31.1155 42.1282 31.2126 41.8772 31.2126C41.6262 31.2126 41.3849 31.1155 41.2037 30.9418L34.3024 24.0307C34.1236 23.8511 34.0233 23.608 34.0233 23.3545C34.0233 23.1011 34.1236 22.858 34.3024 22.6784ZM31.7859 41.722C31.6047 41.8958 31.3634 41.9929 31.1124 41.9929C30.8614 41.9929 30.62 41.8958 30.4389 41.722L23.5376 34.8114C23.3641 34.6316 23.2681 34.3909 23.2701 34.1411C23.2721 33.8912 23.372 33.6521 23.5483 33.4751C23.7246 33.298 23.9633 33.1972 24.2131 33.1941C24.463 33.1911 24.704 33.2861 24.8846 33.4588L31.4295 40.0129C31.9741 40.459 32.3565 41.1155 31.7859 41.722ZM37.2907 35.4262L38.8648 37.0025L37.8305 38.0382L36.2565 36.4619L37.2907 35.4262ZM48.0732 47.2618C47.9271 47.3946 47.7353 47.4658 47.538 47.4607C47.3406 47.4556 47.1528 47.3745 47.0138 47.2343L39.1111 39.3206L40.1455 38.2849L48.0461 46.1966C48.1905 46.3346 48.2744 46.524 48.2795 46.7236C48.2845 46.9232 48.2104 47.1167 48.0732 47.2618Z" fill="#AEAF00"/>
<path d="M69.232 32.16C68.592 32.16 68.064 31.968 67.648 31.584C67.248 31.184 67.048 30.688 67.048 30.096C67.048 29.456 67.288 28.904 67.768 28.44C68.248 27.976 68.832 27.744 69.52 27.744C70.16 27.744 70.68 27.944 71.08 28.344C71.496 28.744 71.704 29.24 71.704 29.832C71.704 30.472 71.464 31.024 70.984 31.488C70.504 31.936 69.92 32.16 69.232 32.16ZM67.552 45.096C66.928 45.096 66.368 44.88 65.872 44.448C65.376 44 65.128 43.288 65.128 42.312C65.128 41.752 65.2 41.232 65.344 40.752C65.504 40.256 65.68 39.776 65.872 39.312C66.08 38.848 66.256 38.4 66.4 37.968C66.56 37.52 66.64 37.08 66.64 36.648C66.64 36.264 66.576 35.992 66.448 35.832C66.32 35.656 66.168 35.568 65.992 35.568C65.72 35.568 65.456 35.744 65.2 36.096L65.032 36C65.096 35.36 65.296 34.816 65.632 34.368C65.984 33.904 66.408 33.544 66.904 33.288C67.416 33.032 67.92 32.904 68.416 32.904C69.024 32.904 69.552 33.104 70 33.504C70.448 33.888 70.672 34.52 70.672 35.4C70.672 35.928 70.592 36.488 70.432 37.08C70.288 37.656 70.112 38.232 69.904 38.808C69.712 39.384 69.536 39.92 69.376 40.416C69.232 40.912 69.16 41.336 69.16 41.688C69.16 41.992 69.216 42.208 69.328 42.336C69.456 42.464 69.592 42.528 69.736 42.528C69.88 42.528 70.016 42.488 70.144 42.408C70.288 42.312 70.392 42.208 70.456 42.096L70.624 42.144C70.624 42.736 70.464 43.256 70.144 43.704C69.84 44.136 69.456 44.48 68.992 44.736C68.528 44.976 68.048 45.096 67.552 45.096Z" fill="#D21116"/>
<path d="M84.7812 38.808H77.5572V36.84H84.7812V38.808ZM96.0893 30.168C94.6493 30.168 93.4973 30.384 92.6333 30.816C91.7693 31.232 91.1293 31.92 90.7133 32.88C90.3133 33.84 90.1133 35.136 90.1133 36.768C90.1133 38.432 90.3133 39.76 90.7133 40.752C91.1293 41.728 91.7613 42.432 92.6093 42.864C93.4573 43.296 94.5693 43.512 95.9453 43.512C96.8253 43.512 97.7293 43.44 98.6573 43.296C99.6013 43.136 100.465 42.888 101.249 42.552V44.328C100.577 44.632 99.7693 44.864 98.8253 45.024C97.8813 45.2 96.9213 45.288 95.9453 45.288C90.6173 45.288 87.9533 42.472 87.9533 36.84C87.9533 33.912 88.6573 31.776 90.0653 30.432C91.4733 29.072 93.5453 28.392 96.2813 28.392C97.8813 28.392 99.5373 28.584 101.249 28.968V33.216H99.5693L99.1613 30.48C98.1693 30.272 97.1453 30.168 96.0893 30.168ZM111.549 28.392C113.981 28.392 115.877 29.096 117.237 30.504C118.597 31.896 119.277 34.008 119.277 36.84C119.277 39.672 118.597 41.792 117.237 43.2C115.877 44.592 113.981 45.288 111.549 45.288C109.117 45.288 107.221 44.592 105.861 43.2C104.501 41.792 103.821 39.672 103.821 36.84C103.821 34.008 104.501 31.896 105.861 30.504C107.221 29.096 109.117 28.392 111.549 28.392ZM111.549 30.168C110.253 30.168 109.197 30.384 108.381 30.816C107.581 31.248 106.981 31.952 106.581 32.928C106.181 33.904 105.98 35.208 105.98 36.84C105.98 38.472 106.181 39.776 106.581 40.752C106.981 41.728 107.581 42.432 108.381 42.864C109.197 43.296 110.253 43.512 111.549 43.512C112.845 43.512 113.893 43.296 114.693 42.864C115.509 42.432 116.117 41.728 116.517 40.752C116.917 39.776 117.117 38.472 117.117 36.84C117.117 35.208 116.917 33.904 116.517 32.928C116.117 31.952 115.509 31.248 114.693 30.816C113.893 30.384 112.845 30.168 111.549 30.168ZM139.689 30.744V42.96L141.465 43.68V45H135.969V43.68L137.625 42.96V30.264L132.177 42.96H130.569L125.097 30.264V42.96L126.753 43.68V45H121.593V43.68L123.369 42.96V30.744L121.593 30.048V28.68H126.657L131.577 40.272L136.497 28.68H141.465V30.048L139.689 30.744ZM147.957 38.52V42.936L149.733 43.68V45H144.117V43.68L145.893 42.936V30.744L144.117 30.048V28.68H153.669C155.221 28.68 156.397 29.096 157.197 29.928C157.997 30.76 158.397 31.984 158.397 33.6C158.397 35.216 157.973 36.44 157.125 37.272C156.293 38.104 155.069 38.52 153.453 38.52H147.957ZM156.237 33.6C156.237 32.48 156.013 31.672 155.565 31.176C155.133 30.664 154.437 30.408 153.477 30.408H147.957V36.792H153.237C154.309 36.792 155.077 36.544 155.541 36.048C156.005 35.552 156.237 34.736 156.237 33.6ZM166.045 30.048L164.269 30.744V43.272H172.021L172.645 40.512H174.061V45H160.429V43.68L162.205 42.96V30.744L160.429 30.048V28.68H166.045V30.048ZM188.599 28.68V30.048L187.063 30.744L181.759 38.64V42.96L183.775 43.68V45H177.679V43.68L179.695 42.96V38.64L174.415 30.744L172.855 30.048V28.68H178.471V30.048L176.791 30.744L180.895 36.984L184.999 30.744L183.343 30.048V28.68H188.599Z" fill="black"/>
<path d="M74.8254 22.23V23H73.2154L70.5834 19.052H68.1614V21.796L69.1974 22.23V23H65.9214V22.23L66.9574 21.796V14.684L65.9214 14.278V13.48H71.5074C72.4127 13.48 73.0987 13.718 73.5654 14.194C74.032 14.6607 74.2654 15.3513 74.2654 16.266C74.2654 17.078 74.0694 17.7173 73.6774 18.184C73.2947 18.6413 72.73 18.9167 71.9834 19.01L73.8734 21.81L74.8254 22.23ZM68.1614 18.044H71.2554C71.8807 18.044 72.3287 17.9087 72.5994 17.638C72.87 17.358 73.0054 16.9007 73.0054 16.266C73.0054 15.6407 72.8747 15.188 72.6134 14.908C72.3614 14.628 71.9554 14.488 71.3954 14.488H68.1614V18.044ZM79.3829 14.278L78.3469 14.684V21.81L79.3829 22.23V23H76.1069V22.23L77.1429 21.81V14.684L76.1069 14.278V13.48H79.3829V14.278ZM85.2734 17.68C86.0481 17.8293 86.6221 17.988 86.9954 18.156C87.3781 18.324 87.6534 18.576 87.8214 18.912C87.9987 19.2387 88.0874 19.7147 88.0874 20.34C88.0874 21.04 87.9614 21.5907 87.7094 21.992C87.4574 22.3933 87.0607 22.6827 86.5194 22.86C85.9781 23.028 85.2407 23.112 84.3074 23.112C83.0474 23.112 81.8807 22.972 80.8074 22.692V20.2H81.7734L82.0114 21.81C82.7581 21.9873 83.5374 22.076 84.3494 22.076C85.0401 22.076 85.5627 22.0247 85.9174 21.922C86.2814 21.8193 86.5287 21.6607 86.6594 21.446C86.7901 21.222 86.8554 20.9187 86.8554 20.536C86.8554 20.0693 86.7994 19.7427 86.6874 19.556C86.5754 19.3693 86.3514 19.2247 86.0154 19.122C85.6794 19.0193 85.0307 18.8793 84.0694 18.702L83.7194 18.632C82.9541 18.492 82.3614 18.324 81.9414 18.128C81.5307 17.9227 81.2367 17.6567 81.0594 17.33C80.8914 17.0033 80.8074 16.5693 80.8074 16.028C80.8074 15.3653 80.9287 14.8427 81.1714 14.46C81.4234 14.068 81.8154 13.788 82.3474 13.62C82.8794 13.452 83.5887 13.368 84.4754 13.368C85.5674 13.368 86.6967 13.4893 87.8634 13.732V16.182H86.9394L86.7154 14.628C86.0061 14.4787 85.2407 14.404 84.4194 14.404C83.7754 14.404 83.2807 14.4553 82.9354 14.558C82.5901 14.6513 82.3521 14.8007 82.2214 15.006C82.1001 15.202 82.0394 15.4727 82.0394 15.818C82.0394 16.2473 82.1001 16.5553 82.2214 16.742C82.3521 16.9287 82.5854 17.0733 82.9214 17.176C83.2667 17.2787 83.9061 17.4187 84.8394 17.596L85.2734 17.68ZM99.3454 22.216V22.986H96.0274V22.216L96.9094 21.81L93.8294 18.142L91.8274 19.71V21.796L92.9334 22.23V23H89.5874V22.23L90.6234 21.796V14.684L89.5874 14.278V13.48H92.8634V14.278L91.8274 14.684V18.478L96.7274 14.628L95.9014 14.278V13.48H99.2054V14.278L98.1834 14.74L94.7534 17.428L98.4494 21.796L99.3454 22.216ZM108.993 13.312C110.412 13.312 111.518 13.7227 112.311 14.544C113.105 15.356 113.501 16.588 113.501 18.24C113.501 19.892 113.105 21.1287 112.311 21.95C111.518 22.762 110.412 23.168 108.993 23.168C107.575 23.168 106.469 22.762 105.675 21.95C104.882 21.1287 104.485 19.892 104.485 18.24C104.485 16.588 104.882 15.356 105.675 14.544C106.469 13.7227 107.575 13.312 108.993 13.312ZM108.993 14.348C108.237 14.348 107.621 14.474 107.145 14.726C106.679 14.978 106.329 15.3887 106.095 15.958C105.862 16.5273 105.745 17.288 105.745 18.24C105.745 19.192 105.862 19.9527 106.095 20.522C106.329 21.0913 106.679 21.502 107.145 21.754C107.621 22.006 108.237 22.132 108.993 22.132C109.749 22.132 110.361 22.006 110.827 21.754C111.303 21.502 111.658 21.0913 111.891 20.522C112.125 19.9527 112.241 19.192 112.241 18.24C112.241 17.288 112.125 16.5273 111.891 15.958C111.658 15.3887 111.303 14.978 110.827 14.726C110.361 14.474 109.749 14.348 108.993 14.348ZM122.959 16.042H122.147L121.769 14.488H117.093V17.834H119.781L119.991 16.742H120.761V19.976H119.991L119.781 18.842H117.093V21.81L118.367 22.23V23H114.853V22.23L115.889 21.81V14.684L114.853 14.278V13.48H122.959V16.042ZM132.461 16.042H131.649L131.271 14.488H126.595V17.834H129.283L129.493 16.742H130.263V19.976H129.493L129.283 18.842H126.595V21.81L127.869 22.23V23H124.355V22.23L125.391 21.81V14.684L124.355 14.278V13.48H132.461V16.042ZM137.133 14.278L136.097 14.684V21.81L137.133 22.23V23H133.857V22.23L134.893 21.81V14.684L133.857 14.278V13.48H137.133V14.278ZM143.233 14.348C142.393 14.348 141.721 14.474 141.217 14.726C140.713 14.9687 140.34 15.37 140.097 15.93C139.864 16.49 139.747 17.246 139.747 18.198C139.747 19.1687 139.864 19.9433 140.097 20.522C140.34 21.0913 140.709 21.502 141.203 21.754C141.698 22.006 142.347 22.132 143.149 22.132C143.663 22.132 144.19 22.09 144.731 22.006C145.282 21.9127 145.786 21.768 146.243 21.572V22.608C145.851 22.7853 145.38 22.9207 144.829 23.014C144.279 23.1167 143.719 23.168 143.149 23.168C140.041 23.168 138.487 21.5253 138.487 18.24C138.487 16.532 138.898 15.286 139.719 14.502C140.541 13.7087 141.749 13.312 143.345 13.312C144.279 13.312 145.245 13.424 146.243 13.648V16.126H145.263L145.025 14.53C144.447 14.4087 143.849 14.348 143.233 14.348ZM156.115 15.958H155.289L154.925 14.488H150.165V17.708H152.951L153.161 16.63H153.931V19.794H153.161L152.951 18.716H150.165V21.992H154.925L155.289 20.382H156.115V23H147.925V22.23L148.961 21.81V14.684L147.925 14.278V13.48H156.115V15.958Z" fill="black"/>
</svg>
