<svg width="192" height="58" viewBox="0 0 192 58" fill="none" xmlns="http://www.w3.org/2000/svg">
<path d="M17.3806 38.9688H33.3759C35.4603 38.9688 37.1641 37.2741 37.1641 35.1807C37.1641 34.5372 37.0009 33.9028 36.6837 33.341L28.8084 19.1582C28.1378 17.9528 26.8781 17.2097 25.5006 17.2097H25.265C23.8875 17.2097 22.6187 17.9528 21.9572 19.1582L14.0819 33.341C13.7737 33.9028 13.6016 34.5372 13.6016 35.1807C13.6016 37.265 15.2963 38.9688 17.3897 38.9688H17.3806Z" fill="black"/>
<path d="M48.9375 29C48.9375 17.3638 40.6091 7.57626 29.145 5.73657C28.2025 5.58251 27.2419 5.49188 26.2812 5.45563V2.71876C26.2812 2.37438 26.0909 2.06626 25.7828 1.9122C25.4747 1.75813 25.1122 1.79438 24.8312 1.99376L17.5812 7.43126C17.3547 7.60345 17.2188 7.87532 17.2188 8.15626C17.2188 8.4372 17.3547 8.70907 17.5812 8.88126L24.8312 14.3188C25.1031 14.5272 25.4747 14.5544 25.7828 14.4003C26.0909 14.2463 26.2812 13.9291 26.2812 13.5938V10.8931C27.1512 10.9384 28.0031 11.0381 28.8278 11.2103C37.3284 12.8416 43.5 20.3272 43.5 29C43.5 38.9959 35.3709 47.125 25.375 47.125H2.71875C2.22031 47.125 1.8125 47.5328 1.8125 48.0313V51.6563C1.8125 52.1547 2.22031 52.5625 2.71875 52.5625H25.375C38.3706 52.5625 48.9375 41.9956 48.9375 29Z" fill="black"/>
<path d="M25.375 23.5625C24.8766 23.5625 24.4688 23.9703 24.4688 24.4688V30.8125C24.4688 31.3109 24.8766 31.7188 25.375 31.7188C25.8734 31.7188 26.2812 31.3109 26.2812 30.8125V24.4688C26.2812 23.9703 25.8734 23.5625 25.375 23.5625Z" fill="white"/>
<path d="M25.375 35.3438C25.8755 35.3438 26.2812 34.938 26.2812 34.4375C26.2812 33.937 25.8755 33.5312 25.375 33.5312C24.8745 33.5312 24.4688 33.937 24.4688 34.4375C24.4688 34.938 24.8745 35.3438 25.375 35.3438Z" fill="white"/>
<path d="M55.825 49.1187L48.575 43.6812C48.3031 43.4728 47.9316 43.4456 47.6234 43.5997C47.3153 43.7537 47.125 44.0709 47.125 44.4062V47.125H43.4728C43.2372 47.125 43.0106 47.2156 42.8475 47.3787C41.4609 48.7109 39.9113 49.8891 38.2256 50.8769C37.8722 51.0853 37.7 51.5022 37.8088 51.8919C37.9175 52.2906 38.2709 52.5625 38.6788 52.5625H47.125V55.2812C47.125 55.6256 47.3153 55.9337 47.6234 56.0878C47.7503 56.1512 47.8863 56.1875 48.0312 56.1875C48.2216 56.1875 48.4119 56.1241 48.575 56.0062L55.825 50.5687C56.0516 50.3966 56.1875 50.1247 56.1875 49.8437C56.1875 49.5628 56.0516 49.2909 55.825 49.1187ZM17.5903 11.1559L14.4003 8.76343C14.1103 8.54593 13.7116 8.51874 13.3944 8.70906C6.25312 12.9322 1.8125 20.7078 1.8125 29C1.8125 34.9631 4.04187 40.6544 8.10187 45.0225C8.27406 45.2037 8.50969 45.3125 8.76344 45.3125H14.2009C14.5906 45.3125 14.9441 45.0587 15.0619 44.6872C15.1797 44.3156 15.0528 43.9078 14.7356 43.6722C10.0503 40.2737 7.25 34.7909 7.25 29C7.25 22.0128 11.1559 15.7597 17.4453 12.6966C17.7263 12.5606 17.9166 12.2797 17.9528 11.9716C17.98 11.6544 17.8441 11.3462 17.5903 11.165V11.1559Z" fill="#AEAF00"/>
<path d="M69.232 32.16C68.592 32.16 68.064 31.968 67.648 31.584C67.248 31.184 67.048 30.688 67.048 30.096C67.048 29.456 67.288 28.904 67.768 28.44C68.248 27.976 68.832 27.744 69.52 27.744C70.16 27.744 70.68 27.944 71.08 28.344C71.496 28.744 71.704 29.24 71.704 29.832C71.704 30.472 71.464 31.024 70.984 31.488C70.504 31.936 69.92 32.16 69.232 32.16ZM67.552 45.096C66.928 45.096 66.368 44.88 65.872 44.448C65.376 44 65.128 43.288 65.128 42.312C65.128 41.752 65.2 41.232 65.344 40.752C65.504 40.256 65.68 39.776 65.872 39.312C66.08 38.848 66.256 38.4 66.4 37.968C66.56 37.52 66.64 37.08 66.64 36.648C66.64 36.264 66.576 35.992 66.448 35.832C66.32 35.656 66.168 35.568 65.992 35.568C65.72 35.568 65.456 35.744 65.2 36.096L65.032 36C65.096 35.36 65.296 34.816 65.632 34.368C65.984 33.904 66.408 33.544 66.904 33.288C67.416 33.032 67.92 32.904 68.416 32.904C69.024 32.904 69.552 33.104 70 33.504C70.448 33.888 70.672 34.52 70.672 35.4C70.672 35.928 70.592 36.488 70.432 37.08C70.288 37.656 70.112 38.232 69.904 38.808C69.712 39.384 69.536 39.92 69.376 40.416C69.232 40.912 69.16 41.336 69.16 41.688C69.16 41.992 69.216 42.208 69.328 42.336C69.456 42.464 69.592 42.528 69.736 42.528C69.88 42.528 70.016 42.488 70.144 42.408C70.288 42.312 70.392 42.208 70.456 42.096L70.624 42.144C70.624 42.736 70.464 43.256 70.144 43.704C69.84 44.136 69.456 44.48 68.992 44.736C68.528 44.976 68.048 45.096 67.552 45.096Z" fill="#D21116"/>
<path d="M84.7812 38.808H77.5572V36.84H84.7812V38.808ZM101.579 32.928H100.163L99.5388 30.408H91.3788V35.928H96.1548L96.5148 34.08H97.8348V39.504H96.5148L96.1548 37.656H91.3788V43.272H99.5388L100.163 40.512H101.579V45H87.5388V43.68L89.3148 42.96V30.744L87.5388 30.048V28.68H101.579V32.928ZM120.26 28.68V30.048L118.604 30.744L113.18 45H110.612L105.188 30.744L103.532 30.048V28.68H109.172V30.048L107.396 30.744L112.076 43.32L116.78 30.744L115.004 30.048V28.68H120.26ZM136.313 32.928H134.897L134.273 30.408H126.113V35.928H130.889L131.249 34.08H132.569V39.504H131.249L130.889 37.656H126.113V43.272H134.273L134.897 40.512H136.313V45H122.273V43.68L124.049 42.96V30.744L122.273 30.048V28.68H136.313V32.928ZM155.882 28.68V30.048L154.106 30.744V45H151.658L142.418 31.248V42.96L144.314 43.68V45H138.89V43.68L140.666 42.96V30.744L138.89 30.048V28.68H143.114L152.33 42.408V30.744L150.434 30.048V28.68H155.882ZM172.457 33.288H171.137L170.441 30.408H166.097V42.96L168.113 43.68V45H162.017V43.68L164.033 42.96V30.408H159.689L158.993 33.288H157.673V28.68H172.457V33.288Z" fill="black"/>
<path d="M74.8254 22.23V23H73.2154L70.5834 19.052H68.1614V21.796L69.1974 22.23V23H65.9214V22.23L66.9574 21.796V14.684L65.9214 14.278V13.48H71.5074C72.4127 13.48 73.0987 13.718 73.5654 14.194C74.032 14.6607 74.2654 15.3513 74.2654 16.266C74.2654 17.078 74.0694 17.7173 73.6774 18.184C73.2947 18.6413 72.73 18.9167 71.9834 19.01L73.8734 21.81L74.8254 22.23ZM68.1614 18.044H71.2554C71.8807 18.044 72.3287 17.9087 72.5994 17.638C72.87 17.358 73.0054 16.9007 73.0054 16.266C73.0054 15.6407 72.8747 15.188 72.6134 14.908C72.3614 14.628 71.9554 14.488 71.3954 14.488H68.1614V18.044ZM79.3829 14.278L78.3469 14.684V21.81L79.3829 22.23V23H76.1069V22.23L77.1429 21.81V14.684L76.1069 14.278V13.48H79.3829V14.278ZM85.2734 17.68C86.0481 17.8293 86.6221 17.988 86.9954 18.156C87.3781 18.324 87.6534 18.576 87.8214 18.912C87.9987 19.2387 88.0874 19.7147 88.0874 20.34C88.0874 21.04 87.9614 21.5907 87.7094 21.992C87.4574 22.3933 87.0607 22.6827 86.5194 22.86C85.9781 23.028 85.2407 23.112 84.3074 23.112C83.0474 23.112 81.8807 22.972 80.8074 22.692V20.2H81.7734L82.0114 21.81C82.7581 21.9873 83.5374 22.076 84.3494 22.076C85.0401 22.076 85.5627 22.0247 85.9174 21.922C86.2814 21.8193 86.5287 21.6607 86.6594 21.446C86.7901 21.222 86.8554 20.9187 86.8554 20.536C86.8554 20.0693 86.7994 19.7427 86.6874 19.556C86.5754 19.3693 86.3514 19.2247 86.0154 19.122C85.6794 19.0193 85.0307 18.8793 84.0694 18.702L83.7194 18.632C82.9541 18.492 82.3614 18.324 81.9414 18.128C81.5307 17.9227 81.2367 17.6567 81.0594 17.33C80.8914 17.0033 80.8074 16.5693 80.8074 16.028C80.8074 15.3653 80.9287 14.8427 81.1714 14.46C81.4234 14.068 81.8154 13.788 82.3474 13.62C82.8794 13.452 83.5887 13.368 84.4754 13.368C85.5674 13.368 86.6967 13.4893 87.8634 13.732V16.182H86.9394L86.7154 14.628C86.0061 14.4787 85.2407 14.404 84.4194 14.404C83.7754 14.404 83.2807 14.4553 82.9354 14.558C82.5901 14.6513 82.3521 14.8007 82.2214 15.006C82.1001 15.202 82.0394 15.4727 82.0394 15.818C82.0394 16.2473 82.1001 16.5553 82.2214 16.742C82.3521 16.9287 82.5854 17.0733 82.9214 17.176C83.2667 17.2787 83.9061 17.4187 84.8394 17.596L85.2734 17.68ZM99.3454 22.216V22.986H96.0274V22.216L96.9094 21.81L93.8294 18.142L91.8274 19.71V21.796L92.9334 22.23V23H89.5874V22.23L90.6234 21.796V14.684L89.5874 14.278V13.48H92.8634V14.278L91.8274 14.684V18.478L96.7274 14.628L95.9014 14.278V13.48H99.2054V14.278L98.1834 14.74L94.7534 17.428L98.4494 21.796L99.3454 22.216ZM108.993 13.312C110.412 13.312 111.518 13.7227 112.311 14.544C113.105 15.356 113.501 16.588 113.501 18.24C113.501 19.892 113.105 21.1287 112.311 21.95C111.518 22.762 110.412 23.168 108.993 23.168C107.575 23.168 106.469 22.762 105.675 21.95C104.882 21.1287 104.485 19.892 104.485 18.24C104.485 16.588 104.882 15.356 105.675 14.544C106.469 13.7227 107.575 13.312 108.993 13.312ZM108.993 14.348C108.237 14.348 107.621 14.474 107.145 14.726C106.679 14.978 106.329 15.3887 106.095 15.958C105.862 16.5273 105.745 17.288 105.745 18.24C105.745 19.192 105.862 19.9527 106.095 20.522C106.329 21.0913 106.679 21.502 107.145 21.754C107.621 22.006 108.237 22.132 108.993 22.132C109.749 22.132 110.361 22.006 110.827 21.754C111.303 21.502 111.658 21.0913 111.891 20.522C112.125 19.9527 112.241 19.192 112.241 18.24C112.241 17.288 112.125 16.5273 111.891 15.958C111.658 15.3887 111.303 14.978 110.827 14.726C110.361 14.474 109.749 14.348 108.993 14.348ZM122.959 16.042H122.147L121.769 14.488H117.093V17.834H119.781L119.991 16.742H120.761V19.976H119.991L119.781 18.842H117.093V21.81L118.367 22.23V23H114.853V22.23L115.889 21.81V14.684L114.853 14.278V13.48H122.959V16.042ZM132.461 16.042H131.649L131.271 14.488H126.595V17.834H129.283L129.493 16.742H130.263V19.976H129.493L129.283 18.842H126.595V21.81L127.869 22.23V23H124.355V22.23L125.391 21.81V14.684L124.355 14.278V13.48H132.461V16.042ZM137.133 14.278L136.097 14.684V21.81L137.133 22.23V23H133.857V22.23L134.893 21.81V14.684L133.857 14.278V13.48H137.133V14.278ZM143.233 14.348C142.393 14.348 141.721 14.474 141.217 14.726C140.713 14.9687 140.34 15.37 140.097 15.93C139.864 16.49 139.747 17.246 139.747 18.198C139.747 19.1687 139.864 19.9433 140.097 20.522C140.34 21.0913 140.709 21.502 141.203 21.754C141.698 22.006 142.347 22.132 143.149 22.132C143.663 22.132 144.19 22.09 144.731 22.006C145.282 21.9127 145.786 21.768 146.243 21.572V22.608C145.851 22.7853 145.38 22.9207 144.829 23.014C144.279 23.1167 143.719 23.168 143.149 23.168C140.041 23.168 138.487 21.5253 138.487 18.24C138.487 16.532 138.898 15.286 139.719 14.502C140.541 13.7087 141.749 13.312 143.345 13.312C144.279 13.312 145.245 13.424 146.243 13.648V16.126H145.263L145.025 14.53C144.447 14.4087 143.849 14.348 143.233 14.348ZM156.115 15.958H155.289L154.925 14.488H150.165V17.708H152.951L153.161 16.63H153.931V19.794H153.161L152.951 18.716H150.165V21.992H154.925L155.289 20.382H156.115V23H147.925V22.23L148.961 21.81V14.684L147.925 14.278V13.48H156.115V15.958Z" fill="black"/>
</svg>
