<svg width="76" height="76" viewBox="0 0 76 76" fill="none" xmlns="http://www.w3.org/2000/svg">
<g clip-path="url(#clip0_5765_31104)">
<path d="M74.6713 59.9199C75.1028 59.1999 75.3732 58.395 75.464 57.5605C75.5547 56.7261 75.4637 55.8818 75.1971 55.0859C73.3611 49.6176 71.9511 44.0155 70.9799 38.3296C70.8371 37.5018 70.5172 36.7147 70.042 36.0221C69.5669 35.3294 68.9478 34.7476 68.2269 34.3164C67.5061 33.8852 66.7007 33.6148 65.8657 33.5237C65.0307 33.4326 64.1859 33.5229 63.389 33.7885C62.7357 34.0068 62.0707 34.228 61.391 34.4345C61.6826 33.2744 61.6826 32.06 61.391 30.8999C60.9512 29.1528 59.8895 27.6261 58.4048 26.6057C56.9201 25.5853 55.1142 25.1413 53.3256 25.3569C51.537 25.5725 49.8884 26.4329 48.6887 27.7769C47.489 29.1209 46.8205 30.8562 46.8085 32.6577C46.7878 34.4975 47.4645 36.277 48.7025 37.6382C46.4379 38.0776 44.2172 38.4292 42.0799 38.7031C41.8319 38.7349 41.5925 38.8153 41.3755 38.9397C41.1586 39.064 40.9682 39.2299 40.8153 39.4278C40.6624 39.6257 40.55 39.8518 40.4845 40.0931C40.419 40.3345 40.4016 40.5864 40.4335 40.8344C40.4653 41.0825 40.5457 41.3219 40.67 41.5388C40.7944 41.7558 40.9602 41.9462 41.1581 42.0991C41.3561 42.252 41.5821 42.3644 41.8235 42.4299C42.0649 42.4954 42.3168 42.5128 42.5648 42.4809C45.326 42.1264 48.2176 41.6401 51.159 41.0337C51.4087 40.9836 51.6458 40.884 51.8563 40.7407C52.3778 40.3787 52.7766 39.8665 52.9995 39.2721C53.2225 38.6778 53.2591 38.0297 53.1044 37.414L53.0399 37.1591C52.8686 36.493 52.4838 35.9012 51.9442 35.4746C51.5204 35.1402 51.1796 34.7124 50.9486 34.2245C50.7176 33.7366 50.6026 33.2018 50.6127 32.6621C50.6255 31.7902 50.9548 30.9526 51.5392 30.3055C52.1237 29.6583 52.9235 29.2457 53.7896 29.1444C54.6557 29.0432 55.5291 29.2602 56.2471 29.7551C56.9651 30.25 57.4787 30.989 57.6923 31.8344C57.8776 32.5805 57.8132 33.3667 57.5091 34.0727C57.2362 34.7051 57.1776 35.4093 57.3422 36.0781L57.4051 36.33C57.5623 36.9434 57.902 37.4946 58.3794 37.9105C58.8569 38.3265 59.4494 38.5875 60.0785 38.6591C60.3324 38.6876 60.5895 38.6647 60.8343 38.5918C62.1117 38.2109 63.3758 37.811 64.5931 37.4052C64.8694 37.3127 65.1624 37.2809 65.4522 37.312C65.7419 37.3431 66.0215 37.4363 66.2718 37.5854C66.5215 37.7319 66.7358 37.9314 66.8999 38.1698C67.0639 38.4083 67.1735 38.6798 67.2211 38.9653C68.2258 44.8456 69.6842 50.6393 71.5834 56.2944C71.6746 56.57 71.7055 56.8619 71.6738 57.1505C71.6421 57.439 71.5487 57.7174 71.3998 57.9666C71.251 58.2158 71.0502 58.43 70.8112 58.5947C70.5721 58.7593 70.3004 58.8706 70.0145 58.9209C62.5671 60.1938 55.2625 62.1946 48.2059 64.8945C47.9724 64.9839 47.7588 65.1185 47.5772 65.2905C47.3957 65.4625 47.2498 65.6686 47.148 65.897C47.0461 66.1254 46.9902 66.3716 46.9835 66.6216C46.9767 66.8716 47.0193 67.1204 47.1088 67.354C47.1982 67.5875 47.3328 67.8011 47.5048 67.9827C47.6768 68.1642 47.8829 68.31 48.1113 68.4119C48.3396 68.5138 48.5859 68.5697 48.8358 68.5764C49.0858 68.5832 49.3347 68.5406 49.5682 68.4511C56.3935 65.8402 63.4587 63.9056 70.662 62.6753C71.4896 62.5329 72.2766 62.2129 72.9687 61.7372C73.6609 61.2615 74.2417 60.6415 74.6713 59.9199Z" fill="#AEAF00"/>
<path d="M30.8969 14.6141C29.1499 15.0539 27.6231 16.1156 26.6028 17.6003C25.5824 19.0851 25.1384 20.8909 25.354 22.6795C25.5696 24.4681 26.43 26.1167 27.774 27.3164C29.1179 28.5161 30.8532 29.1846 32.6548 29.1967C34.491 29.2165 36.2669 28.5415 37.6264 27.307C38.0659 29.5717 38.4175 31.7924 38.6914 33.9296C38.7501 34.3886 38.974 34.8106 39.3213 35.1166C39.6685 35.4226 40.1153 35.5916 40.5781 35.5922C40.6599 35.592 40.7416 35.5866 40.8227 35.576C41.0708 35.5442 41.3102 35.4639 41.5271 35.3395C41.7441 35.2152 41.9345 35.0493 42.0874 34.8514C42.2403 34.6535 42.3527 34.4274 42.4182 34.186C42.4837 33.9447 42.5011 33.6928 42.4692 33.4447C42.1147 30.6835 41.6284 27.7933 41.0219 24.8505C40.9719 24.6008 40.8723 24.3637 40.729 24.1532C40.3689 23.6321 39.8588 23.2328 39.2665 23.0084C38.6742 22.7839 38.0276 22.7448 37.4126 22.8964L37.1577 22.9608C36.4915 23.1321 35.8998 23.517 35.4731 24.0565C35.1392 24.4802 34.7119 24.821 34.2245 25.0522C33.7372 25.2835 33.2029 25.3989 32.6635 25.3895C31.7916 25.3767 30.9541 25.0474 30.3069 24.463C29.6598 23.8785 29.2471 23.0787 29.1459 22.2126C29.0446 21.3465 29.2617 20.4731 29.7566 19.7551C30.2514 19.0371 30.9904 18.5235 31.8359 18.3099C32.582 18.1246 33.3682 18.1889 34.0742 18.493C34.7067 18.7655 35.4109 18.8236 36.0796 18.6586L36.3315 18.5956C36.945 18.4386 37.4963 18.0989 37.9122 17.6215C38.3282 17.144 38.5892 16.5514 38.6606 15.9222C38.6889 15.6688 38.666 15.4123 38.5932 15.1678C38.2124 13.8905 37.8139 12.6263 37.4067 11.4091C37.3134 11.1328 37.2809 10.8396 37.3115 10.5496C37.3421 10.2596 37.4351 9.97962 37.584 9.72888C37.7304 9.47927 37.9299 9.26488 38.1684 9.10085C38.4068 8.93683 38.6784 8.82718 38.9638 8.77966C44.8441 7.77486 50.6378 6.3164 56.2929 4.41736C56.5684 4.32635 56.8602 4.2957 57.1486 4.32749C57.437 4.35928 57.7151 4.45277 57.9641 4.6016C58.2132 4.75043 58.4272 4.95112 58.5918 5.19004C58.7564 5.42895 58.8676 5.70049 58.9179 5.98621C60.1912 13.4337 62.1925 20.7383 64.893 27.7948C65.0737 28.2664 65.4343 28.647 65.8955 28.8528C66.3568 29.0585 66.8809 29.0726 67.3525 28.892C67.8242 28.7113 68.2047 28.3507 68.4105 27.8895C68.6162 27.4282 68.6303 26.9041 68.4497 26.4325C65.8387 19.6072 63.9041 12.5421 62.6738 5.33875C62.5313 4.51056 62.2115 3.72297 61.7362 3.02992C61.261 2.33688 60.6415 1.75477 59.9203 1.32348C59.1991 0.892184 58.3931 0.621906 57.5577 0.531162C56.7222 0.440417 55.8771 0.531351 55.08 0.797731C49.612 2.63626 44.0098 4.04869 38.3237 5.02234C37.496 5.16512 36.7089 5.48501 36.0162 5.96015C35.3236 6.43528 34.7417 7.05444 34.3105 7.77525C33.8793 8.49606 33.6089 9.30152 33.5178 10.1365C33.4267 10.9715 33.5171 11.8163 33.7827 12.6132C34.0009 13.2665 34.2221 13.9315 34.4287 14.6112C33.2692 14.3208 32.0559 14.3218 30.8969 14.6141Z" fill="black"/>
<path d="M26.4276 7.54865C19.6023 10.1596 12.5372 12.0942 5.33386 13.3245C4.50568 13.467 3.71808 13.7868 3.02504 14.2621C2.33199 14.7373 1.74988 15.3568 1.31859 16.078C0.887301 16.7993 0.617023 17.6052 0.526279 18.4407C0.435534 19.2761 0.526468 20.1213 0.792849 20.9183C2.63284 26.3862 4.04673 31.9884 5.02185 37.6746C5.16463 38.5024 5.48453 39.2895 5.95966 39.9821C6.43479 40.6748 7.05395 41.2566 7.77476 41.6878C8.49557 42.119 9.30103 42.3894 10.136 42.4805C10.971 42.5716 11.8158 42.4813 12.6127 42.2156C13.266 41.9974 13.931 41.7762 14.6107 41.5696C14.3191 42.7298 14.3191 43.9441 14.6107 45.1043C15.0125 46.7016 15.9359 48.1191 17.2345 49.1322C18.5331 50.1452 20.1326 50.696 21.7797 50.6971C22.8874 50.6956 23.9812 50.4501 24.9833 49.9779C26.2407 49.3839 27.3039 48.4457 28.0495 47.272C28.7952 46.0982 29.1928 44.7371 29.1962 43.3465C29.2169 41.5067 28.5402 39.7272 27.3021 38.366C29.5668 37.9266 31.7875 37.575 33.9247 37.3011C34.1727 37.2693 34.4121 37.1889 34.6291 37.0645C34.8461 36.9402 35.0365 36.7743 35.1893 36.5764C35.3422 36.3785 35.4546 36.1524 35.5202 35.9111C35.5857 35.6697 35.603 35.4178 35.5712 35.1697C35.5393 34.9217 35.459 34.6823 35.3346 34.4653C35.2103 34.2484 35.0444 34.058 34.8465 33.9051C34.6486 33.7522 34.4225 33.6398 34.1811 33.5743C33.9398 33.5088 33.6879 33.4914 33.4398 33.5233C30.6786 33.8778 27.787 34.3641 24.8456 34.9705C24.5959 35.0206 24.3588 35.1202 24.1483 35.2635C23.6269 35.6246 23.2278 36.1359 23.0041 36.7293C22.7803 37.3228 22.7426 37.9703 22.8959 38.5858L22.9603 38.8406C23.1316 39.5068 23.5165 40.0986 24.056 40.5252C24.4799 40.8596 24.8206 41.2874 25.0516 41.7753C25.2826 42.2632 25.3976 42.798 25.3876 43.3377C25.3748 44.2096 25.0455 45.0472 24.461 45.6943C23.8765 46.3415 23.0768 46.7541 22.2106 46.8554C21.3445 46.9566 20.4711 46.7396 19.7531 46.2447C19.0352 45.7498 18.5216 45.0108 18.308 44.1654C18.1227 43.4193 18.187 42.6331 18.4911 41.9271C18.764 41.2947 18.8227 40.5905 18.6581 39.9217L18.5951 39.6697C18.438 39.0564 18.0982 38.5052 17.6208 38.0893C17.1434 37.6733 16.5509 37.4123 15.9218 37.3406C15.6678 37.3122 15.4108 37.3351 15.1659 37.408C13.8886 37.7889 12.6244 38.1888 11.4071 38.5946C11.1308 38.6872 10.8378 38.7191 10.5481 38.688C10.2583 38.6569 9.97872 38.5635 9.7284 38.4144C9.47878 38.2679 9.26439 38.0684 9.10037 37.83C8.93634 37.5915 8.8267 37.32 8.77918 37.0345C7.77445 31.1542 6.31599 25.3605 4.41687 19.7054C4.32561 19.4298 4.29477 19.1379 4.32644 18.8493C4.35811 18.5608 4.45155 18.2824 4.6004 18.0332C4.74925 17.784 4.95003 17.5698 5.18908 17.4051C5.42812 17.2405 5.69983 17.1292 5.98572 17.0789C13.4332 15.806 20.7377 13.8052 27.7943 11.1053C28.266 10.9241 28.6463 10.5629 28.8516 10.1012C29.057 9.63958 29.0705 9.11526 28.8893 8.64362C28.708 8.17198 28.3469 7.79165 27.8852 7.58631C27.4236 7.38096 26.8993 7.36741 26.4276 7.54865Z" fill="#AEAF00"/>
<path d="M37.0345 67.224C31.1542 68.2288 25.3605 69.6873 19.7054 71.5863C19.4299 71.6773 19.1381 71.708 18.8497 71.6762C18.5614 71.6444 18.2832 71.5509 18.0342 71.4021C17.7852 71.2532 17.5711 71.0525 17.4065 70.8136C17.2419 70.5747 17.1307 70.3032 17.0804 70.0175C15.8073 62.5689 13.806 55.2634 11.1053 48.2059C10.9241 47.7343 10.5629 47.354 10.1012 47.1486C9.63958 46.9433 9.11526 46.9297 8.64362 47.111C8.17198 47.2922 7.79165 47.6534 7.58631 48.115C7.38096 48.5767 7.36741 49.101 7.54865 49.5726C10.1596 56.3979 12.0942 63.463 13.3245 70.6664C13.4661 71.495 13.7853 72.2832 14.2604 72.9768C14.7354 73.6704 15.3549 74.2529 16.0764 74.6844C16.7979 75.1158 17.6043 75.3859 18.4401 75.4762C19.2759 75.5665 20.1213 75.4748 20.9183 75.2074C26.3865 73.3713 31.9887 71.9614 37.6746 70.9901C38.5023 70.8473 39.2895 70.5274 39.9821 70.0523C40.6748 69.5772 41.2566 68.958 41.6878 68.2372C42.119 67.5164 42.3894 66.7109 42.4805 65.8759C42.5716 65.041 42.4813 64.1961 42.2156 63.3993C41.9974 62.746 41.7762 62.0809 41.5696 61.4012C42.7298 61.6929 43.9441 61.6929 45.1043 61.4012C46.8514 60.9615 48.3781 59.8998 49.3985 58.415C50.4189 56.9303 50.8629 55.1245 50.6473 53.3359C50.4316 51.5473 49.5713 49.8987 48.2273 48.699C46.8833 47.4992 45.148 46.8307 43.3465 46.8187C41.5112 46.7942 39.7344 47.4639 38.3719 48.6937C37.9324 46.4291 37.5809 44.2084 37.307 42.0712C37.2427 41.5702 36.982 41.1153 36.5823 40.8065C36.1826 40.4977 35.6766 40.3604 35.1756 40.4247C34.6746 40.489 34.2197 40.7497 33.9109 41.1494C33.6022 41.5491 33.4648 42.0551 33.5291 42.556C33.8836 45.3173 34.3699 48.2074 34.9764 51.1503C35.0264 51.3999 35.1261 51.637 35.2694 51.8475C35.6296 52.3685 36.1397 52.7676 36.732 52.9921C37.3242 53.2165 37.9707 53.2557 38.5858 53.1044L38.8406 53.0399C39.5068 52.8686 40.0985 52.4838 40.5252 51.9442C40.8591 51.5205 41.2864 51.1797 41.7738 50.9485C42.2612 50.7173 42.7954 50.6018 43.3348 50.6112C44.2067 50.624 45.0442 50.9533 45.6914 51.5378C46.3386 52.1222 46.7512 52.922 46.8524 53.7881C46.9537 54.6543 46.7367 55.5277 46.2418 56.2456C45.7469 56.9636 45.0079 57.4772 44.1624 57.6908C43.4164 57.8761 42.6301 57.8118 41.9241 57.5077C41.2916 57.2352 40.5874 57.1771 39.9188 57.3422L39.6668 57.4052C39.0533 57.5621 38.5021 57.9018 38.0861 58.3792C37.6701 58.8567 37.4091 59.4493 37.3377 60.0785C37.3094 60.3319 37.3323 60.5885 37.4051 60.8329C37.786 62.1102 38.1844 63.3744 38.5916 64.5917C38.6849 64.868 38.7174 65.1611 38.6868 65.4512C38.6562 65.7412 38.5633 66.0211 38.4144 66.2719C38.2682 66.522 38.0689 66.737 37.8304 66.9015C37.592 67.0661 37.3202 67.1761 37.0345 67.224Z" fill="black"/>
</g>
<defs>
<clipPath id="clip0_5765_31104">
<rect width="75" height="75" fill="white" transform="translate(0.5 0.5)"/>
</clipPath>
</defs>
</svg>
