<svg width="192" height="58" viewBox="0 0 192 58" fill="none" xmlns="http://www.w3.org/2000/svg">
<g clip-path="url(#clip0_6011_25538)">
<path d="M57.3603 45.9515C57.694 45.3947 57.9031 44.7722 57.9733 44.1269C58.0435 43.4816 57.9731 42.8287 57.767 42.2132C56.3471 37.9844 55.2568 33.6521 54.5056 29.255C54.3952 28.6149 54.1478 28.0062 53.7804 27.4705C53.4129 26.9349 52.9341 26.4849 52.3767 26.1514C51.8193 25.818 51.1964 25.6089 50.5507 25.5384C49.9049 25.468 49.2516 25.5378 48.6354 25.7432C48.1301 25.912 47.6159 26.0831 47.0902 26.2428C47.3158 25.3456 47.3158 24.4065 47.0902 23.5093C46.7501 22.1583 45.9291 20.9776 44.7809 20.1885C43.6327 19.3994 42.2362 19.0561 40.853 19.2228C39.4698 19.3895 38.1949 20.0549 37.2671 21.0942C36.3393 22.1336 35.8224 23.4755 35.8131 24.8687C35.7971 26.2915 36.3204 27.6676 37.2778 28.7203C35.5265 29.0601 33.8091 29.332 32.1564 29.5438C31.9645 29.5684 31.7794 29.6306 31.6116 29.7268C31.4438 29.8229 31.2966 29.9512 31.1784 30.1042C31.0601 30.2573 30.9732 30.4321 30.9225 30.6188C30.8719 30.8054 30.8585 31.0002 30.8831 31.1921C30.9077 31.3839 30.9699 31.569 31.066 31.7368C31.1622 31.9046 31.2904 32.0518 31.4435 32.1701C31.5965 32.2883 31.7714 32.3752 31.958 32.4259C32.1447 32.4766 32.3395 32.49 32.5313 32.4654C34.6667 32.1912 36.9028 31.8151 39.1775 31.3461C39.3706 31.3074 39.554 31.2304 39.7167 31.1196C40.12 30.8397 40.4284 30.4435 40.6008 29.9839C40.7733 29.5243 40.8015 29.023 40.6819 28.547L40.6321 28.3498C40.4996 27.8347 40.202 27.3771 39.7847 27.0471C39.457 26.7886 39.1934 26.4577 39.0148 26.0804C38.8362 25.703 38.7472 25.2895 38.755 24.8721C38.7649 24.1978 39.0195 23.5501 39.4715 23.0497C39.9235 22.5492 40.542 22.2301 41.2118 22.1518C41.8816 22.0735 42.557 22.2413 43.1123 22.624C43.6675 23.0068 44.0647 23.5783 44.2299 24.2321C44.3732 24.809 44.3234 25.417 44.0883 25.963C43.8772 26.452 43.8318 26.9966 43.9591 27.5138L44.0078 27.7087C44.1294 28.183 44.3921 28.6093 44.7613 28.9309C45.1305 29.2526 45.5887 29.4545 46.0752 29.5098C46.2716 29.5319 46.4704 29.5141 46.6598 29.4577C47.6476 29.1632 48.6252 28.8539 49.5666 28.5402C49.7802 28.4686 50.0068 28.444 50.2309 28.468C50.4549 28.4921 50.6711 28.5642 50.8648 28.6795C51.0578 28.7928 51.2236 28.947 51.3504 29.1314C51.4773 29.3158 51.5621 29.5258 51.5988 29.7466C52.3758 34.294 53.5037 38.7745 54.9723 43.1478C55.0429 43.3609 55.0668 43.5867 55.0423 43.8098C55.0178 44.0329 54.9455 44.2482 54.8304 44.4409C54.7153 44.6336 54.56 44.7993 54.3752 44.9266C54.1903 45.054 53.9802 45.14 53.7591 45.1789C47.9997 46.1633 42.3509 47.7106 36.8938 49.7985C36.7132 49.8677 36.548 49.9718 36.4076 50.1048C36.2672 50.2378 36.1544 50.3972 36.0756 50.5738C35.9968 50.7504 35.9536 50.9408 35.9484 51.1341C35.9432 51.3275 35.9761 51.5199 36.0453 51.7005C36.1145 51.8811 36.2185 52.0463 36.3516 52.1867C36.4846 52.3271 36.644 52.4399 36.8206 52.5187C36.9972 52.5975 37.1876 52.6407 37.3809 52.6459C37.5742 52.6511 37.7667 52.6182 37.9473 52.549C43.2255 50.5299 48.6892 49.0338 54.2598 48.0823C54.8999 47.9722 55.5085 47.7247 56.0437 47.3569C56.5789 46.989 57.0281 46.5096 57.3603 45.9515Z" fill="#AEAF00"/>
<path d="M23.5074 10.9146C22.1563 11.2547 20.9756 12.0758 20.1866 13.224C19.3975 14.3721 19.0541 15.7687 19.2208 17.1519C19.3876 18.535 20.0529 19.81 21.0923 20.7377C22.1316 21.6655 23.4736 22.1825 24.8668 22.1918C26.2868 22.2071 27.6602 21.6851 28.7115 20.7305C29.0514 22.4818 29.3232 24.1991 29.5351 25.8519C29.5805 26.2069 29.7537 26.5332 30.0222 26.7699C30.2907 27.0065 30.6362 27.1372 30.9941 27.1376C31.0574 27.1375 31.1206 27.1333 31.1833 27.1252C31.3752 27.1006 31.5603 27.0384 31.7281 26.9423C31.8959 26.8461 32.0431 26.7178 32.1614 26.5648C32.2796 26.4117 32.3665 26.2369 32.4172 26.0502C32.4678 25.8636 32.4812 25.6688 32.4566 25.4769C32.1825 23.3416 31.8064 21.1065 31.3374 18.8307C31.2987 18.6376 31.2216 18.4543 31.1108 18.2915C30.8323 17.8885 30.4379 17.5798 29.9798 17.4062C29.5218 17.2326 29.0218 17.2024 28.5461 17.3196L28.349 17.3694C27.8338 17.5019 27.3762 17.7995 27.0463 18.2167C26.7881 18.5444 26.4576 18.808 26.0807 18.9868C25.7038 19.1656 25.2907 19.2549 24.8736 19.2476C24.1993 19.2377 23.5516 18.983 23.0511 18.5311C22.5506 18.0791 22.2315 17.4606 22.1532 16.7908C22.0749 16.121 22.2428 15.4455 22.6255 14.8903C23.0082 14.3351 23.5797 13.9379 24.2335 13.7727C24.8105 13.6294 25.4185 13.6792 25.9645 13.9143C26.4536 14.125 26.9982 14.17 27.5153 14.0423L27.7101 13.9936C28.1845 13.8723 28.6109 13.6095 28.9325 13.2403C29.2542 12.8711 29.4561 12.4128 29.5113 11.9262C29.5332 11.7302 29.5154 11.5319 29.4592 11.3428C29.1647 10.355 28.8565 9.37741 28.5416 8.43604C28.4695 8.22238 28.4443 7.99565 28.468 7.77138C28.4917 7.54711 28.5635 7.33061 28.6787 7.13671C28.7919 6.94367 28.9462 6.77787 29.1306 6.65103C29.315 6.52419 29.525 6.43939 29.7458 6.40264C34.2932 5.62559 38.7736 4.49772 43.147 3.02913C43.36 2.95875 43.5857 2.93504 43.8087 2.95963C44.0317 2.98421 44.2468 3.05651 44.4394 3.17161C44.6319 3.2867 44.7975 3.44191 44.9248 3.62667C45.052 3.81143 45.138 4.02142 45.177 4.24237C46.1616 10.0018 47.7093 15.6507 49.7977 21.1077C49.9374 21.4724 50.2163 21.7667 50.573 21.9258C50.9297 22.085 51.335 22.0959 51.6997 21.9562C52.0644 21.8165 52.3587 21.5376 52.5178 21.1809C52.677 20.8242 52.6879 20.4189 52.5482 20.0542C50.529 14.776 49.0329 9.31224 48.0815 3.74167C47.9713 3.1012 47.724 2.49213 47.3564 1.95618C46.9889 1.42022 46.5099 0.970055 45.9521 0.636523C45.3943 0.302991 44.7711 0.0939763 44.125 0.0238006C43.4789 -0.0463751 42.8253 0.0239467 42.209 0.229948C37.9804 1.65175 33.648 2.74402 29.2507 3.49698C28.6106 3.60739 28.0019 3.85478 27.4663 4.22222C26.9306 4.58965 26.4807 5.06847 26.1472 5.6259C25.8138 6.18332 25.6046 6.80621 25.5342 7.45194C25.4637 8.09766 25.5336 8.75099 25.739 9.36721C25.9078 9.87245 26.0789 10.3867 26.2386 10.9124C25.3419 10.6878 24.4037 10.6886 23.5074 10.9146Z" fill="black"/>
<path d="M20.0489 5.45107C14.7707 7.47019 9.30699 8.96626 3.73642 9.91775C3.09596 10.0279 2.48688 10.2753 1.95093 10.6428C1.41497 11.0103 0.964806 11.4894 0.631274 12.0471C0.297742 12.6049 0.0887273 13.2281 0.0185516 13.8742C-0.0516242 14.5203 0.0186977 15.1739 0.224699 15.7902C1.64762 20.0188 2.74103 24.3511 3.49513 28.7485C3.60554 29.3886 3.85293 29.9973 4.22037 30.5329C4.5878 31.0686 5.06662 31.5185 5.62404 31.852C6.18147 32.1855 6.80436 32.3946 7.45009 32.465C8.09581 32.5355 8.74914 32.4656 9.36536 32.2602C9.8706 32.0914 10.3849 31.9204 10.9105 31.7606C10.685 32.6578 10.685 33.5969 10.9105 34.4941C11.2213 35.7293 11.9353 36.8255 12.9396 37.609C13.9438 38.3924 15.1808 38.8183 16.4545 38.8192C17.3112 38.8181 18.157 38.6282 18.932 38.263C19.9043 37.8037 20.7266 37.0781 21.3032 36.1704C21.8799 35.2627 22.1873 34.2101 22.1899 33.1347C22.2059 31.7119 21.6826 30.3358 20.7252 29.2832C22.4765 28.9433 24.1939 28.6715 25.8467 28.4596C26.0385 28.435 26.2236 28.3728 26.3914 28.2767C26.5592 28.1805 26.7064 28.0523 26.8247 27.8992C26.9429 27.7462 27.0298 27.5713 27.0805 27.3847C27.1311 27.198 27.1446 27.0032 27.1199 26.8114C27.0953 26.6195 27.0332 26.4344 26.937 26.2666C26.8408 26.0988 26.7126 25.9516 26.5595 25.8334C26.4065 25.7151 26.2316 25.6282 26.045 25.5775C25.8583 25.5269 25.6635 25.5135 25.4717 25.5381C23.3363 25.8122 21.1002 26.1883 18.8255 26.6573C18.6324 26.696 18.449 26.7731 18.2863 26.8839C17.883 27.1631 17.5744 27.5585 17.4014 28.0175C17.2284 28.4764 17.1992 28.9772 17.3177 29.4531L17.3676 29.6502C17.5 30.1654 17.7976 30.623 18.2149 30.9529C18.5427 31.2115 18.8062 31.5424 18.9848 31.9197C19.1634 32.297 19.2524 32.7105 19.2446 33.1279C19.2347 33.8022 18.9801 34.4499 18.5281 34.9504C18.0761 35.4509 17.4576 35.77 16.7878 35.8483C16.118 35.9266 15.4426 35.7587 14.8873 35.376C14.3321 34.9933 13.9349 34.4218 13.7697 33.768C13.6264 33.191 13.6762 32.583 13.9113 32.037C14.1224 31.548 14.1678 31.0034 14.0405 30.4862L13.9918 30.2914C13.8703 29.817 13.6075 29.3908 13.2383 29.0691C12.8691 28.7475 12.4109 28.5456 11.9244 28.4902C11.728 28.4682 11.5292 28.4859 11.3399 28.5423C10.352 28.8368 9.37443 29.1461 8.43306 29.4599C8.2194 29.5315 7.99279 29.5562 7.76873 29.5321C7.54466 29.5081 7.32844 29.4359 7.13486 29.3206C6.94182 29.2073 6.77602 29.053 6.64918 28.8686C6.52233 28.6842 6.43754 28.4742 6.40079 28.2535C5.6238 23.706 4.49593 19.2256 3.02728 14.8523C2.9567 14.6392 2.93285 14.4134 2.95734 14.1902C2.98183 13.9671 3.05409 13.7519 3.16921 13.5591C3.28432 13.3664 3.43959 13.2008 3.62445 13.0734C3.80931 12.9461 4.01943 12.86 4.24052 12.8211C9.99989 11.8368 15.6487 10.2895 21.1058 8.20154C21.4706 8.06138 21.7647 7.78207 21.9235 7.42506C22.0823 7.06805 22.0928 6.66258 21.9526 6.29784C21.8125 5.93311 21.5331 5.63899 21.1761 5.48019C20.8191 5.32139 20.4137 5.31091 20.0489 5.45107Z" fill="#AEAF00"/>
<path d="M28.252 51.5996C23.7046 52.3766 19.2241 53.5045 14.8508 54.9731C14.6378 55.0435 14.4121 55.0672 14.1891 55.0426C13.9661 55.018 13.751 54.9457 13.5584 54.8306C13.3658 54.7155 13.2003 54.5603 13.073 54.3756C12.9457 54.1908 12.8597 53.9808 12.8208 53.7599C11.8363 47.9997 10.2886 42.35 8.20007 36.8923C8.05992 36.5275 7.78061 36.2334 7.4236 36.0746C7.06659 35.9158 6.66111 35.9053 6.29638 36.0455C5.93164 36.1857 5.63753 36.465 5.47872 36.822C5.31992 37.179 5.30945 37.5845 5.4496 37.9492C7.46876 43.2274 8.96483 48.6911 9.91628 54.2617C10.0257 54.9025 10.2726 55.5121 10.64 56.0484C11.0074 56.5848 11.4865 57.0353 12.0444 57.3689C12.6024 57.7026 13.2259 57.9115 13.8723 57.9813C14.5186 58.0511 15.1724 57.9802 15.7888 57.7734C20.0176 56.3535 24.3499 55.2632 28.747 54.512C29.3871 54.4016 29.9958 54.1542 30.5315 53.7868C31.0671 53.4194 31.5171 52.9406 31.8505 52.3831C32.184 51.8257 32.3931 51.2028 32.4636 50.5571C32.534 49.9114 32.4642 49.258 32.2587 48.6418C32.0899 48.1366 31.9189 47.6223 31.7592 47.0967C32.6564 47.3222 33.5954 47.3222 34.4926 47.0967C35.8437 46.7566 37.0244 45.9355 37.8135 44.7873C38.6026 43.6391 38.9459 42.2426 38.7792 40.8594C38.6125 39.4763 37.9471 38.2013 36.9077 37.2735C35.8684 36.3458 34.5264 35.8288 33.1333 35.8195C31.714 35.8005 30.3399 36.3184 29.2862 37.2695C28.9464 35.5182 28.6745 33.8008 28.4627 32.1481C28.413 31.7606 28.2114 31.4088 27.9023 31.1701C27.5932 30.9313 27.2019 30.8251 26.8144 30.8748C26.427 30.9245 26.0752 31.1261 25.8364 31.4352C25.5977 31.7443 25.4914 32.1356 25.5412 32.523C25.8153 34.6584 26.1914 36.8934 26.6604 39.1692C26.6991 39.3623 26.7761 39.5457 26.8869 39.7085C27.1655 40.1113 27.56 40.42 28.018 40.5936C28.476 40.7672 28.976 40.7974 29.4516 40.6804L29.6487 40.6306C30.1639 40.4981 30.6215 40.2005 30.9515 39.7832C31.2097 39.4556 31.5401 39.192 31.917 39.0132C32.294 38.8344 32.7071 38.7451 33.1242 38.7524C33.7985 38.7623 34.4462 39.0169 34.9467 39.4689C35.4471 39.9209 35.7662 40.5394 35.8445 41.2092C35.9228 41.879 35.755 42.5544 35.3723 43.1097C34.9896 43.6649 34.4181 44.0621 33.7642 44.2272C33.1873 44.3706 32.5793 44.3208 32.0333 44.0856C31.5442 43.8749 30.9996 43.83 30.4825 43.9576L30.2876 44.0063C29.8132 44.1277 29.3869 44.3904 29.0652 44.7596C28.7436 45.1289 28.5417 45.5872 28.4865 46.0737C28.4646 46.2697 28.4823 46.4681 28.5386 46.6571C28.8331 47.6449 29.1412 48.6226 29.4562 49.5639C29.5283 49.7776 29.5534 50.0043 29.5298 50.2286C29.5061 50.4529 29.4342 50.6694 29.3191 50.8633C29.2061 51.0567 29.0519 51.223 28.8675 51.3502C28.6831 51.4774 28.473 51.5626 28.252 51.5996Z" fill="black"/>
</g>
<path d="M69.4234 32.16C68.7834 32.16 68.2554 31.968 67.8394 31.584C67.4394 31.184 67.2394 30.688 67.2394 30.096C67.2394 29.456 67.4794 28.904 67.9594 28.44C68.4394 27.976 69.0234 27.744 69.7114 27.744C70.3514 27.744 70.8714 27.944 71.2714 28.344C71.6874 28.744 71.8954 29.24 71.8954 29.832C71.8954 30.472 71.6554 31.024 71.1754 31.488C70.6954 31.936 70.1114 32.16 69.4234 32.16ZM67.7434 45.096C67.1194 45.096 66.5594 44.88 66.0634 44.448C65.5674 44 65.3194 43.288 65.3194 42.312C65.3194 41.752 65.3914 41.232 65.5354 40.752C65.6954 40.256 65.8714 39.776 66.0634 39.312C66.2714 38.848 66.4474 38.4 66.5914 37.968C66.7514 37.52 66.8314 37.08 66.8314 36.648C66.8314 36.264 66.7674 35.992 66.6394 35.832C66.5114 35.656 66.3594 35.568 66.1834 35.568C65.9114 35.568 65.6474 35.744 65.3914 36.096L65.2234 36C65.2874 35.36 65.4874 34.816 65.8234 34.368C66.1754 33.904 66.5994 33.544 67.0954 33.288C67.6074 33.032 68.1114 32.904 68.6074 32.904C69.2154 32.904 69.7434 33.104 70.1914 33.504C70.6394 33.888 70.8634 34.52 70.8634 35.4C70.8634 35.928 70.7834 36.488 70.6234 37.08C70.4794 37.656 70.3034 38.232 70.0954 38.808C69.9034 39.384 69.7274 39.92 69.5674 40.416C69.4234 40.912 69.3514 41.336 69.3514 41.688C69.3514 41.992 69.4074 42.208 69.5194 42.336C69.6474 42.464 69.7834 42.528 69.9274 42.528C70.0714 42.528 70.2074 42.488 70.3354 42.408C70.4794 42.312 70.5834 42.208 70.6474 42.096L70.8154 42.144C70.8154 42.736 70.6554 43.256 70.3354 43.704C70.0314 44.136 69.6474 44.48 69.1834 44.736C68.7194 44.976 68.2394 45.096 67.7434 45.096Z" fill="#D21116"/>
<path d="M80.6601 38.808H73.4361V36.84H80.6601V38.808ZM89.0337 30.048L87.2577 30.744V42.96L89.0337 43.68V45H83.4177V43.68L85.1937 42.96V30.744L83.4177 30.048V28.68H89.0337V30.048ZM108.66 28.68V30.048L106.884 30.744V45H104.436L95.1957 31.248V42.96L97.0917 43.68V45H91.6677V43.68L93.4437 42.96V30.744L91.6677 30.048V28.68H95.8917L105.108 42.408V30.744L103.212 30.048V28.68H108.66ZM125.234 33.288H123.914L123.218 30.408H118.874V42.96L120.89 43.68V45H114.794V43.68L116.81 42.96V30.408H112.466L111.77 33.288H110.45V28.68H125.234V33.288ZM141.309 32.928H139.893L139.269 30.408H131.109V35.928H135.885L136.245 34.08H137.565V39.504H136.245L135.885 37.656H131.109V43.272H139.269L139.893 40.512H141.309V45H127.269V43.68L129.045 42.96V30.744L127.269 30.048V28.68H141.309V32.928ZM159.03 36.84V38.208L157.494 38.904V44.424C156.662 44.696 155.742 44.904 154.734 45.048C153.742 45.208 152.798 45.288 151.902 45.288C149.118 45.288 147.03 44.616 145.638 43.272C144.262 41.928 143.574 39.784 143.574 36.84C143.574 33.912 144.27 31.776 145.662 30.432C147.07 29.072 149.15 28.392 151.902 28.392C153.662 28.392 155.526 28.608 157.494 29.04V33.288H155.814L155.406 30.576C154.27 30.304 153.094 30.168 151.878 30.168C150.358 30.168 149.15 30.376 148.254 30.792C147.374 31.208 146.734 31.904 146.334 32.88C145.934 33.84 145.734 35.16 145.734 36.84C145.734 38.552 145.934 39.888 146.334 40.848C146.734 41.808 147.366 42.496 148.23 42.912C149.11 43.312 150.302 43.512 151.806 43.512C153.166 43.512 154.382 43.352 155.454 43.032V38.904L153.918 38.208V36.84H159.03ZM176.096 43.68V45H173.336L168.824 38.232H164.672V42.936L166.448 43.68V45H160.832V43.68L162.608 42.936V30.744L160.832 30.048V28.68H170.408C171.96 28.68 173.136 29.088 173.936 29.904C174.736 30.704 175.136 31.888 175.136 33.456C175.136 34.848 174.8 35.944 174.128 36.744C173.472 37.528 172.504 38 171.224 38.16L174.464 42.96L176.096 43.68ZM164.672 36.504H169.976C171.048 36.504 171.816 36.272 172.28 35.808C172.744 35.328 172.976 34.544 172.976 33.456C172.976 32.384 172.752 31.608 172.304 31.128C171.872 30.648 171.176 30.408 170.216 30.408H164.672V36.504ZM188.157 36.768C189.085 37.232 189.725 37.792 190.077 38.448C190.429 39.104 190.605 39.848 190.605 40.68C190.605 43.784 188.597 45.336 184.581 45.336C182.517 45.336 180.933 44.936 179.829 44.136C178.725 43.336 178.173 42.168 178.173 40.632C178.173 38.824 178.989 37.432 180.621 36.456C179.933 36.04 179.421 35.52 179.085 34.896C178.749 34.272 178.581 33.528 178.581 32.664C178.581 29.784 180.445 28.344 184.173 28.344C186.221 28.344 187.733 28.752 188.709 29.568C189.701 30.384 190.197 31.472 190.197 32.832C190.197 33.664 190.021 34.416 189.669 35.088C189.317 35.744 188.813 36.304 188.157 36.768ZM184.221 30.072C182.957 30.072 182.053 30.264 181.509 30.648C180.965 31.016 180.693 31.64 180.693 32.52C180.693 33.288 180.877 33.88 181.245 34.296C181.613 34.696 182.213 35.024 183.045 35.28C183.669 35.456 184.405 35.648 185.253 35.856C185.605 35.936 185.997 36.032 186.429 36.144L186.669 36.216C187.197 35.752 187.565 35.272 187.773 34.776C187.981 34.264 188.085 33.696 188.085 33.072C188.085 31.984 187.789 31.216 187.197 30.768C186.605 30.304 185.613 30.072 184.221 30.072ZM184.557 43.608C185.917 43.608 186.909 43.392 187.533 42.96C188.173 42.512 188.493 41.824 188.493 40.896C188.493 39.568 187.821 38.696 186.477 38.28C186.125 38.168 185.365 37.976 184.197 37.704L183.045 37.416C182.677 37.32 182.349 37.216 182.061 37.104C181.437 37.552 180.981 38.048 180.693 38.592C180.421 39.136 180.285 39.752 180.285 40.44C180.285 41.512 180.629 42.312 181.317 42.84C182.005 43.352 183.085 43.608 184.557 43.608Z" fill="black"/>
<path d="M74.8254 22.23V23H73.2154L70.5834 19.052H68.1614V21.796L69.1974 22.23V23H65.9214V22.23L66.9574 21.796V14.684L65.9214 14.278V13.48H71.5074C72.4127 13.48 73.0987 13.718 73.5654 14.194C74.032 14.6607 74.2654 15.3513 74.2654 16.266C74.2654 17.078 74.0694 17.7173 73.6774 18.184C73.2947 18.6413 72.73 18.9167 71.9834 19.01L73.8734 21.81L74.8254 22.23ZM68.1614 18.044H71.2554C71.8807 18.044 72.3287 17.9087 72.5994 17.638C72.87 17.358 73.0054 16.9007 73.0054 16.266C73.0054 15.6407 72.8747 15.188 72.6134 14.908C72.3614 14.628 71.9554 14.488 71.3954 14.488H68.1614V18.044ZM79.3829 14.278L78.3469 14.684V21.81L79.3829 22.23V23H76.1069V22.23L77.1429 21.81V14.684L76.1069 14.278V13.48H79.3829V14.278ZM85.2734 17.68C86.0481 17.8293 86.6221 17.988 86.9954 18.156C87.3781 18.324 87.6534 18.576 87.8214 18.912C87.9987 19.2387 88.0874 19.7147 88.0874 20.34C88.0874 21.04 87.9614 21.5907 87.7094 21.992C87.4574 22.3933 87.0607 22.6827 86.5194 22.86C85.9781 23.028 85.2407 23.112 84.3074 23.112C83.0474 23.112 81.8807 22.972 80.8074 22.692V20.2H81.7734L82.0114 21.81C82.7581 21.9873 83.5374 22.076 84.3494 22.076C85.0401 22.076 85.5627 22.0247 85.9174 21.922C86.2814 21.8193 86.5287 21.6607 86.6594 21.446C86.7901 21.222 86.8554 20.9187 86.8554 20.536C86.8554 20.0693 86.7994 19.7427 86.6874 19.556C86.5754 19.3693 86.3514 19.2247 86.0154 19.122C85.6794 19.0193 85.0307 18.8793 84.0694 18.702L83.7194 18.632C82.9541 18.492 82.3614 18.324 81.9414 18.128C81.5307 17.9227 81.2367 17.6567 81.0594 17.33C80.8914 17.0033 80.8074 16.5693 80.8074 16.028C80.8074 15.3653 80.9287 14.8427 81.1714 14.46C81.4234 14.068 81.8154 13.788 82.3474 13.62C82.8794 13.452 83.5887 13.368 84.4754 13.368C85.5674 13.368 86.6967 13.4893 87.8634 13.732V16.182H86.9394L86.7154 14.628C86.0061 14.4787 85.2407 14.404 84.4194 14.404C83.7754 14.404 83.2807 14.4553 82.9354 14.558C82.5901 14.6513 82.3521 14.8007 82.2214 15.006C82.1001 15.202 82.0394 15.4727 82.0394 15.818C82.0394 16.2473 82.1001 16.5553 82.2214 16.742C82.3521 16.9287 82.5854 17.0733 82.9214 17.176C83.2667 17.2787 83.9061 17.4187 84.8394 17.596L85.2734 17.68ZM99.3454 22.216V22.986H96.0274V22.216L96.9094 21.81L93.8294 18.142L91.8274 19.71V21.796L92.9334 22.23V23H89.5874V22.23L90.6234 21.796V14.684L89.5874 14.278V13.48H92.8634V14.278L91.8274 14.684V18.478L96.7274 14.628L95.9014 14.278V13.48H99.2054V14.278L98.1834 14.74L94.7534 17.428L98.4494 21.796L99.3454 22.216ZM108.993 13.312C110.412 13.312 111.518 13.7227 112.311 14.544C113.105 15.356 113.501 16.588 113.501 18.24C113.501 19.892 113.105 21.1287 112.311 21.95C111.518 22.762 110.412 23.168 108.993 23.168C107.575 23.168 106.469 22.762 105.675 21.95C104.882 21.1287 104.485 19.892 104.485 18.24C104.485 16.588 104.882 15.356 105.675 14.544C106.469 13.7227 107.575 13.312 108.993 13.312ZM108.993 14.348C108.237 14.348 107.621 14.474 107.145 14.726C106.679 14.978 106.329 15.3887 106.095 15.958C105.862 16.5273 105.745 17.288 105.745 18.24C105.745 19.192 105.862 19.9527 106.095 20.522C106.329 21.0913 106.679 21.502 107.145 21.754C107.621 22.006 108.237 22.132 108.993 22.132C109.749 22.132 110.361 22.006 110.827 21.754C111.303 21.502 111.658 21.0913 111.891 20.522C112.125 19.9527 112.241 19.192 112.241 18.24C112.241 17.288 112.125 16.5273 111.891 15.958C111.658 15.3887 111.303 14.978 110.827 14.726C110.361 14.474 109.749 14.348 108.993 14.348ZM122.959 16.042H122.147L121.769 14.488H117.093V17.834H119.781L119.991 16.742H120.761V19.976H119.991L119.781 18.842H117.093V21.81L118.367 22.23V23H114.853V22.23L115.889 21.81V14.684L114.853 14.278V13.48H122.959V16.042ZM132.461 16.042H131.649L131.271 14.488H126.595V17.834H129.283L129.493 16.742H130.263V19.976H129.493L129.283 18.842H126.595V21.81L127.869 22.23V23H124.355V22.23L125.391 21.81V14.684L124.355 14.278V13.48H132.461V16.042ZM137.133 14.278L136.097 14.684V21.81L137.133 22.23V23H133.857V22.23L134.893 21.81V14.684L133.857 14.278V13.48H137.133V14.278ZM143.233 14.348C142.393 14.348 141.721 14.474 141.217 14.726C140.713 14.9687 140.34 15.37 140.097 15.93C139.864 16.49 139.747 17.246 139.747 18.198C139.747 19.1687 139.864 19.9433 140.097 20.522C140.34 21.0913 140.709 21.502 141.203 21.754C141.698 22.006 142.347 22.132 143.149 22.132C143.663 22.132 144.19 22.09 144.731 22.006C145.282 21.9127 145.786 21.768 146.243 21.572V22.608C145.851 22.7853 145.38 22.9207 144.829 23.014C144.279 23.1167 143.719 23.168 143.149 23.168C140.041 23.168 138.487 21.5253 138.487 18.24C138.487 16.532 138.898 15.286 139.719 14.502C140.541 13.7087 141.749 13.312 143.345 13.312C144.279 13.312 145.245 13.424 146.243 13.648V16.126H145.263L145.025 14.53C144.447 14.4087 143.849 14.348 143.233 14.348ZM156.115 15.958H155.289L154.925 14.488H150.165V17.708H152.951L153.161 16.63H153.931V19.794H153.161L152.951 18.716H150.165V21.992H154.925L155.289 20.382H156.115V23H147.925V22.23L148.961 21.81V14.684L147.925 14.278V13.48H156.115V15.958Z" fill="black"/>
<defs>
<clipPath id="clip0_6011_25538">
<rect width="58" height="58" fill="white"/>
</clipPath>
</defs>
</svg>
