<svg width="76" height="76" viewBox="0 0 76 76" fill="none" xmlns="http://www.w3.org/2000/svg">
<g clip-path="url(#clip0_5765_34488)">
<path d="M44.3867 20.1354L66.0254 12.2598L73.8406 33.7332L52.202 41.6082L44.3867 20.1354Z" fill="white"/>
<path d="M48.7663 41.0835C48.0632 41.0835 47.36 40.6148 47.1257 39.9116L39.2741 18.4077C39.0983 17.9976 39.1569 17.4702 39.3327 17.0601C39.5085 16.6499 39.86 16.2984 40.3288 16.1226L61.9499 8.27102C62.8874 7.91946 63.8835 8.38821 64.1764 9.32571L71.9694 30.771C72.1452 31.1812 72.0866 31.7085 71.9108 32.1187C71.735 32.5288 71.3835 32.8804 70.9147 33.0562L49.3522 40.9663C49.1764 41.0249 48.9421 41.0835 48.7663 41.0835ZM43.1999 18.8765L49.821 37.0406L68.1608 30.3609L61.5397 12.1968L43.1999 18.8765Z" fill="black"/>
<path d="M20.2227 32.0828L38.2824 25.5098L42.1906 36.2471L24.1303 42.8195L20.2227 32.0828Z" fill="white"/>
<path d="M24.1732 44.5622C23.47 44.5622 22.7669 44.0934 22.5325 43.3903L18.6067 32.6677C18.431 32.2575 18.4896 31.7302 18.6653 31.32C18.8411 30.9098 19.1927 30.5583 19.6614 30.3825L37.7083 23.82C38.1185 23.6442 38.6458 23.7028 39.056 23.8786C39.4661 24.0544 39.8177 24.4059 39.9935 24.8747L43.8607 35.6559C44.2122 36.5934 43.7435 37.5895 42.806 37.8825L24.7591 44.445C24.5247 44.5036 24.3489 44.5622 24.1732 44.5622ZM22.4739 33.1364L25.1692 40.5778L39.9349 35.1872L37.2396 27.7458L22.4739 33.1364ZM42.1028 70.7536C41.3997 70.7536 40.6966 70.3434 40.4622 69.6403L32.2591 47.8434L27.3372 49.6598L17.2591 69.8161C16.8489 70.695 15.7942 71.0466 14.9153 70.5778C14.0364 70.1677 13.6849 69.113 14.1536 68.2341L24.5247 47.3747C24.7005 46.9645 25.0521 46.6716 25.5208 46.4958L32.7278 43.9177C33.6067 43.5661 34.6614 44.0348 34.9544 44.9723L43.7435 68.4099C44.095 69.3474 43.6263 70.3434 42.6888 70.695C42.513 70.695 42.3372 70.7536 42.1028 70.7536Z" fill="#AEAF00"/>
<path d="M6.47656 39.1133L9.05469 46.2617L6.47656 39.1133Z" fill="white"/>
<path d="M4.44094 50.3277C3.73782 50.3277 3.03469 49.8589 2.80032 49.1558L0.163599 42.0074C-0.187963 41.0699 0.280787 40.0738 1.21829 39.7808C2.15579 39.4292 3.15188 39.898 3.44485 40.8355L6.02297 47.9839C6.37454 48.9214 5.90579 49.9175 4.96829 50.2105C4.8511 50.3277 4.67532 50.3277 4.44094 50.3277ZM8.19094 44.937C7.48782 44.937 6.78469 44.4683 6.55032 43.7652C6.19876 42.8277 6.66751 41.8316 7.60501 41.5386L16.98 38.1402C17.9175 37.7886 18.9136 38.2573 19.2066 39.1948C19.5581 40.1323 19.0894 41.1284 18.1519 41.4214L8.77688 44.8198C8.6011 44.8784 8.42532 44.937 8.19094 44.937Z" fill="#0A103E"/>
</g>
<defs>
<clipPath id="clip0_5765_34488">
<rect width="75" height="75" fill="white" transform="translate(0.5 0.5)"/>
</clipPath>
</defs>
</svg>
