<svg width="192" height="58" viewBox="0 0 192 58" fill="none" xmlns="http://www.w3.org/2000/svg">
<g clip-path="url(#clip0_5801_29605)">
<path d="M33.9375 15.1842L50.6714 9.09375L56.7152 25.6999L39.9813 31.7899L33.9375 15.1842Z" fill="white"/>
<path d="M37.325 31.3842C36.7813 31.3842 36.2375 31.0217 36.0563 30.478L29.9844 13.8483C29.8485 13.5311 29.8938 13.1233 30.0297 12.8061C30.1657 12.4889 30.4375 12.217 30.8 12.0811L47.5204 6.00921C48.2454 5.73734 49.0157 6.09984 49.2422 6.82484L55.2688 23.4092C55.4047 23.7264 55.3594 24.1342 55.2235 24.4514C55.0875 24.7686 54.8157 25.0405 54.4532 25.1764L37.7782 31.2936C37.6422 31.3389 37.461 31.3842 37.325 31.3842ZM33.0204 14.2108L38.1407 28.2577L52.3235 23.092L47.2032 9.04515L33.0204 14.2108Z" fill="black"/>
<path d="M15.2539 24.4245L29.2201 19.3413L32.2425 27.6448L18.2758 32.7275L15.2539 24.4245Z" fill="white"/>
<path d="M18.308 34.0748C17.7642 34.0748 17.2205 33.7123 17.0392 33.1686L14.0033 24.8764C13.8673 24.5592 13.9127 24.1514 14.0486 23.8342C14.1845 23.517 14.4564 23.2452 14.8189 23.1092L28.7752 18.0342C29.0923 17.8983 29.5002 17.9436 29.8173 18.0795C30.1345 18.2155 30.4064 18.4874 30.5423 18.8499L33.533 27.1874C33.8048 27.9124 33.4423 28.6827 32.7173 28.9092L18.7611 33.9842C18.5798 34.0295 18.4439 34.0748 18.308 34.0748ZM16.9939 25.2389L19.0783 30.9936L30.497 26.8249L28.4127 21.0702L16.9939 25.2389ZM32.1736 54.3295C31.6298 54.3295 31.0861 54.0124 30.9048 53.4686L24.5611 36.6124L20.7548 38.017L12.9611 53.6045C12.6439 54.2842 11.8283 54.5561 11.1486 54.1936C10.4689 53.8764 10.197 53.0608 10.5595 52.3811L18.5798 36.2499C18.7158 35.9327 18.9877 35.7061 19.3502 35.5702L24.9236 33.5764C25.6033 33.3045 26.4189 33.667 26.6455 34.392L33.4423 52.517C33.7142 53.242 33.3517 54.0124 32.6267 54.2842C32.4908 54.2842 32.3548 54.3295 32.1736 54.3295Z" fill="#AEAF00"/>
<path d="M4.62109 29.8608L6.61484 35.389Z" fill="white"/>
<path d="M3.04652 38.5333C2.50277 38.5333 1.95902 38.1708 1.77777 37.6271L-0.261296 32.099C-0.533171 31.374 -0.170671 30.6036 0.554329 30.3771C1.27933 30.1052 2.04964 30.4677 2.2762 31.1927L4.26995 36.7208C4.54183 37.4458 4.17933 38.2161 3.45433 38.4427C3.3637 38.5333 3.22777 38.5333 3.04652 38.5333ZM5.94652 34.3646C5.40277 34.3646 4.85902 34.0021 4.67777 33.4583C4.40589 32.7333 4.76839 31.963 5.49339 31.7365L12.7434 29.1083C13.4684 28.8365 14.2387 29.199 14.4653 29.924C14.7371 30.649 14.3746 31.4193 13.6496 31.6458L6.39964 34.274C6.2637 34.3193 6.12777 34.3646 5.94652 34.3646Z" fill="#0A103E"/>
</g>
<path d="M69.232 32.16C68.592 32.16 68.064 31.968 67.648 31.584C67.248 31.184 67.048 30.688 67.048 30.096C67.048 29.456 67.288 28.904 67.768 28.44C68.248 27.976 68.832 27.744 69.52 27.744C70.16 27.744 70.68 27.944 71.08 28.344C71.496 28.744 71.704 29.24 71.704 29.832C71.704 30.472 71.464 31.024 70.984 31.488C70.504 31.936 69.92 32.16 69.232 32.16ZM67.552 45.096C66.928 45.096 66.368 44.88 65.872 44.448C65.376 44 65.128 43.288 65.128 42.312C65.128 41.752 65.2 41.232 65.344 40.752C65.504 40.256 65.68 39.776 65.872 39.312C66.08 38.848 66.256 38.4 66.4 37.968C66.56 37.52 66.64 37.08 66.64 36.648C66.64 36.264 66.576 35.992 66.448 35.832C66.32 35.656 66.168 35.568 65.992 35.568C65.72 35.568 65.456 35.744 65.2 36.096L65.032 36C65.096 35.36 65.296 34.816 65.632 34.368C65.984 33.904 66.408 33.544 66.904 33.288C67.416 33.032 67.92 32.904 68.416 32.904C69.024 32.904 69.552 33.104 70 33.504C70.448 33.888 70.672 34.52 70.672 35.4C70.672 35.928 70.592 36.488 70.432 37.08C70.288 37.656 70.112 38.232 69.904 38.808C69.712 39.384 69.536 39.92 69.376 40.416C69.232 40.912 69.16 41.336 69.16 41.688C69.16 41.992 69.216 42.208 69.328 42.336C69.456 42.464 69.592 42.528 69.736 42.528C69.88 42.528 70.016 42.488 70.144 42.408C70.288 42.312 70.392 42.208 70.456 42.096L70.624 42.144C70.624 42.736 70.464 43.256 70.144 43.704C69.84 44.136 69.456 44.48 68.992 44.736C68.528 44.976 68.048 45.096 67.552 45.096Z" fill="#D21116"/>
<path d="M80.4687 38.808H73.2447V36.84H80.4687V38.808ZM90.6903 35.88C92.0183 36.136 93.0023 36.408 93.6423 36.696C94.2983 36.984 94.7703 37.416 95.0583 37.992C95.3623 38.552 95.5143 39.368 95.5143 40.44C95.5143 41.64 95.2983 42.584 94.8663 43.272C94.4343 43.96 93.7543 44.456 92.8263 44.76C91.8983 45.048 90.6343 45.192 89.0343 45.192C86.8743 45.192 84.8743 44.952 83.0343 44.472V40.2H84.6903L85.0983 42.96C86.3783 43.264 87.7143 43.416 89.1063 43.416C90.2903 43.416 91.1863 43.328 91.7943 43.152C92.4183 42.976 92.8423 42.704 93.0663 42.336C93.2903 41.952 93.4023 41.432 93.4023 40.776C93.4023 39.976 93.3063 39.416 93.1143 39.096C92.9223 38.776 92.5383 38.528 91.9623 38.352C91.3863 38.176 90.2743 37.936 88.6263 37.632L88.0263 37.512C86.7143 37.272 85.6983 36.984 84.9783 36.648C84.2743 36.296 83.7703 35.84 83.4663 35.28C83.1783 34.72 83.0343 33.976 83.0343 33.048C83.0343 31.912 83.2423 31.016 83.6583 30.36C84.0903 29.688 84.7623 29.208 85.6743 28.92C86.5863 28.632 87.8023 28.488 89.3223 28.488C91.1943 28.488 93.1303 28.696 95.1302 29.112V33.312H93.5463L93.1623 30.648C91.9463 30.392 90.6343 30.264 89.2263 30.264C88.1223 30.264 87.2743 30.352 86.6823 30.528C86.0903 30.688 85.6823 30.944 85.4583 31.296C85.2503 31.632 85.1463 32.096 85.1463 32.688C85.1463 33.424 85.2503 33.952 85.4583 34.272C85.6823 34.592 86.0823 34.84 86.6583 35.016C87.2503 35.192 88.3463 35.432 89.9463 35.736L90.6903 35.88ZM105.91 30.168C104.47 30.168 103.318 30.384 102.454 30.816C101.59 31.232 100.95 31.92 100.534 32.88C100.134 33.84 99.9336 35.136 99.9336 36.768C99.9336 38.432 100.134 39.76 100.534 40.752C100.95 41.728 101.582 42.432 102.43 42.864C103.278 43.296 104.39 43.512 105.766 43.512C106.646 43.512 107.55 43.44 108.478 43.296C109.422 43.136 110.286 42.888 111.07 42.552V44.328C110.398 44.632 109.59 44.864 108.646 45.024C107.702 45.2 106.742 45.288 105.766 45.288C100.438 45.288 97.7736 42.472 97.7736 36.84C97.7736 33.912 98.4776 31.776 99.8856 30.432C101.294 29.072 103.366 28.392 106.102 28.392C107.702 28.392 109.358 28.584 111.07 28.968V33.216H109.39L108.982 30.48C107.99 30.272 106.966 30.168 105.91 30.168ZM129.769 43.68V45H124.249V43.68L125.929 43.032L124.633 39.504H117.553L116.233 43.056L117.937 43.68V45H112.825V43.68L114.481 42.936L119.953 28.488H122.641L128.113 42.912L129.769 43.68ZM124.009 37.8L121.105 29.928L118.177 37.8H124.009ZM148.265 28.68V30.048L146.489 30.744V45H144.041L134.801 31.248V42.96L136.697 43.68V45H131.273V43.68L133.049 42.96V30.744L131.273 30.048V28.68H135.497L144.713 42.408V30.744L142.817 30.048V28.68H148.265Z" fill="black"/>
<path d="M74.8254 22.23V23H73.2154L70.5834 19.052H68.1614V21.796L69.1974 22.23V23H65.9214V22.23L66.9574 21.796V14.684L65.9214 14.278V13.48H71.5074C72.4127 13.48 73.0987 13.718 73.5654 14.194C74.032 14.6607 74.2654 15.3513 74.2654 16.266C74.2654 17.078 74.0694 17.7173 73.6774 18.184C73.2947 18.6413 72.73 18.9167 71.9834 19.01L73.8734 21.81L74.8254 22.23ZM68.1614 18.044H71.2554C71.8807 18.044 72.3287 17.9087 72.5994 17.638C72.87 17.358 73.0054 16.9007 73.0054 16.266C73.0054 15.6407 72.8747 15.188 72.6134 14.908C72.3614 14.628 71.9554 14.488 71.3954 14.488H68.1614V18.044ZM79.3829 14.278L78.3469 14.684V21.81L79.3829 22.23V23H76.1069V22.23L77.1429 21.81V14.684L76.1069 14.278V13.48H79.3829V14.278ZM85.2734 17.68C86.0481 17.8293 86.6221 17.988 86.9954 18.156C87.3781 18.324 87.6534 18.576 87.8214 18.912C87.9987 19.2387 88.0874 19.7147 88.0874 20.34C88.0874 21.04 87.9614 21.5907 87.7094 21.992C87.4574 22.3933 87.0607 22.6827 86.5194 22.86C85.9781 23.028 85.2407 23.112 84.3074 23.112C83.0474 23.112 81.8807 22.972 80.8074 22.692V20.2H81.7734L82.0114 21.81C82.7581 21.9873 83.5374 22.076 84.3494 22.076C85.0401 22.076 85.5627 22.0247 85.9174 21.922C86.2814 21.8193 86.5287 21.6607 86.6594 21.446C86.7901 21.222 86.8554 20.9187 86.8554 20.536C86.8554 20.0693 86.7994 19.7427 86.6874 19.556C86.5754 19.3693 86.3514 19.2247 86.0154 19.122C85.6794 19.0193 85.0307 18.8793 84.0694 18.702L83.7194 18.632C82.9541 18.492 82.3614 18.324 81.9414 18.128C81.5307 17.9227 81.2367 17.6567 81.0594 17.33C80.8914 17.0033 80.8074 16.5693 80.8074 16.028C80.8074 15.3653 80.9287 14.8427 81.1714 14.46C81.4234 14.068 81.8154 13.788 82.3474 13.62C82.8794 13.452 83.5887 13.368 84.4754 13.368C85.5674 13.368 86.6967 13.4893 87.8634 13.732V16.182H86.9394L86.7154 14.628C86.0061 14.4787 85.2407 14.404 84.4194 14.404C83.7754 14.404 83.2807 14.4553 82.9354 14.558C82.5901 14.6513 82.3521 14.8007 82.2214 15.006C82.1001 15.202 82.0394 15.4727 82.0394 15.818C82.0394 16.2473 82.1001 16.5553 82.2214 16.742C82.3521 16.9287 82.5854 17.0733 82.9214 17.176C83.2667 17.2787 83.9061 17.4187 84.8394 17.596L85.2734 17.68ZM99.3454 22.216V22.986H96.0274V22.216L96.9094 21.81L93.8294 18.142L91.8274 19.71V21.796L92.9334 22.23V23H89.5874V22.23L90.6234 21.796V14.684L89.5874 14.278V13.48H92.8634V14.278L91.8274 14.684V18.478L96.7274 14.628L95.9014 14.278V13.48H99.2054V14.278L98.1834 14.74L94.7534 17.428L98.4494 21.796L99.3454 22.216ZM108.993 13.312C110.412 13.312 111.518 13.7227 112.311 14.544C113.105 15.356 113.501 16.588 113.501 18.24C113.501 19.892 113.105 21.1287 112.311 21.95C111.518 22.762 110.412 23.168 108.993 23.168C107.575 23.168 106.469 22.762 105.675 21.95C104.882 21.1287 104.485 19.892 104.485 18.24C104.485 16.588 104.882 15.356 105.675 14.544C106.469 13.7227 107.575 13.312 108.993 13.312ZM108.993 14.348C108.237 14.348 107.621 14.474 107.145 14.726C106.679 14.978 106.329 15.3887 106.095 15.958C105.862 16.5273 105.745 17.288 105.745 18.24C105.745 19.192 105.862 19.9527 106.095 20.522C106.329 21.0913 106.679 21.502 107.145 21.754C107.621 22.006 108.237 22.132 108.993 22.132C109.749 22.132 110.361 22.006 110.827 21.754C111.303 21.502 111.658 21.0913 111.891 20.522C112.125 19.9527 112.241 19.192 112.241 18.24C112.241 17.288 112.125 16.5273 111.891 15.958C111.658 15.3887 111.303 14.978 110.827 14.726C110.361 14.474 109.749 14.348 108.993 14.348ZM122.959 16.042H122.147L121.769 14.488H117.093V17.834H119.781L119.991 16.742H120.761V19.976H119.991L119.781 18.842H117.093V21.81L118.367 22.23V23H114.853V22.23L115.889 21.81V14.684L114.853 14.278V13.48H122.959V16.042ZM132.461 16.042H131.649L131.271 14.488H126.595V17.834H129.283L129.493 16.742H130.263V19.976H129.493L129.283 18.842H126.595V21.81L127.869 22.23V23H124.355V22.23L125.391 21.81V14.684L124.355 14.278V13.48H132.461V16.042ZM137.133 14.278L136.097 14.684V21.81L137.133 22.23V23H133.857V22.23L134.893 21.81V14.684L133.857 14.278V13.48H137.133V14.278ZM143.233 14.348C142.393 14.348 141.721 14.474 141.217 14.726C140.713 14.9687 140.34 15.37 140.097 15.93C139.864 16.49 139.747 17.246 139.747 18.198C139.747 19.1687 139.864 19.9433 140.097 20.522C140.34 21.0913 140.709 21.502 141.203 21.754C141.698 22.006 142.347 22.132 143.149 22.132C143.663 22.132 144.19 22.09 144.731 22.006C145.282 21.9127 145.786 21.768 146.243 21.572V22.608C145.851 22.7853 145.38 22.9207 144.829 23.014C144.279 23.1167 143.719 23.168 143.149 23.168C140.041 23.168 138.487 21.5253 138.487 18.24C138.487 16.532 138.898 15.286 139.719 14.502C140.541 13.7087 141.749 13.312 143.345 13.312C144.279 13.312 145.245 13.424 146.243 13.648V16.126H145.263L145.025 14.53C144.447 14.4087 143.849 14.348 143.233 14.348ZM156.115 15.958H155.289L154.925 14.488H150.165V17.708H152.951L153.161 16.63H153.931V19.794H153.161L152.951 18.716H150.165V21.992H154.925L155.289 20.382H156.115V23H147.925V22.23L148.961 21.81V14.684L147.925 14.278V13.48H156.115V15.958Z" fill="black"/>
<defs>
<clipPath id="clip0_5801_29605">
<rect width="58" height="58" fill="white"/>
</clipPath>
</defs>
</svg>
