<svg width="20" height="20" viewBox="0 0 20 20" fill="none" xmlns="http://www.w3.org/2000/svg">
<path d="M4.40048 11.9241H4.4001C3.67757 11.9241 2.98464 11.6371 2.47374 11.1262C1.96283 10.6153 1.67581 9.92233 1.67581 9.1998C1.67581 9.1138 1.70998 9.03132 1.77079 8.9705C1.83161 8.90968 1.91409 8.87552 2.0001 8.87552H6.8001C6.8861 8.87552 6.96859 8.90968 7.0294 8.9705C7.09022 9.03131 7.12438 9.1138 7.12438 9.1998C7.12438 9.28581 7.09022 9.36829 7.0294 9.42911C6.96859 9.48992 6.8861 9.52409 6.8001 9.52409H2.4401H2.3482L2.36578 9.61429C2.44297 10.0104 2.63392 10.3753 2.91529 10.6646C3.19665 10.9538 3.55622 11.1548 3.95 11.2429C4.34379 11.331 4.75471 11.3024 5.1325 11.1606C5.51012 11.0189 5.83827 10.7702 6.07684 10.445C6.12874 10.3765 6.20517 10.3308 6.29007 10.3175C6.37476 10.3042 6.4613 10.3241 6.53161 10.3731C6.59989 10.4247 6.64502 10.5012 6.65712 10.5859C6.66929 10.6711 6.64713 10.7576 6.59552 10.8264L6.5953 10.8267C6.34123 11.169 6.01017 11.4467 5.62887 11.6374C5.24758 11.828 4.82677 11.9262 4.40048 11.9241Z" fill="#FBFBFB" stroke="#FCFCFC" stroke-width="0.151429"/>
<path d="M6.79991 9.6002H1.99991C1.93117 9.59911 1.86377 9.581 1.80374 9.5475C1.74371 9.51399 1.69292 9.46613 1.65591 9.4082C1.6244 9.34911 1.60791 9.28317 1.60791 9.2162C1.60791 9.14923 1.6244 9.08329 1.65591 9.0242L4.05591 4.2242C4.09246 4.16108 4.14496 4.10868 4.20814 4.07226C4.27133 4.03583 4.34298 4.01666 4.41591 4.01666C4.48884 4.01666 4.56049 4.03583 4.62368 4.07226C4.68686 4.10868 4.73936 4.16108 4.77591 4.2242L7.17591 9.0242C7.20743 9.08329 7.22391 9.14923 7.22391 9.2162C7.22391 9.28317 7.20743 9.34911 7.17591 9.4082C7.13607 9.47084 7.08019 9.52168 7.01408 9.55544C6.94796 9.5892 6.87401 9.60465 6.79991 9.6002ZM2.64791 8.8002H6.15191L4.39991 5.2962L2.64791 8.8002ZM9.99991 5.6002C9.76257 5.6002 9.53056 5.52982 9.33323 5.39796C9.13589 5.2661 8.98208 5.07869 8.89125 4.85942C8.80043 4.64014 8.77666 4.39886 8.82297 4.16609C8.86927 3.93331 8.98356 3.71949 9.15138 3.55167C9.3192 3.38384 9.53302 3.26956 9.7658 3.22325C9.99858 3.17695 10.2399 3.20072 10.4591 3.29154C10.6784 3.38237 10.8658 3.53617 10.9977 3.73351C11.1295 3.93085 11.1999 4.16286 11.1999 4.4002C11.1999 4.71846 11.0735 5.02368 10.8484 5.24872C10.6234 5.47377 10.3182 5.6002 9.99991 5.6002ZM9.99991 4.0002C9.9208 4.0002 9.84346 4.02366 9.77768 4.06761C9.7119 4.11156 9.66063 4.17403 9.63036 4.24712C9.60008 4.32021 9.59216 4.40064 9.6076 4.47823C9.62303 4.55582 9.66113 4.6271 9.71707 4.68304C9.77301 4.73898 9.84428 4.77708 9.92187 4.79251C9.99946 4.80794 10.0799 4.80002 10.153 4.76975C10.2261 4.73947 10.2885 4.6882 10.3325 4.62242C10.3765 4.55664 10.3999 4.47931 10.3999 4.4002C10.3999 4.29411 10.3578 4.19237 10.2828 4.11735C10.2077 4.04234 10.106 4.0002 9.99991 4.0002Z" fill="#FBFBFB"/>
<path d="M9.2 4.8H4.4C4.29391 4.8 4.19217 4.75786 4.11716 4.68284C4.04214 4.60783 4 4.50609 4 4.4C4 4.29391 4.04214 4.19217 4.11716 4.11716C4.19217 4.04214 4.29391 4 4.4 4H9.2C9.30609 4 9.40783 4.04214 9.48284 4.11716C9.55786 4.19217 9.6 4.29391 9.6 4.4C9.6 4.50609 9.55786 4.60783 9.48284 4.68284C9.40783 4.75786 9.30609 4.8 9.2 4.8ZM15.6 12C14.8574 12 14.1452 11.705 13.6201 11.1799C13.095 10.6548 12.8 9.94261 12.8 9.2C12.8 9.09391 12.8421 8.99217 12.9172 8.91716C12.9922 8.84214 13.0939 8.8 13.2 8.8C13.3061 8.8 13.4078 8.84214 13.4828 8.91716C13.5579 8.99217 13.6 9.09391 13.6 9.2C13.547 9.73043 13.7068 10.2602 14.0444 10.6728C14.3819 11.0854 14.8696 11.347 15.4 11.4C15.6626 11.4263 15.9279 11.4005 16.1806 11.3243C16.4333 11.2481 16.6685 11.1228 16.8728 10.9556C17.2854 10.6181 17.547 10.1304 17.6 9.6H14.8C14.6939 9.6 14.5922 9.55786 14.5172 9.48284C14.4421 9.40783 14.4 9.30609 14.4 9.2C14.4 9.09391 14.4421 8.99217 14.5172 8.91716C14.5922 8.84214 14.6939 8.8 14.8 8.8H18C18.1061 8.8 18.2078 8.84214 18.2828 8.91716C18.3579 8.99217 18.4 9.09391 18.4 9.2C18.4 9.94261 18.105 10.6548 17.5799 11.1799C17.0548 11.705 16.3426 12 15.6 12Z" fill="#FBFBFB"/>
<path d="M13.2001 9.60014C13.1393 9.59935 13.0793 9.58572 13.0241 9.56014C12.93 9.51204 12.8582 9.42928 12.8239 9.3293C12.7895 9.22932 12.7954 9.11991 12.8401 9.02414L15.2401 4.22414C15.2767 4.16103 15.3291 4.10863 15.3923 4.0722C15.4555 4.03578 15.5272 4.0166 15.6001 4.0166C15.673 4.0166 15.7447 4.03578 15.8079 4.0722C15.8711 4.10863 15.9236 4.16103 15.9601 4.22414L18.3601 9.02414C18.3916 9.08323 18.4081 9.14917 18.4081 9.21614C18.4081 9.28311 18.3916 9.34905 18.3601 9.40814C18.3231 9.46608 18.2723 9.51394 18.2123 9.54744C18.1522 9.58095 18.0848 9.59905 18.0161 9.60014H15.3201C15.214 9.60014 15.1123 9.558 15.0373 9.48298C14.9622 9.40797 14.9201 9.30623 14.9201 9.20014C14.9201 9.09405 14.9622 8.99231 15.0373 8.9173C15.1123 8.84228 15.214 8.80014 15.3201 8.80014H17.3521L15.6001 5.29614L13.6001 9.37614C13.5644 9.44998 13.5069 9.51107 13.4354 9.55113C13.3638 9.5912 13.2817 9.60831 13.2001 9.60014Z" fill="#FBFBFB"/>
<path d="M15.6001 4.8H10.8001C10.694 4.8 10.5923 4.75786 10.5173 4.68284C10.4422 4.60783 10.4001 4.50609 10.4001 4.4C10.4001 4.29391 10.4422 4.19217 10.5173 4.11716C10.5923 4.04214 10.694 4 10.8001 4H15.6001C15.7062 4 15.8079 4.04214 15.8829 4.11716C15.958 4.19217 16.0001 4.29391 16.0001 4.4C16.0001 4.50609 15.958 4.60783 15.8829 4.68284C15.8079 4.75786 15.7062 4.8 15.6001 4.8ZM10.0001 15.2C9.89401 15.2 9.79227 15.1579 9.71725 15.0828C9.64224 15.0078 9.6001 14.9061 9.6001 14.8V5.2C9.6001 5.09391 9.64224 4.99217 9.71725 4.91716C9.79227 4.84214 9.89401 4.8 10.0001 4.8C10.1062 4.8 10.2079 4.84214 10.2829 4.91716C10.358 4.99217 10.4001 5.09391 10.4001 5.2V14.8C10.4001 14.9061 10.358 15.0078 10.2829 15.0828C10.2079 15.1579 10.1062 15.2 10.0001 15.2Z" fill="#FBFBFB"/>
<path d="M12.4002 16.7999H7.6002C7.49411 16.7999 7.39237 16.7578 7.31735 16.6827C7.24234 16.6077 7.2002 16.506 7.2002 16.3999V15.5999C7.2002 15.2816 7.32662 14.9764 7.55167 14.7514C7.77671 14.5263 8.08194 14.3999 8.4002 14.3999H10.0002C10.1063 14.3999 10.208 14.442 10.283 14.5171C10.3581 14.5921 10.4002 14.6938 10.4002 14.7999C10.4002 14.906 10.3581 15.0077 10.283 15.0827C10.208 15.1578 10.1063 15.1999 10.0002 15.1999H8.4002C8.29411 15.1999 8.19237 15.242 8.11735 15.3171C8.04234 15.3921 8.0002 15.4938 8.0002 15.5999V15.9999H12.0002V15.5999C12.0002 15.4938 11.9581 15.3921 11.883 15.3171C11.808 15.242 11.7063 15.1999 11.6002 15.1999C11.4941 15.1999 11.3924 15.1578 11.3174 15.0827C11.2423 15.0077 11.2002 14.906 11.2002 14.7999C11.2002 14.6938 11.2423 14.5921 11.3174 14.5171C11.3924 14.442 11.4941 14.3999 11.6002 14.3999C11.9185 14.3999 12.2237 14.5263 12.4487 14.7514C12.6738 14.9764 12.8002 15.2816 12.8002 15.5999V16.3999C12.8002 16.506 12.7581 16.6077 12.683 16.6827C12.608 16.7578 12.5063 16.7999 12.4002 16.7999Z" fill="#FBFBFB"/>
</svg>
