<svg width="67" height="68" viewBox="0 0 67 68" fill="none" xmlns="http://www.w3.org/2000/svg">
<g filter="url(#filter0_d_5862_33065)">
<rect x="9.5" y="8.01294" width="48" height="48" rx="7" fill="white" shape-rendering="crispEdges"/>
<rect x="10" y="8.51294" width="47" height="47" rx="6.5" stroke="#EDEDED" shape-rendering="crispEdges"/>
<g clip-path="url(#clip0_5862_33065)">
<path d="M46.5 16.7631H20.5C19.9101 16.7571 19.3419 16.9853 18.92 17.3978C18.4982 17.8102 18.2573 18.3731 18.25 18.9631V45.0681C18.2586 45.6571 18.5001 46.2188 18.9218 46.6301C19.3435 47.0415 19.9109 47.2691 20.5 47.2631H46.5C47.09 47.2677 47.6578 47.0387 48.0794 46.626C48.501 46.2133 48.7421 45.6505 48.75 45.0606V18.9556C48.7395 18.3674 48.4972 17.8071 48.0759 17.3966C47.6546 16.986 47.0883 16.7583 46.5 16.7631Z" fill="#0076B2"/>
<path d="M22.7663 28.1953H27.2938V42.7628H22.7663V28.1953ZM25.0313 20.9453C25.5505 20.9453 26.0581 21.0993 26.4899 21.3879C26.9216 21.6764 27.2581 22.0865 27.4567 22.5663C27.6553 23.0461 27.7071 23.5741 27.6056 24.0833C27.5041 24.5926 27.2539 25.0603 26.8865 25.4274C26.5192 25.7944 26.0512 26.0442 25.5418 26.1452C25.0325 26.2462 24.5046 26.1938 24.025 25.9948C23.5454 25.7957 23.1356 25.4589 22.8474 25.0269C22.5593 24.5949 22.4058 24.0871 22.4063 23.5678C22.4069 22.8721 22.6838 22.205 23.176 21.7133C23.6682 21.2215 24.3355 20.9453 25.0313 20.9453ZM30.1338 28.1953H34.4738V30.1953H34.5338C35.1388 29.0503 36.6138 27.8428 38.8163 27.8428C43.4013 27.8328 44.2513 30.8503 44.2513 34.7628V42.7628H39.7238V35.6753C39.7238 33.9878 39.6938 31.8153 37.3713 31.8153C35.0488 31.8153 34.6538 33.6553 34.6538 35.5653V42.7628H30.1338V28.1953Z" fill="white"/>
</g>
</g>
<defs>
<filter id="filter0_d_5862_33065" x="0.2" y="0.712939" width="66.6" height="66.6" filterUnits="userSpaceOnUse" color-interpolation-filters="sRGB">
<feFlood flood-opacity="0" result="BackgroundImageFix"/>
<feColorMatrix in="SourceAlpha" type="matrix" values="0 0 0 0 0 0 0 0 0 0 0 0 0 0 0 0 0 0 127 0" result="hardAlpha"/>
<feOffset dy="2"/>
<feGaussianBlur stdDeviation="4.65"/>
<feComposite in2="hardAlpha" operator="out"/>
<feColorMatrix type="matrix" values="0 0 0 0 0 0 0 0 0 0 0 0 0 0 0 0 0 0 0.1 0"/>
<feBlend mode="normal" in2="BackgroundImageFix" result="effect1_dropShadow_5862_33065"/>
<feBlend mode="normal" in="SourceGraphic" in2="effect1_dropShadow_5862_33065" result="shape"/>
</filter>
<clipPath id="clip0_5862_33065">
<rect width="32" height="32" fill="white" transform="translate(17.5 16.0129)"/>
</clipPath>
</defs>
</svg>
