<svg width="192" height="58" viewBox="0 0 192 58" fill="none" xmlns="http://www.w3.org/2000/svg">
<path d="M41.3442 27.5319H33.7317C32.53 27.5319 31.3774 27.0545 30.5276 26.2047C29.6779 25.3549 29.2005 24.2024 29.2005 23.0006V15.4062C29.2005 14.2045 29.6779 13.0519 30.5276 12.2022C31.3774 11.3524 32.53 10.875 33.7317 10.875H41.3442C42.546 10.875 43.6985 11.3524 44.5483 12.2022C45.3981 13.0519 45.8755 14.2045 45.8755 15.4062V23.0187C45.8707 24.2174 45.3912 25.3653 44.5419 26.2111C43.6927 27.057 42.5428 27.5319 41.3442 27.5319ZM33.7317 14.5C33.4914 14.5 33.2609 14.5955 33.0909 14.7654C32.9209 14.9354 32.8255 15.1659 32.8255 15.4062V23.0187C32.8255 23.2591 32.9209 23.4896 33.0909 23.6596C33.2609 23.8295 33.4914 23.925 33.7317 23.925H41.3442C41.5846 23.925 41.8151 23.8295 41.985 23.6596C42.155 23.4896 42.2505 23.2591 42.2505 23.0187V15.4062C42.2505 15.1659 42.155 14.9354 41.985 14.7654C41.8151 14.5955 41.5846 14.5 41.3442 14.5H33.7317ZM21.3977 27.5319H13.7852C12.5834 27.5319 11.4309 27.0545 10.5811 26.2047C9.7313 25.3549 9.25391 24.2024 9.25391 23.0006V15.4062C9.25391 14.2045 9.7313 13.0519 10.5811 12.2022C11.4309 11.3524 12.5834 10.875 13.7852 10.875H21.3977C22.5994 10.875 23.752 11.3524 24.6017 12.2022C25.4515 13.0519 25.9289 14.2045 25.9289 15.4062V23.0187C25.9241 24.2174 25.4446 25.3653 24.5953 26.2111C23.7461 27.057 22.5963 27.5319 21.3977 27.5319ZM13.7852 14.5C13.5448 14.5 13.3143 14.5955 13.1443 14.7654C12.9744 14.9354 12.8789 15.1659 12.8789 15.4062V23.0187C12.8789 23.2591 12.9744 23.4896 13.1443 23.6596C13.3143 23.8295 13.5448 23.925 13.7852 23.925H21.3977C21.638 23.925 21.8685 23.8295 22.0385 23.6596C22.2084 23.4896 22.3039 23.2591 22.3039 23.0187V15.4062C22.3039 15.1659 22.2084 14.9354 22.0385 14.7654C21.8685 14.5955 21.638 14.5 21.3977 14.5H13.7852ZM21.3977 47.125H13.7852C12.5834 47.125 11.4309 46.6476 10.5811 45.7978C9.7313 44.9481 9.25391 43.7955 9.25391 42.5938V34.9994C9.25391 33.7976 9.7313 32.6451 10.5811 31.7953C11.4309 30.9455 12.5834 30.4681 13.7852 30.4681H21.3977C22.5994 30.4681 23.752 30.9455 24.6017 31.7953C25.4515 32.6451 25.9289 33.7976 25.9289 34.9994V42.5938C25.9289 43.7955 25.4515 44.9481 24.6017 45.7978C23.752 46.6476 22.5994 47.125 21.3977 47.125ZM13.7852 34.0841C13.5448 34.0841 13.3143 34.1795 13.1443 34.3495C12.9744 34.5195 12.8789 34.75 12.8789 34.9903V42.5938C12.8789 42.8341 12.9744 43.0646 13.1443 43.2346C13.3143 43.4045 13.5448 43.5 13.7852 43.5H21.3977C21.638 43.5 21.8685 43.4045 22.0385 43.2346C22.2084 43.0646 22.3039 42.8341 22.3039 42.5938V34.9994C22.3039 34.759 22.2084 34.5285 22.0385 34.3586C21.8685 34.1886 21.638 34.0931 21.3977 34.0931L13.7852 34.0841Z" fill="black"/>
<path d="M37.1558 44.5059C36.5482 44.5047 35.9471 44.3813 35.3882 44.1431C34.8293 43.9049 34.324 43.5568 33.9023 43.1193L29.7426 38.8147C29.5641 38.6467 29.4214 38.4443 29.3233 38.2197C29.2252 37.995 29.1737 37.7528 29.1719 37.5077C29.1701 37.2626 29.2181 37.0196 29.3128 36.7936C29.4076 36.5675 29.5472 36.363 29.7233 36.1925C29.8994 36.0219 30.1082 35.8889 30.3372 35.8013C30.5662 35.7138 30.8105 35.6736 31.0554 35.6832C31.3004 35.6929 31.5408 35.752 31.7622 35.8572C31.9836 35.9624 32.1814 36.1115 32.3436 36.2953L36.5123 40.6C36.6064 40.6971 36.721 40.772 36.8478 40.8191C36.9746 40.8663 37.1103 40.8844 37.245 40.8722C37.3797 40.8601 37.51 40.8179 37.6262 40.7488C37.7425 40.6798 37.8419 40.5856 37.917 40.4731L45.4479 29.0543C45.5769 28.8513 45.745 28.6759 45.9425 28.5385C46.1399 28.4011 46.3627 28.3043 46.5979 28.2539C46.8331 28.2035 47.076 28.2004 47.3124 28.2448C47.5488 28.2891 47.774 28.3802 47.9749 28.5125C48.1758 28.6448 48.3484 28.8158 48.4825 29.0155C48.6166 29.2151 48.7097 29.4395 48.7562 29.6755C48.8027 29.9115 48.8018 30.1545 48.7535 30.3901C48.7052 30.6258 48.6105 30.8494 48.4748 31.0481L40.9439 42.4668C40.5697 43.0324 40.0734 43.5068 39.4915 43.855C38.9096 44.2032 38.2569 44.4163 37.5817 44.4787C37.4404 44.4968 37.2982 44.5059 37.1558 44.5059Z" fill="#AEAF00"/>
<path d="M67.312 45.096C66.736 45.096 66.216 44.864 65.752 44.4C65.304 43.92 65.08 43.264 65.08 42.432C65.08 42.016 65.136 41.544 65.248 41.016C65.36 40.472 65.48 39.92 65.608 39.36C65.752 38.8 65.88 38.272 65.992 37.776C66.104 37.28 66.16 36.864 66.16 36.528C66.16 36.256 66.096 36.04 65.968 35.88C65.84 35.704 65.672 35.616 65.464 35.616C65.192 35.616 64.896 35.776 64.576 36.096L64.432 36C64.416 35.744 64.472 35.44 64.6 35.088C64.728 34.736 64.936 34.4 65.224 34.08C65.512 33.744 65.888 33.464 66.352 33.24C66.816 33.016 67.368 32.904 68.008 32.904C68.728 32.904 69.264 33.16 69.616 33.672C69.984 34.168 70.168 34.768 70.168 35.472C70.168 35.552 70.168 35.64 70.168 35.736C70.168 35.816 70.16 35.896 70.144 35.976C70.448 35.48 70.8 35 71.2 34.536C71.616 34.072 72.08 33.688 72.592 33.384C73.12 33.064 73.688 32.904 74.296 32.904C75.08 32.904 75.624 33.16 75.928 33.672C76.232 34.168 76.384 34.736 76.384 35.376C76.384 35.504 76.376 35.632 76.36 35.76C76.36 35.872 76.352 35.984 76.336 36.096C76.672 35.6 77.04 35.112 77.44 34.632C77.856 34.136 78.328 33.728 78.856 33.408C79.384 33.072 79.992 32.904 80.68 32.904C81.528 32.904 82.104 33.152 82.408 33.648C82.728 34.144 82.888 34.728 82.888 35.4C82.888 35.992 82.816 36.672 82.672 37.44C82.528 38.192 82.384 38.936 82.24 39.672C82.096 40.408 82.024 41.032 82.024 41.544C82.024 41.848 82.064 42.096 82.144 42.288C82.24 42.48 82.392 42.576 82.6 42.576C82.776 42.576 82.936 42.528 83.08 42.432C83.24 42.32 83.352 42.192 83.416 42.048L83.608 42.12C83.608 42.712 83.44 43.232 83.104 43.68C82.768 44.128 82.344 44.48 81.832 44.736C81.32 44.976 80.808 45.096 80.296 45.096C79.672 45.096 79.12 44.888 78.64 44.472C78.176 44.056 77.944 43.368 77.944 42.408C77.944 41.816 78.016 41.176 78.16 40.488C78.32 39.8 78.472 39.136 78.616 38.496C78.776 37.84 78.856 37.304 78.856 36.888C78.856 36.296 78.648 36 78.232 36C77.928 36 77.624 36.128 77.32 36.384C77.032 36.624 76.768 36.952 76.528 37.368C76.304 37.768 76.12 38.192 75.976 38.64C75.832 39.088 75.76 39.52 75.76 39.936C75.76 40.32 75.8 40.744 75.88 41.208C75.976 41.656 76.024 42.088 76.024 42.504C76.024 43.336 75.792 43.976 75.328 44.424C74.864 44.872 74.32 45.096 73.696 45.096C73.12 45.096 72.6 44.904 72.136 44.52C71.688 44.136 71.464 43.56 71.464 42.792C71.464 42.44 71.512 42.016 71.608 41.52C71.704 41.008 71.808 40.48 71.92 39.936C72.048 39.376 72.16 38.84 72.256 38.328C72.352 37.816 72.4 37.368 72.4 36.984C72.4 36.68 72.352 36.44 72.256 36.264C72.176 36.088 72.008 36 71.752 36C71.384 36 71.032 36.184 70.696 36.552C70.36 36.92 70.072 37.368 69.832 37.896C69.592 38.408 69.432 38.904 69.352 39.384C69.336 39.496 69.32 39.584 69.304 39.648C69.304 39.712 69.304 39.744 69.304 39.744C69.304 40.24 69.36 40.696 69.472 41.112C69.584 41.512 69.64 41.928 69.64 42.36C69.64 43.144 69.4 43.8 68.92 44.328C68.456 44.84 67.92 45.096 67.312 45.096ZM89.7271 49.8C88.9271 49.8 88.2791 49.552 87.7831 49.056C87.3031 48.576 87.0631 47.92 87.0631 47.088C87.0631 46.656 87.1351 46.176 87.2791 45.648C87.4391 45.136 87.6951 44.592 88.0471 44.016C87.2631 43.968 86.6151 43.704 86.1031 43.224C85.6071 42.744 85.3591 42.016 85.3591 41.04C85.3591 40.464 85.4311 39.848 85.5751 39.192C85.7351 38.52 85.8871 37.896 86.0311 37.32C86.1751 36.728 86.2471 36.272 86.2471 35.952C86.2471 35.712 86.1991 35.544 86.1031 35.448C86.0071 35.336 85.8951 35.28 85.7671 35.28C85.6391 35.28 85.4951 35.336 85.3351 35.448C85.1911 35.544 85.0791 35.696 84.9991 35.904L84.5911 35.472C84.6871 34.976 84.8951 34.536 85.2151 34.152C85.5351 33.768 85.9271 33.464 86.3911 33.24C86.8551 33.016 87.3351 32.904 87.8311 32.904C88.3911 32.904 88.8791 33.088 89.2951 33.456C89.7111 33.808 89.9191 34.456 89.9191 35.4C89.9191 35.992 89.8471 36.632 89.7031 37.32C89.5591 37.992 89.4151 38.632 89.2711 39.24C89.1271 39.832 89.0551 40.304 89.0551 40.656C89.0551 40.976 89.1191 41.216 89.2471 41.376C89.3911 41.52 89.5511 41.592 89.7271 41.592C89.9511 41.592 90.2071 41.472 90.4951 41.232C90.7831 40.976 91.0551 40.56 91.3111 39.984C91.5671 39.408 91.7351 38.632 91.8151 37.656C91.8471 37.352 91.8711 36.968 91.8871 36.504C91.9031 36.024 91.9191 35.584 91.9351 35.184C91.9511 34.768 91.9591 34.512 91.9591 34.416C91.9591 33.84 92.1671 33.44 92.5831 33.216C93.0151 32.976 93.4871 32.856 93.9991 32.856C94.4471 32.856 94.8711 32.944 95.2711 33.12C95.6711 33.296 95.9431 33.592 96.0871 34.008L96.1351 34.152C95.9911 34.28 95.8631 34.712 95.7511 35.448C95.6551 36.184 95.5351 37.168 95.3911 38.4C95.2951 39.2 95.1751 40.104 95.0311 41.112C94.8871 42.12 94.6871 43.136 94.4311 44.16C94.1911 45.168 93.8631 46.096 93.4471 46.944C93.0471 47.808 92.5431 48.496 91.9351 49.008C91.3271 49.536 90.5911 49.8 89.7271 49.8ZM89.1511 47.04C89.6471 47.04 90.0871 46.584 90.4711 45.672C90.8711 44.776 91.1831 43.496 91.4071 41.832C90.3831 43.144 89.6791 44.176 89.2951 44.928C88.9111 45.68 88.7191 46.224 88.7191 46.56C88.7191 46.88 88.8631 47.04 89.1511 47.04Z" fill="#D21116"/>
<path d="M109.602 38.808H102.378V36.84H109.602V38.808ZM127.566 43.68V45H122.046V43.68L123.726 43.032L122.43 39.504H115.35L114.03 43.056L115.734 43.68V45H110.622V43.68L112.278 42.936L117.75 28.488H120.438L125.91 42.912L127.566 43.68ZM121.806 37.8L118.902 29.928L115.974 37.8H121.806ZM144.51 30.048L142.494 30.744V38.592C142.494 41.04 141.966 42.784 140.91 43.824C139.87 44.848 138.262 45.36 136.086 45.36C133.862 45.36 132.174 44.848 131.022 43.824C129.87 42.784 129.294 41.096 129.294 38.76V30.744L127.518 30.048V28.68H133.134V30.048L131.358 30.744V38.592C131.358 39.856 131.526 40.856 131.862 41.592C132.214 42.312 132.734 42.824 133.422 43.128C134.126 43.432 135.046 43.584 136.182 43.584C137.254 43.584 138.118 43.448 138.773 43.176C139.43 42.888 139.926 42.4 140.262 41.712C140.598 41.008 140.766 40.024 140.766 38.76V30.744L138.822 30.048V28.68H144.51V30.048ZM155.405 28.68C157.533 28.68 159.285 29.296 160.661 30.528C162.037 31.76 162.725 33.848 162.725 36.792C162.725 39.784 162.037 41.904 160.661 43.152C159.285 44.384 157.533 45 155.405 45H146.789V43.68L148.949 42.936V30.744L146.789 30.048V28.68H155.405ZM151.013 30.408V43.272H154.901C156.101 43.272 157.109 43.096 157.925 42.744C158.741 42.376 159.381 41.72 159.845 40.776C160.325 39.816 160.565 38.488 160.565 36.792C160.565 35.128 160.325 33.832 159.845 32.904C159.381 31.96 158.741 31.312 157.925 30.96C157.109 30.592 156.101 30.408 154.901 30.408H151.013ZM170.663 30.048L168.887 30.744V42.96L170.663 43.68V45H165.047V43.68L166.823 42.96V30.744L165.047 30.048V28.68H170.663V30.048ZM187.481 33.288H186.161L185.465 30.408H181.121V42.96L183.137 43.68V45H177.041V43.68L179.057 42.96V30.408H174.713L174.017 33.288H172.697V28.68H187.481V33.288Z" fill="black"/>
<path d="M74.8254 22.23V23H73.2154L70.5834 19.052H68.1614V21.796L69.1974 22.23V23H65.9214V22.23L66.9574 21.796V14.684L65.9214 14.278V13.48H71.5074C72.4127 13.48 73.0987 13.718 73.5654 14.194C74.032 14.6607 74.2654 15.3513 74.2654 16.266C74.2654 17.078 74.0694 17.7173 73.6774 18.184C73.2947 18.6413 72.73 18.9167 71.9834 19.01L73.8734 21.81L74.8254 22.23ZM68.1614 18.044H71.2554C71.8807 18.044 72.3287 17.9087 72.5994 17.638C72.87 17.358 73.0054 16.9007 73.0054 16.266C73.0054 15.6407 72.8747 15.188 72.6134 14.908C72.3614 14.628 71.9554 14.488 71.3954 14.488H68.1614V18.044ZM79.3829 14.278L78.3469 14.684V21.81L79.3829 22.23V23H76.1069V22.23L77.1429 21.81V14.684L76.1069 14.278V13.48H79.3829V14.278ZM85.2734 17.68C86.0481 17.8293 86.6221 17.988 86.9954 18.156C87.3781 18.324 87.6534 18.576 87.8214 18.912C87.9987 19.2387 88.0874 19.7147 88.0874 20.34C88.0874 21.04 87.9614 21.5907 87.7094 21.992C87.4574 22.3933 87.0607 22.6827 86.5194 22.86C85.9781 23.028 85.2407 23.112 84.3074 23.112C83.0474 23.112 81.8807 22.972 80.8074 22.692V20.2H81.7734L82.0114 21.81C82.7581 21.9873 83.5374 22.076 84.3494 22.076C85.0401 22.076 85.5627 22.0247 85.9174 21.922C86.2814 21.8193 86.5287 21.6607 86.6594 21.446C86.7901 21.222 86.8554 20.9187 86.8554 20.536C86.8554 20.0693 86.7994 19.7427 86.6874 19.556C86.5754 19.3693 86.3514 19.2247 86.0154 19.122C85.6794 19.0193 85.0307 18.8793 84.0694 18.702L83.7194 18.632C82.9541 18.492 82.3614 18.324 81.9414 18.128C81.5307 17.9227 81.2367 17.6567 81.0594 17.33C80.8914 17.0033 80.8074 16.5693 80.8074 16.028C80.8074 15.3653 80.9287 14.8427 81.1714 14.46C81.4234 14.068 81.8154 13.788 82.3474 13.62C82.8794 13.452 83.5887 13.368 84.4754 13.368C85.5674 13.368 86.6967 13.4893 87.8634 13.732V16.182H86.9394L86.7154 14.628C86.0061 14.4787 85.2407 14.404 84.4194 14.404C83.7754 14.404 83.2807 14.4553 82.9354 14.558C82.5901 14.6513 82.3521 14.8007 82.2214 15.006C82.1001 15.202 82.0394 15.4727 82.0394 15.818C82.0394 16.2473 82.1001 16.5553 82.2214 16.742C82.3521 16.9287 82.5854 17.0733 82.9214 17.176C83.2667 17.2787 83.9061 17.4187 84.8394 17.596L85.2734 17.68ZM99.3454 22.216V22.986H96.0274V22.216L96.9094 21.81L93.8294 18.142L91.8274 19.71V21.796L92.9334 22.23V23H89.5874V22.23L90.6234 21.796V14.684L89.5874 14.278V13.48H92.8634V14.278L91.8274 14.684V18.478L96.7274 14.628L95.9014 14.278V13.48H99.2054V14.278L98.1834 14.74L94.7534 17.428L98.4494 21.796L99.3454 22.216ZM108.993 13.312C110.412 13.312 111.518 13.7227 112.311 14.544C113.105 15.356 113.501 16.588 113.501 18.24C113.501 19.892 113.105 21.1287 112.311 21.95C111.518 22.762 110.412 23.168 108.993 23.168C107.575 23.168 106.469 22.762 105.675 21.95C104.882 21.1287 104.485 19.892 104.485 18.24C104.485 16.588 104.882 15.356 105.675 14.544C106.469 13.7227 107.575 13.312 108.993 13.312ZM108.993 14.348C108.237 14.348 107.621 14.474 107.145 14.726C106.679 14.978 106.329 15.3887 106.095 15.958C105.862 16.5273 105.745 17.288 105.745 18.24C105.745 19.192 105.862 19.9527 106.095 20.522C106.329 21.0913 106.679 21.502 107.145 21.754C107.621 22.006 108.237 22.132 108.993 22.132C109.749 22.132 110.361 22.006 110.827 21.754C111.303 21.502 111.658 21.0913 111.891 20.522C112.125 19.9527 112.241 19.192 112.241 18.24C112.241 17.288 112.125 16.5273 111.891 15.958C111.658 15.3887 111.303 14.978 110.827 14.726C110.361 14.474 109.749 14.348 108.993 14.348ZM122.959 16.042H122.147L121.769 14.488H117.093V17.834H119.781L119.991 16.742H120.761V19.976H119.991L119.781 18.842H117.093V21.81L118.367 22.23V23H114.853V22.23L115.889 21.81V14.684L114.853 14.278V13.48H122.959V16.042ZM132.461 16.042H131.649L131.271 14.488H126.595V17.834H129.283L129.493 16.742H130.263V19.976H129.493L129.283 18.842H126.595V21.81L127.869 22.23V23H124.355V22.23L125.391 21.81V14.684L124.355 14.278V13.48H132.461V16.042ZM137.133 14.278L136.097 14.684V21.81L137.133 22.23V23H133.857V22.23L134.893 21.81V14.684L133.857 14.278V13.48H137.133V14.278ZM143.233 14.348C142.393 14.348 141.721 14.474 141.217 14.726C140.713 14.9687 140.34 15.37 140.097 15.93C139.864 16.49 139.747 17.246 139.747 18.198C139.747 19.1687 139.864 19.9433 140.097 20.522C140.34 21.0913 140.709 21.502 141.203 21.754C141.698 22.006 142.347 22.132 143.149 22.132C143.663 22.132 144.19 22.09 144.731 22.006C145.282 21.9127 145.786 21.768 146.243 21.572V22.608C145.851 22.7853 145.38 22.9207 144.829 23.014C144.279 23.1167 143.719 23.168 143.149 23.168C140.041 23.168 138.487 21.5253 138.487 18.24C138.487 16.532 138.898 15.286 139.719 14.502C140.541 13.7087 141.749 13.312 143.345 13.312C144.279 13.312 145.245 13.424 146.243 13.648V16.126H145.263L145.025 14.53C144.447 14.4087 143.849 14.348 143.233 14.348ZM156.115 15.958H155.289L154.925 14.488H150.165V17.708H152.951L153.161 16.63H153.931V19.794H153.161L152.951 18.716H150.165V21.992H154.925L155.289 20.382H156.115V23H147.925V22.23L148.961 21.81V14.684L147.925 14.278V13.48H156.115V15.958Z" fill="black"/>
</svg>
