<svg width="76" height="76" viewBox="0 0 76 76" fill="none" xmlns="http://www.w3.org/2000/svg">
<path d="M53.9609 36.1016H44.1172C42.5632 36.1016 41.0728 35.4842 39.974 34.3854C38.8751 33.2865 38.2578 31.7962 38.2578 30.2422V20.4219C38.2578 18.8679 38.8751 17.3775 39.974 16.2787C41.0728 15.1798 42.5632 14.5625 44.1172 14.5625H53.9609C55.5149 14.5625 57.0053 15.1798 58.1041 16.2787C59.203 17.3775 59.8203 18.8679 59.8203 20.4219V30.2656C59.8141 31.8156 59.1941 33.2999 58.0959 34.3937C56.9977 35.4875 55.5109 36.1016 53.9609 36.1016ZM44.1172 19.25C43.8064 19.25 43.5083 19.3735 43.2885 19.5932C43.0688 19.813 42.9453 20.1111 42.9453 20.4219V30.2656C42.9453 30.5764 43.0688 30.8745 43.2885 31.0943C43.5083 31.314 43.8064 31.4375 44.1172 31.4375H53.9609C54.2717 31.4375 54.5698 31.314 54.7896 31.0943C55.0093 30.8745 55.1328 30.5764 55.1328 30.2656V20.4219C55.1328 20.1111 55.0093 19.813 54.7896 19.5932C54.5698 19.3735 54.2717 19.25 53.9609 19.25H44.1172ZM28.168 36.1016H18.3242C16.7702 36.1016 15.2799 35.4842 14.181 34.3854C13.0822 33.2865 12.4648 31.7962 12.4648 30.2422V20.4219C12.4648 18.8679 13.0822 17.3775 14.181 16.2787C15.2799 15.1798 16.7702 14.5625 18.3242 14.5625H28.168C29.722 14.5625 31.2123 15.1798 32.3112 16.2787C33.41 17.3775 34.0273 18.8679 34.0273 20.4219V30.2656C34.0211 31.8156 33.4011 33.2999 32.3029 34.3937C31.2047 35.4875 29.7179 36.1016 28.168 36.1016ZM18.3242 19.25C18.0134 19.25 17.7153 19.3735 17.4956 19.5932C17.2758 19.813 17.1523 20.1111 17.1523 20.4219V30.2656C17.1523 30.5764 17.2758 30.8745 17.4956 31.0943C17.7153 31.314 18.0134 31.4375 18.3242 31.4375H28.168C28.4788 31.4375 28.7768 31.314 28.9966 31.0943C29.2164 30.8745 29.3398 30.5764 29.3398 30.2656V20.4219C29.3398 20.1111 29.2164 19.813 28.9966 19.5932C28.7768 19.3735 28.4788 19.25 28.168 19.25H18.3242ZM28.168 61.4375H18.3242C16.7702 61.4375 15.2799 60.8202 14.181 59.7213C13.0822 58.6225 12.4648 57.1321 12.4648 55.5781V45.7578C12.4648 44.2038 13.0822 42.7135 14.181 41.6146C15.2799 40.5158 16.7702 39.8984 18.3242 39.8984H28.168C29.722 39.8984 31.2123 40.5158 32.3112 41.6146C33.41 42.7135 34.0273 44.2038 34.0273 45.7578V55.5781C34.0273 57.1321 33.41 58.6225 32.3112 59.7213C31.2123 60.8202 29.722 61.4375 28.168 61.4375ZM18.3242 44.5742C18.0134 44.5742 17.7153 44.6977 17.4956 44.9175C17.2758 45.1372 17.1523 45.4353 17.1523 45.7461V55.5781C17.1523 55.8889 17.2758 56.187 17.4956 56.4068C17.7153 56.6265 18.0134 56.75 18.3242 56.75H28.168C28.4788 56.75 28.7768 56.6265 28.9966 56.4068C29.2164 56.187 29.3398 55.8889 29.3398 55.5781V45.7578C29.3398 45.447 29.2164 45.1489 28.9966 44.9292C28.7768 44.7094 28.4788 44.5859 28.168 44.5859L18.3242 44.5742Z" fill="black"/>
<path d="M48.5466 58.051C47.761 58.0495 46.9837 57.8899 46.261 57.5819C45.5383 57.2739 44.8848 56.8237 44.3396 56.258L38.9607 50.6916C38.7298 50.4745 38.5454 50.2127 38.4185 49.9222C38.2917 49.6318 38.2251 49.3186 38.2227 49.0016C38.2204 48.6846 38.2824 48.3705 38.4049 48.0782C38.5275 47.7858 38.7081 47.5214 38.9357 47.3009C39.1634 47.0803 39.4335 46.9083 39.7295 46.7951C40.0256 46.6819 40.3416 46.63 40.6583 46.6424C40.975 46.6548 41.286 46.7314 41.5723 46.8674C41.8586 47.0034 42.1143 47.1961 42.324 47.4338L47.7146 53.0002C47.8363 53.1259 47.9845 53.2227 48.1484 53.2836C48.3124 53.3446 48.4878 53.368 48.662 53.3523C48.8362 53.3366 49.0047 53.282 49.155 53.1927C49.3054 53.1034 49.4339 52.9816 49.531 52.8362L59.2693 38.0705C59.4361 37.808 59.6535 37.5812 59.9087 37.4035C60.164 37.2258 60.4522 37.1007 60.7563 37.0355C61.0604 36.9703 61.3745 36.9663 61.6802 37.0237C61.986 37.0811 62.2772 37.1987 62.537 37.3698C62.7967 37.541 63.0198 37.7621 63.1933 38.0203C63.3667 38.2785 63.487 38.5686 63.5472 38.8738C63.6074 39.179 63.6062 39.4931 63.5437 39.7978C63.4813 40.1025 63.3588 40.3918 63.1834 40.6487L53.4451 55.4143C52.9613 56.1456 52.3194 56.759 51.567 57.2093C50.8145 57.6596 49.9706 57.9352 49.0974 58.0159C48.9148 58.0392 48.7308 58.051 48.5466 58.051Z" fill="#AEAF00"/>
</svg>
