<svg width="20" height="20" viewBox="0 0 20 20" fill="none" xmlns="http://www.w3.org/2000/svg">
<path d="M11.2461 10.8336L14.1628 7.50022L11.2461 10.8336ZM11.6628 12.5002C11.6628 12.9422 11.4872 13.3662 11.1746 13.6787C10.862 13.9913 10.4381 14.1669 9.99609 14.1669C9.55407 14.1669 9.13014 13.9913 8.81758 13.6787C8.50502 13.3662 8.32943 12.9422 8.32943 12.5002C8.32943 12.0582 8.50502 11.6343 8.81758 11.3217C9.13014 11.0091 9.55407 10.8336 9.99609 10.8336C10.4381 10.8336 10.862 11.0091 11.1746 11.3217C11.4872 11.6343 11.6628 12.0582 11.6628 12.5002ZM4.99609 10.0002C4.99597 9.12248 5.22691 8.26016 5.6657 7.49997C6.10449 6.73978 6.73567 6.10849 7.49579 5.66956C8.2559 5.23064 9.11817 4.99954 9.99592 4.99951C10.8737 4.99948 11.7359 5.23051 12.4961 5.66938" fill="black"/>
<path d="M11.2461 10.8336L14.1628 7.50022M4.99609 10.0002C4.99597 9.12247 5.22691 8.26016 5.6657 7.49997C6.10449 6.73978 6.73567 6.10849 7.49579 5.66956C8.2559 5.23064 9.11817 4.99954 9.99592 4.99951C10.8737 4.99948 11.7359 5.23051 12.4961 5.66938M11.6628 12.5002C11.6628 12.9422 11.4872 13.3662 11.1746 13.6787C10.862 13.9913 10.4381 14.1669 9.99609 14.1669C9.55407 14.1669 9.13014 13.9913 8.81758 13.6787C8.50502 13.3662 8.32943 12.9422 8.32943 12.5002C8.32943 12.0582 8.50502 11.6343 8.81758 11.3217C9.13014 11.0091 9.55407 10.8336 9.99609 10.8336C10.4381 10.8336 10.862 11.0091 11.1746 11.3217C11.4872 11.6343 11.6628 12.0582 11.6628 12.5002Z" stroke="black" stroke-linecap="round" stroke-linejoin="round"/>
<path d="M2.08203 10.0002C2.08203 6.2685 2.08203 4.40183 3.2412 3.24266C4.40036 2.0835 6.2662 2.0835 9.9987 2.0835C13.7304 2.0835 15.597 2.0835 16.7562 3.24266C17.9154 4.40183 17.9154 6.26766 17.9154 10.0002C17.9154 13.7318 17.9154 15.5985 16.7562 16.7577C15.597 17.9168 13.7312 17.9168 9.9987 17.9168C6.26703 17.9168 4.40036 17.9168 3.2412 16.7577C2.08203 15.5985 2.08203 13.7327 2.08203 10.0002Z" stroke="black" stroke-linecap="round" stroke-linejoin="round"/>
</svg>
