<svg width="18" height="18" viewBox="0 0 18 18" fill="none" xmlns="http://www.w3.org/2000/svg">
<path d="M10.2461 9.83355L13.1628 6.50022L10.2461 9.83355ZM10.6628 11.5002C10.6628 11.9422 10.4872 12.3662 10.1746 12.6787C9.86204 12.9913 9.43812 13.1669 8.99609 13.1669C8.55407 13.1669 8.13014 12.9913 7.81758 12.6787C7.50502 12.3662 7.32943 11.9422 7.32943 11.5002C7.32943 11.0582 7.50502 10.6343 7.81758 10.3217C8.13014 10.0091 8.55407 9.83355 8.99609 9.83355C9.43812 9.83355 9.86204 10.0091 10.1746 10.3217C10.4872 10.6343 10.6628 11.0582 10.6628 11.5002ZM3.99609 9.00022C3.99597 8.12248 4.22691 7.26016 4.6657 6.49997C5.10449 5.73978 5.73567 5.10849 6.49579 4.66956C7.2559 4.23064 8.11817 3.99954 8.99592 3.99951C9.87366 3.99948 10.7359 4.23051 11.4961 4.66938" fill="#FCFCFC"/>
<path d="M10.2461 9.83355L13.1628 6.50022M3.99609 9.00022C3.99597 8.12247 4.22691 7.26016 4.6657 6.49997C5.10449 5.73978 5.73567 5.10849 6.49579 4.66956C7.2559 4.23064 8.11817 3.99954 8.99592 3.99951C9.87366 3.99948 10.7359 4.23051 11.4961 4.66938M10.6628 11.5002C10.6628 11.9422 10.4872 12.3662 10.1746 12.6787C9.86204 12.9913 9.43812 13.1669 8.99609 13.1669C8.55407 13.1669 8.13014 12.9913 7.81758 12.6787C7.50502 12.3662 7.32943 11.9422 7.32943 11.5002C7.32943 11.0582 7.50502 10.6343 7.81758 10.3217C8.13014 10.0091 8.55407 9.83355 8.99609 9.83355C9.43812 9.83355 9.86204 10.0091 10.1746 10.3217C10.4872 10.6343 10.6628 11.0582 10.6628 11.5002Z" stroke="#FCFCFC" stroke-linecap="round" stroke-linejoin="round"/>
<path d="M1.08203 9.00016C1.08203 5.2685 1.08203 3.40183 2.2412 2.24266C3.40036 1.0835 5.2662 1.0835 8.9987 1.0835C12.7304 1.0835 14.597 1.0835 15.7562 2.24266C16.9154 3.40183 16.9154 5.26766 16.9154 9.00016C16.9154 12.7318 16.9154 14.5985 15.7562 15.7577C14.597 16.9168 12.7312 16.9168 8.9987 16.9168C5.26703 16.9168 3.40036 16.9168 2.2412 15.7577C1.08203 14.5985 1.08203 12.7327 1.08203 9.00016Z" stroke="white" stroke-linecap="round" stroke-linejoin="round"/>
</svg>
