<svg width="233" height="58" viewBox="0 0 233 58" fill="none" xmlns="http://www.w3.org/2000/svg">
<path d="M27.1454 24.0785C27.1454 19.4293 23.3606 15.6445 18.7113 15.6445C14.0621 15.6445 10.2773 19.4293 10.2773 24.0785C10.2773 28.7278 14.0621 32.5125 18.7113 32.5125C23.3606 32.5125 27.1454 28.7278 27.1454 24.0785ZM14.4943 24.0785C14.4943 21.7486 16.3815 19.8615 18.7113 19.8615C21.0412 19.8615 22.9283 21.7486 22.9283 24.0785C22.9283 26.4084 21.0412 28.2955 18.7113 28.2955C16.3815 28.2955 14.4943 26.4084 14.4943 24.0785ZM48.2304 14.5903C48.2304 9.94101 44.4456 6.15625 39.7964 6.15625C35.1471 6.15625 31.3624 9.94101 31.3624 14.5903C31.3624 19.2395 35.1471 23.0243 39.7964 23.0243C44.4456 23.0243 48.2304 19.2395 48.2304 14.5903ZM35.5794 14.5903C35.5794 12.2604 37.4665 10.3733 39.7964 10.3733C42.1263 10.3733 44.0134 12.2604 44.0134 14.5903C44.0134 16.9201 42.1263 18.8073 39.7964 18.8073C37.4665 18.8073 35.5794 16.9201 35.5794 14.5903Z" fill="black"/>
<path d="M39.7985 24.0785C32.8194 24.0785 27.1475 29.7504 27.1475 36.7295C27.1475 36.7611 27.1581 36.7928 27.1581 36.8244C24.9125 34.8108 21.9606 33.5667 18.7135 33.5667C11.7344 33.5667 6.0625 39.2386 6.0625 46.2178C6.0625 47.3774 7.01133 48.3263 8.171 48.3263H29.256C30.4157 48.3263 31.3645 47.3774 31.3645 46.2178C31.3645 43.4451 30.4579 40.8938 28.9397 38.8064C29.0452 38.8169 29.1506 38.838 29.256 38.838H50.341C51.5007 38.838 52.4495 37.8892 52.4495 36.7295C52.4495 29.7504 46.7777 24.0785 39.7985 24.0785ZM10.5431 44.1093C11.4813 40.4721 14.7917 37.7837 18.7135 37.7837C22.6353 37.7837 25.9457 40.4721 26.8839 44.1093H10.5431ZM31.6281 34.621C32.5664 30.9838 35.8767 28.2955 39.7985 28.2955C43.7203 28.2955 47.0307 30.9838 47.969 34.621H31.6281Z" fill="#AEAF00"/>
<path d="M69.16 38.52V42.936L70.936 43.68V45H65.32V43.68L67.096 42.936V30.744L65.32 30.048V28.68H74.872C76.424 28.68 77.6 29.096 78.4 29.928C79.2 30.76 79.6 31.984 79.6 33.6C79.6 35.216 79.176 36.44 78.328 37.272C77.496 38.104 76.272 38.52 74.656 38.52H69.16ZM77.44 33.6C77.44 32.48 77.216 31.672 76.768 31.176C76.336 30.664 75.64 30.408 74.68 30.408H69.16V36.792H74.44C75.512 36.792 76.28 36.544 76.744 36.048C77.208 35.552 77.44 34.736 77.44 33.6ZM95.761 43.68V45H90.241V43.68L91.921 43.032L90.625 39.504H83.545L82.225 43.056L83.929 43.68V45H78.817V43.68L80.473 42.936L85.945 28.488H88.633L94.105 42.912L95.761 43.68ZM90.001 37.8L87.097 29.928L84.169 37.8H90.001ZM112.529 43.68V45H109.769L105.257 38.232H101.105V42.936L102.881 43.68V45H97.2653V43.68L99.0413 42.936V30.744L97.2653 30.048V28.68H106.841C108.393 28.68 109.569 29.088 110.369 29.904C111.169 30.704 111.569 31.888 111.569 33.456C111.569 34.848 111.233 35.944 110.561 36.744C109.905 37.528 108.937 38 107.657 38.16L110.897 42.96L112.529 43.68ZM101.105 36.504H106.409C107.481 36.504 108.249 36.272 108.713 35.808C109.177 35.328 109.409 34.544 109.409 33.456C109.409 32.384 109.185 31.608 108.737 31.128C108.305 30.648 107.609 30.408 106.649 30.408H101.105V36.504ZM128.442 33.288H127.122L126.426 30.408H122.082V42.96L124.098 43.68V45H118.002V43.68L120.018 42.96V30.408H115.674L114.978 33.288H113.658V28.68H128.442V33.288ZM147.468 28.68V30.048L145.692 30.744V45H143.244L134.004 31.248V42.96L135.9 43.68V45H130.476V43.68L132.252 42.96V30.744L130.476 30.048V28.68H134.7L143.916 42.408V30.744L142.02 30.048V28.68H147.468ZM163.899 32.928H162.483L161.859 30.408H153.699V35.928H158.475L158.835 34.08H160.155V39.504H158.835L158.475 37.656H153.699V43.272H161.859L162.483 40.512H163.899V45H149.859V43.68L151.635 42.96V30.744L149.859 30.048V28.68H163.899V32.928ZM181.74 43.68V45H178.98L174.468 38.232H170.316V42.936L172.092 43.68V45H166.476V43.68L168.252 42.936V30.744L166.476 30.048V28.68H176.052C177.604 28.68 178.78 29.088 179.58 29.904C180.38 30.704 180.78 31.888 180.78 33.456C180.78 34.848 180.444 35.944 179.772 36.744C179.116 37.528 178.148 38 176.868 38.16L180.108 42.96L181.74 43.68ZM170.316 36.504H175.62C176.692 36.504 177.46 36.272 177.924 35.808C178.388 35.328 178.62 34.544 178.62 33.456C178.62 32.384 178.396 31.608 177.948 31.128C177.516 30.648 176.82 30.408 175.86 30.408H170.316V36.504ZM191.281 38.808H184.057V36.84H191.281V38.808Z" fill="black"/>
<path d="M198.263 48.288C197.383 48.288 196.543 48.104 195.743 47.736C194.959 47.368 194.319 46.792 193.823 46.008C193.327 45.24 193.079 44.24 193.079 43.008L193.487 42.84C194.159 43.8 194.847 44.48 195.551 44.88C196.255 45.264 196.911 45.456 197.519 45.456C198.047 45.456 198.519 45.336 198.935 45.096C199.351 44.872 199.679 44.576 199.919 44.208C200.175 43.84 200.303 43.448 200.303 43.032C200.303 42.616 200.215 42.224 200.039 41.856C199.879 41.472 199.639 41.192 199.319 41.016C198.967 41.272 198.647 41.464 198.359 41.592C198.071 41.704 197.799 41.76 197.543 41.76C197.031 41.76 196.631 41.568 196.343 41.184C196.071 40.8 195.935 40.392 195.935 39.96C195.935 39.544 196.055 39.176 196.295 38.856C196.551 38.536 196.935 38.376 197.447 38.376C197.847 38.376 198.287 38.48 198.767 38.688C199.279 38.064 199.639 37.488 199.847 36.96C200.071 36.432 200.183 35.96 200.183 35.544C200.183 34.984 200.023 34.544 199.703 34.224C199.399 33.904 199.063 33.744 198.695 33.744C198.327 33.744 197.983 33.92 197.663 34.272C197.359 34.608 197.207 35.152 197.207 35.904C197.207 36.112 197.223 36.336 197.255 36.576C197.287 36.816 197.335 37.072 197.399 37.344C196.279 37.344 195.431 37.08 194.855 36.552C194.295 36.024 194.015 35.424 194.015 34.752C194.015 34.224 194.191 33.712 194.543 33.216C194.911 32.704 195.455 32.288 196.175 31.968C196.911 31.632 197.839 31.464 198.959 31.464C200.063 31.464 200.983 31.632 201.719 31.968C202.471 32.288 203.031 32.72 203.399 33.264C203.783 33.808 203.975 34.408 203.975 35.064C203.975 35.848 203.695 36.648 203.135 37.464C202.575 38.264 201.719 38.968 200.567 39.576C201.447 39.656 202.159 39.88 202.703 40.248C203.263 40.616 203.671 41.064 203.927 41.592C204.183 42.104 204.311 42.656 204.311 43.248C204.311 44.032 204.135 44.728 203.783 45.336C203.447 45.96 202.983 46.488 202.391 46.92C201.815 47.368 201.167 47.704 200.447 47.928C199.727 48.168 198.999 48.288 198.263 48.288ZM211.874 45.168C210.562 45.168 209.458 44.848 208.562 44.208C207.682 43.552 207.018 42.688 206.57 41.616C206.122 40.528 205.898 39.352 205.898 38.088C205.898 37 206.066 35.912 206.402 34.824C206.738 33.72 207.258 32.72 207.962 31.824C208.666 30.912 209.562 30.184 210.65 29.64C211.754 29.08 213.066 28.8 214.586 28.8C215.002 28.8 215.354 28.816 215.642 28.848C215.93 28.88 216.154 28.92 216.314 28.968L216.362 29.52C216.074 29.584 215.714 29.712 215.282 29.904C214.866 30.08 214.426 30.304 213.962 30.576C213.514 30.832 213.098 31.12 212.714 31.44C212.026 32.016 211.474 32.68 211.058 33.432C210.642 34.184 210.338 35.008 210.146 35.904C210.514 35.328 210.978 34.904 211.538 34.632C212.098 34.36 212.674 34.224 213.266 34.224C214.002 34.224 214.706 34.416 215.378 34.8C216.066 35.168 216.634 35.72 217.082 36.456C217.53 37.192 217.754 38.104 217.754 39.192C217.754 40.232 217.522 41.208 217.058 42.12C216.594 43.032 215.922 43.768 215.042 44.328C214.162 44.888 213.106 45.168 211.874 45.168ZM211.754 42.888C212.41 42.888 212.898 42.568 213.218 41.928C213.538 41.272 213.698 40.504 213.698 39.624C213.698 38.616 213.514 37.848 213.146 37.32C212.778 36.776 212.354 36.504 211.874 36.504C211.522 36.504 211.162 36.664 210.794 36.984C210.426 37.304 210.114 37.8 209.858 38.472V38.736C209.858 41.504 210.49 42.888 211.754 42.888ZM225.716 45.168C224.404 45.168 223.308 44.92 222.428 44.424C221.564 43.928 220.884 43.272 220.388 42.456C219.908 41.624 219.612 40.72 219.5 39.744C219.388 38.768 219.444 37.792 219.668 36.816C219.892 35.84 220.276 34.944 220.82 34.128C221.364 33.296 222.044 32.632 222.86 32.136C223.692 31.64 224.644 31.392 225.716 31.392C227.012 31.392 228.1 31.64 228.98 32.136C229.86 32.632 230.54 33.296 231.02 34.128C231.5 34.944 231.796 35.84 231.908 36.816C232.02 37.792 231.964 38.768 231.74 39.744C231.516 40.72 231.132 41.624 230.588 42.456C230.06 43.272 229.38 43.928 228.548 44.424C227.732 44.92 226.788 45.168 225.716 45.168ZM225.692 42.768C227.052 42.768 227.732 41.224 227.732 38.136C227.732 35.224 227.052 33.776 225.692 33.792C224.332 33.776 223.652 35.32 223.652 38.424C223.652 41.32 224.332 42.768 225.692 42.768Z" fill="#D21116"/>
<path d="M74.8254 22.23V23H73.2154L70.5834 19.052H68.1614V21.796L69.1974 22.23V23H65.9214V22.23L66.9574 21.796V14.684L65.9214 14.278V13.48H71.5074C72.4127 13.48 73.0987 13.718 73.5654 14.194C74.032 14.6607 74.2654 15.3513 74.2654 16.266C74.2654 17.078 74.0694 17.7173 73.6774 18.184C73.2947 18.6413 72.73 18.9167 71.9834 19.01L73.8734 21.81L74.8254 22.23ZM68.1614 18.044H71.2554C71.8807 18.044 72.3287 17.9087 72.5994 17.638C72.87 17.358 73.0054 16.9007 73.0054 16.266C73.0054 15.6407 72.8747 15.188 72.6134 14.908C72.3614 14.628 71.9554 14.488 71.3954 14.488H68.1614V18.044ZM79.3829 14.278L78.3469 14.684V21.81L79.3829 22.23V23H76.1069V22.23L77.1429 21.81V14.684L76.1069 14.278V13.48H79.3829V14.278ZM85.2734 17.68C86.0481 17.8293 86.6221 17.988 86.9954 18.156C87.3781 18.324 87.6534 18.576 87.8214 18.912C87.9987 19.2387 88.0874 19.7147 88.0874 20.34C88.0874 21.04 87.9614 21.5907 87.7094 21.992C87.4574 22.3933 87.0607 22.6827 86.5194 22.86C85.9781 23.028 85.2407 23.112 84.3074 23.112C83.0474 23.112 81.8807 22.972 80.8074 22.692V20.2H81.7734L82.0114 21.81C82.7581 21.9873 83.5374 22.076 84.3494 22.076C85.0401 22.076 85.5627 22.0247 85.9174 21.922C86.2814 21.8193 86.5287 21.6607 86.6594 21.446C86.7901 21.222 86.8554 20.9187 86.8554 20.536C86.8554 20.0693 86.7994 19.7427 86.6874 19.556C86.5754 19.3693 86.3514 19.2247 86.0154 19.122C85.6794 19.0193 85.0307 18.8793 84.0694 18.702L83.7194 18.632C82.9541 18.492 82.3614 18.324 81.9414 18.128C81.5307 17.9227 81.2367 17.6567 81.0594 17.33C80.8914 17.0033 80.8074 16.5693 80.8074 16.028C80.8074 15.3653 80.9287 14.8427 81.1714 14.46C81.4234 14.068 81.8154 13.788 82.3474 13.62C82.8794 13.452 83.5887 13.368 84.4754 13.368C85.5674 13.368 86.6967 13.4893 87.8634 13.732V16.182H86.9394L86.7154 14.628C86.0061 14.4787 85.2407 14.404 84.4194 14.404C83.7754 14.404 83.2807 14.4553 82.9354 14.558C82.5901 14.6513 82.3521 14.8007 82.2214 15.006C82.1001 15.202 82.0394 15.4727 82.0394 15.818C82.0394 16.2473 82.1001 16.5553 82.2214 16.742C82.3521 16.9287 82.5854 17.0733 82.9214 17.176C83.2667 17.2787 83.9061 17.4187 84.8394 17.596L85.2734 17.68ZM99.3454 22.216V22.986H96.0274V22.216L96.9094 21.81L93.8294 18.142L91.8274 19.71V21.796L92.9334 22.23V23H89.5874V22.23L90.6234 21.796V14.684L89.5874 14.278V13.48H92.8634V14.278L91.8274 14.684V18.478L96.7274 14.628L95.9014 14.278V13.48H99.2054V14.278L98.1834 14.74L94.7534 17.428L98.4494 21.796L99.3454 22.216ZM108.993 13.312C110.412 13.312 111.518 13.7227 112.311 14.544C113.105 15.356 113.501 16.588 113.501 18.24C113.501 19.892 113.105 21.1287 112.311 21.95C111.518 22.762 110.412 23.168 108.993 23.168C107.575 23.168 106.469 22.762 105.675 21.95C104.882 21.1287 104.485 19.892 104.485 18.24C104.485 16.588 104.882 15.356 105.675 14.544C106.469 13.7227 107.575 13.312 108.993 13.312ZM108.993 14.348C108.237 14.348 107.621 14.474 107.145 14.726C106.679 14.978 106.329 15.3887 106.095 15.958C105.862 16.5273 105.745 17.288 105.745 18.24C105.745 19.192 105.862 19.9527 106.095 20.522C106.329 21.0913 106.679 21.502 107.145 21.754C107.621 22.006 108.237 22.132 108.993 22.132C109.749 22.132 110.361 22.006 110.827 21.754C111.303 21.502 111.658 21.0913 111.891 20.522C112.125 19.9527 112.241 19.192 112.241 18.24C112.241 17.288 112.125 16.5273 111.891 15.958C111.658 15.3887 111.303 14.978 110.827 14.726C110.361 14.474 109.749 14.348 108.993 14.348ZM122.959 16.042H122.147L121.769 14.488H117.093V17.834H119.781L119.991 16.742H120.761V19.976H119.991L119.781 18.842H117.093V21.81L118.367 22.23V23H114.853V22.23L115.889 21.81V14.684L114.853 14.278V13.48H122.959V16.042ZM132.461 16.042H131.649L131.271 14.488H126.595V17.834H129.283L129.493 16.742H130.263V19.976H129.493L129.283 18.842H126.595V21.81L127.869 22.23V23H124.355V22.23L125.391 21.81V14.684L124.355 14.278V13.48H132.461V16.042ZM137.133 14.278L136.097 14.684V21.81L137.133 22.23V23H133.857V22.23L134.893 21.81V14.684L133.857 14.278V13.48H137.133V14.278ZM143.233 14.348C142.393 14.348 141.721 14.474 141.217 14.726C140.713 14.9687 140.34 15.37 140.097 15.93C139.864 16.49 139.747 17.246 139.747 18.198C139.747 19.1687 139.864 19.9433 140.097 20.522C140.34 21.0913 140.709 21.502 141.203 21.754C141.698 22.006 142.347 22.132 143.149 22.132C143.663 22.132 144.19 22.09 144.731 22.006C145.282 21.9127 145.786 21.768 146.243 21.572V22.608C145.851 22.7853 145.38 22.9207 144.829 23.014C144.279 23.1167 143.719 23.168 143.149 23.168C140.041 23.168 138.487 21.5253 138.487 18.24C138.487 16.532 138.898 15.286 139.719 14.502C140.541 13.7087 141.749 13.312 143.345 13.312C144.279 13.312 145.245 13.424 146.243 13.648V16.126H145.263L145.025 14.53C144.447 14.4087 143.849 14.348 143.233 14.348ZM156.115 15.958H155.289L154.925 14.488H150.165V17.708H152.951L153.161 16.63H153.931V19.794H153.161L152.951 18.716H150.165V21.992H154.925L155.289 20.382H156.115V23H147.925V22.23L148.961 21.81V14.684L147.925 14.278V13.48H156.115V15.958Z" fill="black"/>
</svg>
