<svg width="76" height="76" viewBox="0 0 76 76" fill="none" xmlns="http://www.w3.org/2000/svg">
<path d="M35.9928 34.6208C35.9928 28.208 30.7724 22.9876 24.3597 22.9876C17.9469 22.9876 12.7266 28.208 12.7266 34.6208C12.7266 41.0335 17.9469 46.2539 24.3597 46.2539C30.7724 46.2539 35.9928 41.0335 35.9928 34.6208ZM18.5431 34.6208C18.5431 31.4071 21.146 28.8042 24.3597 28.8042C27.5733 28.8042 30.1762 31.4071 30.1762 34.6208C30.1762 37.8344 27.5733 40.4373 24.3597 40.4373C21.146 40.4373 18.5431 37.8344 18.5431 34.6208ZM65.0756 21.5335C65.0756 15.1207 59.8552 9.90039 53.4424 9.90039C47.0297 9.90039 41.8093 15.1207 41.8093 21.5335C41.8093 27.9463 47.0297 33.1666 53.4424 33.1666C59.8552 33.1666 65.0756 27.9463 65.0756 21.5335ZM47.6259 21.5335C47.6259 18.3199 50.2288 15.7169 53.4424 15.7169C56.6561 15.7169 59.259 18.3199 59.259 21.5335C59.259 24.7471 56.6561 27.3501 53.4424 27.3501C50.2288 27.3501 47.6259 24.7471 47.6259 21.5335Z" fill="black"/>
<path d="M53.4387 34.6211C43.8123 34.6211 35.989 42.4444 35.989 52.0708C35.989 52.1144 36.0036 52.158 36.0036 52.2016C32.9062 49.4242 28.8347 47.7083 24.3559 47.7083C14.7295 47.7083 6.90625 55.5316 6.90625 65.158C6.90625 66.7576 8.21497 68.0663 9.81453 68.0663H38.8973C40.4969 68.0663 41.8056 66.7576 41.8056 65.158C41.8056 61.3336 40.555 57.8146 38.4611 54.9354C38.6065 54.95 38.7519 54.979 38.8973 54.979H67.9801C69.5796 54.979 70.8884 53.6703 70.8884 52.0708C70.8884 42.4444 63.0651 34.6211 53.4387 34.6211ZM13.0863 62.2497C14.3805 57.233 18.9465 53.5249 24.3559 53.5249C29.7653 53.5249 34.3313 57.233 35.6255 62.2497H13.0863ZM42.1691 49.1625C43.4633 44.1457 48.0293 40.4376 53.4387 40.4376C58.8481 40.4376 63.4141 44.1457 64.7083 49.1625H42.1691Z" fill="#AEAF00"/>
</svg>
