<svg width="20" height="20" viewBox="0 0 20 20" fill="none" xmlns="http://www.w3.org/2000/svg">
<mask id="path-1-inside-1_4122_84170" fill="white">
<path d="M12.8918 5.754C12.7748 5.63682 12.709 5.47796 12.709 5.31234C12.709 5.14671 12.7748 4.98786 12.8918 4.87067L14.5585 3.204C14.6157 3.1426 14.6847 3.09335 14.7614 3.05919C14.838 3.02503 14.9208 3.00666 15.0047 3.00518C15.0886 3.0037 15.172 3.01913 15.2498 3.05057C15.3277 3.082 15.3983 3.12879 15.4577 3.18814C15.517 3.24749 15.5638 3.31818 15.5953 3.39601C15.6267 3.47383 15.6421 3.55719 15.6407 3.64111C15.6392 3.72502 15.6208 3.80779 15.5866 3.88445C15.5525 3.96112 15.5032 4.03012 15.4418 4.08734L13.7752 5.754C13.658 5.87105 13.4991 5.93679 13.3335 5.93679C13.1679 5.93679 13.009 5.87105 12.8918 5.754ZM10.0002 5.104C10.1659 5.104 10.3249 5.03816 10.4421 4.92095C10.5593 4.80374 10.6252 4.64476 10.6252 4.479V1.979C10.6252 1.81324 10.5593 1.65427 10.4421 1.53706C10.3249 1.41985 10.1659 1.354 10.0002 1.354C9.8344 1.354 9.67543 1.41985 9.55822 1.53706C9.44101 1.65427 9.37516 1.81324 9.37516 1.979V4.479C9.37516 4.64476 9.44101 4.80374 9.55822 4.92095C9.67543 5.03816 9.8344 5.104 10.0002 5.104ZM12.7985 12.579C12.68 12.4686 12.5233 12.4085 12.3614 12.4114C12.1995 12.4142 12.045 12.4798 11.9305 12.5943C11.816 12.7088 11.7504 12.8633 11.7475 13.0252C11.7447 13.1872 11.8048 13.3439 11.9152 13.4623L14.0702 15.6173C14.1669 15.7141 14.2437 15.8289 14.296 15.9553C14.3484 16.0817 14.3754 16.2172 14.3754 16.354C14.3754 16.4908 14.3484 16.6263 14.296 16.7527C14.2437 16.8791 14.1669 16.9939 14.0702 17.0907C13.8743 17.2852 13.6096 17.3948 13.3335 17.3957H7.35683C7.08083 17.3955 6.81618 17.2858 6.621 17.0907L5.93016 16.4007C5.71735 16.1877 5.46468 16.0188 5.18657 15.9036C4.90846 15.7883 4.61037 15.729 4.30933 15.729H3.3335V10.3123H4.30933C4.61037 10.3123 4.90846 10.253 5.18657 10.1378C5.46468 10.0225 5.71735 9.8536 5.93016 9.64067L6.62016 8.95067C6.70226 8.87427 6.79627 8.81179 6.8985 8.76567L8.2685 7.39567H7.35766C7.05662 7.39568 6.75853 7.455 6.48042 7.57025C6.20232 7.6855 5.94964 7.85441 5.73683 8.06734L5.04683 8.75734C4.94998 8.85416 4.835 8.93093 4.70845 8.98327C4.5819 9.0356 4.44627 9.06247 4.30933 9.06234H1.66683C1.44582 9.06234 1.23385 9.15013 1.07757 9.30642C0.921293 9.4627 0.833496 9.67466 0.833496 9.89567V17.8123C0.833496 18.0333 0.921293 18.2453 1.07757 18.4016C1.23385 18.5579 1.44582 18.6457 1.66683 18.6457H2.50016C2.72118 18.6457 2.93314 18.5579 3.08942 18.4016C3.2457 18.2453 3.3335 18.0333 3.3335 17.8123V16.979H4.31016C4.44697 16.979 4.58243 17.0059 4.70883 17.0582C4.83523 17.1106 4.95008 17.1873 5.04683 17.284L5.73683 17.9748C5.94958 18.1876 6.20215 18.3563 6.48011 18.4714C6.75807 18.5865 7.05598 18.6457 7.35683 18.6457H13.3335C13.9209 18.6472 14.4862 18.4215 14.911 18.0157C15.3485 17.5588 15.5883 16.9479 15.5781 16.3154C15.568 15.6829 15.3088 15.0799 14.8568 14.6373L12.7985 12.579ZM6.22516 5.754C6.34364 5.8644 6.50035 5.92451 6.66227 5.92165C6.82418 5.91879 6.97867 5.8532 7.09318 5.73869C7.20769 5.62418 7.27329 5.46969 7.27614 5.30777C7.279 5.14585 7.2189 4.98915 7.1085 4.87067L5.44183 3.204C5.38461 3.1426 5.31561 3.09335 5.23894 3.05919C5.16228 3.02503 5.07952 3.00666 4.9956 3.00518C4.91168 3.0037 4.82832 3.01913 4.7505 3.05057C4.67267 3.082 4.60198 3.12879 4.54263 3.18814C4.48328 3.24749 4.43649 3.31818 4.40506 3.39601C4.37363 3.47383 4.35819 3.55719 4.35967 3.64111C4.36115 3.72502 4.37952 3.80779 4.41368 3.88445C4.44784 3.96112 4.49709 4.03012 4.5585 4.08734L6.22516 5.754ZM18.3335 9.06234H15.5052C15.2993 9.06242 15.0981 9.00153 14.9268 8.88734L13.2668 7.78067C12.8903 7.52957 12.4478 7.39561 11.9952 7.39567H10.6902C10.3893 7.39563 10.0914 7.45486 9.81344 7.56996C9.53548 7.68506 9.28291 7.85379 9.07016 8.0665L6.71016 10.4273C6.38313 10.7408 6.18105 11.1623 6.14151 11.6136C6.10196 12.0649 6.22763 12.5151 6.49516 12.8807C6.65246 13.0819 6.85067 13.2474 7.07671 13.3663C7.30274 13.4852 7.55144 13.5547 7.80635 13.5703C8.06126 13.5859 8.31658 13.5472 8.55542 13.4567C8.79426 13.3663 9.01118 13.2262 9.19183 13.0457L11.2752 10.9623C11.3856 10.8439 11.4457 10.6872 11.4428 10.5252C11.44 10.3633 11.3744 10.2088 11.2598 10.0943C11.1453 9.97981 10.9908 9.91421 10.8289 9.91136C10.667 9.9085 10.5103 9.9686 10.3918 10.079L8.3085 12.1623C8.20324 12.2636 8.06287 12.3201 7.91683 12.3201C7.77079 12.3201 7.63042 12.2636 7.52516 12.1623C7.42135 12.0584 7.36304 11.9176 7.36304 11.7707C7.36304 11.6238 7.42135 11.4829 7.52516 11.379L9.95433 8.95067C10.0511 8.85395 10.1659 8.77723 10.2923 8.7249C10.4187 8.67257 10.5542 8.64564 10.691 8.64567H11.996C12.2015 8.64575 12.4025 8.70664 12.5735 8.82067L14.2335 9.92734C14.6101 10.1784 15.0526 10.3123 15.5052 10.3123H16.6668V17.8123C16.6668 18.0333 16.7546 18.2453 16.9109 18.4016C17.0672 18.5579 17.2792 18.6457 17.5002 18.6457H18.3335C18.5545 18.6457 18.7665 18.5579 18.9228 18.4016C19.079 18.2453 19.1668 18.0333 19.1668 17.8123V9.89567C19.1668 9.67466 19.079 9.4627 18.9228 9.30642C18.7665 9.15013 18.5545 9.06234 18.3335 9.06234Z"/>
</mask>
<path d="M12.8918 5.754C12.7748 5.63682 12.709 5.47796 12.709 5.31234C12.709 5.14671 12.7748 4.98786 12.8918 4.87067L14.5585 3.204C14.6157 3.1426 14.6847 3.09335 14.7614 3.05919C14.838 3.02503 14.9208 3.00666 15.0047 3.00518C15.0886 3.0037 15.172 3.01913 15.2498 3.05057C15.3277 3.082 15.3983 3.12879 15.4577 3.18814C15.517 3.24749 15.5638 3.31818 15.5953 3.39601C15.6267 3.47383 15.6421 3.55719 15.6407 3.64111C15.6392 3.72502 15.6208 3.80779 15.5866 3.88445C15.5525 3.96112 15.5032 4.03012 15.4418 4.08734L13.7752 5.754C13.658 5.87105 13.4991 5.93679 13.3335 5.93679C13.1679 5.93679 13.009 5.87105 12.8918 5.754ZM10.0002 5.104C10.1659 5.104 10.3249 5.03816 10.4421 4.92095C10.5593 4.80374 10.6252 4.64476 10.6252 4.479V1.979C10.6252 1.81324 10.5593 1.65427 10.4421 1.53706C10.3249 1.41985 10.1659 1.354 10.0002 1.354C9.8344 1.354 9.67543 1.41985 9.55822 1.53706C9.44101 1.65427 9.37516 1.81324 9.37516 1.979V4.479C9.37516 4.64476 9.44101 4.80374 9.55822 4.92095C9.67543 5.03816 9.8344 5.104 10.0002 5.104ZM12.7985 12.579C12.68 12.4686 12.5233 12.4085 12.3614 12.4114C12.1995 12.4142 12.045 12.4798 11.9305 12.5943C11.816 12.7088 11.7504 12.8633 11.7475 13.0252C11.7447 13.1872 11.8048 13.3439 11.9152 13.4623L14.0702 15.6173C14.1669 15.7141 14.2437 15.8289 14.296 15.9553C14.3484 16.0817 14.3754 16.2172 14.3754 16.354C14.3754 16.4908 14.3484 16.6263 14.296 16.7527C14.2437 16.8791 14.1669 16.9939 14.0702 17.0907C13.8743 17.2852 13.6096 17.3948 13.3335 17.3957H7.35683C7.08083 17.3955 6.81618 17.2858 6.621 17.0907L5.93016 16.4007C5.71735 16.1877 5.46468 16.0188 5.18657 15.9036C4.90846 15.7883 4.61037 15.729 4.30933 15.729H3.3335V10.3123H4.30933C4.61037 10.3123 4.90846 10.253 5.18657 10.1378C5.46468 10.0225 5.71735 9.8536 5.93016 9.64067L6.62016 8.95067C6.70226 8.87427 6.79627 8.81179 6.8985 8.76567L8.2685 7.39567H7.35766C7.05662 7.39568 6.75853 7.455 6.48042 7.57025C6.20232 7.6855 5.94964 7.85441 5.73683 8.06734L5.04683 8.75734C4.94998 8.85416 4.835 8.93093 4.70845 8.98327C4.5819 9.0356 4.44627 9.06247 4.30933 9.06234H1.66683C1.44582 9.06234 1.23385 9.15013 1.07757 9.30642C0.921293 9.4627 0.833496 9.67466 0.833496 9.89567V17.8123C0.833496 18.0333 0.921293 18.2453 1.07757 18.4016C1.23385 18.5579 1.44582 18.6457 1.66683 18.6457H2.50016C2.72118 18.6457 2.93314 18.5579 3.08942 18.4016C3.2457 18.2453 3.3335 18.0333 3.3335 17.8123V16.979H4.31016C4.44697 16.979 4.58243 17.0059 4.70883 17.0582C4.83523 17.1106 4.95008 17.1873 5.04683 17.284L5.73683 17.9748C5.94958 18.1876 6.20215 18.3563 6.48011 18.4714C6.75807 18.5865 7.05598 18.6457 7.35683 18.6457H13.3335C13.9209 18.6472 14.4862 18.4215 14.911 18.0157C15.3485 17.5588 15.5883 16.9479 15.5781 16.3154C15.568 15.6829 15.3088 15.0799 14.8568 14.6373L12.7985 12.579ZM6.22516 5.754C6.34364 5.8644 6.50035 5.92451 6.66227 5.92165C6.82418 5.91879 6.97867 5.8532 7.09318 5.73869C7.20769 5.62418 7.27329 5.46969 7.27614 5.30777C7.279 5.14585 7.2189 4.98915 7.1085 4.87067L5.44183 3.204C5.38461 3.1426 5.31561 3.09335 5.23894 3.05919C5.16228 3.02503 5.07952 3.00666 4.9956 3.00518C4.91168 3.0037 4.82832 3.01913 4.7505 3.05057C4.67267 3.082 4.60198 3.12879 4.54263 3.18814C4.48328 3.24749 4.43649 3.31818 4.40506 3.39601C4.37363 3.47383 4.35819 3.55719 4.35967 3.64111C4.36115 3.72502 4.37952 3.80779 4.41368 3.88445C4.44784 3.96112 4.49709 4.03012 4.5585 4.08734L6.22516 5.754ZM18.3335 9.06234H15.5052C15.2993 9.06242 15.0981 9.00153 14.9268 8.88734L13.2668 7.78067C12.8903 7.52957 12.4478 7.39561 11.9952 7.39567H10.6902C10.3893 7.39563 10.0914 7.45486 9.81344 7.56996C9.53548 7.68506 9.28291 7.85379 9.07016 8.0665L6.71016 10.4273C6.38313 10.7408 6.18105 11.1623 6.14151 11.6136C6.10196 12.0649 6.22763 12.5151 6.49516 12.8807C6.65246 13.0819 6.85067 13.2474 7.07671 13.3663C7.30274 13.4852 7.55144 13.5547 7.80635 13.5703C8.06126 13.5859 8.31658 13.5472 8.55542 13.4567C8.79426 13.3663 9.01118 13.2262 9.19183 13.0457L11.2752 10.9623C11.3856 10.8439 11.4457 10.6872 11.4428 10.5252C11.44 10.3633 11.3744 10.2088 11.2598 10.0943C11.1453 9.97981 10.9908 9.91421 10.8289 9.91136C10.667 9.9085 10.5103 9.9686 10.3918 10.079L8.3085 12.1623C8.20324 12.2636 8.06287 12.3201 7.91683 12.3201C7.77079 12.3201 7.63042 12.2636 7.52516 12.1623C7.42135 12.0584 7.36304 11.9176 7.36304 11.7707C7.36304 11.6238 7.42135 11.4829 7.52516 11.379L9.95433 8.95067C10.0511 8.85395 10.1659 8.77723 10.2923 8.7249C10.4187 8.67257 10.5542 8.64564 10.691 8.64567H11.996C12.2015 8.64575 12.4025 8.70664 12.5735 8.82067L14.2335 9.92734C14.6101 10.1784 15.0526 10.3123 15.5052 10.3123H16.6668V17.8123C16.6668 18.0333 16.7546 18.2453 16.9109 18.4016C17.0672 18.5579 17.2792 18.6457 17.5002 18.6457H18.3335C18.5545 18.6457 18.7665 18.5579 18.9228 18.4016C19.079 18.2453 19.1668 18.0333 19.1668 17.8123V9.89567C19.1668 9.67466 19.079 9.4627 18.9228 9.30642C18.7665 9.15013 18.5545 9.06234 18.3335 9.06234Z" fill="black" stroke="black" stroke-width="0.5" mask="url(#path-1-inside-1_4122_84170)"/>
</svg>
