<svg width="16" height="16" viewBox="0 0 16 16" fill="none" xmlns="http://www.w3.org/2000/svg">
<path d="M8.00246 11.334C7.64876 11.334 7.30955 11.1935 7.05945 10.9434C6.80935 10.6933 6.66884 10.3541 6.66884 10.0004C6.66884 9.26024 7.2623 8.66678 8.00246 8.66678C8.35616 8.66678 8.69537 8.80729 8.94548 9.05739C9.19558 9.30749 9.33609 9.64671 9.33609 10.0004C9.33609 10.3541 9.19558 10.6933 8.94548 10.9434C8.69537 11.1935 8.35616 11.334 8.00246 11.334ZM12.0033 13.3345V6.66635H4.00159V13.3345H12.0033ZM12.0033 5.33272C12.357 5.33272 12.6962 5.47323 12.9463 5.72333C13.1964 5.97343 13.337 6.31265 13.337 6.66635V13.3345C13.337 13.6882 13.1964 14.0274 12.9463 14.2775C12.6962 14.5276 12.357 14.6681 12.0033 14.6681H4.00159C3.64789 14.6681 3.30868 14.5276 3.05858 14.2775C2.80848 14.0274 2.66797 13.6882 2.66797 13.3345V6.66635C2.66797 5.92618 3.26143 5.33272 4.00159 5.33272H4.6684V3.9991C4.6684 3.11485 5.01967 2.26682 5.64493 1.64156C6.27018 1.0163 7.11822 0.665039 8.00246 0.665039C8.4403 0.665039 8.87384 0.751277 9.27835 0.918829C9.68286 1.08638 10.0504 1.33197 10.36 1.64156C10.6696 1.95116 10.9152 2.3187 11.0827 2.72321C11.2503 3.12772 11.3365 3.56126 11.3365 3.9991V5.33272H12.0033ZM8.00246 1.99866C7.47191 1.99866 6.9631 2.20942 6.58794 2.58458C6.21279 2.95973 6.00203 3.46855 6.00203 3.9991V5.33272H10.0029V3.9991C10.0029 3.46855 9.79214 2.95973 9.41698 2.58458C9.04183 2.20942 8.53301 1.99866 8.00246 1.99866Z" fill="black"/>
</svg>
