<svg width="20" height="20" viewBox="0 0 20 20" fill="none" xmlns="http://www.w3.org/2000/svg">
<path d="M13.1998 14.6036C13.4659 14.4719 13.6833 14.2544 13.815 13.9883H14.408C14.5397 14.2544 14.7571 14.4719 15.0232 14.6036V18.6458H13.1998V14.6036Z" fill="white" stroke="white" stroke-width="0.444444"/>
<path d="M16.5463 8.12278L16.4915 7.67418C16.4053 6.96729 16.0337 6.06274 15.0568 5.56908L14.9008 5.49025L14.8769 5.31712C14.8541 5.15193 14.7105 5.02376 14.5392 5.02376C14.3497 5.02376 14.1933 5.18018 14.1933 5.36969C14.1933 5.55676 14.3473 5.71182 14.5392 5.71182C14.5982 5.71182 14.6547 5.69504 14.7003 5.66693L14.8595 5.56896L15.0262 5.65371C16.2594 6.28094 16.4114 7.50667 16.423 7.96311L16.4286 8.1822L16.2296 8.27416L10.9131 10.7318L10.7733 10.4292L10.9131 10.7318C10.702 10.8293 10.6098 11.0797 10.7075 11.2911L16.5463 8.12278ZM16.5463 8.12278L16.9587 7.93799M16.5463 8.12278L16.9587 7.93799M16.9587 7.93799C17.1703 7.84318 17.4175 7.93565 17.5141 8.14454L16.9587 7.93799ZM17.4483 9.00654L17.3085 8.70397C17.5196 8.60639 17.6118 8.35603 17.5141 8.14459L17.4483 9.00654ZM17.4483 9.00654L17.3085 8.70397L11.2671 11.4967C11.2671 11.4967 11.267 11.4967 11.267 11.4967M17.4483 9.00654L11.267 11.4967M11.267 11.4967C11.055 11.5945 10.8051 11.5021 10.7075 11.2912L11.267 11.4967ZM5.20209 17.298V17.5124L5.39721 17.6013C5.78089 17.7762 6.07075 18.1186 6.17318 18.5345H3.40462V13.8842H5.20209V17.298ZM11.8889 18.5345H11.4235V12.9261C11.5743 12.8987 11.7226 12.852 11.8651 12.785C11.8655 12.7848 11.8659 12.7846 11.8663 12.7844L16.7983 10.506V18.5345H16.3329V14.1433C16.3329 13.7516 16.0139 13.4326 15.6222 13.4326C15.5966 13.4326 15.5782 13.4136 15.5782 13.3886C15.5782 12.9969 15.2591 12.6779 14.8675 12.6779H13.3543C12.9627 12.6779 12.6436 12.9969 12.6436 13.3886C12.6436 13.4136 12.6252 13.4326 12.5996 13.4326C12.208 13.4326 11.8889 13.7516 11.8889 14.1433V18.5345Z" stroke="white" stroke-width="0.666667"/>
<path d="M5.51316 1.92505C6.12572 2.5376 6.12572 3.53076 5.51316 4.14331C4.90061 4.75587 3.90745 4.75587 3.29489 4.14331C2.68234 3.53076 2.68234 2.5376 3.29489 1.92504C3.90745 1.31249 4.90061 1.31249 5.51316 1.92505Z" stroke="white" stroke-width="0.666667"/>
<path d="M6.36057 8.62778H6.69391H8.48258C8.94449 8.62778 9.3153 8.99999 9.3153 9.45669C9.3153 9.91789 8.94378 10.2894 8.48258 10.2894H6.4977H6.16436V10.6227V11.9774C6.16436 11.9776 6.16436 11.9777 6.16436 11.9778L6.16265 11.9848C6.09179 12.2733 5.84617 12.463 5.57694 12.463H3.03353C2.75927 12.463 2.51596 12.2724 2.44846 11.9874L2.44669 11.98L2.44613 11.978C2.44613 11.9778 2.44613 11.9776 2.44613 11.9774V7.98789C2.44613 6.96521 3.1769 6.07043 4.15515 5.94886C4.90444 5.85576 5.62513 6.18894 6.0464 6.82623C6.26024 7.14975 6.36057 7.54959 6.36057 7.96421V8.29445V8.62778ZM5.17301 9.98079C5.31457 10.1274 5.50551 10.1995 5.69425 10.2013V10.2014H5.69426H5.6943H5.69434H5.69442H5.69449H5.6946H5.6947H5.69485H5.69497H5.69516H5.69532H5.69553H5.69573H5.69597H5.69621H5.69647H5.69675H5.69704H5.69736H5.69767H5.69805H5.69836H5.69879H5.69911H5.69961H5.69993H5.7005H5.70081H5.70145H5.70175H5.70275H5.70381H5.70493H5.70612H5.70736H5.70867H5.71003H5.71145H5.71294H5.71448H5.71608H5.71774H5.71946H5.72124H5.72307H5.72496H5.72691H5.72892H5.73098H5.7331H5.73528H5.73751H5.7398H5.74214H5.74454H5.74699H5.7495H5.75206H5.75468H5.75735H5.76008H5.76285H5.76568H5.76857H5.7715H5.77449H5.77754H5.78063H5.78377H5.78697H5.79022H5.79351H5.79686H5.80026H5.80371H5.80721H5.81076H5.81436H5.818H5.8217H5.82544H5.82924H5.83308H5.83697H5.8409H5.84488H5.84891H5.85299H5.85711H5.86128H5.8655H5.86976H5.87407H5.87842H5.88281H5.88725H5.89174H5.89627H5.90084H5.90546H5.91012H5.91482H5.91957H5.92436H5.92919H5.93406H5.93898H5.94394H5.94893H5.95397H5.95905H5.96417H5.96933H5.97453H5.97977H5.98505H5.99037H5.99573H6.00113H6.00656H6.01203H6.01755H6.02309H6.02868H6.0343H6.03996H6.04566H6.0514H6.05716H6.06297H6.06881H6.07469H6.0806H6.08654H6.09252H6.09854H6.10459H6.11067H6.11679H6.12294H6.12912H6.13534H6.14158H6.14786H6.15418H6.16052H6.16689H6.1733H6.17974H6.18621H6.19271H6.19923H6.20579H6.21238H6.219H6.22565H6.23232H6.23903H6.24576H6.25252H6.25931H6.26612H6.27297H6.27984H6.28674H6.29366H6.30061H6.30759H6.31459H6.32162H6.32867H6.33575H6.34285H6.34998H6.35713H6.3643H6.3715H6.37872H6.38597H6.39324H6.40053H6.40784H6.41518H6.42253H6.42991H6.43731H6.44474H6.45218H6.45964H6.46713H6.47463H6.48215H6.4897H6.49726H6.50484H6.51244H6.52006H6.5277H6.53535H6.54302H6.55071H6.55842H6.56615H6.57389H6.58164H6.58942H6.59721H6.60501H6.61283H6.62067H6.62852H6.63639H6.64427H6.65216H6.66007H6.66799H6.67593H6.68387H6.69184H6.69981H6.7078H6.71579H6.7238H6.73182H6.73986H6.7479H6.75595H6.76402H6.7721H6.78018H6.78828H6.79638H6.80449H6.81262H6.82075H6.82889H6.83704H6.84519H6.85335H6.86153H6.8697H6.87789H6.88608H6.89428H6.90248H6.91069H6.91891H6.92713H6.93536H6.94359H6.95182H6.96006H6.96831H6.97655H6.98481H6.99306H7.00132H7.00958H7.01784H7.02611H7.03437H7.04264H7.05091H7.05918H7.06746H7.07573H7.084H7.09228H7.10055H7.10882H7.1171H7.12537H7.13364H7.14191H7.15018H7.15844H7.16671H7.17497H7.18322H7.19148H7.19973H7.20798H7.21623H7.22447H7.23271H7.24094H7.24917H7.25739H7.26561H7.27382H7.28203H7.29023H7.29842H7.30661H7.31479H7.32296H7.33113H7.33929H7.34744H7.35558H7.36372H7.37184H7.37996H7.38807H7.39616H7.40425H7.41233H7.4204H7.42846H7.43651H7.44454H7.45257H7.46058H7.46859H7.47657H7.48455H7.49252H7.50047H7.50841H7.51634H7.52425H7.53215H7.54004H7.54791H7.55576H7.5636H7.57143H7.57924H7.58704H7.59482H7.60258H7.61033H7.61806H7.62577H7.63347H7.64115H7.64881H7.65645H7.66408H7.67168H7.67927H7.68684H7.69439H7.70192H7.70943H7.71692H7.72439H7.73184H7.73927H7.74668H7.75407H7.76143H7.76878H7.7761H7.7834H7.79067H7.79793H7.80516H7.81237H7.81955H7.82671H7.83385H7.84096H7.84804H7.85511H7.86214H7.86915H7.87614H7.8831H7.89003H7.89694H7.90382H7.91067H7.9175H7.9243H7.93107H7.93781H7.94453H7.95121H7.95787H7.9645H7.9711H7.97766H7.9842H7.99071H7.99719H8.00364H8.01006H8.01645H8.0228H8.02912H8.03542H8.04168H8.0479H8.0541H8.06026H8.06639H8.07248H8.07854H8.08457H8.09056H8.09652H8.10245H8.10833H8.11419H8.12001H8.12579H8.13153H8.13724H8.14292H8.14855H8.15415H8.15972H8.16524H8.17073H8.17618H8.18159H8.18696H8.19229H8.19759H8.20284H8.20806H8.21323H8.21837H8.22346H8.22851H8.23353H8.2385H8.24343H8.24832H8.25316H8.25797H8.26273H8.26745H8.27212H8.27676H8.28135H8.28589H8.29039H8.29485H8.29926H8.30363H8.30795H8.31223H8.31646H8.32065H8.32479H8.32888H8.33293H8.33693H8.34088H8.34478H8.34864H8.35245H8.35621H8.35993H8.36359H8.36721H8.37077H8.37429H8.37776H8.38117H8.38454H8.38786H8.39112H8.39434H8.3975H8.40061H8.40367H8.40668H8.40964H8.41254H8.41539H8.41819H8.42093H8.42362H8.42626H8.42884H8.43137H8.43384H8.43626H8.43862H8.44093H8.44318H8.44538H8.44752H8.4496H8.45163H8.4536H8.45551H8.45736H8.45916H8.4609H8.46258H8.4642H8.46577H8.46727H8.46872H8.4701H8.47143H8.4727H8.4739H8.47505H8.47613H8.47715H8.47812H8.47902H8.47985H8.48063H8.48134H8.48199H8.48258C8.89311 10.2014 9.22725 9.86722 9.22725 9.45669C9.22725 9.0499 8.89427 8.71898 8.48839 8.71585V8.71583H8.48836H8.48836H8.48828H8.48827H8.48814H8.48812H8.48793H8.48791H8.48767H8.48765H8.48735H8.48732H8.48696H8.48694H8.48652H8.48651H8.48602H8.48547H8.48545H8.48486H8.48483H8.4842H8.48414H8.48348H8.48339H8.48271H8.48258H8.48188H8.48099H8.48005H8.47906H8.47801H8.47691H8.47575H8.47454H8.47328H8.47196H8.47059H8.46917H8.4677H8.46617H8.46459H8.46296H8.46127H8.45954H8.45775H8.45592H8.45403H8.45209H8.4501H8.44807H8.44598H8.44384H8.44165H8.43942H8.43713H8.4348H8.43242H8.42999H8.42751H8.42499H8.42242H8.4198H8.41713H8.41442H8.41166H8.40885H8.406H8.4031H8.40016H8.39717H8.39413H8.39106H8.38793H8.38476H8.38155H8.3783H8.375H8.37165H8.36827H8.36484H8.36137H8.35785H8.3543H8.3507H8.34706H8.34338H8.33965H8.33589H8.33208H8.32824H8.32435H8.32042H8.31646H8.31245H8.3084H8.30432H8.3002H8.29603H8.29183H8.28759H8.28331H8.279H8.27464H8.27025H8.26583H8.26136H8.25686H8.25232H8.24775H8.24314H8.23849H8.23381H8.2291H8.22434H8.21956H8.21474H8.20988H8.20499H8.20007H8.19511H8.19012H8.1851H8.18004H8.17495H8.16983H8.16468H8.15949H8.15428H8.14903H8.14375H8.13844H8.13309H8.12772H8.12232H8.11689H8.11142H8.10593H8.10041H8.09486H8.08928H8.08367H8.07803H8.07236H8.06667H8.06095H8.0552H8.04942H8.04362H8.03779H8.03193H8.02605H8.02014H8.0142H8.00824H8.00225H7.99624H7.99021H7.98414H7.97806H7.97195H7.96581H7.95965H7.95347H7.94727H7.94104H7.93479H7.92851H7.92222H7.9159H7.90956H7.9032H7.89681H7.89041H7.88398H7.87754H7.87107H7.86458H7.85807H7.85155H7.845H7.83843H7.83185H7.82524H7.81862H7.81198H7.80532H7.79864H7.79194H7.78523H7.7785H7.77175H7.76499H7.75821H7.75141H7.7446H7.73777H7.73092H7.72406H7.71719H7.7103H7.70339H7.69648H7.68954H7.68259H7.67563H7.66866H7.66167H7.65467H7.64765H7.64063H7.63359H7.62654H7.61947H7.6124H7.60531H7.59822H7.59111H7.58399H7.57686H7.56972H7.56257H7.55541H7.54824H7.54106H7.53387H7.52668H7.51947H7.51226H7.50504H7.49781H7.49057H7.48332H7.47607H7.46881H7.46155H7.45428H7.447H7.43971H7.43242H7.42513H7.41782H7.41052H7.40321H7.39589H7.38857H7.38125H7.37392H7.36658H7.35925H7.35191H7.34457H7.33722H7.32988H7.32253H7.31517H7.30782H7.30047H7.29311H7.28575H7.27839H7.27103H7.26367H7.25631H7.24895H7.24159H7.23423H7.22688H7.21952H7.21216H7.20481H7.19745H7.1901H7.18275H7.17541H7.16806H7.16072H7.15338H7.14605H7.13871H7.13139H7.12406H7.11674H7.10943H7.10212H7.09481H7.08751H7.08022H7.07293H7.06564H7.05837H7.05109H7.04383H7.03657H7.02932H7.02208H7.01484H7.00761H7.00039H6.99318H6.98598H6.97878H6.9716H6.96442H6.95725H6.95009H6.94295H6.93581H6.92868H6.92156H6.91446H6.90736H6.90028H6.8932H6.88614H6.87909H6.87206H6.86503H6.85802H6.85102H6.84404H6.83706H6.83011H6.82316H6.81623H6.80931H6.80241H6.79552H6.78865H6.78179H6.77495H6.76812H6.76131H6.75452H6.74774H6.74098H6.73424H6.72751H6.7208H6.71411H6.70743H6.70078H6.69414H6.68752H6.68092H6.67433H6.66777H6.66123H6.6547H6.6482H6.64172H6.63525H6.62881H6.62239H6.61599H6.60961H6.60325H6.59691H6.5906H6.58431H6.57804H6.57179H6.56556H6.55936H6.55319H6.54703H6.5409H6.5348H6.52871H6.52266H6.51662H6.51062H6.50463H6.49868H6.49275H6.48684H6.48096H6.47511H6.46929H6.46349H6.45772H6.45197H6.44625H6.44057H6.4349H6.42927H6.42367H6.41809H6.41255H6.40703H6.40154H6.39608H6.39066H6.38526H6.37989H6.37456H6.36925H6.36398H6.35873H6.35352H6.34834H6.34319H6.33808H6.33299H6.32794H6.32293H6.31794H6.31299H6.30807H6.30319H6.29834H6.29353H6.28875H6.284H6.27929H6.27462H6.26998H6.26538H6.26081H6.25628H6.25178H6.24732H6.2429H6.23852H6.23417H6.22986H6.22559H6.22136H6.21717H6.21301H6.20889H6.20482H6.20078H6.19678H6.19282H6.1889H6.18502H6.18118H6.17738H6.17363H6.16991H6.16623H6.1626H6.15901H6.15546H6.15196H6.14849H6.14507H6.14169H6.13836H6.13506H6.13182H6.12861H6.12545H6.12234H6.11927H6.11624H6.11326H6.11033H6.10744H6.10459H6.10179H6.09904H6.09634H6.09368H6.09107H6.0885H6.08599H6.08352H6.0811H6.07873H6.0764H6.07413H6.0719H6.06972H6.06759H6.06551H6.06349H6.06151H6.05958H6.0577H6.05587H6.0541H6.05237H6.0507H6.04907H6.0475H6.04599H6.04452H6.04311H6.04175H6.04044H6.03919H6.03799H6.03684H6.03575H6.03471H6.03372H6.0328H6.03192H6.0311H6.03034H6.02963H6.02898H6.02838H6.02784H6.02736H6.02693H6.02656H6.02625H6.026C6.01533 8.71583 6.00516 8.71161 5.99765 8.7041L5.99761 8.70405L5.51426 8.22073C5.51426 8.22073 5.51426 8.22073 5.51426 8.22072C5.22376 7.93023 4.75278 7.93023 4.46228 8.22069L4.46225 8.22072C4.17141 8.5116 4.17179 8.98334 4.46326 9.2737C4.46326 9.2737 4.46327 9.27371 4.46327 9.27371L5.17301 9.98079Z" stroke="white" stroke-width="0.666667"/>
</svg>
