<svg width="20" height="20" viewBox="0 0 20 20" fill="none" xmlns="http://www.w3.org/2000/svg">
<path d="M10.0003 1.78415C11.5453 1.78415 12.7993 3.03815 12.7993 4.58317C12.7993 6.1282 11.5453 7.38219 10.0003 7.38219C8.45523 7.38219 7.20124 6.1282 7.20124 4.58317C7.20124 3.03815 8.45523 1.78415 10.0003 1.78415ZM10.0003 2.79886C9.01528 2.79886 8.21594 3.5982 8.21594 4.58317C8.21594 5.56815 9.01528 6.36749 10.0003 6.36749C10.9852 6.36749 11.7846 5.56815 11.7846 4.58317C11.7846 3.5982 10.9852 2.79886 10.0003 2.79886ZM15.8336 2.92998C17.0619 2.92998 18.0593 3.92729 18.0593 5.1565C18.0593 6.38486 17.0619 7.38219 15.8336 7.38219C14.6052 7.38219 13.6071 6.38481 13.6071 5.1565C13.6071 3.92734 14.6052 2.92998 15.8336 2.92998ZM15.8336 3.94469C15.1653 3.94469 14.6218 4.4873 14.6218 5.1565C14.6218 5.82493 15.1654 6.36749 15.8336 6.36749C16.5019 6.36749 17.0446 5.82481 17.0446 5.1565C17.0446 4.48742 16.502 3.94469 15.8336 3.94469ZM4.16692 2.92998C5.39525 2.92998 6.39261 3.92729 6.39261 5.1565C6.39261 6.38486 5.39528 7.38219 4.16692 7.38219C2.93851 7.38219 1.9404 6.38481 1.9404 5.1565C1.9404 3.92734 2.93853 2.92998 4.16692 2.92998ZM4.16692 3.94469C3.49867 3.94469 2.95511 4.4873 2.95511 5.1565C2.95511 5.82493 3.49873 6.36749 4.16692 6.36749C4.83523 6.36749 5.3779 5.82481 5.3779 5.1565C5.3779 4.48742 4.83529 3.94469 4.16692 3.94469ZM10.5076 17.7082C10.5076 17.9882 10.2803 18.2155 10.0003 18.2155C9.72023 18.2155 9.4929 17.9882 9.4929 17.7082V14.3748C9.4929 14.0948 9.72023 13.8675 10.0003 13.8675C10.2803 13.8675 10.5076 14.0948 10.5076 14.3748V17.7082ZM15.9243 16.0415C15.9243 16.3215 15.6969 16.5489 15.4169 16.5489C15.1369 16.5489 14.9096 16.3215 14.9096 16.0415V12.2915C14.9096 12.0115 15.1369 11.7842 15.4169 11.7842C15.6969 11.7842 15.9243 12.0115 15.9243 12.2915V16.0415ZM5.09094 16.0415C5.09094 16.3215 4.86361 16.5489 4.58359 16.5489C4.30356 16.5489 4.07623 16.3215 4.07623 16.0415V12.2915C4.07623 12.0115 4.30356 11.7842 4.58359 11.7842C4.86361 11.7842 5.09094 12.0115 5.09094 12.2915V16.0415Z" fill="black" stroke="black" stroke-width="0.235294"/>
<path fill-rule="evenodd" clip-rule="evenodd" d="M10.8083 16.0167C11.0516 15.7725 11.4483 15.7725 11.6916 16.0167C11.9358 16.26 11.9358 16.6567 11.6916 16.9L10.4416 18.15C10.1975 18.3942 9.80245 18.3942 9.55829 18.15L8.30829 16.9C8.06412 16.6567 8.06412 16.26 8.30829 16.0167C8.55162 15.7725 8.94829 15.7725 9.19162 16.0167L9.99995 16.8242L10.8083 16.0167ZM16.225 14.35C16.4683 14.1058 16.865 14.1058 17.1083 14.35C17.3525 14.5933 17.3525 14.99 17.1083 15.2333L15.8583 16.4833C15.6141 16.7275 15.2191 16.7275 14.975 16.4833L13.725 15.2333C13.4808 14.99 13.4808 14.5933 13.725 14.35C13.9683 14.1058 14.365 14.1058 14.6083 14.35L15.4166 15.1575L16.225 14.35ZM5.39162 14.35C5.63495 14.1058 6.03162 14.1058 6.27495 14.35C6.51912 14.5933 6.51912 14.99 6.27495 15.2333L5.02495 16.4833C4.78079 16.7275 4.38579 16.7275 4.14162 16.4833L2.89162 15.2333C2.64745 14.99 2.64745 14.5933 2.89162 14.35C3.13495 14.1058 3.53162 14.1058 3.77495 14.35L4.58329 15.1575L5.39162 14.35ZM13.9583 9.375V10.625C13.9583 11.4308 13.305 12.0833 12.5 12.0833H7.49995C6.69495 12.0833 6.04162 11.4308 6.04162 10.625V9.375C6.04162 7.64917 7.44079 6.25 9.16662 6.25H10.8333C12.5591 6.25 13.9583 7.64917 13.9583 9.375ZM12.7083 9.375C12.7083 8.33917 11.8691 7.5 10.8333 7.5H9.16662C8.13079 7.5 7.29162 8.33917 7.29162 9.375V10.625C7.29162 10.74 7.38495 10.8333 7.49995 10.8333H12.5C12.615 10.8333 12.7083 10.74 12.7083 10.625V9.375Z" fill="black"/>
<path fill-rule="evenodd" clip-rule="evenodd" d="M18.9582 8.95833V9.47917C18.9582 9.86583 18.8048 10.2367 18.5307 10.51C18.2573 10.7842 17.8865 10.9375 17.4998 10.9375H14.1665C13.7798 10.9375 13.409 10.7842 13.1357 10.51C12.8615 10.2367 12.7082 9.86583 12.7082 9.47917V8.95833C12.7082 7.4625 13.9207 6.25 15.4165 6.25H16.2498C17.7457 6.25 18.9582 7.4625 18.9582 8.95833ZM17.7082 8.95833C17.7082 8.1525 17.0548 7.5 16.2498 7.5H15.4165C14.6115 7.5 13.9582 8.1525 13.9582 8.95833V9.47917C13.9582 9.53417 13.9798 9.5875 14.019 9.62667C14.0582 9.66583 14.1115 9.6875 14.1665 9.6875H17.4998C17.5548 9.6875 17.6082 9.66583 17.6473 9.62667C17.6865 9.5875 17.7082 9.53417 17.7082 9.47917V8.95833ZM7.2915 8.95833V9.47917C7.2915 9.86583 7.13817 10.2367 6.86401 10.51C6.59067 10.7842 6.21984 10.9375 5.83317 10.9375H2.49984C2.11317 10.9375 1.74234 10.7842 1.469 10.51C1.19484 10.2367 1.0415 9.86583 1.0415 9.47917V8.95833C1.0415 7.4625 2.254 6.25 3.74984 6.25H4.58317C6.079 6.25 7.2915 7.4625 7.2915 8.95833ZM6.0415 8.95833C6.0415 8.1525 5.38817 7.5 4.58317 7.5H3.74984C2.94484 7.5 2.2915 8.1525 2.2915 8.95833V9.47917C2.2915 9.53417 2.31317 9.5875 2.35234 9.62667C2.3915 9.66583 2.44484 9.6875 2.49984 9.6875H5.83317C5.88817 9.6875 5.9415 9.66583 5.98067 9.62667C6.01984 9.5875 6.0415 9.53417 6.0415 9.47917V8.95833Z" fill="black"/>
</svg>
