<svg width="76" height="76" viewBox="0 0 76 76" fill="none" xmlns="http://www.w3.org/2000/svg">
<path d="M69.25 69.25H28.625C8.33781 69.25 6.75 67.6623 6.75 47.375V6.75" stroke="#232323" stroke-width="1.2" stroke-linecap="round" stroke-linejoin="round"/>
<path d="M38 13H19.25C17.5241 13 16.125 14.3991 16.125 16.125V19.25C16.125 20.9759 17.5241 22.375 19.25 22.375H38C39.7259 22.375 41.125 20.9759 41.125 19.25V16.125C41.125 14.3991 39.7259 13 38 13Z" stroke="#232323" stroke-width="1.2" stroke-linecap="round" stroke-linejoin="round"/>
<path d="M47.375 31.75H28.625C26.8991 31.75 25.5 33.1491 25.5 34.875V38C25.5 39.7259 26.8991 41.125 28.625 41.125H47.375C49.1009 41.125 50.5 39.7259 50.5 38V34.875C50.5 33.1491 49.1009 31.75 47.375 31.75Z" stroke="#232323" stroke-width="1.2" stroke-linecap="round" stroke-linejoin="round"/>
<path d="M59.875 50.5H38C36.2741 50.5 34.875 51.8991 34.875 53.625V56.75C34.875 58.4759 36.2741 59.875 38 59.875H59.875C61.6009 59.875 63 58.4759 63 56.75V53.625C63 51.8991 61.6009 50.5 59.875 50.5Z" stroke="#232323" stroke-width="1.2" stroke-linecap="round" stroke-linejoin="round"/>
<path d="M69.25 71.5938H28.625C7.12231 71.5938 4.40625 68.8777 4.40625 47.375V6.75C4.40625 5.45606 5.45606 4.40625 6.75 4.40625C8.04394 4.40625 9.09375 5.45606 9.09375 6.75V47.375C9.09375 66.3585 9.64 66.9062 28.625 66.9062H69.25C70.5439 66.9062 71.5938 67.9561 71.5938 69.25C71.5938 70.5439 70.5439 71.5938 69.25 71.5938Z" fill="#AEAF00"/>
<path d="M38 21.7188H19.25C15.0599 21.7188 13.7812 20.4416 13.7812 16.25V13.125C13.7812 8.93341 15.0599 7.65625 19.25 7.65625H38C42.1901 7.65625 43.4688 8.93341 43.4688 13.125V16.25C43.4688 20.4416 42.1901 21.7188 38 21.7188ZM18.4779 17.0206C18.6885 17.0282 18.9479 17.0312 19.25 17.0312H38C38.3021 17.0312 38.5615 17.0282 38.7721 17.0206C38.7782 16.81 38.7812 16.5521 38.7812 16.25V13.125C38.7812 12.8229 38.7782 12.565 38.7721 12.3544C38.5615 12.3468 38.3021 12.3438 38 12.3438H19.25C18.9479 12.3438 18.6885 12.3468 18.4779 12.3544C18.4718 12.565 18.4688 12.8229 18.4688 13.125V16.25C18.4688 16.5521 18.4718 16.81 18.4779 17.0206ZM47.375 40.4688H28.625C24.4349 40.4688 23.1562 39.1916 23.1562 35V31.875C23.1562 27.6834 24.4349 26.4062 28.625 26.4062H47.375C51.5651 26.4062 52.8438 27.6834 52.8438 31.875V35C52.8438 39.1916 51.5651 40.4688 47.375 40.4688ZM27.8529 35.7706C28.0635 35.7782 28.3229 35.7812 28.625 35.7812H47.375C47.6771 35.7812 47.9365 35.7782 48.1471 35.7706C48.1532 35.56 48.1562 35.3021 48.1562 35V31.875C48.1562 31.5729 48.1532 31.315 48.1471 31.1044C47.9365 31.0968 47.6771 31.0938 47.375 31.0938H28.625C28.3229 31.0938 28.0635 31.0968 27.8529 31.1044C27.8468 31.315 27.8438 31.5729 27.8438 31.875V35C27.8438 35.3021 27.8468 35.56 27.8529 35.7706ZM59.875 59.2188H38C33.8099 59.2188 32.5312 57.9416 32.5312 53.75V50.625C32.5312 46.4334 33.8099 45.1562 38 45.1562H59.875C64.0651 45.1562 65.3438 46.4334 65.3438 50.625V53.75C65.3438 57.9416 64.0651 59.2188 59.875 59.2188ZM37.2279 54.5206C37.4385 54.5282 37.6979 54.5312 38 54.5312H59.875C60.1771 54.5312 60.4365 54.5282 60.6471 54.5206C60.6532 54.31 60.6562 54.0521 60.6562 53.75V50.625C60.6562 50.3229 60.6532 50.065 60.6471 49.8544C60.4365 49.8468 60.1771 49.8438 59.875 49.8438H38C37.6979 49.8438 37.4385 49.8468 37.2279 49.8544C37.2218 50.065 37.2188 50.3229 37.2188 50.625V53.75C37.2188 54.0521 37.2218 54.31 37.2279 54.5206Z" fill="black"/>
</svg>
