<svg width="20" height="20" viewBox="0 0 20 20" fill="none" xmlns="http://www.w3.org/2000/svg">
<path d="M14.4698 10.4267L14.4549 10.3671H14.3935H13.8797H13.801V10.4458V15.1333V15.212H13.8797H14.3729H14.4374L14.4501 15.1488C14.5242 14.779 14.8794 14.4894 15.3183 14.4894C15.8129 14.4894 16.2054 14.868 16.2054 15.3286C16.2054 15.7893 15.8129 16.1679 15.3183 16.1679C14.9018 16.1679 14.5432 15.8795 14.4493 15.5048L14.4344 15.4452H14.3729H13.6742C13.6058 15.4452 13.5474 15.3938 13.5474 15.3286V10.4263V10.3476H13.4687H12.0507H12.0073L11.9842 10.3843C11.6214 10.9589 11.1173 11.4382 10.5119 11.7835C10.254 11.9266 10.0385 12.1312 9.88749 12.3773L9.88735 12.3772L9.88492 12.3818C9.8794 12.3923 9.87318 12.4027 9.86547 12.4156C9.85967 12.4254 9.85302 12.4365 9.84521 12.4501C9.83719 12.4641 9.82862 12.4796 9.82046 12.4962C9.75612 12.4964 9.65828 12.4971 9.53457 12.498C8.912 12.5023 7.63451 12.5112 6.677 12.4968C6.5428 12.2071 6.31254 11.9581 6.00677 11.7837L6.00632 11.7834C4.67433 11.0354 3.80799 9.59772 3.88858 8.00839L3.88869 8.0084V8.00441V7.89054C4.09198 5.49904 6.43037 3.67548 9.01655 4.11714L9.01678 4.11718C11.0789 4.46304 12.6502 6.17167 12.6502 8.21925C12.6502 8.87193 12.5088 9.48413 12.2277 10.0185L12.167 10.1339H12.2973H13.4893H13.568V10.0552V4.93799C13.568 4.8735 13.6077 4.82962 13.6513 4.81926L13.6513 4.81928L13.6532 4.81878L14.393 4.62347L14.4414 4.61071L14.4504 4.56153C14.5255 4.15072 14.8826 3.84483 15.3388 3.84483C15.8335 3.84483 16.226 4.22347 16.226 4.68408C16.226 5.1447 15.8335 5.52334 15.3388 5.52334C14.9193 5.52334 14.581 5.27054 14.4686 4.9143L14.4457 4.84184L14.3725 4.86214L13.8793 4.99886L13.8216 5.01485V5.07471V10.0552V10.1339H13.9003H14.3935H14.458L14.4707 10.0707C14.5448 9.70084 14.8999 9.41125 15.3388 9.41125C15.8335 9.41125 16.226 9.78989 16.226 10.2505C16.226 10.7111 15.8335 11.0898 15.3388 11.0898C14.9224 11.0898 14.5637 10.8014 14.4698 10.4267ZM11.1917 9.72735L11.1918 9.72741L11.1939 9.72382C11.2999 9.54246 11.3842 9.34201 11.4473 9.14251C11.5211 8.93009 11.4227 8.69437 11.2235 8.59838C11.11 8.53586 11.0403 8.40932 11.0403 8.25831C11.0403 8.11163 11.1069 7.99807 11.2318 7.91328C11.3953 7.8023 11.4979 7.59783 11.4307 7.38616V7.35987V7.34398L11.4246 7.32934L11.4235 7.32682C11.342 7.13324 11.2582 6.93397 11.1528 6.75374L11.1529 6.75369L11.1506 6.75022C11.0279 6.56357 10.8117 6.49915 10.6082 6.51944H10.53C10.4208 6.51944 10.2986 6.48446 10.2143 6.40438L10.1601 6.46143L10.2143 6.40438L10.1732 6.36532C10.1098 6.30505 10.0744 6.21027 10.0744 6.10987V6.04042C10.1191 5.83085 10.0182 5.62644 9.83037 5.51485L9.83054 5.51456L9.82396 5.51143L9.82094 5.51C9.61739 5.41327 9.40618 5.3129 9.17286 5.25242L9.17288 5.25234L9.16937 5.2516C8.95335 5.20598 8.73795 5.29688 8.61752 5.45711L8.61719 5.45686L8.61299 5.46384C8.54843 5.57122 8.41354 5.64053 8.24888 5.64053C8.08823 5.64053 7.93287 5.55498 7.86643 5.42869L7.867 5.42839L7.86121 5.42014C7.80815 5.34448 7.72548 5.29196 7.6389 5.26359C7.55209 5.23514 7.45407 5.22851 7.36514 5.25266L7.3648 5.25143L7.35198 5.25752C7.34004 5.2632 7.3274 5.26646 7.30592 5.27157L7.30384 5.27206C7.28582 5.27633 7.261 5.28222 7.23514 5.29363C7.0273 5.35335 6.83975 5.43252 6.69237 5.51238C6.49384 5.60795 6.4019 5.83655 6.42338 6.03614V6.10987C6.42338 6.21068 6.38773 6.32482 6.30401 6.40438C6.30056 6.40766 6.29272 6.41302 6.27501 6.42424C6.27421 6.42474 6.27338 6.42527 6.27252 6.42581C6.26049 6.43341 6.2421 6.44503 6.22685 6.45839C6.16362 6.50196 6.08081 6.51944 5.98833 6.51944H5.9133C5.68039 6.47795 5.46447 6.56883 5.34496 6.77327C5.23895 6.95463 5.15466 7.15508 5.09161 7.35457C5.01946 7.56198 5.09136 7.79612 5.28832 7.91452C5.41205 7.99917 5.47806 8.11235 5.47806 8.25831C5.47806 8.40499 5.4114 8.51856 5.2865 8.60335L5.28649 8.60333L5.28502 8.60437C5.19298 8.66998 5.11681 8.76209 5.09018 8.86329C5.06618 8.95454 5.06618 9.06599 5.09018 9.15724L5.09009 9.15727L5.09125 9.16091C5.15441 9.36103 5.23848 9.56066 5.34325 9.75981C5.4423 9.94807 5.68339 10.0612 5.90184 10.015L5.90185 10.015L5.90377 10.0146C6.03941 9.98236 6.19775 10.0308 6.30401 10.1318C6.38876 10.2123 6.42338 10.3076 6.42338 10.4263V10.5C6.40126 10.7049 6.49819 10.9086 6.68795 11.0213L6.68778 11.0216L6.69436 11.0247C6.90355 11.1241 7.11313 11.2038 7.32308 11.2637L7.32303 11.2639L7.3284 11.265C7.54085 11.3099 7.75673 11.2421 7.89966 11.061L7.89976 11.0611L7.90231 11.0574C7.96862 10.9629 8.08856 10.8944 8.23314 10.8761H8.26943C8.42874 10.8761 8.54964 10.9418 8.63807 11.0595C8.75961 11.2212 8.99865 11.3124 9.21684 11.2439C9.42619 11.1841 9.63657 11.1042 9.82693 11.0037C10.0395 10.8915 10.1394 10.6848 10.0949 10.4575V10.3872C10.0949 10.2947 10.1453 10.1778 10.2349 10.0927C10.3358 9.99683 10.4932 9.96001 10.6408 9.97673C10.8624 10.0217 11.0757 9.90381 11.1917 9.72735Z" fill="#FCFCFC" stroke="#FCFCFC" stroke-width="0.157424"/>
<path d="M7.27446 7.24352L7.27449 7.24356L7.2766 7.24156C7.52722 7.00336 7.87684 6.87259 8.27045 6.87261L8.27227 6.87257C9.07206 6.85403 9.71248 7.48397 9.71248 8.23919C9.71248 8.99278 9.07337 9.6058 8.27045 9.6058C7.87947 9.6058 7.52784 9.45713 7.27437 9.23479C7.00337 8.99558 6.82842 8.62637 6.82842 8.23919C6.82842 7.85198 7.00341 7.48272 7.27446 7.24352ZM9.72954 15.3675H9.68201L9.65988 15.4096C9.65219 15.4242 9.64457 15.4352 9.63427 15.4499L9.63369 15.4507C9.62539 15.4625 9.61539 15.4768 9.60512 15.4947L8.93638 16.111L8.93637 16.111L8.93549 16.1118C8.89053 16.1546 8.80816 16.1878 8.72256 16.1878H7.79779C7.71928 16.1878 7.65405 16.1595 7.58075 16.1079L6.98889 15.5454L6.92724 15.4868C6.92494 15.4847 6.91908 15.4775 6.90965 15.4618C6.90075 15.447 6.89155 15.4296 6.88102 15.4096L6.85889 15.3675H6.81136H6.77026C6.69177 15.3675 6.64347 15.3065 6.64347 15.2509C6.64347 15.1858 6.70185 15.1343 6.77026 15.1343H6.84898V15.0556V14.8414H9.69193V15.0556V15.1343H9.77064C9.83905 15.1343 9.89743 15.1858 9.89743 15.2509C9.89743 15.316 9.83905 15.3675 9.77064 15.3675H9.72954ZM10.3485 14.1053L10.3484 14.1051L10.3448 14.1099C10.2528 14.2323 10.1508 14.2933 10.0172 14.2933H6.50311C6.25467 14.2933 6.02695 14.0344 6.02695 13.6689C6.02695 13.489 6.08392 13.3328 6.17183 13.2325L6.172 13.2327L6.17557 13.2279C6.26626 13.1072 6.38833 13.0445 6.50311 13.0445H6.69155V13.0645L6.77078 13.064L9.77064 13.0445H9.77093H10.0378C10.1516 13.0445 10.264 13.1063 10.3504 13.2188C10.4368 13.3311 10.4934 13.4897 10.4934 13.6689C10.4934 13.8488 10.4364 14.005 10.3485 14.1053Z" fill="#FCFCFC" stroke="#FCFCFC" stroke-width="0.157424"/>
</svg>
