<svg width="20" height="20" viewBox="0 0 20 20" fill="none" xmlns="http://www.w3.org/2000/svg">
<mask id="path-1-inside-1_4122_84177" fill="white">
<path d="M4.61542 20H11.4792C11.7763 20 12.0703 19.9719 12.3582 19.9125L18.6034 19.9157C19.1669 19.9157 19.6263 19.4503 19.6263 18.8755V18.7225C19.6263 18.4382 19.513 18.1821 19.3323 17.9915C19.513 17.801 19.6233 17.548 19.6233 17.2638V17.1076C19.6233 16.8421 19.5253 16.6016 19.3629 16.4173C19.7366 16.2611 20 15.8863 20 15.4521V15.299C20 14.7243 19.5406 14.2558 18.977 14.2558H15.9816C15.4793 11.7382 13.3292 8.6552 11.127 6.46246C11.3506 6.28129 11.4945 6.00017 11.4945 5.68782C11.4945 5.14119 11.0627 4.69765 10.5267 4.69765H10.4872C12.6088 1.78586 12.7423 1.37011 12.55 1.05713C12.1824 0.444284 11.4198 0.824734 10.8562 0.890954C9.83907 1.03089 9.66633 0.372442 9.2017 0.125368C8.4265 -0.293503 7.63598 0.454592 7.25987 0.657936C6.53551 1.04057 5.62799 0.840977 4.99828 0.604835C4.67209 0.482391 4.36488 0.364008 4.01603 0.421482C3.73333 0.465212 3.54987 0.63857 3.49688 0.940619C3.40898 1.41009 3.92139 2.3684 5.38664 4.47525C5.45219 4.57114 5.50426 4.64548 5.54162 4.70046H5.5404C5.01972 4.71295 4.60011 5.15025 4.60011 5.6875C4.60011 6.00298 4.74713 6.2841 4.97377 6.46215C2.89718 8.52589 0.12532 12.217 0.00586938 15.1425C0.00280655 15.1644 0.00280656 15.18 0.00280656 15.1894C-0.0893845 17.8919 2.10299 20 4.61542 20ZM9.62315 15.7582H6.47456C6.32754 15.7582 6.20197 15.6551 6.1744 15.5083C6.14377 15.3615 6.22034 15.2178 6.35511 15.1585C7.16063 14.8118 7.3444 14.084 7.32603 13.4468H6.95236C6.7839 13.4468 6.64608 13.3093 6.64608 13.1344C6.64608 12.9626 6.7839 12.822 6.95236 12.822H7.25252C7.23108 12.7158 7.20657 12.6221 7.18513 12.5409C7.1055 12.2567 7.08712 11.9787 7.12694 11.7101C7.1882 11.2852 7.38728 10.9573 7.70275 10.7605C8.37045 10.3388 9.31686 10.6387 9.42406 10.6762C9.50123 10.7022 9.56507 10.7585 9.60155 10.8326C9.63802 10.9067 9.64414 10.9926 9.61855 11.0713C9.59296 11.15 9.53777 11.2151 9.46511 11.2523C9.39245 11.2895 9.30827 11.2957 9.2311 11.2696C9.0167 11.1978 8.38576 11.0635 8.02129 11.2915C7.86202 11.3946 7.76707 11.5601 7.73338 11.8038C7.70582 11.9818 7.72113 12.1723 7.77626 12.3691C7.80689 12.4785 7.8467 12.6346 7.87733 12.822H8.9922C9.16066 12.822 9.29848 12.9626 9.29848 13.1344C9.29848 13.3093 9.16066 13.4468 8.9922 13.4468H7.93859C7.94778 13.9965 7.84364 14.6337 7.42097 15.1335H9.62315C9.7916 15.1335 9.92943 15.274 9.92943 15.4458C9.92943 15.6208 9.7916 15.7582 9.62315 15.7582ZM10.4317 17.6792C10.3184 17.6792 10.2173 17.6323 10.1438 17.5605C10.0673 17.4824 10.0213 17.3762 10.0213 17.2606V17.1076C10.0213 16.8796 10.2051 16.6921 10.4317 16.6921H14.441C14.6676 16.6921 14.8514 16.8796 14.8514 17.1076V17.2606C14.8514 17.4918 14.6676 17.6792 14.441 17.6792H10.4317ZM10.5757 13.3187C10.5757 13.0438 10.7931 12.8158 11.0627 12.8158C11.3383 12.8158 11.5558 13.0438 11.5558 13.3187C11.5558 13.5936 11.3383 13.8153 11.0627 13.8153C10.7931 13.8153 10.5757 13.5936 10.5757 13.3187ZM19.0138 18.8755C19.0138 19.1067 18.83 19.291 18.6034 19.291H14.5941C14.4379 19.291 14.3031 19.2035 14.2358 19.0723C14.2051 19.013 14.1868 18.9474 14.1868 18.8755V18.7193C14.1898 18.4882 14.3675 18.3039 14.5941 18.3039H18.6034C18.83 18.3039 19.0138 18.4913 19.0138 18.7225V18.8755ZM18.977 14.8805C19.2037 14.8805 19.3874 15.0679 19.3874 15.299V15.4521C19.3874 15.6832 19.2037 15.8706 18.977 15.8706H14.9678C14.7411 15.8706 14.5574 15.6832 14.5574 15.4521V15.299C14.5574 15.0679 14.7411 14.8805 14.9678 14.8805H18.977ZM0.618435 15.1397C0.734209 12.3491 3.60316 8.64271 5.64453 6.67486H6.1989C6.06322 6.93929 5.98981 7.23232 5.98451 7.53072C5.97838 7.70252 6.11315 7.8462 6.2816 7.85245H6.29079C6.45618 7.85245 6.59095 7.71813 6.59401 7.54634C6.60147 7.2243 6.72087 6.91544 6.93092 6.67486H8.92176C9.1239 6.90601 9.24642 7.20899 9.25561 7.54634C9.25867 7.71813 9.39956 7.85557 9.57108 7.85245C9.73953 7.8462 9.87123 7.70252 9.86817 7.53072C9.86204 7.22149 9.78547 6.931 9.65684 6.67486H10.4562C12.6125 8.76141 14.8085 11.81 15.3537 14.2558H14.9678C14.4042 14.2558 13.9448 14.7243 13.9448 15.299V15.4521C13.9448 15.6832 14.0183 15.8956 14.1439 16.0674H11.8437C12.407 15.265 12.7091 14.3025 12.7074 13.3156C12.7074 10.6949 10.6155 8.5615 8.04885 8.5615C5.47914 8.5615 3.39029 10.6949 3.39029 13.3156C3.39029 15.9394 5.47914 18.0696 8.04885 18.0696C8.57872 18.0696 9.09021 17.9791 9.56495 17.8104C9.60477 17.8791 9.65377 17.9384 9.70584 17.9947C9.52207 18.1821 9.41181 18.4351 9.41181 18.7193V18.8755C9.41181 19.0567 9.45775 19.2285 9.53739 19.3753H4.61542C2.46287 19.3753 0.535738 17.5842 0.615372 15.1866C0.618435 15.1678 0.618435 15.1491 0.618435 15.1397ZM5.51896 13.3187C5.51896 13.5936 5.30456 13.8153 5.02584 13.8153C4.75631 13.8153 4.54192 13.5936 4.54192 13.3187C4.54192 13.0438 4.75631 12.8158 5.02584 12.8158C5.30456 12.8158 5.51896 13.0438 5.51896 13.3187Z"/>
</mask>
<path d="M4.61542 20H11.4792C11.7763 20 12.0703 19.9719 12.3582 19.9125L18.6034 19.9157C19.1669 19.9157 19.6263 19.4503 19.6263 18.8755V18.7225C19.6263 18.4382 19.513 18.1821 19.3323 17.9915C19.513 17.801 19.6233 17.548 19.6233 17.2638V17.1076C19.6233 16.8421 19.5253 16.6016 19.3629 16.4173C19.7366 16.2611 20 15.8863 20 15.4521V15.299C20 14.7243 19.5406 14.2558 18.977 14.2558H15.9816C15.4793 11.7382 13.3292 8.6552 11.127 6.46246C11.3506 6.28129 11.4945 6.00017 11.4945 5.68782C11.4945 5.14119 11.0627 4.69765 10.5267 4.69765H10.4872C12.6088 1.78586 12.7423 1.37011 12.55 1.05713C12.1824 0.444284 11.4198 0.824734 10.8562 0.890954C9.83907 1.03089 9.66633 0.372442 9.2017 0.125368C8.4265 -0.293503 7.63598 0.454592 7.25987 0.657936C6.53551 1.04057 5.62799 0.840977 4.99828 0.604835C4.67209 0.482391 4.36488 0.364008 4.01603 0.421482C3.73333 0.465212 3.54987 0.63857 3.49688 0.940619C3.40898 1.41009 3.92139 2.3684 5.38664 4.47525C5.45219 4.57114 5.50426 4.64548 5.54162 4.70046H5.5404C5.01972 4.71295 4.60011 5.15025 4.60011 5.6875C4.60011 6.00298 4.74713 6.2841 4.97377 6.46215C2.89718 8.52589 0.12532 12.217 0.00586938 15.1425C0.00280655 15.1644 0.00280656 15.18 0.00280656 15.1894C-0.0893845 17.8919 2.10299 20 4.61542 20ZM9.62315 15.7582H6.47456C6.32754 15.7582 6.20197 15.6551 6.1744 15.5083C6.14377 15.3615 6.22034 15.2178 6.35511 15.1585C7.16063 14.8118 7.3444 14.084 7.32603 13.4468H6.95236C6.7839 13.4468 6.64608 13.3093 6.64608 13.1344C6.64608 12.9626 6.7839 12.822 6.95236 12.822H7.25252C7.23108 12.7158 7.20657 12.6221 7.18513 12.5409C7.1055 12.2567 7.08712 11.9787 7.12694 11.7101C7.1882 11.2852 7.38728 10.9573 7.70275 10.7605C8.37045 10.3388 9.31686 10.6387 9.42406 10.6762C9.50123 10.7022 9.56507 10.7585 9.60155 10.8326C9.63802 10.9067 9.64414 10.9926 9.61855 11.0713C9.59296 11.15 9.53777 11.2151 9.46511 11.2523C9.39245 11.2895 9.30827 11.2957 9.2311 11.2696C9.0167 11.1978 8.38576 11.0635 8.02129 11.2915C7.86202 11.3946 7.76707 11.5601 7.73338 11.8038C7.70582 11.9818 7.72113 12.1723 7.77626 12.3691C7.80689 12.4785 7.8467 12.6346 7.87733 12.822H8.9922C9.16066 12.822 9.29848 12.9626 9.29848 13.1344C9.29848 13.3093 9.16066 13.4468 8.9922 13.4468H7.93859C7.94778 13.9965 7.84364 14.6337 7.42097 15.1335H9.62315C9.7916 15.1335 9.92943 15.274 9.92943 15.4458C9.92943 15.6208 9.7916 15.7582 9.62315 15.7582ZM10.4317 17.6792C10.3184 17.6792 10.2173 17.6323 10.1438 17.5605C10.0673 17.4824 10.0213 17.3762 10.0213 17.2606V17.1076C10.0213 16.8796 10.2051 16.6921 10.4317 16.6921H14.441C14.6676 16.6921 14.8514 16.8796 14.8514 17.1076V17.2606C14.8514 17.4918 14.6676 17.6792 14.441 17.6792H10.4317ZM10.5757 13.3187C10.5757 13.0438 10.7931 12.8158 11.0627 12.8158C11.3383 12.8158 11.5558 13.0438 11.5558 13.3187C11.5558 13.5936 11.3383 13.8153 11.0627 13.8153C10.7931 13.8153 10.5757 13.5936 10.5757 13.3187ZM19.0138 18.8755C19.0138 19.1067 18.83 19.291 18.6034 19.291H14.5941C14.4379 19.291 14.3031 19.2035 14.2358 19.0723C14.2051 19.013 14.1868 18.9474 14.1868 18.8755V18.7193C14.1898 18.4882 14.3675 18.3039 14.5941 18.3039H18.6034C18.83 18.3039 19.0138 18.4913 19.0138 18.7225V18.8755ZM18.977 14.8805C19.2037 14.8805 19.3874 15.0679 19.3874 15.299V15.4521C19.3874 15.6832 19.2037 15.8706 18.977 15.8706H14.9678C14.7411 15.8706 14.5574 15.6832 14.5574 15.4521V15.299C14.5574 15.0679 14.7411 14.8805 14.9678 14.8805H18.977ZM0.618435 15.1397C0.734209 12.3491 3.60316 8.64271 5.64453 6.67486H6.1989C6.06322 6.93929 5.98981 7.23232 5.98451 7.53072C5.97838 7.70252 6.11315 7.8462 6.2816 7.85245H6.29079C6.45618 7.85245 6.59095 7.71813 6.59401 7.54634C6.60147 7.2243 6.72087 6.91544 6.93092 6.67486H8.92176C9.1239 6.90601 9.24642 7.20899 9.25561 7.54634C9.25867 7.71813 9.39956 7.85557 9.57108 7.85245C9.73953 7.8462 9.87123 7.70252 9.86817 7.53072C9.86204 7.22149 9.78547 6.931 9.65684 6.67486H10.4562C12.6125 8.76141 14.8085 11.81 15.3537 14.2558H14.9678C14.4042 14.2558 13.9448 14.7243 13.9448 15.299V15.4521C13.9448 15.6832 14.0183 15.8956 14.1439 16.0674H11.8437C12.407 15.265 12.7091 14.3025 12.7074 13.3156C12.7074 10.6949 10.6155 8.5615 8.04885 8.5615C5.47914 8.5615 3.39029 10.6949 3.39029 13.3156C3.39029 15.9394 5.47914 18.0696 8.04885 18.0696C8.57872 18.0696 9.09021 17.9791 9.56495 17.8104C9.60477 17.8791 9.65377 17.9384 9.70584 17.9947C9.52207 18.1821 9.41181 18.4351 9.41181 18.7193V18.8755C9.41181 19.0567 9.45775 19.2285 9.53739 19.3753H4.61542C2.46287 19.3753 0.535738 17.5842 0.615372 15.1866C0.618435 15.1678 0.618435 15.1491 0.618435 15.1397ZM5.51896 13.3187C5.51896 13.5936 5.30456 13.8153 5.02584 13.8153C4.75631 13.8153 4.54192 13.5936 4.54192 13.3187C4.54192 13.0438 4.75631 12.8158 5.02584 12.8158C5.30456 12.8158 5.51896 13.0438 5.51896 13.3187Z" fill="black" stroke="black" stroke-width="0.345137" mask="url(#path-1-inside-1_4122_84177)"/>
</svg>
