<svg width="159" height="65" viewBox="0 0 159 65" fill="none" xmlns="http://www.w3.org/2000/svg">
<rect x="3" y="4.04785" width="54.1183" height="57.9517" rx="7" fill="white" stroke="black" stroke-width="6"/>
<rect x="8.95312" y="13.4863" width="18.3401" height="22.4911" rx="5" fill="#AEAF00"/>
<rect x="32.1484" y="33.8076" width="18.3401" height="22.4911" rx="5" fill="#A7A8B3" fill-opacity="0.8"/>
<rect x="19.2031" y="24.3916" width="18.3401" height="22.4911" rx="5" fill="#0A103E"/>
<rect x="46.6562" width="18.3401" height="22.4911" rx="5" fill="#FFFF00"/>
<path d="M101.12 46.312C102.539 46.312 103.645 46.7227 104.438 47.544C105.232 48.356 105.628 49.588 105.628 51.24C105.628 52.892 105.232 54.1287 104.438 54.95C103.645 55.762 102.539 56.168 101.12 56.168C99.7017 56.168 98.5957 55.762 97.8024 54.95C97.0091 54.1287 96.6124 52.892 96.6124 51.24C96.6124 49.588 97.0091 48.356 97.8024 47.544C98.5957 46.7227 99.7017 46.312 101.12 46.312ZM101.12 47.348C100.364 47.348 99.7484 47.474 99.2724 47.726C98.8057 47.978 98.4557 48.3887 98.2224 48.958C97.9891 49.5273 97.8724 50.288 97.8724 51.24C97.8724 52.192 97.9891 52.9527 98.2224 53.522C98.4557 54.0913 98.8057 54.502 99.2724 54.754C99.7484 55.006 100.364 55.132 101.12 55.132C101.876 55.132 102.488 55.006 102.954 54.754C103.43 54.502 103.785 54.0913 104.018 53.522C104.252 52.9527 104.368 52.192 104.368 51.24C104.368 50.288 104.252 49.5273 104.018 48.958C103.785 48.3887 103.43 47.978 102.954 47.726C102.488 47.474 101.876 47.348 101.12 47.348ZM115.086 49.042H114.274L113.896 47.488H109.22V50.834H111.908L112.118 49.742H112.888V52.976H112.118L111.908 51.842H109.22V54.81L110.494 55.23V56H106.98V55.23L108.016 54.81V47.684L106.98 47.278V46.48H115.086V49.042ZM124.588 49.042H123.776L123.398 47.488H118.722V50.834H121.41L121.62 49.742H122.39V52.976H121.62L121.41 51.842H118.722V54.81L119.996 55.23V56H116.482V55.23L117.518 54.81V47.684L116.482 47.278V46.48H124.588V49.042ZM129.26 47.278L128.224 47.684V54.81L129.26 55.23V56H125.984V55.23L127.02 54.81V47.684L125.984 47.278V46.48H129.26V47.278ZM135.36 47.348C134.52 47.348 133.848 47.474 133.344 47.726C132.84 47.9687 132.467 48.37 132.224 48.93C131.991 49.49 131.874 50.246 131.874 51.198C131.874 52.1687 131.991 52.9433 132.224 53.522C132.467 54.0913 132.836 54.502 133.33 54.754C133.825 55.006 134.474 55.132 135.276 55.132C135.79 55.132 136.317 55.09 136.858 55.006C137.409 54.9127 137.913 54.768 138.37 54.572V55.608C137.978 55.7853 137.507 55.9207 136.956 56.014C136.406 56.1167 135.846 56.168 135.276 56.168C132.168 56.168 130.614 54.5253 130.614 51.24C130.614 49.532 131.025 48.286 131.846 47.502C132.668 46.7087 133.876 46.312 135.472 46.312C136.406 46.312 137.372 46.424 138.37 46.648V49.126H137.39L137.152 47.53C136.574 47.4087 135.976 47.348 135.36 47.348ZM148.242 48.958H147.416L147.052 47.488H142.292V50.708H145.078L145.288 49.63H146.058V52.794H145.288L145.078 51.716H142.292V54.992H147.052L147.416 53.382H148.242V56H140.052V55.23L141.088 54.81V47.684L140.052 47.278V46.48H148.242V48.958Z" fill="black"/>
<path d="M86.8151 39.24V41H83.1351L77.1191 31.976H71.5831V38.248L73.9511 39.24V41H66.4631V39.24L68.8311 38.248V21.992L66.4631 21.064V19.24H79.2311C81.3005 19.24 82.8685 19.784 83.9351 20.872C85.0018 21.9387 85.5351 23.5173 85.5351 25.608C85.5351 27.464 85.0871 28.9253 84.1911 29.992C83.3165 31.0373 82.0258 31.6667 80.3191 31.88L84.6391 38.28L86.8151 39.24ZM71.5831 29.672H78.6551C80.0845 29.672 81.1085 29.3627 81.7271 28.744C82.3458 28.104 82.6551 27.0587 82.6551 25.608C82.6551 24.1787 82.3565 23.144 81.7591 22.504C81.1831 21.864 80.2551 21.544 78.9751 21.544H71.5831V29.672ZM97.2324 21.064L94.8644 21.992V38.28L97.2324 39.24V41H89.7444V39.24L92.1124 38.28V21.992L89.7444 21.064V19.24H97.2324V21.064ZM110.696 28.84C112.467 29.1813 113.779 29.544 114.632 29.928C115.507 30.312 116.136 30.888 116.52 31.656C116.926 32.4027 117.128 33.4907 117.128 34.92C117.128 36.52 116.84 37.7787 116.264 38.696C115.688 39.6133 114.782 40.2747 113.544 40.68C112.307 41.064 110.622 41.256 108.488 41.256C105.608 41.256 102.942 40.936 100.488 40.296V34.6H102.696L103.24 38.28C104.947 38.6853 106.728 38.888 108.584 38.888C110.163 38.888 111.358 38.7707 112.168 38.536C113 38.3013 113.566 37.9387 113.864 37.448C114.163 36.936 114.312 36.2427 114.312 35.368C114.312 34.3013 114.184 33.5547 113.928 33.128C113.672 32.7013 113.16 32.3707 112.392 32.136C111.624 31.9013 110.142 31.5813 107.944 31.176L107.144 31.016C105.395 30.696 104.04 30.312 103.08 29.864C102.142 29.3947 101.47 28.7867 101.064 28.04C100.68 27.2933 100.488 26.3013 100.488 25.064C100.488 23.5493 100.766 22.3547 101.32 21.48C101.896 20.584 102.792 19.944 104.008 19.56C105.224 19.176 106.846 18.984 108.872 18.984C111.368 18.984 113.95 19.2613 116.616 19.816V25.416H114.504L113.992 21.864C112.371 21.5227 110.622 21.352 108.744 21.352C107.272 21.352 106.142 21.4693 105.352 21.704C104.563 21.9173 104.019 22.2587 103.72 22.728C103.443 23.176 103.304 23.7947 103.304 24.584C103.304 25.5653 103.443 26.2693 103.72 26.696C104.019 27.1227 104.552 27.4533 105.32 27.688C106.11 27.9227 107.571 28.2427 109.704 28.648L110.696 28.84ZM142.861 39.208V40.968H135.277V39.208L137.293 38.28L130.253 29.896L125.677 33.48V38.248L128.205 39.24V41H120.557V39.24L122.925 38.248V21.992L120.557 21.064V19.24H128.045V21.064L125.677 21.992V30.664L136.877 21.864L134.989 21.064V19.24H142.541V21.064L140.205 22.12L132.365 28.264L140.813 38.248L142.861 39.208Z" fill="black"/>
</svg>
