<svg width="271" height="25" viewBox="0 0 271 25" fill="none" xmlns="http://www.w3.org/2000/svg">
<path d="M0.226497 12.5L6 18.2735L11.7735 12.5L6 6.7265L0.226497 12.5ZM6 13.5L86 13.5L86 11.5L6 11.5L6 13.5Z" fill="#3A3A3A" fill-opacity="0.8"/>
<path d="M101.472 10.0625C101.419 9.56629 101.195 9.17992 100.801 8.90341C100.411 8.62689 99.9034 8.48864 99.2784 8.48864C98.839 8.48864 98.4621 8.55492 98.1477 8.6875C97.8333 8.82008 97.5928 9 97.4261 9.22727C97.2595 9.45455 97.1742 9.71402 97.1705 10.0057C97.1705 10.2481 97.2254 10.4583 97.3352 10.6364C97.4489 10.8144 97.6023 10.9659 97.7955 11.0909C97.9886 11.2121 98.2027 11.3144 98.4375 11.3977C98.6723 11.4811 98.9091 11.5511 99.1477 11.608L100.239 11.8807C100.678 11.983 101.1 12.1212 101.506 12.2955C101.915 12.4697 102.28 12.6894 102.602 12.9545C102.928 13.2197 103.186 13.5398 103.375 13.9148C103.564 14.2898 103.659 14.7292 103.659 15.233C103.659 15.9148 103.485 16.5152 103.136 17.0341C102.788 17.5492 102.284 17.9527 101.625 18.2443C100.97 18.5322 100.176 18.6761 99.2443 18.6761C98.339 18.6761 97.553 18.536 96.8864 18.2557C96.2235 17.9754 95.7045 17.5663 95.3295 17.0284C94.9583 16.4905 94.7576 15.8352 94.7273 15.0625H96.8011C96.8314 15.4678 96.9564 15.8049 97.1761 16.0739C97.3958 16.3428 97.6818 16.5436 98.0341 16.6761C98.3902 16.8087 98.7879 16.875 99.2273 16.875C99.6856 16.875 100.087 16.8068 100.432 16.6705C100.78 16.5303 101.053 16.3371 101.25 16.0909C101.447 15.8409 101.547 15.5492 101.551 15.2159C101.547 14.9129 101.458 14.6629 101.284 14.4659C101.11 14.2652 100.866 14.0985 100.551 13.9659C100.241 13.8295 99.8769 13.7083 99.4602 13.6023L98.1364 13.2614C97.178 13.0152 96.4205 12.642 95.8636 12.142C95.3106 11.6383 95.0341 10.9697 95.0341 10.1364C95.0341 9.45076 95.2197 8.85038 95.5909 8.33523C95.9659 7.82008 96.4754 7.42045 97.1193 7.13636C97.7633 6.84848 98.4924 6.70455 99.3068 6.70455C100.133 6.70455 100.856 6.84848 101.477 7.13636C102.102 7.42045 102.593 7.81629 102.949 8.32386C103.305 8.82765 103.489 9.4072 103.5 10.0625H101.472ZM115.936 12.6818C115.936 13.9356 115.701 15.0095 115.232 15.9034C114.766 16.7936 114.129 17.4754 113.322 17.9489C112.519 18.4223 111.608 18.6591 110.589 18.6591C109.571 18.6591 108.658 18.4223 107.851 17.9489C107.048 17.4716 106.411 16.7879 105.942 15.8977C105.476 15.0038 105.243 13.9318 105.243 12.6818C105.243 11.428 105.476 10.3561 105.942 9.46591C106.411 8.57197 107.048 7.88826 107.851 7.41477C108.658 6.94129 109.571 6.70455 110.589 6.70455C111.608 6.70455 112.519 6.94129 113.322 7.41477C114.129 7.88826 114.766 8.57197 115.232 9.46591C115.701 10.3561 115.936 11.428 115.936 12.6818ZM113.817 12.6818C113.817 11.7992 113.679 11.0549 113.402 10.4489C113.129 9.83902 112.75 9.37879 112.266 9.06818C111.781 8.75379 111.222 8.59659 110.589 8.59659C109.957 8.59659 109.398 8.75379 108.913 9.06818C108.429 9.37879 108.048 9.83902 107.771 10.4489C107.499 11.0549 107.362 11.7992 107.362 12.6818C107.362 13.5644 107.499 14.3106 107.771 14.9205C108.048 15.5265 108.429 15.9867 108.913 16.3011C109.398 16.6117 109.957 16.767 110.589 16.767C111.222 16.767 111.781 16.6117 112.266 16.3011C112.75 15.9867 113.129 15.5265 113.402 14.9205C113.679 14.3106 113.817 13.5644 113.817 12.6818ZM117.929 18.5V6.86364H120.037V16.733H125.162V18.5H117.929ZM134.327 6.86364H136.435V14.4659C136.435 15.2992 136.238 16.0322 135.844 16.6648C135.454 17.2973 134.904 17.7917 134.196 18.1477C133.488 18.5 132.66 18.6761 131.713 18.6761C130.762 18.6761 129.933 18.5 129.224 18.1477C128.516 17.7917 127.967 17.2973 127.577 16.6648C127.187 16.0322 126.991 15.2992 126.991 14.4659V6.86364H129.099V14.2898C129.099 14.7746 129.205 15.2064 129.418 15.5852C129.634 15.964 129.937 16.2614 130.327 16.4773C130.717 16.6894 131.179 16.7955 131.713 16.7955C132.247 16.7955 132.709 16.6894 133.099 16.4773C133.493 16.2614 133.796 15.964 134.009 15.5852C134.221 15.2064 134.327 14.7746 134.327 14.2898V6.86364ZM138.214 8.63068V6.86364H147.499V8.63068H143.902V18.5H141.811V8.63068H138.214ZM151.396 6.86364V18.5H149.288V6.86364H151.396ZM164.077 12.6818C164.077 13.9356 163.842 15.0095 163.372 15.9034C162.906 16.7936 162.27 17.4754 161.463 17.9489C160.66 18.4223 159.749 18.6591 158.73 18.6591C157.711 18.6591 156.798 18.4223 155.991 17.9489C155.188 17.4716 154.552 16.7879 154.082 15.8977C153.616 15.0038 153.384 13.9318 153.384 12.6818C153.384 11.428 153.616 10.3561 154.082 9.46591C154.552 8.57197 155.188 7.88826 155.991 7.41477C156.798 6.94129 157.711 6.70455 158.73 6.70455C159.749 6.70455 160.66 6.94129 161.463 7.41477C162.27 7.88826 162.906 8.57197 163.372 9.46591C163.842 10.3561 164.077 11.428 164.077 12.6818ZM161.957 12.6818C161.957 11.7992 161.819 11.0549 161.543 10.4489C161.27 9.83902 160.891 9.37879 160.406 9.06818C159.921 8.75379 159.363 8.59659 158.73 8.59659C158.098 8.59659 157.539 8.75379 157.054 9.06818C156.569 9.37879 156.188 9.83902 155.912 10.4489C155.639 11.0549 155.503 11.7992 155.503 12.6818C155.503 13.5644 155.639 14.3106 155.912 14.9205C156.188 15.5265 156.569 15.9867 157.054 16.3011C157.539 16.6117 158.098 16.767 158.73 16.767C159.363 16.767 159.921 16.6117 160.406 16.3011C160.891 15.9867 161.27 15.5265 161.543 14.9205C161.819 14.3106 161.957 13.5644 161.957 12.6818ZM175.632 6.86364V18.5H173.757L168.274 10.5739H168.178V18.5H166.07V6.86364H167.956L173.433 14.7955H173.536V6.86364H175.632Z" fill="#AEAF00"/>
<path d="M270.774 12.5L265 6.7265L259.226 12.5L265 18.2735L270.774 12.5ZM185 13.5L265 13.5L265 11.5L185 11.5L185 13.5Z" fill="#3A3A3A" fill-opacity="0.8"/>
</svg>
