<svg width="20" height="20" viewBox="0 0 20 20" fill="none" xmlns="http://www.w3.org/2000/svg">
<path d="M15.6731 7.49717L15.4242 7.61029L10.0522 10.052L10.0005 10.0755L9.94876 10.052L4.57676 7.61029L4.32786 7.49717L4.57625 7.38293L6.45943 6.51687L15.6731 7.49717ZM15.6731 7.49717L15.4247 7.38293M15.6731 7.49717L15.4247 7.38293M15.4247 7.38293L13.5415 6.51687C13.5415 6.51687 13.5415 6.51686 13.5415 6.51686C13.5415 6.51685 13.5415 6.51685 13.5415 6.51684C13.2908 6.40134 13.1809 6.10447 13.2961 5.85345C13.4115 5.60251 13.7091 5.49332 13.9596 5.60815C13.9596 5.60816 13.9596 5.60816 13.9596 5.60817L17.0845 7.04548C17.0845 7.04548 17.0845 7.04548 17.0845 7.04549C17.2618 7.12708 17.3755 7.30454 17.3755 7.49986V14.9999C17.3755 15.1959 17.261 15.3738 17.0823 15.4549L17.0822 15.4549L10.2072 18.5799L10.207 18.58C10.1415 18.61 10.0711 18.6249 10.0005 18.6249C9.92988 18.6249 9.85945 18.61 9.79398 18.58L9.79373 18.5799L2.91873 15.4549L2.91864 15.4549C2.73998 15.3738 2.62549 15.1959 2.62549 14.9999L2.62572 7.49986V7.49986M15.4247 7.38293L2.62572 7.49986M2.62572 7.49986C2.62572 7.30446 2.73923 7.12705 2.91649 7.04549C2.9165 7.04548 2.9165 7.04548 2.9165 7.04548L6.04108 5.6083C6.04115 5.60827 6.04121 5.60824 6.04128 5.60821C6.29197 5.49411 6.58954 5.60329 6.70482 5.8534M2.62572 7.49986L6.70482 5.8534M6.70482 5.8534C6.82008 6.10443 6.7102 6.40133 6.45949 6.51684L6.70482 5.8534ZM3.80221 8.35648L3.62549 8.27615V8.47028V14.5973V14.6778L3.69876 14.7111L9.32376 17.2679L9.50049 17.3483V17.1541V11.0271V10.9466L9.42721 10.9133L3.80221 8.35648ZM10.5005 17.1541V17.3483L10.6772 17.2679L16.3022 14.7111L16.3755 14.6778V14.5973V8.47028V8.27615L16.1988 8.35648L10.5738 10.9133L10.5005 10.9466V11.0271V17.1541Z" fill="#FCFCFC" stroke="#FCFCFC" stroke-width="0.25"/>
<path d="M7.77075 6.07373L7.45276 8.0238C7.414 8.26001 7.51379 8.49744 7.70941 8.63538C7.90564 8.77301 8.16229 8.78705 8.37195 8.67139L10.001 7.77112L11.63 8.67139C11.7246 8.72357 11.8287 8.74951 11.9324 8.74951C11.9361 8.74951 11.9398 8.74921 11.9449 8.74951C12.2901 8.74951 12.5699 8.46967 12.5699 8.12451C12.5699 8.04669 12.5556 7.97192 12.5297 7.90295L12.2312 6.07373L13.5734 4.6983C13.7369 4.53076 13.7931 4.28571 13.7186 4.06354C13.6442 3.84137 13.4519 3.67932 13.2203 3.64392L11.3907 3.36469L10.5668 1.60901C10.4639 1.38959 10.2433 1.24951 10.001 1.24951C9.75867 1.24951 9.53802 1.38959 9.43518 1.60901L8.61121 3.36469L6.78168 3.64392C6.55005 3.67932 6.35779 3.84137 6.28333 4.06354C6.20886 4.28571 6.26501 4.53076 6.42859 4.6983L7.77075 6.07373ZM9.1297 4.54999C9.33569 4.51825 9.5127 4.38611 9.6012 4.19751L10.001 3.34576L10.4008 4.19751C10.4893 4.38611 10.6663 4.51825 10.8723 4.54999L11.829 4.69617L11.1161 5.42676C10.9775 5.56866 10.9147 5.76794 10.9467 5.96387L11.1085 6.95508L10.3034 6.51013C10.2091 6.45795 10.105 6.43201 10.001 6.43201C9.89691 6.43201 9.79285 6.45795 9.69855 6.51013L8.89349 6.95508L9.05524 5.96387C9.08728 5.76794 9.02441 5.56866 8.88586 5.42676L8.17297 4.69617L9.1297 4.54999ZM2.50098 4.37451C2.50098 4.71967 2.78082 4.99951 3.12598 4.99951C3.47113 4.99951 3.75098 4.71967 3.75098 4.37451V3.74951H4.37598C4.72113 3.74951 5.00098 3.46967 5.00098 3.12451C5.00098 2.77936 4.72113 2.49951 4.37598 2.49951H3.75098V1.87451C3.75098 1.52936 3.47113 1.24951 3.12598 1.24951C2.78082 1.24951 2.50098 1.52936 2.50098 1.87451V2.49951H1.87598C1.53082 2.49951 1.25098 2.77936 1.25098 3.12451C1.25098 3.46967 1.53082 3.74951 1.87598 3.74951H2.50098V4.37451ZM18.126 2.49951H17.501V1.87451C17.501 1.52936 17.2211 1.24951 16.876 1.24951C16.5308 1.24951 16.251 1.52936 16.251 1.87451V2.49951H15.626C15.2808 2.49951 15.001 2.77936 15.001 3.12451C15.001 3.46967 15.2808 3.74951 15.626 3.74951H16.251V4.37451C16.251 4.71967 16.5308 4.99951 16.876 4.99951C17.2211 4.99951 17.501 4.71967 17.501 4.37451V3.74951H18.126C18.4711 3.74951 18.751 3.46967 18.751 3.12451C18.751 2.77936 18.4711 2.49951 18.126 2.49951Z" fill="#FCFCFC"/>
</svg>
